999
DXF file: bulkhead_front.dxf
999
Pro/ENGINEER 2013050 by Parametric Technology Corporation
  0
SECTION
  2
HEADER
  9
$ACADVER
  1
AC1021
  9
$DWGCODEPAGE
  3
ANSI_1252
  9
$EXTMAX
 10
31.5
 20
17.5
 30
0.0
  9
$EXTMIN
 10
0.0
 20
0.0
 30
0.0
  9
$LIMMIN
 10
0.0
 20
0.0
  9
$LIMMAX
 10
31.5
 20
17.5
  9
$VIEWCTR
 10
15.75
 20
8.75
  9
$VIEWSIZE
 40
17.5
  9
$CLAYER
  8
0
  9
$LTSCALE
 40
1.7325
  9
$CELTYPE
  6
BYLAYER
  9
$DIMSCALE
 40
1.0
  9
$DIMASZ
 40
0.1875
  9
$DIMEXO
 40
0.0625
  9
$DIMDLI
 40
1.197
  9
$DIMEXE
 40
0.125
  9
$DIMCEN
 40
0.2835
  9
$DIMLFAC
 40
1.0
  9
$DIMBLK
  1
_CLOSED
  9
$DIMTXT
 40
0.15625
  9
$DIMTOL
 70
0
  9
$DIMLIM
 70
0
  9
$DIMTFAC
 40
1.0
  9
$DIMGAP
 40
0.09
  9
$DIMDSEP
 70
46
  9
$PDMODE
 70
3
  9
$PDSIZE
 40
0.3125
  9
$HANDSEED
  5
24D
  9
$TILEMODE
 70
1
  9
$MEASUREMENT
 70
0
  9
$INSUNITS
 70
1
  0
ENDSEC
  0
SECTION
  2
CLASSES
  0
CLASS
  1
ACDBDICTIONARYWDFLT
  2
AcDbDictionaryWithDefault
  3
AutoCAD 2000
 90
0
 91
1
280
0
281
0
  0
CLASS
  1
ACDBPLACEHOLDER
  2
AcDbPlaceHolder
  3
AutoCAD 2000
 90
0
 91
1
280
0
281
0
  0
CLASS
  1
LAYOUT
  2
AcDbLayout
  3
AutoCAD 2000
 90
0
 91
0
280
0
281
0
  0
ENDSEC
  0
SECTION
  2
TABLES
  0
TABLE
  2
VPORT
  5
8
100
AcDbSymbolTable
 70
2
  0
VPORT
  5
1F4
100
AcDbSymbolTableRecord
100
AcDbViewportTableRecord
  2
*ACTIVE
 70
0
 10
0.0
 20
0.0
 11
1.0
 21
1.0
 12
15.75
 22
8.75
 13
0.0
 23
0.0
 14
1.0
 24
1.0
 15
0.0
 25
0.0
 16
0.0
 26
0.0
 36
1.0
 17
0.0
 27
0.0
 37
0.0
 40
17.5
 41
1.8
 42
50.0
 43
0.0
 44
0.0
 50
0.0
 51
0.0
 71
0
 72
100
 73
1
 74
1
 75
0
 76
0
 77
0
 78
0
  0
ENDTAB
  0
TABLE
  2
LTYPE
  5
5
100
AcDbSymbolTable
 70
6
  0
LTYPE
  5
14
100
AcDbSymbolTableRecord
100
AcDbLinetypeTableRecord
  2
BYBLOCK
 70
0
  3

 72
65
 73
0
 40
0.0
  0
LTYPE
  5
15
100
AcDbSymbolTableRecord
100
AcDbLinetypeTableRecord
  2
BYLAYER
 70
0
  3

 72
65
 73
0
 40
0.0
  0
LTYPE
  5
16
100
AcDbSymbolTableRecord
100
AcDbLinetypeTableRecord
  2
CONTINUOUS
 70
64
  3
Solid line
 72
65
 73
0
 40
0.0
  0
LTYPE
  5
1F5
100
AcDbSymbolTableRecord
100
AcDbLinetypeTableRecord
  2
CENTER
 70
64
  3
____ _ ____ _ ____ _ ____ _ ____ _ ____ _ ____
 72
65
 73
4
 40
0.6
 49
0.375
 74
0
 49
-0.075
 74
0
 49
0.075
 74
0
 49
-0.075
 74
0
  0
LTYPE
  5
1F6
100
AcDbSymbolTableRecord
100
AcDbLinetypeTableRecord
  2
HIDDEN
 70
64
  3
- - - - - - - - - - - - - - - - - - - -
 72
65
 73
2
 40
0.2
 49
0.1
 74
0
 49
-0.1
 74
0
  0
LTYPE
  5
1F7
100
AcDbSymbolTableRecord
100
AcDbLinetypeTableRecord
  2
PHANTOM
 70
64
  3
_____ _ _ _____ _ _ _____ _ _ _____
 72
65
 73
6
 40
0.8
 49
0.45
 74
0
 49
-0.05
 74
0
 49
0.1
 74
0
 49
-0.05
 74
0
 49
0.1
 74
0
 49
-0.05
 74
0
  0
LTYPE
  5
1F8
100
AcDbSymbolTableRecord
100
AcDbLinetypeTableRecord
  2
DOT
 70
64
  3
. . . . . . . . . . . . . . . . . . . .
 72
65
 73
2
 40
0.2
 49
0.1
 74
0
 49
-0.1
 74
0
  0
LTYPE
  5
1F9
100
AcDbSymbolTableRecord
100
AcDbLinetypeTableRecord
  2
DASHED
 70
64
  3
- - - - - - - - - - - - - - - - - - - -
 72
65
 73
2
 40
0.2
 49
0.1
 74
0
 49
-0.1
 74
0
  0
ENDTAB
  0
TABLE
  2
LAYER
  5
2
100
AcDbSymbolTable
 70
36
  0
LAYER
  5
10
100
AcDbSymbolTableRecord
100
AcDbLayerTableRecord
  2
0
 70
0
 62
7
  6
CONTINUOUS
370
-3
390
F
  0
LAYER
  5
1FA
100
AcDbSymbolTableRecord
100
AcDbLayerTableRecord
  2
DEFAULT_1
 70
0
 62
7
  6
CENTER
370
-3
390
F
  0
LAYER
  5
1FB
100
AcDbSymbolTableRecord
100
AcDbLayerTableRecord
  2
DEFAULT_2
 70
0
 62
8
  6
HIDDEN
370
-3
390
F
  0
LAYER
  5
1FC
100
AcDbSymbolTableRecord
100
AcDbLayerTableRecord
  2
DEFAULT_3
 70
0
 62
7
  6
PHANTOM
370
-3
390
F
  0
LAYER
  5
1FD
100
AcDbSymbolTableRecord
100
AcDbLayerTableRecord
  2
01___PRT_ALL_DTM_PLN
 70
0
 62
7
  6
CONTINUOUS
370
-3
390
F
  0
LAYER
  5
1FE
100
AcDbSymbolTableRecord
100
AcDbLayerTableRecord
  2
01___PRT_DEF_DTM_PLN
 70
0
 62
7
  6
CONTINUOUS
370
-3
390
F
  0
LAYER
  5
1FF
100
AcDbSymbolTableRecord
100
AcDbLayerTableRecord
  2
02___PRT_ALL_AXES
 70
0
 62
7
  6
CONTINUOUS
370
-3
390
F
  0
LAYER
  5
200
100
AcDbSymbolTableRecord
100
AcDbLayerTableRecord
  2
03___PRT_ALL_CURVES
 70
0
 62
7
  6
CONTINUOUS
370
-3
390
F
  0
LAYER
  5
201
100
AcDbSymbolTableRecord
100
AcDbLayerTableRecord
  2
04___PRT_ALL_DTM_PNT
 70
0
 62
7
  6
CONTINUOUS
370
-3
390
F
  0
LAYER
  5
202
100
AcDbSymbolTableRecord
100
AcDbLayerTableRecord
  2
05___PRT_ALL_DTM_CSYS
 70
0
 62
7
  6
CONTINUOUS
370
-3
390
F
  0
LAYER
  5
203
100
AcDbSymbolTableRecord
100
AcDbLayerTableRecord
  2
05___PRT_DEF_DTM_CSYS
 70
0
 62
7
  6
CONTINUOUS
370
-3
390
F
  0
LAYER
  5
204
100
AcDbSymbolTableRecord
100
AcDbLayerTableRecord
  2
06___PRT_ALL_SURFS
 70
0
 62
7
  6
CONTINUOUS
370
-3
390
F
  0
ENDTAB
  0
TABLE
  2
STYLE
  5
3
100
AcDbSymbolTable
 70
1
  0
STYLE
  5
11
100
AcDbSymbolTableRecord
100
AcDbTextStyleTableRecord
  2
STANDARD
 70
0
 40
0.0
 41
0.8
 50
0.0
 71
0
 42
0.2
  3
txt
  4

  0
STYLE
  5
205
100
AcDbSymbolTableRecord
100
AcDbTextStyleTableRecord
  2
TEXTSTYLE_1
 70
0
 40
0.0
 41
0.8
 50
0.0
 71
0
 42
0.2
  3
gdt
  4

  0
ENDTAB
  0
TABLE
  2
VIEW
  5
6
100
AcDbSymbolTable
 70
0
  0
ENDTAB
  0
TABLE
  2
UCS
  5
7
100
AcDbSymbolTable
 70
0
  0
ENDTAB
  0
TABLE
  2
APPID
  5
9
100
AcDbSymbolTable
 70
1
  0
APPID
  5
206
100
AcDbSymbolTableRecord
100
AcDbRegAppTableRecord
  2
ACAD
 70
0
  0
ENDTAB
  0
TABLE
  2
BLOCK_RECORD
  5
1
100
AcDbSymbolTable
 70
0
  0
BLOCK_RECORD
  5
207
100
AcDbSymbolTableRecord
100
AcDbBlockTableRecord
  2
*Model_Space
  0
BLOCK_RECORD
  5
208
100
AcDbSymbolTableRecord
100
AcDbBlockTableRecord
  2
*Paper_Space
  0
ENDTAB
  0
TABLE
  2
DIMSTYLE
  5
A
100
AcDbSymbolTable
 70
1
100
AcDbDimStyleTable
 71
0
  0
DIMSTYLE
105
209
100
AcDbSymbolTableRecord
100
AcDbDimStyleTableRecord
  2
STANDARD
 70
0
  3

  4

 40
1.0
 41
0.1875
 42
0.0625
 43
0.38
 44
0.125
 45
0.0
 46
0.0
 47
0.01
 48
0.01
140
0.15625
141
0.09
142
0.0
143
25.4
144
1.0
145
0.0
146
1.0
147
0.09
 71
0.0
 72
0.0
 73
1
 74
1
 75
0
 76
0
 77
0
 78
4
170
0
171
2
172
0
173
0
174
0
175
0
176
0
177
0
178
0
270
2
271
2
272
2
273
2
274
2
275
0
280
0
281
0
282
0
283
1
284
4
285
0
286
0
287
3
288
0
340
11
278
46
  0
ENDTAB
  0
ENDSEC
  0
SECTION
  2
BLOCKS
  0
BLOCK
  5
20
100
AcDbEntity
  8
0
100
AcDbBlockBegin
  2
*Model_Space
 70
0
 10
0.0
 20
0.0
 30
0.0
  3
*Model_Space
  1

  0
ENDBLK
  5
21
100
AcDbEntity
  8
0
100
AcDbBlockEnd
  0
BLOCK
  5
1C
100
AcDbEntity
  8
0
100
AcDbBlockBegin
  2
*Paper_Space
 70
0
 10
0.0
 20
0.0
 30
0.0
  3
*Paper_Space
  1

  0
ENDBLK
  5
1D
100
AcDbEntity
  8
0
100
AcDbBlockEnd
  0
ENDSEC
  0
SECTION
  2
ENTITIES
  0
LINE
  5
20A
100
AcDbEntity
  8
03___PRT_ALL_CURVES
100
AcDbLine
 62
4
  6
CONTINUOUS
 10
1.0261690194
 20
15.3650106087
 11
1.0324509288
 21
15.5449009576
  0
LINE
  5
20B
100
AcDbEntity
  8
03___PRT_ALL_CURVES
100
AcDbLine
 62
4
  6
CONTINUOUS
 10
1.3736593158
 20
16.2702537802
 11
1.4893610856
 21
16.4081417799
  0
LINE
  5
20C
100
AcDbEntity
  8
03___PRT_ALL_CURVES
100
AcDbLine
 62
4
  6
CONTINUOUS
 10
2.1039543447
 20
13.8815663728
 11
1.9309272394
 21
13.9311810968
  0
LINE
  5
20D
100
AcDbEntity
  8
03___PRT_ALL_CURVES
100
AcDbLine
 62
4
  6
CONTINUOUS
 10
1.3096662754
 20
14.4377328664
 11
1.20386493
 21
14.5833559254
  0
LINE
  5
20E
100
AcDbEntity
  8
0
100
AcDbLine
 62
1
  6
CONTINUOUS
 10
1.2023473694
 20
15.5389680432
 11
1.19606546
 21
15.3590776943
  0
LINE
  5
20F
100
AcDbEntity
  8
0
100
AcDbLine
 62
1
  6
CONTINUOUS
 10
1.6195886409
 20
16.2988678863
 11
1.5038868712
 21
16.1609798865
  0
LINE
  5
210
100
AcDbEntity
  8
0
100
AcDbLine
 62
1
  6
CONTINUOUS
 10
1.9777855899
 20
14.0945955852
 11
2.1508126952
 21
14.0449808611
  0
LINE
  5
211
100
AcDbEntity
  8
0
100
AcDbLine
 62
1
  6
CONTINUOUS
 10
1.3413978191
 20
14.6832794183
 11
1.4471991645
 21
14.5376563593
  0
LINE
  5
212
100
AcDbEntity
  8
0
100
AcDbLine
 62
1
  6
CONTINUOUS
 10
1.4394227003
 20
15.035539645
 11
1.4394227003
 21
15.1831358344
  0
LINE
  5
213
100
AcDbEntity
  8
0
100
AcDbLine
 62
1
  6
CONTINUOUS
 10
1.4394227003
 20
15.4429434556
 11
1.4394227003
 21
15.590539645
  0
LINE
  5
214
100
AcDbEntity
  8
0
100
AcDbLine
 62
1
  6
CONTINUOUS
 10
2.7919227003
 20
14.238039645
 11
2.2369227003
 21
14.238039645
  0
LINE
  5
215
100
AcDbEntity
  8
0
100
AcDbLine
 62
1
  6
CONTINUOUS
 10
1.7644227003
 20
15.590539645
 11
1.7644227003
 21
15.035539645
  0
LINE
  5
216
100
AcDbEntity
  8
0
100
AcDbLine
 62
1
  6
CONTINUOUS
 10
2.2369227003
 20
14.563039645
 11
2.7919227003
 21
14.563039645
  0
LINE
  5
217
100
AcDbEntity
  8
0
100
AcDbLine
 62
1
  6
CONTINUOUS
 10
2.2369227003
 20
14.238039645
 11
2.2369227003
 21
14.563039645
  0
LINE
  5
218
100
AcDbEntity
  8
0
100
AcDbLine
 62
1
  6
CONTINUOUS
 10
2.2369227003
 20
16.063039645
 11
2.2369227003
 21
16.388039645
  0
LINE
  5
219
100
AcDbEntity
  8
0
100
AcDbLine
 62
1
  6
CONTINUOUS
 10
3.5894227003
 20
15.035539645
 11
3.2644227003
 21
15.035539645
  0
LINE
  5
21A
100
AcDbEntity
  8
0
100
AcDbLine
 62
1
  6
CONTINUOUS
 10
1.7644227003
 20
15.035539645
 11
1.4394227003
 21
15.035539645
  0
LINE
  5
21B
100
AcDbEntity
  8
0
100
AcDbLine
 62
1
  6
CONTINUOUS
 10
1.9777855899
 20
14.0945955852
 11
1.9309272394
 21
13.9311810968
  0
LINE
  5
21C
100
AcDbEntity
  8
0
100
AcDbLine
 62
1
  6
CONTINUOUS
 10
1.20386493
 20
14.5833559254
 11
1.3413978191
 21
14.6832794183
  0
LINE
  5
21D
100
AcDbEntity
  8
0
100
AcDbLine
 62
1
  6
CONTINUOUS
 10
3.8457967134
 20
15.318383097
 11
4.0141422851
 21
15.3420425242
  0
LINE
  5
21E
100
AcDbEntity
  8
0
100
AcDbLine
 62
1
  6
CONTINUOUS
 10
3.5668494973
 20
14.4975746536
 11
3.714073816
 21
14.4125746536
  0
LINE
  5
21F
100
AcDbEntity
  8
0
100
AcDbLine
 62
1
  6
CONTINUOUS
 10
2.841695954
 20
14.0225058281
 11
2.9053790749
 21
13.8648845728
  0
LINE
  5
220
100
AcDbEntity
  8
0
100
AcDbLine
 62
1
  6
CONTINUOUS
 10
2.1508126952
 20
14.0449808611
 11
2.1009666666
 21
13.8711471011
  0
LINE
  5
221
100
AcDbEntity
  8
0
100
AcDbLine
 62
1
  6
CONTINUOUS
 10
3.556410256
 20
16.3920493455
 11
3.4307888181
 21
16.2619645385
  0
LINE
  5
222
100
AcDbEntity
  8
0
100
AcDbLine
 62
1
  6
CONTINUOUS
 10
1.3008972088
 20
14.4313617666
 11
1.4471991645
 21
14.5376563593
  0
LINE
  5
223
100
AcDbEntity
  8
0
100
AcDbLine
 62
1
  6
CONTINUOUS
 10
3.8207455553
 20
15.4966313494
 11
3.9998248035
 21
15.5217992964
  0
LINE
  5
224
100
AcDbEntity
  8
0
100
AcDbLine
 62
1
  6
CONTINUOUS
 10
1.19606546
 20
15.3590776943
 11
1.0153364598
 21
15.3653888901
  0
LINE
  5
225
100
AcDbEntity
  8
0
100
AcDbLine
 62
1
  6
CONTINUOUS
 10
3.6568494973
 20
14.6534592262
 11
3.813460806
 21
14.563039645
  0
LINE
  5
226
100
AcDbEntity
  8
0
100
AcDbLine
 62
1
  6
CONTINUOUS
 10
1.5038868712
 20
16.1609798865
 11
1.3653560357
 21
16.2772210595
  0
LINE
  5
227
100
AcDbEntity
  8
0
100
AcDbLine
 62
1
  6
CONTINUOUS
 10
3.0085890479
 20
14.0899350149
 11
3.0763325905
 21
13.9222638631
  0
LINE
  5
228
100
AcDbEntity
  8
0
100
AcDbLine
 62
1
  6
CONTINUOUS
 10
2.7919227003
 20
16.388039645
 11
2.7919227003
 21
16.063039645
  0
LINE
  5
229
100
AcDbEntity
  8
0
100
AcDbLine
 62
1
  6
CONTINUOUS
 10
2.7919227003
 20
14.563039645
 11
2.7919227003
 21
14.238039645
  0
LINE
  5
22A
100
AcDbEntity
  8
0
100
AcDbLine
 62
1
  6
CONTINUOUS
 10
3.6783619051
 20
16.2592137978
 11
3.5602699822
 21
16.1369260318
  0
LINE
  5
22B
100
AcDbEntity
  8
0
100
AcDbLine
 62
1
  6
CONTINUOUS
 10
1.4394227003
 20
15.590539645
 11
1.7644227003
 21
15.590539645
  0
LINE
  5
22C
100
AcDbEntity
  8
0
100
AcDbLine
 62
1
  6
CONTINUOUS
 10
3.2644227003
 20
15.590539645
 11
3.5894227003
 21
15.590539645
  0
LINE
  5
22D
100
AcDbEntity
  8
0
100
AcDbLine
 62
1
  6
CONTINUOUS
 10
1.0324509288
 20
15.5449009576
 11
1.2023473694
 21
15.5389680432
  0
LINE
  5
22E
100
AcDbEntity
  8
0
100
AcDbLine
 62
1
  6
CONTINUOUS
 10
1.4893610856
 20
16.4081417799
 11
1.6195886409
 21
16.2988678863
  0
LINE
  5
22F
100
AcDbEntity
  8
0
100
AcDbLine
 62
1
  6
CONTINUOUS
 10
3.2644227003
 20
15.035539645
 11
3.2644227003
 21
15.590539645
  0
LINE
  5
230
100
AcDbEntity
  8
0
100
AcDbLine
 62
1
  6
CONTINUOUS
 10
2.7919227003
 20
16.063039645
 11
2.2369227003
 21
16.063039645
  0
LINE
  5
231
100
AcDbEntity
  8
0
100
AcDbLine
 62
1
  6
CONTINUOUS
 10
3.5894227003
 20
15.590539645
 11
3.5894227003
 21
15.4429434556
  0
LINE
  5
232
100
AcDbEntity
  8
0
100
AcDbLine
 62
1
  6
CONTINUOUS
 10
3.5894227003
 20
15.1831358344
 11
3.5894227003
 21
15.035539645
  0
LINE
  5
233
100
AcDbEntity
  8
0
100
AcDbLine
 62
1
  6
CONTINUOUS
 10
2.2369227003
 20
16.388039645
 11
2.7919227003
 21
16.388039645
  0
LINE
  5
234
100
AcDbEntity
  8
0
100
AcDbLine
 62
1
  6
CONTINUOUS
 10
3.5668494973
 20
14.4975746536
 11
3.6568494973
 21
14.6534592262
  0
LINE
  5
235
100
AcDbEntity
  8
0
100
AcDbLine
 62
1
  6
CONTINUOUS
 10
2.841695954
 20
14.0225058281
 11
3.0085890479
 21
14.0899350149
  0
LINE
  5
236
100
AcDbEntity
  8
0
100
AcDbLine
 62
1
  6
CONTINUOUS
 10
3.5602699822
 20
16.1369260318
 11
3.4307888181
 21
16.2619645385
  0
LINE
  5
237
100
AcDbEntity
  8
0
100
AcDbLine
 62
1
  6
CONTINUOUS
 10
3.8457967134
 20
15.318383097
 11
3.8207455553
 21
15.4966313494
  0
LINE
  5
238
100
AcDbEntity
  8
03___PRT_ALL_CURVES
100
AcDbLine
 62
4
  6
CONTINUOUS
 10
3.714073816
 20
14.4125746536
 11
3.804073816
 21
14.5684592262
  0
LINE
  5
239
100
AcDbEntity
  8
03___PRT_ALL_CURVES
100
AcDbLine
 62
4
  6
CONTINUOUS
 10
2.9053790749
 20
13.8648845728
 11
3.0722721687
 21
13.9323137596
  0
LINE
  5
23A
100
AcDbEntity
  8
03___PRT_ALL_CURVES
100
AcDbLine
 62
4
  6
CONTINUOUS
 10
3.5488807411
 20
16.3842523045
 11
3.6783619051
 21
16.2592137978
  0
LINE
  5
23B
100
AcDbEntity
  8
03___PRT_ALL_CURVES
100
AcDbLine
 62
4
  6
CONTINUOUS
 10
3.989091127
 20
15.5202907766
 11
4.0141422851
 21
15.3420425242
  0
ARC
  5
23C
100
AcDbEntity
  8
0
100
AcDbCircle
 62
1
  6
CONTINUOUS
 10
2.5144227003
 20
15.313039645
 40
1.5
100
AcDbArc
 50
46.0
 51
133.1078974207
  0
ARC
  5
23D
100
AcDbEntity
  8
0
100
AcDbCircle
 62
1
  6
CONTINUOUS
 10
2.5144227003
 20
15.313039645
 40
1.5
100
AcDbArc
 50
8.0
 51
39.1078974207
  0
ARC
  5
23E
100
AcDbEntity
  8
0
100
AcDbCircle
 62
1
  6
CONTINUOUS
 10
2.5144227003
 20
15.313039645
 40
1.5
100
AcDbArc
 50
330.0
 51
1.1078974207
  0
ARC
  5
23F
100
AcDbEntity
  8
0
100
AcDbCircle
 62
1
  6
CONTINUOUS
 10
2.5144227003
 20
15.313039645
 40
1.5
100
AcDbArc
 50
292.0
 51
323.1078974207
  0
ARC
  5
240
100
AcDbEntity
  8
0
100
AcDbCircle
 62
1
  6
CONTINUOUS
 10
2.5144227003
 20
15.313039645
 40
1.5
100
AcDbArc
 50
254.0
 51
285.1078974207
  0
ARC
  5
241
100
AcDbEntity
  8
0
100
AcDbCircle
 62
1
  6
CONTINUOUS
 10
2.5144227003
 20
15.313039645
 40
1.5
100
AcDbArc
 50
216.0
 51
247.1078974207
  0
ARC
  5
242
100
AcDbEntity
  8
0
100
AcDbCircle
 62
1
  6
CONTINUOUS
 10
2.5144227003
 20
15.313039645
 40
1.5
100
AcDbArc
 50
178.0
 51
209.1078974207
  0
ARC
  5
243
100
AcDbEntity
  8
0
100
AcDbCircle
 62
1
  6
CONTINUOUS
 10
2.5144227003
 20
15.313039645
 40
1.5
100
AcDbArc
 50
140.0
 51
171.1078974207
  0
CIRCLE
  5
244
100
AcDbEntity
  8
0
100
AcDbCircle
 62
1
  6
CONTINUOUS
 10
2.5144227003
 20
15.313039645
 40
0.2565
  0
ARC
  5
245
100
AcDbEntity
  8
0
100
AcDbCircle
 62
1
  6
CONTINUOUS
 10
3.5144227003
 20
15.313039645
 40
0.15
100
AcDbArc
 50
300.0
 51
60.0
  0
ARC
  5
246
100
AcDbEntity
  8
0
100
AcDbCircle
 62
1
  6
CONTINUOUS
 10
1.5144227003
 20
15.313039645
 40
0.15
100
AcDbArc
 50
120.0
 51
240.0
  0
CIRCLE
  5
247
100
AcDbEntity
  8
0
100
AcDbCircle
 62
1
  6
CONTINUOUS
 10
1.7189227003
 20
16.108539645
 40
0.069
  0
CIRCLE
  5
248
100
AcDbEntity
  8
02___PRT_ALL_AXES
100
AcDbCircle
 62
1
  6
CONTINUOUS
 10
3.3099227003
 20
16.108539645
 40
0.069
  0
CIRCLE
  5
249
100
AcDbEntity
  8
02___PRT_ALL_AXES
100
AcDbCircle
 62
1
  6
CONTINUOUS
 10
3.3099227003
 20
14.517539645
 40
0.069
  0
CIRCLE
  5
24A
100
AcDbEntity
  8
02___PRT_ALL_AXES
100
AcDbCircle
 62
1
  6
CONTINUOUS
 10
1.7189227003
 20
14.517539645
 40
0.069
  0
ENDSEC
  0
SECTION
  2
OBJECTS
  0
DICTIONARY
  5
C
100
AcDbDictionary
280
0
281
1
  3
ACAD_GROUP
350
D
  3
ACAD_MLINESTYLE
350
17
  3
ACAD_LAYOUT
350
1A
  3
ACAD_PLOTSETTINGS
350
19
  3
ACAD_PLOTSTYLENAME
350
E
  0
DICTIONARY
  5
D
102
{ACAD_REACTORS
330
C
102
}
100
AcDbDictionary
280
0
281
1
  0
ACDBDICTIONARYWDFLT
  5
E
102
{ACAD_REACTORS
330
C
102
}
100
AcDbDictionary
281
1
  3
Normal
350
F
100
AcDbDictionaryWithDefault
340
F
  0
DICTIONARY
  5
17
102
{ACAD_REACTORS
330
C
102
}
100
AcDbDictionary
280
0
281
1
  3
Standard
350
18
  0
DICTIONARY
  5
19
102
{ACAD_REACTORS
330
C
102
}
100
AcDbDictionary
281
1
  0
DICTIONARY
  5
1A
102
{ACAD_REACTORS
330
C
102
}
100
AcDbDictionary
281
1
  3
Model
350
24B
  3
Layout1
350
24C
  0
ACDBPLACEHOLDER
  5
F
102
{ACAD_REACTORS
330
E
102
}
  0
MLINESTYLE
  5
18
102
{ACAD_REACTORS
330
17
102
}
100
AcDbMlineStyle
  2
STANDARD
 70
0
  3

 62
256
 51
90.0
 52
90.0
 71
2
 49
0.5
 62
256
  6
BYLAYER
 49
-0.5
 62
256
  6
BYLAYER
  0
LAYOUT
  5
24B
102
{ACAD_REACTORS
330
1A
102
}
100
AcDbPlotSettings
  1

  2
none_device
  4

  6

 40
0.0
 41
0.0
 42
0.0
 43
0.0
 44
800.1
 45
444.5
 46
0.0
 47
0.0
 48
0.0
 49
0.0
140
0.0
141
0.0
142
1.0
143
1.0
 70
1024
 72
0
 73
0
 74
0
  7

 75
0
147
1.0
148
0.0
149
0.0
100
AcDbLayout
  1
Model
 70
0
 71
0
 10
0.0
 20
0.0
 11
31.5
 21
17.5
 12
0.0
 22
0.0
 32
0.0
 14
0.0
 24
0.0
 34
0.0
 15
0.0
 25
0.0
 35
0.0
146
0.0
 13
0.0
 23
0.0
 33
0.0
 16
1.0
 26
0.0
 36
0.0
 17
0.0
 27
1.0
 37
0.0
 76
0
330
207
345
0
346
0
  0
LAYOUT
  5
24C
102
{ACAD_REACTORS
330
1A
102
}
100
AcDbPlotSettings
  1

  2
none_device
  4

  6

 40
0.0
 41
0.0
 42
0.0
 43
0.0
 44
800.1
 45
444.5
 46
0.0
 47
0.0
 48
0.0
 49
0.0
140
0.0
141
0.0
142
1.0
143
1.0
 70
0
 72
0
 73
0
 74
0
  7

 75
0
147
1.0
148
0.0
149
0.0
100
AcDbLayout
  1
Layout1
 70
0
 71
1
 10
0.0
 20
0.0
 11
31.5
 21
17.5
 12
0.0
 22
0.0
 32
0.0
 14
0.0
 24
0.0
 34
0.0
 15
0.0
 25
0.0
 35
0.0
146
0.0
 13
0.0
 23
0.0
 33
0.0
 16
1.0
 26
0.0
 36
0.0
 17
0.0
 27
1.0
 37
0.0
 76
0
330
208
345
0
346
0
  0
ENDSEC
  0
EOF
