999
DXF file: full_wing_ribs.dxf
999
Pro/ENGINEER 2013230 by Parametric Technology Corporation
  0
SECTION
  2
HEADER
  9
$ACADVER
  1
AC1021
  9
$DWGCODEPAGE
  3
ANSI_1252
  9
$EXTMAX
 10
31.5
 20
17.5
 30
0.0
  9
$EXTMIN
 10
0.0
 20
0.0
 30
0.0
  9
$LIMMIN
 10
0.0
 20
0.0
  9
$LIMMAX
 10
31.5
 20
17.5
  9
$VIEWCTR
 10
15.75
 20
8.75
  9
$VIEWSIZE
 40
17.5
  9
$CLAYER
  8
0
  9
$LTSCALE
 40
1.7325
  9
$CELTYPE
  6
BYLAYER
  9
$DIMSCALE
 40
1.0
  9
$DIMASZ
 40
0.1875
  9
$DIMEXO
 40
0.0625
  9
$DIMDLI
 40
1.197
  9
$DIMEXE
 40
0.125
  9
$DIMCEN
 40
0.2835
  9
$DIMLFAC
 40
1.0
  9
$DIMBLK
  1
_CLOSED
  9
$DIMTXT
 40
0.15625
  9
$DIMTOL
 70
0
  9
$DIMLIM
 70
0
  9
$DIMTFAC
 40
1.0
  9
$DIMGAP
 40
0.09
  9
$DIMDSEP
 70
46
  9
$PDMODE
 70
3
  9
$PDSIZE
 40
0.3125
  9
$HANDSEED
  5
2BB
  9
$TILEMODE
 70
1
  9
$MEASUREMENT
 70
0
  9
$INSUNITS
 70
1
  0
ENDSEC
  0
SECTION
  2
CLASSES
  0
CLASS
  1
ACDBDICTIONARYWDFLT
  2
AcDbDictionaryWithDefault
  3
AutoCAD 2000
 90
0
 91
1
280
0
281
0
  0
CLASS
  1
ACDBPLACEHOLDER
  2
AcDbPlaceHolder
  3
AutoCAD 2000
 90
0
 91
1
280
0
281
0
  0
CLASS
  1
LAYOUT
  2
AcDbLayout
  3
AutoCAD 2000
 90
0
 91
0
280
0
281
0
  0
ENDSEC
  0
SECTION
  2
TABLES
  0
TABLE
  2
VPORT
  5
8
100
AcDbSymbolTable
 70
2
  0
VPORT
  5
1F4
100
AcDbSymbolTableRecord
100
AcDbViewportTableRecord
  2
*ACTIVE
 70
0
 10
0.0
 20
0.0
 11
1.0
 21
1.0
 12
15.75
 22
8.75
 13
0.0
 23
0.0
 14
1.0
 24
1.0
 15
0.0
 25
0.0
 16
0.0
 26
0.0
 36
1.0
 17
0.0
 27
0.0
 37
0.0
 40
17.5
 41
1.8
 42
50.0
 43
0.0
 44
0.0
 50
0.0
 51
0.0
 71
0
 72
100
 73
1
 74
1
 75
0
 76
0
 77
0
 78
0
  0
ENDTAB
  0
TABLE
  2
LTYPE
  5
5
100
AcDbSymbolTable
 70
6
  0
LTYPE
  5
14
100
AcDbSymbolTableRecord
100
AcDbLinetypeTableRecord
  2
BYBLOCK
 70
0
  3

 72
65
 73
0
 40
0.0
  0
LTYPE
  5
15
100
AcDbSymbolTableRecord
100
AcDbLinetypeTableRecord
  2
BYLAYER
 70
0
  3

 72
65
 73
0
 40
0.0
  0
LTYPE
  5
16
100
AcDbSymbolTableRecord
100
AcDbLinetypeTableRecord
  2
CONTINUOUS
 70
64
  3
Solid line
 72
65
 73
0
 40
0.0
  0
LTYPE
  5
1F5
100
AcDbSymbolTableRecord
100
AcDbLinetypeTableRecord
  2
CENTER
 70
64
  3
____ _ ____ _ ____ _ ____ _ ____ _ ____ _ ____
 72
65
 73
4
 40
0.6
 49
0.375
 74
0
 49
-0.075
 74
0
 49
0.075
 74
0
 49
-0.075
 74
0
  0
LTYPE
  5
1F6
100
AcDbSymbolTableRecord
100
AcDbLinetypeTableRecord
  2
HIDDEN
 70
64
  3
- - - - - - - - - - - - - - - - - - - -
 72
65
 73
2
 40
0.2
 49
0.1
 74
0
 49
-0.1
 74
0
  0
LTYPE
  5
1F7
100
AcDbSymbolTableRecord
100
AcDbLinetypeTableRecord
  2
PHANTOM
 70
64
  3
_____ _ _ _____ _ _ _____ _ _ _____
 72
65
 73
6
 40
0.8
 49
0.45
 74
0
 49
-0.05
 74
0
 49
0.1
 74
0
 49
-0.05
 74
0
 49
0.1
 74
0
 49
-0.05
 74
0
  0
LTYPE
  5
1F8
100
AcDbSymbolTableRecord
100
AcDbLinetypeTableRecord
  2
DOT
 70
64
  3
. . . . . . . . . . . . . . . . . . . .
 72
65
 73
2
 40
0.2
 49
0.1
 74
0
 49
-0.1
 74
0
  0
LTYPE
  5
1F9
100
AcDbSymbolTableRecord
100
AcDbLinetypeTableRecord
  2
DASHED
 70
64
  3
- - - - - - - - - - - - - - - - - - - -
 72
65
 73
2
 40
0.2
 49
0.1
 74
0
 49
-0.1
 74
0
  0
ENDTAB
  0
TABLE
  2
LAYER
  5
2
100
AcDbSymbolTable
 70
36
  0
LAYER
  5
10
100
AcDbSymbolTableRecord
100
AcDbLayerTableRecord
  2
0
 70
0
 62
7
  6
CONTINUOUS
370
-3
390
F
  0
LAYER
  5
1FA
100
AcDbSymbolTableRecord
100
AcDbLayerTableRecord
  2
DEFAULT_1
 70
0
 62
7
  6
CENTER
370
-3
390
F
  0
LAYER
  5
1FB
100
AcDbSymbolTableRecord
100
AcDbLayerTableRecord
  2
DEFAULT_2
 70
0
 62
8
  6
HIDDEN
370
-3
390
F
  0
LAYER
  5
1FC
100
AcDbSymbolTableRecord
100
AcDbLayerTableRecord
  2
DEFAULT_3
 70
0
 62
7
  6
PHANTOM
370
-3
390
F
  0
LAYER
  5
1FD
100
AcDbSymbolTableRecord
100
AcDbLayerTableRecord
  2
01___PRT_ALL_DTM_PLN
 70
0
 62
7
  6
CONTINUOUS
370
-3
390
F
  0
LAYER
  5
1FE
100
AcDbSymbolTableRecord
100
AcDbLayerTableRecord
  2
01___PRT_DEF_DTM_PLN
 70
0
 62
7
  6
CONTINUOUS
370
-3
390
F
  0
LAYER
  5
1FF
100
AcDbSymbolTableRecord
100
AcDbLayerTableRecord
  2
02___PRT_ALL_AXES
 70
0
 62
7
  6
CONTINUOUS
370
-3
390
F
  0
LAYER
  5
200
100
AcDbSymbolTableRecord
100
AcDbLayerTableRecord
  2
03___PRT_ALL_CURVES
 70
0
 62
7
  6
CONTINUOUS
370
-3
390
F
  0
LAYER
  5
201
100
AcDbSymbolTableRecord
100
AcDbLayerTableRecord
  2
04___PRT_ALL_DTM_PNT
 70
0
 62
7
  6
CONTINUOUS
370
-3
390
F
  0
LAYER
  5
202
100
AcDbSymbolTableRecord
100
AcDbLayerTableRecord
  2
05___PRT_ALL_DTM_CSYS
 70
0
 62
7
  6
CONTINUOUS
370
-3
390
F
  0
LAYER
  5
203
100
AcDbSymbolTableRecord
100
AcDbLayerTableRecord
  2
05___PRT_DEF_DTM_CSYS
 70
0
 62
7
  6
CONTINUOUS
370
-3
390
F
  0
LAYER
  5
204
100
AcDbSymbolTableRecord
100
AcDbLayerTableRecord
  2
06___PRT_ALL_SURFS
 70
0
 62
7
  6
CONTINUOUS
370
-3
390
F
  0
ENDTAB
  0
TABLE
  2
STYLE
  5
3
100
AcDbSymbolTable
 70
1
  0
STYLE
  5
11
100
AcDbSymbolTableRecord
100
AcDbTextStyleTableRecord
  2
STANDARD
 70
0
 40
0.0
 41
0.8
 50
0.0
 71
0
 42
0.2
  3
txt
  4

  0
STYLE
  5
205
100
AcDbSymbolTableRecord
100
AcDbTextStyleTableRecord
  2
TEXTSTYLE_1
 70
0
 40
0.0
 41
0.8
 50
0.0
 71
0
 42
0.2
  3
gdt
  4

  0
ENDTAB
  0
TABLE
  2
VIEW
  5
6
100
AcDbSymbolTable
 70
0
  0
ENDTAB
  0
TABLE
  2
UCS
  5
7
100
AcDbSymbolTable
 70
0
  0
ENDTAB
  0
TABLE
  2
APPID
  5
9
100
AcDbSymbolTable
 70
1
  0
APPID
  5
206
100
AcDbSymbolTableRecord
100
AcDbRegAppTableRecord
  2
ACAD
 70
0
  0
ENDTAB
  0
TABLE
  2
BLOCK_RECORD
  5
1
100
AcDbSymbolTable
 70
0
  0
BLOCK_RECORD
  5
207
100
AcDbSymbolTableRecord
100
AcDbBlockTableRecord
  2
*Model_Space
  0
BLOCK_RECORD
  5
208
100
AcDbSymbolTableRecord
100
AcDbBlockTableRecord
  2
*Paper_Space
  0
ENDTAB
  0
TABLE
  2
DIMSTYLE
  5
A
100
AcDbSymbolTable
 70
1
100
AcDbDimStyleTable
 71
0
  0
DIMSTYLE
105
209
100
AcDbSymbolTableRecord
100
AcDbDimStyleTableRecord
  2
STANDARD
 70
0
  3

  4

 40
1.0
 41
0.1875
 42
0.0625
 43
0.38
 44
0.125
 45
0.0
 46
0.0
 47
0.01
 48
0.01
140
0.15625
141
0.09
142
0.0
143
25.4
144
1.0
145
0.0
146
1.0
147
0.09
 71
0.0
 72
0.0
 73
1
 74
1
 75
0
 76
0
 77
0
 78
4
170
0
171
2
172
0
173
0
174
0
175
0
176
0
177
0
178
0
270
2
271
2
272
2
273
2
274
2
275
0
280
0
281
0
282
0
283
1
284
4
285
0
286
0
287
3
288
0
340
11
278
46
  0
ENDTAB
  0
ENDSEC
  0
SECTION
  2
BLOCKS
  0
BLOCK
  5
20
100
AcDbEntity
  8
0
100
AcDbBlockBegin
  2
*Model_Space
 70
0
 10
0.0
 20
0.0
 30
0.0
  3
*Model_Space
  1

  0
ENDBLK
  5
21
100
AcDbEntity
  8
0
100
AcDbBlockEnd
  0
BLOCK
  5
1C
100
AcDbEntity
  8
0
100
AcDbBlockBegin
  2
*Paper_Space
 70
0
 10
0.0
 20
0.0
 30
0.0
  3
*Paper_Space
  1

  0
ENDBLK
  5
1D
100
AcDbEntity
  8
0
100
AcDbBlockEnd
  0
ENDSEC
  0
SECTION
  2
ENTITIES
  0
LINE
  5
20A
100
AcDbEntity
  8
0
100
AcDbLine
 62
1
  6
CONTINUOUS
 10
24.1388348042
 20
16.2254159673
 11
24.1388348042
 21
16.3954159673
  0
LINE
  5
20B
100
AcDbEntity
  8
0
100
AcDbLine
 62
1
  6
CONTINUOUS
 10
24.1388348042
 20
17.1755469006
 11
24.1388348042
 21
17.3455469006
  0
LINE
  5
20C
100
AcDbEntity
  8
0
100
AcDbLine
 62
1
  6
CONTINUOUS
 10
24.3188348042
 20
17.3390061745
 11
24.3188348042
 21
17.1755469006
  0
LINE
  5
20D
100
AcDbEntity
  8
0
100
AcDbLine
 62
1
  6
CONTINUOUS
 10
24.3188348042
 20
16.3954159673
 11
24.3188348042
 21
16.2156687617
  0
LINE
  5
20E
100
AcDbEntity
  8
0
100
AcDbLine
 62
1
  6
CONTINUOUS
 10
25.7778348042
 20
16.5500690436
 11
25.7778348042
 21
16.5750690436
  0
LINE
  5
20F
100
AcDbEntity
  8
0
100
AcDbLine
 62
1
  6
CONTINUOUS
 10
29.1910857329
 20
16.8172776041
 11
28.5178676506
 21
16.7027187571
  0
LINE
  5
210
100
AcDbEntity
  8
0
100
AcDbLine
 62
1
  6
CONTINUOUS
 10
24.1388348042
 20
16.3954159673
 11
24.3188348042
 21
16.3954159673
  0
LINE
  5
211
100
AcDbEntity
  8
0
100
AcDbLine
 62
1
  6
CONTINUOUS
 10
27.4978348042
 20
16.5000690436
 11
25.8278348042
 21
16.5000690436
  0
LINE
  5
212
100
AcDbEntity
  8
0
100
AcDbLine
 62
1
  6
CONTINUOUS
 10
27.7388348042
 20
16.5735100488
 11
27.9188348042
 21
16.5735100488
  0
LINE
  5
213
100
AcDbEntity
  8
0
100
AcDbLine
 62
1
  6
CONTINUOUS
 10
25.8278348042
 20
16.6250690436
 11
27.4978348042
 21
16.6250690436
  0
LINE
  5
214
100
AcDbEntity
  8
0
100
AcDbLine
 62
1
  6
CONTINUOUS
 10
28.4977371023
 20
16.9165690436
 11
29.1826980044
 21
16.9165690436
  0
LINE
  5
215
100
AcDbEntity
  8
0
100
AcDbLine
 62
1
  6
CONTINUOUS
 10
27.9188348042
 20
17.0430355432
 11
27.7388348042
 21
17.0430355432
  0
LINE
  5
216
100
AcDbEntity
  8
0
100
AcDbLine
 62
1
  6
CONTINUOUS
 10
24.3188348042
 20
17.1755469006
 11
24.1388348042
 21
17.1755469006
  0
LINE
  5
217
100
AcDbEntity
  8
0
100
AcDbLine
 62
1
  6
CONTINUOUS
 10
27.5478348042
 20
16.5750690436
 11
27.5478348042
 21
16.5500690436
  0
LINE
  5
218
100
AcDbEntity
  8
0
100
AcDbLine
 62
1
  6
CONTINUOUS
 10
27.7388348042
 20
16.378687535
 11
27.7388348042
 21
16.5735100488
  0
LINE
  5
219
100
AcDbEntity
  8
0
100
AcDbLine
 62
1
  6
CONTINUOUS
 10
27.7388348042
 20
17.0430355432
 11
27.7388348042
 21
17.2130355432
  0
LINE
  5
21A
100
AcDbEntity
  8
0
100
AcDbLine
 62
1
  6
CONTINUOUS
 10
27.9188348042
 20
17.2064257752
 11
27.9188348042
 21
17.0430355432
  0
LINE
  5
21B
100
AcDbEntity
  8
0
100
AcDbLine
 62
1
  6
CONTINUOUS
 10
27.9188348042
 20
16.5735100488
 11
27.9188348042
 21
16.4035100488
  0
LINE
  5
21C
100
AcDbEntity
  8
0
100
AcDbLine
 62
1
  6
CONTINUOUS
 10
24.1388348042
 20
14.8536417737
 11
24.1388348042
 21
15.0236417737
  0
LINE
  5
21D
100
AcDbEntity
  8
0
100
AcDbLine
 62
1
  6
CONTINUOUS
 10
24.1388348042
 20
15.8037727071
 11
24.1388348042
 21
15.9737727071
  0
LINE
  5
21E
100
AcDbEntity
  8
0
100
AcDbLine
 62
1
  6
CONTINUOUS
 10
24.3188348042
 20
15.967231981
 11
24.3188348042
 21
15.8037727071
  0
LINE
  5
21F
100
AcDbEntity
  8
0
100
AcDbLine
 62
1
  6
CONTINUOUS
 10
24.3188348042
 20
15.0236417737
 11
24.3188348042
 21
14.8438945682
  0
LINE
  5
220
100
AcDbEntity
  8
0
100
AcDbLine
 62
1
  6
CONTINUOUS
 10
25.7778348042
 20
15.1782948501
 11
25.7778348042
 21
15.2032948501
  0
LINE
  5
221
100
AcDbEntity
  8
0
100
AcDbLine
 62
1
  6
CONTINUOUS
 10
29.1910857329
 20
15.4455034105
 11
28.5178676506
 21
15.3309445636
  0
LINE
  5
222
100
AcDbEntity
  8
0
100
AcDbLine
 62
1
  6
CONTINUOUS
 10
24.1388348042
 20
15.0236417737
 11
24.3188348042
 21
15.0236417737
  0
LINE
  5
223
100
AcDbEntity
  8
0
100
AcDbLine
 62
1
  6
CONTINUOUS
 10
27.4978348042
 20
15.1282948501
 11
25.8278348042
 21
15.1282948501
  0
LINE
  5
224
100
AcDbEntity
  8
0
100
AcDbLine
 62
1
  6
CONTINUOUS
 10
27.7388348042
 20
15.2017358552
 11
27.9188348042
 21
15.2017358552
  0
LINE
  5
225
100
AcDbEntity
  8
0
100
AcDbLine
 62
1
  6
CONTINUOUS
 10
25.8278348042
 20
15.2532948501
 11
27.4978348042
 21
15.2532948501
  0
LINE
  5
226
100
AcDbEntity
  8
0
100
AcDbLine
 62
1
  6
CONTINUOUS
 10
28.4977371023
 20
15.5447948501
 11
29.1826980044
 21
15.5447948501
  0
LINE
  5
227
100
AcDbEntity
  8
0
100
AcDbLine
 62
1
  6
CONTINUOUS
 10
27.9188348042
 20
15.6712613497
 11
27.7388348042
 21
15.6712613497
  0
LINE
  5
228
100
AcDbEntity
  8
0
100
AcDbLine
 62
1
  6
CONTINUOUS
 10
24.3188348042
 20
15.8037727071
 11
24.1388348042
 21
15.8037727071
  0
LINE
  5
229
100
AcDbEntity
  8
0
100
AcDbLine
 62
1
  6
CONTINUOUS
 10
27.5478348042
 20
15.2032948501
 11
27.5478348042
 21
15.1782948501
  0
LINE
  5
22A
100
AcDbEntity
  8
0
100
AcDbLine
 62
1
  6
CONTINUOUS
 10
27.7388348042
 20
15.0069133414
 11
27.7388348042
 21
15.2017358552
  0
LINE
  5
22B
100
AcDbEntity
  8
0
100
AcDbLine
 62
1
  6
CONTINUOUS
 10
27.7388348042
 20
15.6712613497
 11
27.7388348042
 21
15.8412613497
  0
LINE
  5
22C
100
AcDbEntity
  8
0
100
AcDbLine
 62
1
  6
CONTINUOUS
 10
27.9188348042
 20
15.8346515816
 11
27.9188348042
 21
15.6712613497
  0
LINE
  5
22D
100
AcDbEntity
  8
0
100
AcDbLine
 62
1
  6
CONTINUOUS
 10
27.9188348042
 20
15.2017358552
 11
27.9188348042
 21
15.0317358552
  0
LINE
  5
22E
100
AcDbEntity
  8
0
100
AcDbLine
 62
1
  6
CONTINUOUS
 10
24.1674134333
 20
13.5676034673
 11
24.1674134333
 21
13.7376034673
  0
LINE
  5
22F
100
AcDbEntity
  8
0
100
AcDbLine
 62
1
  6
CONTINUOUS
 10
24.1674134333
 20
14.5177344006
 11
24.1674134333
 21
14.6877344006
  0
LINE
  5
230
100
AcDbEntity
  8
0
100
AcDbLine
 62
1
  6
CONTINUOUS
 10
24.3474134333
 20
14.6811936745
 11
24.3474134333
 21
14.5177344006
  0
LINE
  5
231
100
AcDbEntity
  8
0
100
AcDbLine
 62
1
  6
CONTINUOUS
 10
24.3474134333
 20
13.7376034673
 11
24.3474134333
 21
13.5578562617
  0
LINE
  5
232
100
AcDbEntity
  8
0
100
AcDbLine
 62
1
  6
CONTINUOUS
 10
25.8064134333
 20
13.8922565436
 11
25.8064134333
 21
13.9172565436
  0
LINE
  5
233
100
AcDbEntity
  8
0
100
AcDbLine
 62
1
  6
CONTINUOUS
 10
29.2196643619
 20
14.1594651041
 11
28.5464462797
 21
14.0449062571
  0
LINE
  5
234
100
AcDbEntity
  8
0
100
AcDbLine
 62
1
  6
CONTINUOUS
 10
24.1674134333
 20
13.7376034673
 11
24.3474134333
 21
13.7376034673
  0
LINE
  5
235
100
AcDbEntity
  8
0
100
AcDbLine
 62
1
  6
CONTINUOUS
 10
27.5264134333
 20
13.8422565436
 11
25.8564134333
 21
13.8422565436
  0
LINE
  5
236
100
AcDbEntity
  8
0
100
AcDbLine
 62
1
  6
CONTINUOUS
 10
27.7674134333
 20
13.9156975488
 11
27.9474134333
 21
13.9156975488
  0
LINE
  5
237
100
AcDbEntity
  8
0
100
AcDbLine
 62
1
  6
CONTINUOUS
 10
25.8564134333
 20
13.9672565436
 11
27.5264134333
 21
13.9672565436
  0
LINE
  5
238
100
AcDbEntity
  8
0
100
AcDbLine
 62
1
  6
CONTINUOUS
 10
28.5263157313
 20
14.2587565436
 11
29.2112766334
 21
14.2587565436
  0
LINE
  5
239
100
AcDbEntity
  8
0
100
AcDbLine
 62
1
  6
CONTINUOUS
 10
27.9474134333
 20
14.3852230432
 11
27.7674134333
 21
14.3852230432
  0
LINE
  5
23A
100
AcDbEntity
  8
0
100
AcDbLine
 62
1
  6
CONTINUOUS
 10
24.3474134333
 20
14.5177344006
 11
24.1674134333
 21
14.5177344006
  0
LINE
  5
23B
100
AcDbEntity
  8
0
100
AcDbLine
 62
1
  6
CONTINUOUS
 10
27.5764134333
 20
13.9172565436
 11
27.5764134333
 21
13.8922565436
  0
LINE
  5
23C
100
AcDbEntity
  8
0
100
AcDbLine
 62
1
  6
CONTINUOUS
 10
27.7674134333
 20
13.720875035
 11
27.7674134333
 21
13.9156975488
  0
LINE
  5
23D
100
AcDbEntity
  8
0
100
AcDbLine
 62
1
  6
CONTINUOUS
 10
27.7674134333
 20
14.3852230432
 11
27.7674134333
 21
14.5552230432
  0
LINE
  5
23E
100
AcDbEntity
  8
0
100
AcDbLine
 62
1
  6
CONTINUOUS
 10
27.9474134333
 20
14.5486132752
 11
27.9474134333
 21
14.3852230432
  0
LINE
  5
23F
100
AcDbEntity
  8
0
100
AcDbLine
 62
1
  6
CONTINUOUS
 10
27.9474134333
 20
13.9156975488
 11
27.9474134333
 21
13.7456975488
  0
LINE
  5
240
100
AcDbEntity
  8
0
100
AcDbLine
 62
1
  6
CONTINUOUS
 10
14.3069862155
 20
16.219814556
 11
14.3069862155
 21
16.389814556
  0
LINE
  5
241
100
AcDbEntity
  8
0
100
AcDbLine
 62
1
  6
CONTINUOUS
 10
14.3069862155
 20
17.1699454893
 11
14.3069862155
 21
17.3399454893
  0
LINE
  5
242
100
AcDbEntity
  8
0
100
AcDbLine
 62
1
  6
CONTINUOUS
 10
14.4869862155
 20
17.3334047632
 11
14.4869862155
 21
17.1699454893
  0
LINE
  5
243
100
AcDbEntity
  8
0
100
AcDbLine
 62
1
  6
CONTINUOUS
 10
14.4869862155
 20
16.389814556
 11
14.4869862155
 21
16.2100673504
  0
LINE
  5
244
100
AcDbEntity
  8
0
100
AcDbLine
 62
1
  6
CONTINUOUS
 10
15.9459862155
 20
16.5444676323
 11
15.9459862155
 21
16.5694676323
  0
LINE
  5
245
100
AcDbEntity
  8
0
100
AcDbLine
 62
1
  6
CONTINUOUS
 10
19.3592371442
 20
16.8116761928
 11
18.6860190619
 21
16.6971173459
  0
LINE
  5
246
100
AcDbEntity
  8
0
100
AcDbLine
 62
1
  6
CONTINUOUS
 10
14.3069862155
 20
16.389814556
 11
14.4869862155
 21
16.389814556
  0
LINE
  5
247
100
AcDbEntity
  8
0
100
AcDbLine
 62
1
  6
CONTINUOUS
 10
17.6659862155
 20
16.4944676323
 11
15.9959862155
 21
16.4944676323
  0
LINE
  5
248
100
AcDbEntity
  8
0
100
AcDbLine
 62
1
  6
CONTINUOUS
 10
17.9069862155
 20
16.5679086375
 11
18.0869862155
 21
16.5679086375
  0
LINE
  5
249
100
AcDbEntity
  8
0
100
AcDbLine
 62
1
  6
CONTINUOUS
 10
15.9959862155
 20
16.6194676323
 11
17.6659862155
 21
16.6194676323
  0
LINE
  5
24A
100
AcDbEntity
  8
0
100
AcDbLine
 62
1
  6
CONTINUOUS
 10
18.6658885136
 20
16.9109676323
 11
19.3508494157
 21
16.9109676323
  0
LINE
  5
24B
100
AcDbEntity
  8
0
100
AcDbLine
 62
1
  6
CONTINUOUS
 10
18.0869862155
 20
17.0374341319
 11
17.9069862155
 21
17.0374341319
  0
LINE
  5
24C
100
AcDbEntity
  8
0
100
AcDbLine
 62
1
  6
CONTINUOUS
 10
14.4869862155
 20
17.1699454893
 11
14.3069862155
 21
17.1699454893
  0
LINE
  5
24D
100
AcDbEntity
  8
0
100
AcDbLine
 62
1
  6
CONTINUOUS
 10
17.7159862155
 20
16.5694676323
 11
17.7159862155
 21
16.5444676323
  0
LINE
  5
24E
100
AcDbEntity
  8
0
100
AcDbLine
 62
1
  6
CONTINUOUS
 10
17.9069862155
 20
16.3730861237
 11
17.9069862155
 21
16.5679086375
  0
LINE
  5
24F
100
AcDbEntity
  8
0
100
AcDbLine
 62
1
  6
CONTINUOUS
 10
17.9069862155
 20
17.0374341319
 11
17.9069862155
 21
17.2074341319
  0
LINE
  5
250
100
AcDbEntity
  8
0
100
AcDbLine
 62
1
  6
CONTINUOUS
 10
18.0869862155
 20
17.2008243639
 11
18.0869862155
 21
17.0374341319
  0
LINE
  5
251
100
AcDbEntity
  8
0
100
AcDbLine
 62
1
  6
CONTINUOUS
 10
18.0869862155
 20
16.5679086375
 11
18.0869862155
 21
16.3979086375
  0
LINE
  5
252
100
AcDbEntity
  8
0
100
AcDbLine
 62
1
  6
CONTINUOUS
 10
14.3069862155
 20
14.8766189915
 11
14.3069862155
 21
15.0466189915
  0
LINE
  5
253
100
AcDbEntity
  8
0
100
AcDbLine
 62
1
  6
CONTINUOUS
 10
14.3069862155
 20
15.8267499248
 11
14.3069862155
 21
15.9967499248
  0
LINE
  5
254
100
AcDbEntity
  8
0
100
AcDbLine
 62
1
  6
CONTINUOUS
 10
14.4869862155
 20
15.9902091987
 11
14.4869862155
 21
15.8267499248
  0
LINE
  5
255
100
AcDbEntity
  8
0
100
AcDbLine
 62
1
  6
CONTINUOUS
 10
14.4869862155
 20
15.0466189915
 11
14.4869862155
 21
14.8668717859
  0
LINE
  5
256
100
AcDbEntity
  8
0
100
AcDbLine
 62
1
  6
CONTINUOUS
 10
15.9459862155
 20
15.2012720678
 11
15.9459862155
 21
15.2262720678
  0
LINE
  5
257
100
AcDbEntity
  8
0
100
AcDbLine
 62
1
  6
CONTINUOUS
 10
19.3592371442
 20
15.4684806283
 11
18.6860190619
 21
15.3539217813
  0
LINE
  5
258
100
AcDbEntity
  8
0
100
AcDbLine
 62
1
  6
CONTINUOUS
 10
14.3069862155
 20
15.0466189915
 11
14.4869862155
 21
15.0466189915
  0
LINE
  5
259
100
AcDbEntity
  8
0
100
AcDbLine
 62
1
  6
CONTINUOUS
 10
17.6659862155
 20
15.1512720678
 11
15.9959862155
 21
15.1512720678
  0
LINE
  5
25A
100
AcDbEntity
  8
0
100
AcDbLine
 62
1
  6
CONTINUOUS
 10
17.9069862155
 20
15.2247130729
 11
18.0869862155
 21
15.2247130729
  0
LINE
  5
25B
100
AcDbEntity
  8
0
100
AcDbLine
 62
1
  6
CONTINUOUS
 10
15.9959862155
 20
15.2762720678
 11
17.6659862155
 21
15.2762720678
  0
LINE
  5
25C
100
AcDbEntity
  8
0
100
AcDbLine
 62
1
  6
CONTINUOUS
 10
18.6658885136
 20
15.5677720678
 11
19.3508494157
 21
15.5677720678
  0
LINE
  5
25D
100
AcDbEntity
  8
0
100
AcDbLine
 62
1
  6
CONTINUOUS
 10
18.0869862155
 20
15.6942385674
 11
17.9069862155
 21
15.6942385674
  0
LINE
  5
25E
100
AcDbEntity
  8
0
100
AcDbLine
 62
1
  6
CONTINUOUS
 10
14.4869862155
 20
15.8267499248
 11
14.3069862155
 21
15.8267499248
  0
LINE
  5
25F
100
AcDbEntity
  8
0
100
AcDbLine
 62
1
  6
CONTINUOUS
 10
17.7159862155
 20
15.2262720678
 11
17.7159862155
 21
15.2012720678
  0
LINE
  5
260
100
AcDbEntity
  8
0
100
AcDbLine
 62
1
  6
CONTINUOUS
 10
17.9069862155
 20
15.0298905592
 11
17.9069862155
 21
15.2247130729
  0
LINE
  5
261
100
AcDbEntity
  8
0
100
AcDbLine
 62
1
  6
CONTINUOUS
 10
17.9069862155
 20
15.6942385674
 11
17.9069862155
 21
15.8642385674
  0
LINE
  5
262
100
AcDbEntity
  8
0
100
AcDbLine
 62
1
  6
CONTINUOUS
 10
18.0869862155
 20
15.8576287994
 11
18.0869862155
 21
15.6942385674
  0
LINE
  5
263
100
AcDbEntity
  8
0
100
AcDbLine
 62
1
  6
CONTINUOUS
 10
18.0869862155
 20
15.2247130729
 11
18.0869862155
 21
15.0547130729
  0
CIRCLE
  5
264
100
AcDbEntity
  8
02___PRT_ALL_AXES
100
AcDbCircle
 62
1
  6
CONTINUOUS
 10
25.1558348042
 20
16.7750690436
 40
0.3
  0
CIRCLE
  5
265
100
AcDbEntity
  8
02___PRT_ALL_AXES
100
AcDbCircle
 62
1
  6
CONTINUOUS
 10
23.2428348042
 20
16.9165690436
 40
0.2625
  0
CIRCLE
  5
266
100
AcDbEntity
  8
02___PRT_ALL_AXES
100
AcDbCircle
 62
1
  6
CONTINUOUS
 10
24.1248348042
 20
16.8309939312
 40
0.225
  0
CIRCLE
  5
267
100
AcDbEntity
  8
02___PRT_ALL_AXES
100
AcDbCircle
 62
1
  6
CONTINUOUS
 10
22.4208348042
 20
17.0490690436
 40
0.15
  0
ARC
  5
268
100
AcDbEntity
  8
0
100
AcDbCircle
 62
1
  6
CONTINUOUS
 10
28.4977371023
 20
16.821018212
 40
0.12
100
AcDbArc
 50
185.8469519999
 51
279.6572905625
  0
ARC
  5
269
100
AcDbEntity
  8
0
100
AcDbCircle
 62
1
  6
CONTINUOUS
 10
28.4977371023
 20
16.7965690436
 40
0.12
100
AcDbArc
 50
90.0
 51
174.1530480001
  0
ARC
  5
26A
100
AcDbEntity
  8
0
100
AcDbCircle
 62
1
  6
CONTINUOUS
 10
27.4978348042
 20
16.5750690436
 40
0.05
100
AcDbArc
 50
0.0
 51
90.0
  0
ARC
  5
26B
100
AcDbEntity
  8
0
100
AcDbCircle
 62
1
  6
CONTINUOUS
 10
27.4978348042
 20
16.5500690436
 40
0.05
100
AcDbArc
 50
270.0
 51
360.0
  0
ARC
  5
26C
100
AcDbEntity
  8
0
100
AcDbCircle
 62
1
  6
CONTINUOUS
 10
25.8278348042
 20
16.5750690436
 40
0.05
100
AcDbArc
 50
90.0
 51
180.0
  0
ARC
  5
26D
100
AcDbEntity
  8
0
100
AcDbCircle
 62
1
  6
CONTINUOUS
 10
25.8278348042
 20
16.5500690436
 40
0.05
100
AcDbArc
 50
180.0
 51
270.0
  0
ARC
  5
26E
100
AcDbEntity
  8
0
100
AcDbCircle
 62
1
  6
CONTINUOUS
 10
29.1826980044
 20
16.8665690436
 40
0.05
100
AcDbArc
 50
279.6572905625
 51
90.0
  0
CIRCLE
  5
26F
100
AcDbEntity
  8
02___PRT_ALL_AXES
100
AcDbCircle
 62
1
  6
CONTINUOUS
 10
25.1558348042
 20
15.4032948501
 40
0.3
  0
CIRCLE
  5
270
100
AcDbEntity
  8
02___PRT_ALL_AXES
100
AcDbCircle
 62
1
  6
CONTINUOUS
 10
23.2428348042
 20
15.5447948501
 40
0.2625
  0
CIRCLE
  5
271
100
AcDbEntity
  8
02___PRT_ALL_AXES
100
AcDbCircle
 62
1
  6
CONTINUOUS
 10
24.1248348042
 20
15.4592197377
 40
0.225
  0
CIRCLE
  5
272
100
AcDbEntity
  8
02___PRT_ALL_AXES
100
AcDbCircle
 62
1
  6
CONTINUOUS
 10
22.4208348042
 20
15.6772948501
 40
0.15
  0
ARC
  5
273
100
AcDbEntity
  8
0
100
AcDbCircle
 62
1
  6
CONTINUOUS
 10
28.4977371023
 20
15.4492440185
 40
0.12
100
AcDbArc
 50
185.8469519999
 51
279.6572905625
  0
ARC
  5
274
100
AcDbEntity
  8
0
100
AcDbCircle
 62
1
  6
CONTINUOUS
 10
28.4977371023
 20
15.4247948501
 40
0.12
100
AcDbArc
 50
90.0
 51
174.1530480001
  0
ARC
  5
275
100
AcDbEntity
  8
0
100
AcDbCircle
 62
1
  6
CONTINUOUS
 10
27.4978348042
 20
15.2032948501
 40
0.05
100
AcDbArc
 50
0.0
 51
90.0
  0
ARC
  5
276
100
AcDbEntity
  8
0
100
AcDbCircle
 62
1
  6
CONTINUOUS
 10
27.4978348042
 20
15.1782948501
 40
0.05
100
AcDbArc
 50
270.0
 51
360.0
  0
ARC
  5
277
100
AcDbEntity
  8
0
100
AcDbCircle
 62
1
  6
CONTINUOUS
 10
25.8278348042
 20
15.2032948501
 40
0.05
100
AcDbArc
 50
90.0
 51
180.0
  0
ARC
  5
278
100
AcDbEntity
  8
0
100
AcDbCircle
 62
1
  6
CONTINUOUS
 10
25.8278348042
 20
15.1782948501
 40
0.05
100
AcDbArc
 50
180.0
 51
270.0
  0
ARC
  5
279
100
AcDbEntity
  8
0
100
AcDbCircle
 62
1
  6
CONTINUOUS
 10
29.1826980044
 20
15.4947948501
 40
0.05
100
AcDbArc
 50
279.6572905625
 51
90.0
  0
CIRCLE
  5
27A
100
AcDbEntity
  8
02___PRT_ALL_AXES
100
AcDbCircle
 62
1
  6
CONTINUOUS
 10
25.1844134333
 20
14.1172565436
 40
0.3
  0
CIRCLE
  5
27B
100
AcDbEntity
  8
02___PRT_ALL_AXES
100
AcDbCircle
 62
1
  6
CONTINUOUS
 10
23.2714134333
 20
14.2587565436
 40
0.2625
  0
CIRCLE
  5
27C
100
AcDbEntity
  8
02___PRT_ALL_AXES
100
AcDbCircle
 62
1
  6
CONTINUOUS
 10
24.1534134333
 20
14.1731814312
 40
0.225
  0
CIRCLE
  5
27D
100
AcDbEntity
  8
02___PRT_ALL_AXES
100
AcDbCircle
 62
1
  6
CONTINUOUS
 10
22.4494134333
 20
14.3912565436
 40
0.15
  0
ARC
  5
27E
100
AcDbEntity
  8
0
100
AcDbCircle
 62
1
  6
CONTINUOUS
 10
28.5263157313
 20
14.163205712
 40
0.12
100
AcDbArc
 50
185.8469519999
 51
279.6572905625
  0
ARC
  5
27F
100
AcDbEntity
  8
0
100
AcDbCircle
 62
1
  6
CONTINUOUS
 10
28.5263157313
 20
14.1387565436
 40
0.12
100
AcDbArc
 50
90.0
 51
174.1530480001
  0
ARC
  5
280
100
AcDbEntity
  8
0
100
AcDbCircle
 62
1
  6
CONTINUOUS
 10
27.5264134333
 20
13.9172565436
 40
0.05
100
AcDbArc
 50
0.0
 51
90.0
  0
ARC
  5
281
100
AcDbEntity
  8
0
100
AcDbCircle
 62
1
  6
CONTINUOUS
 10
27.5264134333
 20
13.8922565436
 40
0.05
100
AcDbArc
 50
270.0
 51
360.0
  0
ARC
  5
282
100
AcDbEntity
  8
0
100
AcDbCircle
 62
1
  6
CONTINUOUS
 10
25.8564134333
 20
13.9172565436
 40
0.05
100
AcDbArc
 50
90.0
 51
180.0
  0
ARC
  5
283
100
AcDbEntity
  8
0
100
AcDbCircle
 62
1
  6
CONTINUOUS
 10
25.8564134333
 20
13.8922565436
 40
0.05
100
AcDbArc
 50
180.0
 51
270.0
  0
ARC
  5
284
100
AcDbEntity
  8
0
100
AcDbCircle
 62
1
  6
CONTINUOUS
 10
29.2112766334
 20
14.2087565436
 40
0.05
100
AcDbArc
 50
279.6572905625
 51
90.0
  0
CIRCLE
  5
285
100
AcDbEntity
  8
02___PRT_ALL_AXES
100
AcDbCircle
 62
1
  6
CONTINUOUS
 10
15.3239862155
 20
16.7694676323
 40
0.3
  0
CIRCLE
  5
286
100
AcDbEntity
  8
02___PRT_ALL_AXES
100
AcDbCircle
 62
1
  6
CONTINUOUS
 10
13.4109862155
 20
16.9109676323
 40
0.2625
  0
CIRCLE
  5
287
100
AcDbEntity
  8
02___PRT_ALL_AXES
100
AcDbCircle
 62
1
  6
CONTINUOUS
 10
14.2929862155
 20
16.8253925199
 40
0.225
  0
CIRCLE
  5
288
100
AcDbEntity
  8
02___PRT_ALL_AXES
100
AcDbCircle
 62
1
  6
CONTINUOUS
 10
12.5889862155
 20
17.0434676323
 40
0.15
  0
ARC
  5
289
100
AcDbEntity
  8
0
100
AcDbCircle
 62
1
  6
CONTINUOUS
 10
18.6658885136
 20
16.8154168007
 40
0.12
100
AcDbArc
 50
185.8469519999
 51
279.6572905625
  0
ARC
  5
28A
100
AcDbEntity
  8
0
100
AcDbCircle
 62
1
  6
CONTINUOUS
 10
18.6658885136
 20
16.7909676323
 40
0.12
100
AcDbArc
 50
90.0
 51
174.1530480001
  0
ARC
  5
28B
100
AcDbEntity
  8
0
100
AcDbCircle
 62
1
  6
CONTINUOUS
 10
17.6659862155
 20
16.5694676323
 40
0.05
100
AcDbArc
 50
0.0
 51
90.0
  0
ARC
  5
28C
100
AcDbEntity
  8
0
100
AcDbCircle
 62
1
  6
CONTINUOUS
 10
17.6659862155
 20
16.5444676323
 40
0.05
100
AcDbArc
 50
270.0
 51
360.0
  0
ARC
  5
28D
100
AcDbEntity
  8
0
100
AcDbCircle
 62
1
  6
CONTINUOUS
 10
15.9959862155
 20
16.5694676323
 40
0.05
100
AcDbArc
 50
90.0
 51
180.0
  0
ARC
  5
28E
100
AcDbEntity
  8
0
100
AcDbCircle
 62
1
  6
CONTINUOUS
 10
15.9959862155
 20
16.5444676323
 40
0.05
100
AcDbArc
 50
180.0
 51
270.0
  0
ARC
  5
28F
100
AcDbEntity
  8
0
100
AcDbCircle
 62
1
  6
CONTINUOUS
 10
19.3508494157
 20
16.8609676323
 40
0.05
100
AcDbArc
 50
279.6572905625
 51
90.0
  0
CIRCLE
  5
290
100
AcDbEntity
  8
02___PRT_ALL_AXES
100
AcDbCircle
 62
1
  6
CONTINUOUS
 10
15.3239862155
 20
15.4262720678
 40
0.3
  0
CIRCLE
  5
291
100
AcDbEntity
  8
02___PRT_ALL_AXES
100
AcDbCircle
 62
1
  6
CONTINUOUS
 10
13.4109862155
 20
15.5677720678
 40
0.2625
  0
CIRCLE
  5
292
100
AcDbEntity
  8
02___PRT_ALL_AXES
100
AcDbCircle
 62
1
  6
CONTINUOUS
 10
14.2929862155
 20
15.4821969554
 40
0.225
  0
CIRCLE
  5
293
100
AcDbEntity
  8
02___PRT_ALL_AXES
100
AcDbCircle
 62
1
  6
CONTINUOUS
 10
12.5889862155
 20
15.7002720678
 40
0.15
  0
ARC
  5
294
100
AcDbEntity
  8
0
100
AcDbCircle
 62
1
  6
CONTINUOUS
 10
18.6658885136
 20
15.4722212362
 40
0.12
100
AcDbArc
 50
185.8469519999
 51
279.6572905625
  0
ARC
  5
295
100
AcDbEntity
  8
0
100
AcDbCircle
 62
1
  6
CONTINUOUS
 10
18.6658885136
 20
15.4477720678
 40
0.12
100
AcDbArc
 50
90.0
 51
174.1530480001
  0
ARC
  5
296
100
AcDbEntity
  8
0
100
AcDbCircle
 62
1
  6
CONTINUOUS
 10
17.6659862155
 20
15.2262720678
 40
0.05
100
AcDbArc
 50
0.0
 51
90.0
  0
ARC
  5
297
100
AcDbEntity
  8
0
100
AcDbCircle
 62
1
  6
CONTINUOUS
 10
17.6659862155
 20
15.2012720678
 40
0.05
100
AcDbArc
 50
270.0
 51
360.0
  0
ARC
  5
298
100
AcDbEntity
  8
0
100
AcDbCircle
 62
1
  6
CONTINUOUS
 10
15.9959862155
 20
15.2262720678
 40
0.05
100
AcDbArc
 50
90.0
 51
180.0
  0
ARC
  5
299
100
AcDbEntity
  8
0
100
AcDbCircle
 62
1
  6
CONTINUOUS
 10
15.9959862155
 20
15.2012720678
 40
0.05
100
AcDbArc
 50
180.0
 51
270.0
  0
ARC
  5
29A
100
AcDbEntity
  8
0
100
AcDbCircle
 62
1
  6
CONTINUOUS
 10
19.3508494157
 20
15.5177720678
 40
0.05
100
AcDbArc
 50
279.6572905625
 51
90.0
  0
SPLINE
  5
29B
100
AcDbEntity
  8
0
100
AcDbSpline
 62
1
  6
CONTINUOUS
 70
0
 71
3
 72
26
 73
22
 74
0
 42
0.0000001
 43
0.0000001
 44
0.0000000001
 40
0.0
 40
0.0
 40
0.0
 40
0.0
 40
0.0315799317
 40
0.0877229056
 40
0.1438647874
 40
0.2000053636
 40
0.2561450852
 40
0.3122843778
 40
0.3684236807
 40
0.4245633305
 40
0.4807033393
 40
0.5368435643
 40
0.5929839131
 40
0.6491242619
 40
0.7052645075
 40
0.7614046603
 40
0.8175447514
 40
0.8736848219
 40
0.9298248821
 40
0.9859649732
 40
1.0
 40
1.0
 40
1.0
 40
1.0
 10
24.3188348042
 20
17.3390061745
 30
0.0
 10
24.354835303
 20
17.3376631601
 30
0.0
 10
24.4548360127
 20
17.333887679
 30
0.0
 10
24.6188325819
 20
17.327599279
 30
0.0
 10
24.8108325643
 20
17.3203912308
 30
0.0
 10
25.0028333492
 20
17.3133049301
 30
0.0
 10
25.194834066
 20
17.3062973936
 30
0.0
 10
25.3868348271
 20
17.2993311168
 30
0.0
 10
25.5788354388
 20
17.2923629612
 30
0.0
 10
25.770835433
 20
17.285355344
 30
0.0
 10
25.962835161
 20
17.2783117162
 30
0.0
 10
26.1548350238
 20
17.2712500494
 30
0.0
 10
26.3468348035
 20
17.2641755825
 30
0.0
 10
26.5388346112
 20
17.2571012413
 30
0.0
 10
26.7308346478
 20
17.2500391883
 30
0.0
 10
26.9228346947
 20
17.2429854213
 30
0.0
 10
27.1148347766
 20
17.2359380508
 30
0.0
 10
27.3068347779
 20
17.2288913661
 30
0.0
 10
27.4988348668
 20
17.2218470691
 30
0.0
 10
27.6428348236
 20
17.2165604854
 30
0.0
 10
27.7228348048
 20
17.2136230452
 30
0.0
 10
27.7388348042
 20
17.2130355432
 30
0.0
  0
SPLINE
  5
29C
100
AcDbEntity
  8
0
100
AcDbSpline
 62
1
  6
CONTINUOUS
 70
0
 71
3
 72
27
 73
23
 74
0
 42
0.0000001
 43
0.0000001
 44
0.0000000001
 40
0.0
 40
0.0
 40
0.0
 40
0.0
 40
0.0456089342
 40
0.1017430262
 40
0.1578771079
 40
0.2140111896
 40
0.2701452609
 40
0.3262793323
 40
0.3824134037
 40
0.4385474751
 40
0.4946815465
 40
0.5508156179
 40
0.6069496893
 40
0.6630837607
 40
0.7192178321
 40
0.7753519035
 40
0.8314859748
 40
0.8876200462
 40
0.9156870768
 40
0.9437541073
 40
0.9718211482
 40
1.0
 40
1.0
 40
1.0
 40
1.0
 10
27.9188348042
 20
17.2064257752
 30
0.0
 10
27.970834811
 20
17.204516222
 30
0.0
 10
28.086834841
 20
17.2002562612
 30
0.0
 10
28.2668347767
 20
17.1936430129
 30
0.0
 10
28.458834811
 20
17.186591468
 30
0.0
 10
28.6508347812
 20
17.1795388177
 30
0.0
 10
28.8428348072
 20
17.1724880057
 30
0.0
 10
29.0348348034
 20
17.1654367015
 30
0.0
 10
29.2268348045
 20
17.1583855298
 30
0.0
 10
29.4188348041
 20
17.1513343207
 30
0.0
 10
29.6108348046
 20
17.1442831289
 30
0.0
 10
29.802834803
 20
17.1372319054
 30
0.0
 10
29.9948348087
 20
17.1301807914
 30
0.0
 10
30.1868347874
 20
17.1231292709
 30
0.0
 10
30.3788348669
 20
17.1160792667
 30
0.0
 10
30.5708345704
 20
17.1090236039
 30
0.0
 10
30.762835677
 20
17.1019890594
 30
0.0
 10
30.9228322295
 20
17.0960612603
 30
0.0
 10
31.0508392359
 20
17.0914660913
 30
0.0
 10
31.1468179034
 20
17.087620788
 30
0.0
 10
31.2430256433
 20
17.0852945708
 30
0.0
 10
31.3069526485
 20
17.0799305813
 30
0.0
 10
31.3388348042
 20
17.0750690436
 30
0.0
  0
SPLINE
  5
29D
100
AcDbEntity
  8
0
100
AcDbSpline
 62
1
  6
CONTINUOUS
 70
0
 71
3
 72
27
 73
23
 74
0
 42
0.0000001
 43
0.0000001
 44
0.0000000001
 40
0.0
 40
0.0
 40
0.0
 40
0.0
 40
0.0287187
 40
0.0570087448
 40
0.0852917103
 40
0.113564054
 40
0.1700639112
 40
0.2264972526
 40
0.2828680737
 40
0.3391803785
 40
0.3954346719
 40
0.4516303074
 40
0.5077668971
 40
0.5638443583
 40
0.6198629005
 40
0.6758235033
 40
0.7317273152
 40
0.7875755964
 40
0.8433698467
 40
0.8991110093
 40
0.9547971346
 40
1.0
 40
1.0
 40
1.0
 40
1.0
 10
31.3388348042
 20
17.0750690436
 30
0.0
 10
31.3072825677
 20
17.0638892544
 30
0.0
 10
31.2435566935
 20
17.0457917347
 30
0.0
 10
31.1467843846
 20
17.0240864369
 30
0.0
 10
31.0508690781
 20
17.0011921223
 30
0.0
 10
30.9228853903
 20
16.971377251
 30
0.0
 10
30.7629527127
 20
16.9345117921
 30
0.0
 10
30.5709400644
 20
16.8914196072
 30
0.0
 10
30.3789343386
 20
16.8493071671
 30
0.0
 10
30.1869336145
 20
16.808152579
 30
0.0
 10
29.9949350223
 20
16.7679706451
 30
0.0
 10
29.8029357513
 20
16.728800816
 30
0.0
 10
29.610935982
 20
16.6906748087
 30
0.0
 10
29.4189358315
 20
16.6536217864
 30
0.0
 10
29.2269341427
 20
16.617671896
 30
0.0
 10
29.0349322901
 20
16.5828361769
 30
0.0
 10
28.8429302382
 20
16.549127636
 30
0.0
 10
28.6509277485
 20
16.516558303
 30
0.0
 10
28.458925758
 20
16.4851361949
 30
0.0
 10
28.266929684
 20
16.4548647615
 30
0.0
 10
28.0869161522
 20
16.4276619609
 30
0.0
 10
27.9708569595
 20
16.410873998
 30
0.0
 10
27.9188348042
 20
16.4035100488
 30
0.0
  0
SPLINE
  5
29E
100
AcDbEntity
  8
0
100
AcDbSpline
 62
1
  6
CONTINUOUS
 70
0
 71
3
 72
26
 73
22
 74
0
 42
0.0000001
 43
0.0000001
 44
0.0000000001
 40
0.0
 40
0.0
 40
0.0
 40
0.0
 40
0.0141227891
 40
0.0705759542
 40
0.1269687259
 40
0.1833044603
 40
0.2395873322
 40
0.2958217421
 40
0.3520120012
 40
0.4081621943
 40
0.4642748272
 40
0.5203527108
 40
0.5764001289
 40
0.6324228682
 40
0.6884285245
 40
0.7444263845
 40
0.8004244532
 40
0.8564288016
 40
0.9124437532
 40
0.9684730785
 40
1.0
 40
1.0
 40
1.0
 40
1.0
 10
27.7388348042
 20
16.378687535
 30
0.0
 10
27.7228369482
 20
16.3765410571
 30
0.0
 10
27.6428800006
 20
16.3658941744
 30
0.0
 10
27.4989380004
 20
16.3474693109
 30
0.0
 10
27.3069319506
 20
16.3246010136
 30
0.0
 10
27.1149249731
 20
16.3034498818
 30
0.0
 10
26.9229174707
 20
16.2840260713
 30
0.0
 10
26.7309102475
 20
16.2663269935
 30
0.0
 10
26.5389030317
 20
16.2503647379
 30
0.0
 10
26.34689911
 20
16.2361340749
 30
0.0
 10
26.1548944355
 20
16.2237652065
 30
0.0
 10
25.9628871086
 20
16.213420888
 30
0.0
 10
25.7708772495
 20
16.2052525747
 30
0.0
 10
25.5788643346
 20
16.1994080285
 30
0.0
 10
25.3868479734
 20
16.196072732
 30
0.0
 10
25.1948342509
 20
16.1950952236
 30
0.0
 10
25.0028239126
 20
16.1962685653
 30
0.0
 10
24.8108163303
 20
16.199390497
 30
0.0
 10
24.6188111809
 20
16.2042896953
 30
0.0
 10
24.4548098052
 20
16.2097463738
 30
0.0
 10
24.3548287248
 20
16.21399242
 30
0.0
 10
24.3188348042
 20
16.2156687617
 30
0.0
  0
SPLINE
  5
29F
100
AcDbEntity
  8
0
100
AcDbSpline
 62
1
  6
CONTINUOUS
 70
0
 71
3
 72
28
 73
24
 74
0
 42
0.0000001
 43
0.0000001
 44
0.0000000001
 40
0.0
 40
0.0
 40
0.0
 40
0.0
 40
0.036534601
 40
0.1096979123
 40
0.1830511753
 40
0.2566926967
 40
0.330703632
 40
0.4051495367
 40
0.4801373402
 40
0.5558674892
 40
0.6326015584
 40
0.7106879189
 40
0.7506336232
 40
0.7916307849
 40
0.8343425127
 40
0.880233402
 40
0.9202447001
 40
0.9411848409
 40
0.9639922397
 40
0.9775053718
 40
0.9859030484
 40
0.9912812162
 40
1.0
 40
1.0
 40
1.0
 40
1.0
 10
24.1388348042
 20
16.2254159673
 30
0.0
 10
24.1068242889
 20
16.2274152001
 30
0.0
 10
24.0107391842
 20
16.2338789372
 30
0.0
 10
23.8505884934
 20
16.247262999
 30
0.0
 10
23.6584559435
 20
16.2684477241
 30
0.0
 10
23.4663522415
 20
16.2958430354
 30
0.0
 10
23.2742751312
 20
16.3294950516
 30
0.0
 10
23.082144967
 20
16.3691718475
 30
0.0
 10
22.889895734
 20
16.4152724759
 30
0.0
 10
22.6975536959
 20
16.4691128728
 30
0.0
 10
22.5052401233
 20
16.5323413228
 30
0.0
 10
22.3451659811
 20
16.5927355083
 30
0.0
 10
22.2175903452
 20
16.6495549107
 30
0.0
 10
22.1209078648
 20
16.6990477922
 30
0.0
 10
22.0233617166
 20
16.7578642644
 30
0.0
 10
21.9333052561
 20
16.826485053
 30
0.0
 10
21.8656689266
 20
16.8916018759
 30
0.0
 10
21.8140449905
 20
16.9439453626
 30
0.0
 10
21.7812605692
 20
16.9822120525
 30
0.0
 10
21.7597027673
 20
17.0151480986
 30
0.0
 10
21.749160582
 20
17.036718247
 30
0.0
 10
21.7424070905
 20
17.0553069247
 30
0.0
 10
21.7397190736
 20
17.0674251533
 30
0.0
 10
21.7388348042
 20
17.0750690436
 30
0.0
  0
SPLINE
  5
2A0
100
AcDbEntity
  8
0
100
AcDbSpline
 62
1
  6
CONTINUOUS
 70
0
 71
3
 72
28
 73
24
 74
0
 42
0.0000001
 43
0.0000001
 44
0.0000000001
 40
0.0
 40
0.0
 40
0.0
 40
0.0
 40
0.0179782249
 40
0.0232091958
 40
0.0313248062
 40
0.0441906082
 40
0.0652403215
 40
0.0836858339
 40
0.1168102066
 40
0.1561168911
 40
0.1950913084
 40
0.2338118355
 40
0.2723139547
 40
0.3490404974
 40
0.4256782885
 40
0.5022679925
 40
0.578832335
 40
0.6553893491
 40
0.7319503891
 40
0.8085214496
 40
0.8851044259
 40
0.9616989606
 40
1.0
 40
1.0
 40
1.0
 40
1.0
 10
21.7388348042
 20
17.0750690436
 30
0.0
 10
21.7367433501
 20
17.0905383149
 30
0.0
 10
21.7394801056
 20
17.1100462623
 30
0.0
 10
21.7491381357
 20
17.1344420082
 30
0.0
 10
21.7595987149
 20
17.1537678046
 30
0.0
 10
21.7808140236
 20
17.181970423
 30
0.0
 10
21.8131614418
 20
17.2118574603
 30
0.0
 10
21.8636203569
 20
17.2460105454
 30
0.0
 10
21.9352207598
 20
17.2736762939
 30
0.0
 10
22.0265624202
 20
17.2920664055
 30
0.0
 10
22.1224921292
 20
17.3111523566
 30
0.0
 10
22.2185616117
 20
17.3258149861
 30
0.0
 10
22.3465782166
 20
17.3393770278
 30
0.0
 10
22.5067535199
 20
17.3486030248
 30
0.0
 10
22.6987684544
 20
17.3577012469
 30
0.0
 10
22.8908049949
 20
17.363198806
 30
0.0
 10
23.0828256974
 20
17.365799509
 30
0.0
 10
23.2748403229
 20
17.365863876
 30
0.0
 10
23.4668476447
 20
17.3638239964
 30
0.0
 10
23.6588498808
 20
17.3600756861
 30
0.0
 10
23.8508494037
 20
17.3550240656
 30
0.0
 10
24.0108421904
 20
17.3499733744
 30
0.0
 10
24.1068357081
 20
17.3466716145
 30
0.0
 10
24.1388348042
 20
17.3455469006
 30
0.0
  0
SPLINE
  5
2A1
100
AcDbEntity
  8
0
100
AcDbSpline
 62
1
  6
CONTINUOUS
 70
0
 71
3
 72
26
 73
22
 74
0
 42
0.0000001
 43
0.0000001
 44
0.0000000001
 40
0.0
 40
0.0
 40
0.0
 40
0.0
 40
0.0315799317
 40
0.0877229056
 40
0.1438647874
 40
0.2000053636
 40
0.2561450852
 40
0.3122843778
 40
0.3684236807
 40
0.4245633305
 40
0.4807033393
 40
0.5368435643
 40
0.5929839131
 40
0.6491242619
 40
0.7052645075
 40
0.7614046603
 40
0.8175447514
 40
0.8736848219
 40
0.9298248821
 40
0.9859649732
 40
1.0
 40
1.0
 40
1.0
 40
1.0
 10
24.3188348042
 20
15.967231981
 30
0.0
 10
24.354835303
 20
15.9658889665
 30
0.0
 10
24.4548360127
 20
15.9621134855
 30
0.0
 10
24.6188325819
 20
15.9558250854
 30
0.0
 10
24.8108325643
 20
15.9486170372
 30
0.0
 10
25.0028333492
 20
15.9415307366
 30
0.0
 10
25.194834066
 20
15.9345232001
 30
0.0
 10
25.3868348271
 20
15.9275569233
 30
0.0
 10
25.5788354388
 20
15.9205887676
 30
0.0
 10
25.770835433
 20
15.9135811505
 30
0.0
 10
25.962835161
 20
15.9065375226
 30
0.0
 10
26.1548350238
 20
15.8994758558
 30
0.0
 10
26.3468348035
 20
15.892401389
 30
0.0
 10
26.5388346112
 20
15.8853270477
 30
0.0
 10
26.7308346478
 20
15.8782649947
 30
0.0
 10
26.9228346947
 20
15.8712112278
 30
0.0
 10
27.1148347766
 20
15.8641638573
 30
0.0
 10
27.3068347779
 20
15.8571171725
 30
0.0
 10
27.4988348668
 20
15.8500728755
 30
0.0
 10
27.6428348236
 20
15.8447862918
 30
0.0
 10
27.7228348048
 20
15.8418488516
 30
0.0
 10
27.7388348042
 20
15.8412613497
 30
0.0
  0
SPLINE
  5
2A2
100
AcDbEntity
  8
0
100
AcDbSpline
 62
1
  6
CONTINUOUS
 70
0
 71
3
 72
27
 73
23
 74
0
 42
0.0000001
 43
0.0000001
 44
0.0000000001
 40
0.0
 40
0.0
 40
0.0
 40
0.0
 40
0.0456089342
 40
0.1017430262
 40
0.1578771079
 40
0.2140111896
 40
0.2701452609
 40
0.3262793323
 40
0.3824134037
 40
0.4385474751
 40
0.4946815465
 40
0.5508156179
 40
0.6069496893
 40
0.6630837607
 40
0.7192178321
 40
0.7753519035
 40
0.8314859748
 40
0.8876200462
 40
0.9156870768
 40
0.9437541073
 40
0.9718211482
 40
1.0
 40
1.0
 40
1.0
 40
1.0
 10
27.9188348042
 20
15.8346515816
 30
0.0
 10
27.970834811
 20
15.8327420284
 30
0.0
 10
28.086834841
 20
15.8284820676
 30
0.0
 10
28.2668347767
 20
15.8218688193
 30
0.0
 10
28.458834811
 20
15.8148172744
 30
0.0
 10
28.6508347812
 20
15.8077646242
 30
0.0
 10
28.8428348072
 20
15.8007138122
 30
0.0
 10
29.0348348034
 20
15.793662508
 30
0.0
 10
29.2268348045
 20
15.7866113363
 30
0.0
 10
29.4188348041
 20
15.7795601272
 30
0.0
 10
29.6108348046
 20
15.7725089353
 30
0.0
 10
29.802834803
 20
15.7654577118
 30
0.0
 10
29.9948348087
 20
15.7584065978
 30
0.0
 10
30.1868347874
 20
15.7513550773
 30
0.0
 10
30.3788348669
 20
15.7443050732
 30
0.0
 10
30.5708345704
 20
15.7372494103
 30
0.0
 10
30.762835677
 20
15.7302148658
 30
0.0
 10
30.9228322295
 20
15.7242870668
 30
0.0
 10
31.0508392359
 20
15.7196918978
 30
0.0
 10
31.1468179034
 20
15.7158465945
 30
0.0
 10
31.2430256433
 20
15.7135203772
 30
0.0
 10
31.3069526485
 20
15.7081563878
 30
0.0
 10
31.3388348042
 20
15.7032948501
 30
0.0
  0
SPLINE
  5
2A3
100
AcDbEntity
  8
0
100
AcDbSpline
 62
1
  6
CONTINUOUS
 70
0
 71
3
 72
27
 73
23
 74
0
 42
0.0000001
 43
0.0000001
 44
0.0000000001
 40
0.0
 40
0.0
 40
0.0
 40
0.0
 40
0.0287187
 40
0.0570087448
 40
0.0852917103
 40
0.113564054
 40
0.1700639112
 40
0.2264972526
 40
0.2828680737
 40
0.3391803785
 40
0.3954346719
 40
0.4516303074
 40
0.5077668971
 40
0.5638443583
 40
0.6198629005
 40
0.6758235033
 40
0.7317273152
 40
0.7875755964
 40
0.8433698467
 40
0.8991110093
 40
0.9547971346
 40
1.0
 40
1.0
 40
1.0
 40
1.0
 10
31.3388348042
 20
15.7032948501
 30
0.0
 10
31.3072825677
 20
15.6921150608
 30
0.0
 10
31.2435566935
 20
15.6740175411
 30
0.0
 10
31.1467843846
 20
15.6523122434
 30
0.0
 10
31.0508690781
 20
15.6294179287
 30
0.0
 10
30.9228853903
 20
15.5996030574
 30
0.0
 10
30.7629527127
 20
15.5627375986
 30
0.0
 10
30.5709400644
 20
15.5196454136
 30
0.0
 10
30.3789343386
 20
15.4775329736
 30
0.0
 10
30.1869336145
 20
15.4363783855
 30
0.0
 10
29.9949350223
 20
15.3961964515
 30
0.0
 10
29.8029357513
 20
15.3570266224
 30
0.0
 10
29.610935982
 20
15.3189006151
 30
0.0
 10
29.4189358315
 20
15.2818475928
 30
0.0
 10
29.2269341427
 20
15.2458977024
 30
0.0
 10
29.0349322901
 20
15.2110619834
 30
0.0
 10
28.8429302382
 20
15.1773534424
 30
0.0
 10
28.6509277485
 20
15.1447841095
 30
0.0
 10
28.458925758
 20
15.1133620013
 30
0.0
 10
28.266929684
 20
15.083090568
 30
0.0
 10
28.0869161522
 20
15.0558877674
 30
0.0
 10
27.9708569595
 20
15.0390998045
 30
0.0
 10
27.9188348042
 20
15.0317358552
 30
0.0
  0
SPLINE
  5
2A4
100
AcDbEntity
  8
0
100
AcDbSpline
 62
1
  6
CONTINUOUS
 70
0
 71
3
 72
26
 73
22
 74
0
 42
0.0000001
 43
0.0000001
 44
0.0000000001
 40
0.0
 40
0.0
 40
0.0
 40
0.0
 40
0.0141227891
 40
0.0705759542
 40
0.1269687259
 40
0.1833044603
 40
0.2395873322
 40
0.2958217421
 40
0.3520120012
 40
0.4081621943
 40
0.4642748272
 40
0.5203527108
 40
0.5764001289
 40
0.6324228682
 40
0.6884285245
 40
0.7444263845
 40
0.8004244532
 40
0.8564288016
 40
0.9124437532
 40
0.9684730785
 40
1.0
 40
1.0
 40
1.0
 40
1.0
 10
27.7388348042
 20
15.0069133414
 30
0.0
 10
27.7228369482
 20
15.0047668636
 30
0.0
 10
27.6428800006
 20
14.9941199808
 30
0.0
 10
27.4989380004
 20
14.9756951173
 30
0.0
 10
27.3069319506
 20
14.9528268201
 30
0.0
 10
27.1149249731
 20
14.9316756882
 30
0.0
 10
26.9229174707
 20
14.9122518777
 30
0.0
 10
26.7309102475
 20
14.8945527999
 30
0.0
 10
26.5389030317
 20
14.8785905444
 30
0.0
 10
26.34689911
 20
14.8643598814
 30
0.0
 10
26.1548944355
 20
14.8519910129
 30
0.0
 10
25.9628871086
 20
14.8416466944
 30
0.0
 10
25.7708772495
 20
14.8334783811
 30
0.0
 10
25.5788643346
 20
14.8276338349
 30
0.0
 10
25.3868479734
 20
14.8242985384
 30
0.0
 10
25.1948342509
 20
14.8233210301
 30
0.0
 10
25.0028239126
 20
14.8244943718
 30
0.0
 10
24.8108163303
 20
14.8276163035
 30
0.0
 10
24.6188111809
 20
14.8325155018
 30
0.0
 10
24.4548098052
 20
14.8379721802
 30
0.0
 10
24.3548287248
 20
14.8422182264
 30
0.0
 10
24.3188348042
 20
14.8438945682
 30
0.0
  0
SPLINE
  5
2A5
100
AcDbEntity
  8
0
100
AcDbSpline
 62
1
  6
CONTINUOUS
 70
0
 71
3
 72
28
 73
24
 74
0
 42
0.0000001
 43
0.0000001
 44
0.0000000001
 40
0.0
 40
0.0
 40
0.0
 40
0.0
 40
0.036534601
 40
0.1096979123
 40
0.1830511753
 40
0.2566926967
 40
0.330703632
 40
0.4051495367
 40
0.4801373402
 40
0.5558674892
 40
0.6326015584
 40
0.7106879189
 40
0.7506336232
 40
0.7916307849
 40
0.8343425127
 40
0.880233402
 40
0.9202447001
 40
0.9411848409
 40
0.9639922397
 40
0.9775053718
 40
0.9859030484
 40
0.9912812162
 40
1.0
 40
1.0
 40
1.0
 40
1.0
 10
24.1388348042
 20
14.8536417737
 30
0.0
 10
24.1068242889
 20
14.8556410065
 30
0.0
 10
24.0107391842
 20
14.8621047436
 30
0.0
 10
23.8505884934
 20
14.8754888055
 30
0.0
 10
23.6584559435
 20
14.8966735306
 30
0.0
 10
23.4663522415
 20
14.9240688419
 30
0.0
 10
23.2742751312
 20
14.9577208581
 30
0.0
 10
23.082144967
 20
14.997397654
 30
0.0
 10
22.889895734
 20
15.0434982823
 30
0.0
 10
22.6975536959
 20
15.0973386793
 30
0.0
 10
22.5052401233
 20
15.1605671292
 30
0.0
 10
22.3451659811
 20
15.2209613147
 30
0.0
 10
22.2175903452
 20
15.2777807172
 30
0.0
 10
22.1209078648
 20
15.3272735986
 30
0.0
 10
22.0233617166
 20
15.3860900709
 30
0.0
 10
21.9333052561
 20
15.4547108594
 30
0.0
 10
21.8656689266
 20
15.5198276823
 30
0.0
 10
21.8140449905
 20
15.5721711691
 30
0.0
 10
21.7812605692
 20
15.6104378589
 30
0.0
 10
21.7597027673
 20
15.643373905
 30
0.0
 10
21.749160582
 20
15.6649440534
 30
0.0
 10
21.7424070905
 20
15.6835327311
 30
0.0
 10
21.7397190736
 20
15.6956509597
 30
0.0
 10
21.7388348042
 20
15.7032948501
 30
0.0
  0
SPLINE
  5
2A6
100
AcDbEntity
  8
0
100
AcDbSpline
 62
1
  6
CONTINUOUS
 70
0
 71
3
 72
28
 73
24
 74
0
 42
0.0000001
 43
0.0000001
 44
0.0000000001
 40
0.0
 40
0.0
 40
0.0
 40
0.0
 40
0.0179782249
 40
0.0232091958
 40
0.0313248062
 40
0.0441906082
 40
0.0652403215
 40
0.0836858339
 40
0.1168102066
 40
0.1561168911
 40
0.1950913084
 40
0.2338118355
 40
0.2723139547
 40
0.3490404974
 40
0.4256782885
 40
0.5022679925
 40
0.578832335
 40
0.6553893491
 40
0.7319503891
 40
0.8085214496
 40
0.8851044259
 40
0.9616989606
 40
1.0
 40
1.0
 40
1.0
 40
1.0
 10
21.7388348042
 20
15.7032948501
 30
0.0
 10
21.7367433501
 20
15.7187641213
 30
0.0
 10
21.7394801056
 20
15.7382720688
 30
0.0
 10
21.7491381357
 20
15.7626678146
 30
0.0
 10
21.7595987149
 20
15.781993611
 30
0.0
 10
21.7808140236
 20
15.8101962294
 30
0.0
 10
21.8131614418
 20
15.8400832667
 30
0.0
 10
21.8636203569
 20
15.8742363519
 30
0.0
 10
21.9352207598
 20
15.9019021003
 30
0.0
 10
22.0265624202
 20
15.9202922119
 30
0.0
 10
22.1224921292
 20
15.939378163
 30
0.0
 10
22.2185616117
 20
15.9540407926
 30
0.0
 10
22.3465782166
 20
15.9676028342
 30
0.0
 10
22.5067535199
 20
15.9768288312
 30
0.0
 10
22.6987684544
 20
15.9859270533
 30
0.0
 10
22.8908049949
 20
15.9914246124
 30
0.0
 10
23.0828256974
 20
15.9940253155
 30
0.0
 10
23.2748403229
 20
15.9940896824
 30
0.0
 10
23.4668476447
 20
15.9920498029
 30
0.0
 10
23.6588498808
 20
15.9883014926
 30
0.0
 10
23.8508494037
 20
15.983249872
 30
0.0
 10
24.0108421904
 20
15.9781991809
 30
0.0
 10
24.1068357081
 20
15.9748974209
 30
0.0
 10
24.1388348042
 20
15.9737727071
 30
0.0
  0
SPLINE
  5
2A7
100
AcDbEntity
  8
0
100
AcDbSpline
 62
1
  6
CONTINUOUS
 70
0
 71
3
 72
26
 73
22
 74
0
 42
0.0000001
 43
0.0000001
 44
0.0000000001
 40
0.0
 40
0.0
 40
0.0
 40
0.0
 40
0.0315799317
 40
0.0877229056
 40
0.1438647874
 40
0.2000053636
 40
0.2561450852
 40
0.3122843778
 40
0.3684236807
 40
0.4245633305
 40
0.4807033393
 40
0.5368435643
 40
0.5929839131
 40
0.6491242619
 40
0.7052645075
 40
0.7614046603
 40
0.8175447514
 40
0.8736848219
 40
0.9298248821
 40
0.9859649732
 40
1.0
 40
1.0
 40
1.0
 40
1.0
 10
24.3474134333
 20
14.6811936745
 30
0.0
 10
24.383413932
 20
14.6798506601
 30
0.0
 10
24.4834146417
 20
14.676075179
 30
0.0
 10
24.6474112109
 20
14.669786779
 30
0.0
 10
24.8394111933
 20
14.6625787308
 30
0.0
 10
25.0314119783
 20
14.6554924301
 30
0.0
 10
25.223412695
 20
14.6484848936
 30
0.0
 10
25.4154134562
 20
14.6415186168
 30
0.0
 10
25.6074140679
 20
14.6345504612
 30
0.0
 10
25.799414062
 20
14.627542844
 30
0.0
 10
25.99141379
 20
14.6204992162
 30
0.0
 10
26.1834136529
 20
14.6134375494
 30
0.0
 10
26.3754134325
 20
14.6063630825
 30
0.0
 10
26.5674132403
 20
14.5992887413
 30
0.0
 10
26.7594132768
 20
14.5922266883
 30
0.0
 10
26.9514133237
 20
14.5851729213
 30
0.0
 10
27.1434134056
 20
14.5781255508
 30
0.0
 10
27.3354134069
 20
14.5710788661
 30
0.0
 10
27.5274134959
 20
14.5640345691
 30
0.0
 10
27.6714134527
 20
14.5587479854
 30
0.0
 10
27.7514134338
 20
14.5558105452
 30
0.0
 10
27.7674134333
 20
14.5552230432
 30
0.0
  0
SPLINE
  5
2A8
100
AcDbEntity
  8
0
100
AcDbSpline
 62
1
  6
CONTINUOUS
 70
0
 71
3
 72
27
 73
23
 74
0
 42
0.0000001
 43
0.0000001
 44
0.0000000001
 40
0.0
 40
0.0
 40
0.0
 40
0.0
 40
0.0456089342
 40
0.1017430262
 40
0.1578771079
 40
0.2140111896
 40
0.2701452609
 40
0.3262793323
 40
0.3824134037
 40
0.4385474751
 40
0.4946815465
 40
0.5508156179
 40
0.6069496893
 40
0.6630837607
 40
0.7192178321
 40
0.7753519035
 40
0.8314859748
 40
0.8876200462
 40
0.9156870768
 40
0.9437541073
 40
0.9718211482
 40
1.0
 40
1.0
 40
1.0
 40
1.0
 10
27.9474134333
 20
14.5486132752
 30
0.0
 10
27.99941344
 20
14.546703722
 30
0.0
 10
28.11541347
 20
14.5424437612
 30
0.0
 10
28.2954134057
 20
14.5358305129
 30
0.0
 10
28.48741344
 20
14.528778968
 30
0.0
 10
28.6794134103
 20
14.5217263177
 30
0.0
 10
28.8714134363
 20
14.5146755057
 30
0.0
 10
29.0634134324
 20
14.5076242015
 30
0.0
 10
29.2554134335
 20
14.5005730298
 30
0.0
 10
29.4474134331
 20
14.4935218207
 30
0.0
 10
29.6394134336
 20
14.4864706289
 30
0.0
 10
29.8314134321
 20
14.4794194054
 30
0.0
 10
30.0234134378
 20
14.4723682914
 30
0.0
 10
30.2154134165
 20
14.4653167709
 30
0.0
 10
30.4074134959
 20
14.4582667667
 30
0.0
 10
30.5994131994
 20
14.4512111039
 30
0.0
 10
30.791414306
 20
14.4441765594
 30
0.0
 10
30.9514108586
 20
14.4382487603
 30
0.0
 10
31.079417865
 20
14.4336535913
 30
0.0
 10
31.1753965324
 20
14.429808288
 30
0.0
 10
31.2716042723
 20
14.4274820708
 30
0.0
 10
31.3355312776
 20
14.4221180813
 30
0.0
 10
31.3674134333
 20
14.4172565436
 30
0.0
  0
SPLINE
  5
2A9
100
AcDbEntity
  8
0
100
AcDbSpline
 62
1
  6
CONTINUOUS
 70
0
 71
3
 72
27
 73
23
 74
0
 42
0.0000001
 43
0.0000001
 44
0.0000000001
 40
0.0
 40
0.0
 40
0.0
 40
0.0
 40
0.0287187
 40
0.0570087448
 40
0.0852917103
 40
0.113564054
 40
0.1700639112
 40
0.2264972526
 40
0.2828680737
 40
0.3391803785
 40
0.3954346719
 40
0.4516303074
 40
0.5077668971
 40
0.5638443583
 40
0.6198629005
 40
0.6758235033
 40
0.7317273152
 40
0.7875755964
 40
0.8433698467
 40
0.8991110093
 40
0.9547971346
 40
1.0
 40
1.0
 40
1.0
 40
1.0
 10
31.3674134333
 20
14.4172565436
 30
0.0
 10
31.3358611967
 20
14.4060767544
 30
0.0
 10
31.2721353225
 20
14.3879792347
 30
0.0
 10
31.1753630136
 20
14.3662739369
 30
0.0
 10
31.0794477071
 20
14.3433796223
 30
0.0
 10
30.9514640193
 20
14.313564751
 30
0.0
 10
30.7915313418
 20
14.2766992921
 30
0.0
 10
30.5995186934
 20
14.2336071072
 30
0.0
 10
30.4075129677
 20
14.1914946671
 30
0.0
 10
30.2155122435
 20
14.150340079
 30
0.0
 10
30.0235136513
 20
14.1101581451
 30
0.0
 10
29.8315143803
 20
14.070988316
 30
0.0
 10
29.6395146111
 20
14.0328623087
 30
0.0
 10
29.4475144605
 20
13.9958092864
 30
0.0
 10
29.2555127717
 20
13.959859396
 30
0.0
 10
29.0635109191
 20
13.9250236769
 30
0.0
 10
28.8715088672
 20
13.891315136
 30
0.0
 10
28.6795063776
 20
13.858745803
 30
0.0
 10
28.487504387
 20
13.8273236949
 30
0.0
 10
28.295508313
 20
13.7970522615
 30
0.0
 10
28.1154947812
 20
13.7698494609
 30
0.0
 10
27.9994355885
 20
13.753061498
 30
0.0
 10
27.9474134333
 20
13.7456975488
 30
0.0
  0
SPLINE
  5
2AA
100
AcDbEntity
  8
0
100
AcDbSpline
 62
1
  6
CONTINUOUS
 70
0
 71
3
 72
26
 73
22
 74
0
 42
0.0000001
 43
0.0000001
 44
0.0000000001
 40
0.0
 40
0.0
 40
0.0
 40
0.0
 40
0.0141227891
 40
0.0705759542
 40
0.1269687259
 40
0.1833044603
 40
0.2395873322
 40
0.2958217421
 40
0.3520120012
 40
0.4081621943
 40
0.4642748272
 40
0.5203527108
 40
0.5764001289
 40
0.6324228682
 40
0.6884285245
 40
0.7444263845
 40
0.8004244532
 40
0.8564288016
 40
0.9124437532
 40
0.9684730785
 40
1.0
 40
1.0
 40
1.0
 40
1.0
 10
27.7674134333
 20
13.720875035
 30
0.0
 10
27.7514155773
 20
13.7187285571
 30
0.0
 10
27.6714586297
 20
13.7080816744
 30
0.0
 10
27.5275166295
 20
13.6896568109
 30
0.0
 10
27.3355105796
 20
13.6667885136
 30
0.0
 10
27.1435036021
 20
13.6456373818
 30
0.0
 10
26.9514960997
 20
13.6262135713
 30
0.0
 10
26.7594888766
 20
13.6085144935
 30
0.0
 10
26.5674816608
 20
13.5925522379
 30
0.0
 10
26.375477739
 20
13.5783215749
 30
0.0
 10
26.1834730645
 20
13.5659527065
 30
0.0
 10
25.9914657377
 20
13.555608388
 30
0.0
 10
25.7994558785
 20
13.5474400747
 30
0.0
 10
25.6074429636
 20
13.5415955285
 30
0.0
 10
25.4154266024
 20
13.538260232
 30
0.0
 10
25.2234128799
 20
13.5372827236
 30
0.0
 10
25.0314025416
 20
13.5384560653
 30
0.0
 10
24.8393949594
 20
13.541577997
 30
0.0
 10
24.64738981
 20
13.5464771953
 30
0.0
 10
24.4833884342
 20
13.5519338738
 30
0.0
 10
24.3834073539
 20
13.55617992
 30
0.0
 10
24.3474134333
 20
13.5578562617
 30
0.0
  0
SPLINE
  5
2AB
100
AcDbEntity
  8
0
100
AcDbSpline
 62
1
  6
CONTINUOUS
 70
0
 71
3
 72
28
 73
24
 74
0
 42
0.0000001
 43
0.0000001
 44
0.0000000001
 40
0.0
 40
0.0
 40
0.0
 40
0.0
 40
0.036534601
 40
0.1096979123
 40
0.1830511753
 40
0.2566926967
 40
0.330703632
 40
0.4051495367
 40
0.4801373402
 40
0.5558674892
 40
0.6326015584
 40
0.7106879189
 40
0.7506336232
 40
0.7916307849
 40
0.8343425127
 40
0.880233402
 40
0.9202447001
 40
0.9411848409
 40
0.9639922397
 40
0.9775053718
 40
0.9859030484
 40
0.9912812162
 40
1.0
 40
1.0
 40
1.0
 40
1.0
 10
24.1674134333
 20
13.5676034673
 30
0.0
 10
24.1354029179
 20
13.5696027001
 30
0.0
 10
24.0393178132
 20
13.5760664372
 30
0.0
 10
23.8791671225
 20
13.589450499
 30
0.0
 10
23.6870345725
 20
13.6106352241
 30
0.0
 10
23.4949308706
 20
13.6380305354
 30
0.0
 10
23.3028537602
 20
13.6716825516
 30
0.0
 10
23.110723596
 20
13.7113593475
 30
0.0
 10
22.9184743631
 20
13.7574599759
 30
0.0
 10
22.7261323249
 20
13.8113003728
 30
0.0
 10
22.5338187524
 20
13.8745288228
 30
0.0
 10
22.3737446102
 20
13.9349230083
 30
0.0
 10
22.2461689742
 20
13.9917424107
 30
0.0
 10
22.1494864938
 20
14.0412352922
 30
0.0
 10
22.0519403457
 20
14.1000517644
 30
0.0
 10
21.9618838852
 20
14.168672553
 30
0.0
 10
21.8942475556
 20
14.2337893759
 30
0.0
 10
21.8426236196
 20
14.2861328626
 30
0.0
 10
21.8098391983
 20
14.3243995525
 30
0.0
 10
21.7882813964
 20
14.3573355986
 30
0.0
 10
21.777739211
 20
14.378905747
 30
0.0
 10
21.7709857195
 20
14.3974944247
 30
0.0
 10
21.7682977027
 20
14.4096126533
 30
0.0
 10
21.7674134333
 20
14.4172565436
 30
0.0
  0
SPLINE
  5
2AC
100
AcDbEntity
  8
0
100
AcDbSpline
 62
1
  6
CONTINUOUS
 70
0
 71
3
 72
28
 73
24
 74
0
 42
0.0000001
 43
0.0000001
 44
0.0000000001
 40
0.0
 40
0.0
 40
0.0
 40
0.0
 40
0.0179782249
 40
0.0232091958
 40
0.0313248062
 40
0.0441906082
 40
0.0652403215
 40
0.0836858339
 40
0.1168102066
 40
0.1561168911
 40
0.1950913084
 40
0.2338118355
 40
0.2723139547
 40
0.3490404974
 40
0.4256782885
 40
0.5022679925
 40
0.578832335
 40
0.6553893491
 40
0.7319503891
 40
0.8085214496
 40
0.8851044259
 40
0.9616989606
 40
1.0
 40
1.0
 40
1.0
 40
1.0
 10
21.7674134333
 20
14.4172565436
 30
0.0
 10
21.7653219791
 20
14.4327258149
 30
0.0
 10
21.7680587346
 20
14.4522337623
 30
0.0
 10
21.7777167647
 20
14.4766295082
 30
0.0
 10
21.7881773439
 20
14.4959553046
 30
0.0
 10
21.8093926526
 20
14.524157923
 30
0.0
 10
21.8417400708
 20
14.5540449603
 30
0.0
 10
21.8921989859
 20
14.5881980454
 30
0.0
 10
21.9637993888
 20
14.6158637939
 30
0.0
 10
22.0551410493
 20
14.6342539055
 30
0.0
 10
22.1510707583
 20
14.6533398566
 30
0.0
 10
22.2471402407
 20
14.6680024861
 30
0.0
 10
22.3751568457
 20
14.6815645278
 30
0.0
 10
22.5353321489
 20
14.6907905248
 30
0.0
 10
22.7273470835
 20
14.6998887469
 30
0.0
 10
22.919383624
 20
14.705386306
 30
0.0
 10
23.1114043264
 20
14.707987009
 30
0.0
 10
23.303418952
 20
14.708051376
 30
0.0
 10
23.4954262737
 20
14.7060114964
 30
0.0
 10
23.6874285098
 20
14.7022631861
 30
0.0
 10
23.8794280328
 20
14.6972115656
 30
0.0
 10
24.0394208195
 20
14.6921608744
 30
0.0
 10
24.1354143371
 20
14.6888591145
 30
0.0
 10
24.1674134333
 20
14.6877344006
 30
0.0
  0
SPLINE
  5
2AD
100
AcDbEntity
  8
0
100
AcDbSpline
 62
1
  6
CONTINUOUS
 70
0
 71
3
 72
26
 73
22
 74
0
 42
0.0000001
 43
0.0000001
 44
0.0000000001
 40
0.0
 40
0.0
 40
0.0
 40
0.0
 40
0.0315799317
 40
0.0877229056
 40
0.1438647874
 40
0.2000053636
 40
0.2561450852
 40
0.3122843778
 40
0.3684236807
 40
0.4245633305
 40
0.4807033393
 40
0.5368435643
 40
0.5929839131
 40
0.6491242619
 40
0.7052645075
 40
0.7614046603
 40
0.8175447514
 40
0.8736848219
 40
0.9298248821
 40
0.9859649732
 40
1.0
 40
1.0
 40
1.0
 40
1.0
 10
14.4869862155
 20
17.3334047632
 30
0.0
 10
14.5229867142
 20
17.3320617488
 30
0.0
 10
14.622987424
 20
17.3282862677
 30
0.0
 10
14.7869839932
 20
17.3219978677
 30
0.0
 10
14.9789839756
 20
17.3147898195
 30
0.0
 10
15.1709847605
 20
17.3077035188
 30
0.0
 10
15.3629854773
 20
17.3006959823
 30
0.0
 10
15.5549862384
 20
17.2937297055
 30
0.0
 10
15.7469868501
 20
17.2867615499
 30
0.0
 10
15.9389868442
 20
17.2797539327
 30
0.0
 10
16.1309865723
 20
17.2727103049
 30
0.0
 10
16.3229864351
 20
17.2656486381
 30
0.0
 10
16.5149862147
 20
17.2585741712
 30
0.0
 10
16.7069860225
 20
17.25149983
 30
0.0
 10
16.8989860591
 20
17.244437777
 30
0.0
 10
17.090986106
 20
17.2373840101
 30
0.0
 10
17.2829861879
 20
17.2303366395
 30
0.0
 10
17.4749861892
 20
17.2232899548
 30
0.0
 10
17.6669862781
 20
17.2162456578
 30
0.0
 10
17.8109862349
 20
17.2109590741
 30
0.0
 10
17.8909862161
 20
17.2080216339
 30
0.0
 10
17.9069862155
 20
17.2074341319
 30
0.0
  0
SPLINE
  5
2AE
100
AcDbEntity
  8
0
100
AcDbSpline
 62
1
  6
CONTINUOUS
 70
0
 71
3
 72
27
 73
23
 74
0
 42
0.0000001
 43
0.0000001
 44
0.0000000001
 40
0.0
 40
0.0
 40
0.0
 40
0.0
 40
0.0456089342
 40
0.1017430262
 40
0.1578771079
 40
0.2140111896
 40
0.2701452609
 40
0.3262793323
 40
0.3824134037
 40
0.4385474751
 40
0.4946815465
 40
0.5508156179
 40
0.6069496893
 40
0.6630837607
 40
0.7192178321
 40
0.7753519035
 40
0.8314859748
 40
0.8876200462
 40
0.9156870768
 40
0.9437541073
 40
0.9718211482
 40
1.0
 40
1.0
 40
1.0
 40
1.0
 10
18.0869862155
 20
17.2008243639
 30
0.0
 10
18.1389862223
 20
17.1989148107
 30
0.0
 10
18.2549862523
 20
17.1946548499
 30
0.0
 10
18.4349861879
 20
17.1880416016
 30
0.0
 10
18.6269862223
 20
17.1809900567
 30
0.0
 10
18.8189861925
 20
17.1739374065
 30
0.0
 10
19.0109862185
 20
17.1668865944
 30
0.0
 10
19.2029862147
 20
17.1598352902
 30
0.0
 10
19.3949862158
 20
17.1527841186
 30
0.0
 10
19.5869862154
 20
17.1457329094
 30
0.0
 10
19.7789862159
 20
17.1386817176
 30
0.0
 10
19.9709862143
 20
17.1316304941
 30
0.0
 10
20.16298622
 20
17.1245793801
 30
0.0
 10
20.3549861987
 20
17.1175278596
 30
0.0
 10
20.5469862782
 20
17.1104778554
 30
0.0
 10
20.7389859817
 20
17.1034221926
 30
0.0
 10
20.9309870883
 20
17.0963876481
 30
0.0
 10
21.0909836408
 20
17.0904598491
 30
0.0
 10
21.2189906472
 20
17.0858646801
 30
0.0
 10
21.3149693147
 20
17.0820193767
 30
0.0
 10
21.4111770545
 20
17.0796931595
 30
0.0
 10
21.4751040598
 20
17.0743291701
 30
0.0
 10
21.5069862155
 20
17.0694676323
 30
0.0
  0
SPLINE
  5
2AF
100
AcDbEntity
  8
0
100
AcDbSpline
 62
1
  6
CONTINUOUS
 70
0
 71
3
 72
27
 73
23
 74
0
 42
0.0000001
 43
0.0000001
 44
0.0000000001
 40
0.0
 40
0.0
 40
0.0
 40
0.0
 40
0.0287187
 40
0.0570087448
 40
0.0852917103
 40
0.113564054
 40
0.1700639112
 40
0.2264972526
 40
0.2828680737
 40
0.3391803785
 40
0.3954346719
 40
0.4516303074
 40
0.5077668971
 40
0.5638443583
 40
0.6198629005
 40
0.6758235033
 40
0.7317273152
 40
0.7875755964
 40
0.8433698467
 40
0.8991110093
 40
0.9547971346
 40
1.0
 40
1.0
 40
1.0
 40
1.0
 10
21.5069862155
 20
17.0694676323
 30
0.0
 10
21.475433979
 20
17.0582878431
 30
0.0
 10
21.4117081047
 20
17.0401903234
 30
0.0
 10
21.3149357959
 20
17.0184850256
 30
0.0
 10
21.2190204894
 20
16.995590711
 30
0.0
 10
21.0910368015
 20
16.9657758397
 30
0.0
 10
20.931104124
 20
16.9289103808
 30
0.0
 10
20.7390914757
 20
16.8858181959
 30
0.0
 10
20.5470857499
 20
16.8437057558
 30
0.0
 10
20.3550850258
 20
16.8025511677
 30
0.0
 10
20.1630864335
 20
16.7623692338
 30
0.0
 10
19.9710871626
 20
16.7231994047
 30
0.0
 10
19.7790873933
 20
16.6850733974
 30
0.0
 10
19.5870872428
 20
16.6480203751
 30
0.0
 10
19.395085554
 20
16.6120704847
 30
0.0
 10
19.2030837014
 20
16.5772347656
 30
0.0
 10
19.0110816495
 20
16.5435262247
 30
0.0
 10
18.8190791598
 20
16.5109568917
 30
0.0
 10
18.6270771693
 20
16.4795347836
 30
0.0
 10
18.4350810953
 20
16.4492633503
 30
0.0
 10
18.2550675635
 20
16.4220605496
 30
0.0
 10
18.1390083708
 20
16.4052725867
 30
0.0
 10
18.0869862155
 20
16.3979086375
 30
0.0
  0
SPLINE
  5
2B0
100
AcDbEntity
  8
0
100
AcDbSpline
 62
1
  6
CONTINUOUS
 70
0
 71
3
 72
26
 73
22
 74
0
 42
0.0000001
 43
0.0000001
 44
0.0000000001
 40
0.0
 40
0.0
 40
0.0
 40
0.0
 40
0.0141227891
 40
0.0705759542
 40
0.1269687259
 40
0.1833044603
 40
0.2395873322
 40
0.2958217421
 40
0.3520120012
 40
0.4081621943
 40
0.4642748272
 40
0.5203527108
 40
0.5764001289
 40
0.6324228682
 40
0.6884285245
 40
0.7444263845
 40
0.8004244532
 40
0.8564288016
 40
0.9124437532
 40
0.9684730785
 40
1.0
 40
1.0
 40
1.0
 40
1.0
 10
17.9069862155
 20
16.3730861237
 30
0.0
 10
17.8909883595
 20
16.3709396458
 30
0.0
 10
17.8110314119
 20
16.3602927631
 30
0.0
 10
17.6670894117
 20
16.3418678996
 30
0.0
 10
17.4750833619
 20
16.3189996023
 30
0.0
 10
17.2830763844
 20
16.2978484705
 30
0.0
 10
17.091068882
 20
16.27842466
 30
0.0
 10
16.8990616588
 20
16.2607255822
 30
0.0
 10
16.707054443
 20
16.2447633266
 30
0.0
 10
16.5150505213
 20
16.2305326636
 30
0.0
 10
16.3230458468
 20
16.2181637952
 30
0.0
 10
16.1310385199
 20
16.2078194767
 30
0.0
 10
15.9390286608
 20
16.1996511634
 30
0.0
 10
15.7470157459
 20
16.1938066172
 30
0.0
 10
15.5549993847
 20
16.1904713207
 30
0.0
 10
15.3629856622
 20
16.1894938123
 30
0.0
 10
15.1709753239
 20
16.1906671541
 30
0.0
 10
14.9789677416
 20
16.1937890858
 30
0.0
 10
14.7869625922
 20
16.198688284
 30
0.0
 10
14.6229612165
 20
16.2041449625
 30
0.0
 10
14.5229801361
 20
16.2083910087
 30
0.0
 10
14.4869862155
 20
16.2100673504
 30
0.0
  0
SPLINE
  5
2B1
100
AcDbEntity
  8
0
100
AcDbSpline
 62
1
  6
CONTINUOUS
 70
0
 71
3
 72
28
 73
24
 74
0
 42
0.0000001
 43
0.0000001
 44
0.0000000001
 40
0.0
 40
0.0
 40
0.0
 40
0.0
 40
0.036534601
 40
0.1096979123
 40
0.1830511753
 40
0.2566926967
 40
0.330703632
 40
0.4051495367
 40
0.4801373402
 40
0.5558674892
 40
0.6326015584
 40
0.7106879189
 40
0.7506336232
 40
0.7916307849
 40
0.8343425127
 40
0.880233402
 40
0.9202447001
 40
0.9411848409
 40
0.9639922397
 40
0.9775053718
 40
0.9859030484
 40
0.9912812162
 40
1.0
 40
1.0
 40
1.0
 40
1.0
 10
14.3069862155
 20
16.219814556
 30
0.0
 10
14.2749757002
 20
16.2218137888
 30
0.0
 10
14.1788905955
 20
16.2282775259
 30
0.0
 10
14.0187399047
 20
16.2416615878
 30
0.0
 10
13.8266073548
 20
16.2628463128
 30
0.0
 10
13.6345036528
 20
16.2902416241
 30
0.0
 10
13.4424265425
 20
16.3238936403
 30
0.0
 10
13.2502963783
 20
16.3635704362
 30
0.0
 10
13.0580471453
 20
16.4096710646
 30
0.0
 10
12.8657051072
 20
16.4635114615
 30
0.0
 10
12.6733915346
 20
16.5267399115
 30
0.0
 10
12.5133173924
 20
16.587134097
 30
0.0
 10
12.3857417565
 20
16.6439534994
 30
0.0
 10
12.2890592761
 20
16.6934463809
 30
0.0
 10
12.1915131279
 20
16.7522628532
 30
0.0
 10
12.1014566674
 20
16.8208836417
 30
0.0
 10
12.0338203379
 20
16.8860004646
 30
0.0
 10
11.9821964018
 20
16.9383439513
 30
0.0
 10
11.9494119805
 20
16.9766106412
 30
0.0
 10
11.9278541786
 20
17.0095466873
 30
0.0
 10
11.9173119933
 20
17.0311168357
 30
0.0
 10
11.9105585018
 20
17.0497055134
 30
0.0
 10
11.9078704849
 20
17.061823742
 30
0.0
 10
11.9069862155
 20
17.0694676323
 30
0.0
  0
SPLINE
  5
2B2
100
AcDbEntity
  8
0
100
AcDbSpline
 62
1
  6
CONTINUOUS
 70
0
 71
3
 72
28
 73
24
 74
0
 42
0.0000001
 43
0.0000001
 44
0.0000000001
 40
0.0
 40
0.0
 40
0.0
 40
0.0
 40
0.0179782249
 40
0.0232091958
 40
0.0313248062
 40
0.0441906082
 40
0.0652403215
 40
0.0836858339
 40
0.1168102066
 40
0.1561168911
 40
0.1950913084
 40
0.2338118355
 40
0.2723139547
 40
0.3490404974
 40
0.4256782885
 40
0.5022679925
 40
0.578832335
 40
0.6553893491
 40
0.7319503891
 40
0.8085214496
 40
0.8851044259
 40
0.9616989606
 40
1.0
 40
1.0
 40
1.0
 40
1.0
 10
11.9069862155
 20
17.0694676323
 30
0.0
 10
11.9048947614
 20
17.0849369036
 30
0.0
 10
11.9076315169
 20
17.104444851
 30
0.0
 10
11.917289547
 20
17.1288405969
 30
0.0
 10
11.9277501261
 20
17.1481663933
 30
0.0
 10
11.9489654349
 20
17.1763690117
 30
0.0
 10
11.9813128531
 20
17.206256049
 30
0.0
 10
12.0317717682
 20
17.2404091341
 30
0.0
 10
12.1033721711
 20
17.2680748826
 30
0.0
 10
12.1947138315
 20
17.2864649942
 30
0.0
 10
12.2906435405
 20
17.3055509453
 30
0.0
 10
12.386713023
 20
17.3202135748
 30
0.0
 10
12.5147296279
 20
17.3337756165
 30
0.0
 10
12.6749049312
 20
17.3430016135
 30
0.0
 10
12.8669198657
 20
17.3520998356
 30
0.0
 10
13.0589564062
 20
17.3575973947
 30
0.0
 10
13.2509771087
 20
17.3601980977
 30
0.0
 10
13.4429917342
 20
17.3602624647
 30
0.0
 10
13.634999056
 20
17.3582225851
 30
0.0
 10
13.8270012921
 20
17.3544742748
 30
0.0
 10
14.019000815
 20
17.3494226543
 30
0.0
 10
14.1789936017
 20
17.3443719631
 30
0.0
 10
14.2749871194
 20
17.3410702032
 30
0.0
 10
14.3069862155
 20
17.3399454893
 30
0.0
  0
SPLINE
  5
2B3
100
AcDbEntity
  8
0
100
AcDbSpline
 62
1
  6
CONTINUOUS
 70
0
 71
3
 72
26
 73
22
 74
0
 42
0.0000001
 43
0.0000001
 44
0.0000000001
 40
0.0
 40
0.0
 40
0.0
 40
0.0
 40
0.0315799317
 40
0.0877229056
 40
0.1438647874
 40
0.2000053636
 40
0.2561450852
 40
0.3122843778
 40
0.3684236807
 40
0.4245633305
 40
0.4807033393
 40
0.5368435643
 40
0.5929839131
 40
0.6491242619
 40
0.7052645075
 40
0.7614046603
 40
0.8175447514
 40
0.8736848219
 40
0.9298248821
 40
0.9859649732
 40
1.0
 40
1.0
 40
1.0
 40
1.0
 10
14.4869862155
 20
15.9902091987
 30
0.0
 10
14.5229867142
 20
15.9888661843
 30
0.0
 10
14.622987424
 20
15.9850907032
 30
0.0
 10
14.7869839932
 20
15.9788023032
 30
0.0
 10
14.9789839756
 20
15.971594255
 30
0.0
 10
15.1709847605
 20
15.9645079543
 30
0.0
 10
15.3629854773
 20
15.9575004178
 30
0.0
 10
15.5549862384
 20
15.950534141
 30
0.0
 10
15.7469868501
 20
15.9435659854
 30
0.0
 10
15.9389868442
 20
15.9365583682
 30
0.0
 10
16.1309865723
 20
15.9295147404
 30
0.0
 10
16.3229864351
 20
15.9224530736
 30
0.0
 10
16.5149862147
 20
15.9153786067
 30
0.0
 10
16.7069860225
 20
15.9083042654
 30
0.0
 10
16.8989860591
 20
15.9012422125
 30
0.0
 10
17.090986106
 20
15.8941884455
 30
0.0
 10
17.2829861879
 20
15.887141075
 30
0.0
 10
17.4749861892
 20
15.8800943903
 30
0.0
 10
17.6669862781
 20
15.8730500933
 30
0.0
 10
17.8109862349
 20
15.8677635096
 30
0.0
 10
17.8909862161
 20
15.8648260694
 30
0.0
 10
17.9069862155
 20
15.8642385674
 30
0.0
  0
SPLINE
  5
2B4
100
AcDbEntity
  8
0
100
AcDbSpline
 62
1
  6
CONTINUOUS
 70
0
 71
3
 72
27
 73
23
 74
0
 42
0.0000001
 43
0.0000001
 44
0.0000000001
 40
0.0
 40
0.0
 40
0.0
 40
0.0
 40
0.0456089342
 40
0.1017430262
 40
0.1578771079
 40
0.2140111896
 40
0.2701452609
 40
0.3262793323
 40
0.3824134037
 40
0.4385474751
 40
0.4946815465
 40
0.5508156179
 40
0.6069496893
 40
0.6630837607
 40
0.7192178321
 40
0.7753519035
 40
0.8314859748
 40
0.8876200462
 40
0.9156870768
 40
0.9437541073
 40
0.9718211482
 40
1.0
 40
1.0
 40
1.0
 40
1.0
 10
18.0869862155
 20
15.8576287994
 30
0.0
 10
18.1389862223
 20
15.8557192462
 30
0.0
 10
18.2549862523
 20
15.8514592854
 30
0.0
 10
18.4349861879
 20
15.8448460371
 30
0.0
 10
18.6269862223
 20
15.8377944922
 30
0.0
 10
18.8189861925
 20
15.8307418419
 30
0.0
 10
19.0109862185
 20
15.8236910299
 30
0.0
 10
19.2029862147
 20
15.8166397257
 30
0.0
 10
19.3949862158
 20
15.809588554
 30
0.0
 10
19.5869862154
 20
15.8025373449
 30
0.0
 10
19.7789862159
 20
15.7954861531
 30
0.0
 10
19.9709862143
 20
15.7884349295
 30
0.0
 10
20.16298622
 20
15.7813838155
 30
0.0
 10
20.3549861987
 20
15.7743322951
 30
0.0
 10
20.5469862782
 20
15.7672822909
 30
0.0
 10
20.7389859817
 20
15.7602266281
 30
0.0
 10
20.9309870883
 20
15.7531920836
 30
0.0
 10
21.0909836408
 20
15.7472642845
 30
0.0
 10
21.2189906472
 20
15.7426691155
 30
0.0
 10
21.3149693147
 20
15.7388238122
 30
0.0
 10
21.4111770545
 20
15.7364975949
 30
0.0
 10
21.4751040598
 20
15.7311336055
 30
0.0
 10
21.5069862155
 20
15.7262720678
 30
0.0
  0
SPLINE
  5
2B5
100
AcDbEntity
  8
0
100
AcDbSpline
 62
1
  6
CONTINUOUS
 70
0
 71
3
 72
27
 73
23
 74
0
 42
0.0000001
 43
0.0000001
 44
0.0000000001
 40
0.0
 40
0.0
 40
0.0
 40
0.0
 40
0.0287187
 40
0.0570087448
 40
0.0852917103
 40
0.113564054
 40
0.1700639112
 40
0.2264972526
 40
0.2828680737
 40
0.3391803785
 40
0.3954346719
 40
0.4516303074
 40
0.5077668971
 40
0.5638443583
 40
0.6198629005
 40
0.6758235033
 40
0.7317273152
 40
0.7875755964
 40
0.8433698467
 40
0.8991110093
 40
0.9547971346
 40
1.0
 40
1.0
 40
1.0
 40
1.0
 10
21.5069862155
 20
15.7262720678
 30
0.0
 10
21.475433979
 20
15.7150922786
 30
0.0
 10
21.4117081047
 20
15.6969947589
 30
0.0
 10
21.3149357959
 20
15.6752894611
 30
0.0
 10
21.2190204894
 20
15.6523951465
 30
0.0
 10
21.0910368015
 20
15.6225802752
 30
0.0
 10
20.931104124
 20
15.5857148163
 30
0.0
 10
20.7390914757
 20
15.5426226314
 30
0.0
 10
20.5470857499
 20
15.5005101913
 30
0.0
 10
20.3550850258
 20
15.4593556032
 30
0.0
 10
20.1630864335
 20
15.4191736693
 30
0.0
 10
19.9710871626
 20
15.3800038402
 30
0.0
 10
19.7790873933
 20
15.3418778329
 30
0.0
 10
19.5870872428
 20
15.3048248106
 30
0.0
 10
19.395085554
 20
15.2688749202
 30
0.0
 10
19.2030837014
 20
15.2340392011
 30
0.0
 10
19.0110816495
 20
15.2003306602
 30
0.0
 10
18.8190791598
 20
15.1677613272
 30
0.0
 10
18.6270771693
 20
15.1363392191
 30
0.0
 10
18.4350810953
 20
15.1060677857
 30
0.0
 10
18.2550675635
 20
15.0788649851
 30
0.0
 10
18.1390083708
 20
15.0620770222
 30
0.0
 10
18.0869862155
 20
15.0547130729
 30
0.0
  0
SPLINE
  5
2B6
100
AcDbEntity
  8
0
100
AcDbSpline
 62
1
  6
CONTINUOUS
 70
0
 71
3
 72
26
 73
22
 74
0
 42
0.0000001
 43
0.0000001
 44
0.0000000001
 40
0.0
 40
0.0
 40
0.0
 40
0.0
 40
0.0141227891
 40
0.0705759542
 40
0.1269687259
 40
0.1833044603
 40
0.2395873322
 40
0.2958217421
 40
0.3520120012
 40
0.4081621943
 40
0.4642748272
 40
0.5203527108
 40
0.5764001289
 40
0.6324228682
 40
0.6884285245
 40
0.7444263845
 40
0.8004244532
 40
0.8564288016
 40
0.9124437532
 40
0.9684730785
 40
1.0
 40
1.0
 40
1.0
 40
1.0
 10
17.9069862155
 20
15.0298905592
 30
0.0
 10
17.8909883595
 20
15.0277440813
 30
0.0
 10
17.8110314119
 20
15.0170971986
 30
0.0
 10
17.6670894117
 20
14.9986723351
 30
0.0
 10
17.4750833619
 20
14.9758040378
 30
0.0
 10
17.2830763844
 20
14.9546529059
 30
0.0
 10
17.091068882
 20
14.9352290955
 30
0.0
 10
16.8990616588
 20
14.9175300176
 30
0.0
 10
16.707054443
 20
14.9015677621
 30
0.0
 10
16.5150505213
 20
14.8873370991
 30
0.0
 10
16.3230458468
 20
14.8749682307
 30
0.0
 10
16.1310385199
 20
14.8646239122
 30
0.0
 10
15.9390286608
 20
14.8564555989
 30
0.0
 10
15.7470157459
 20
14.8506110526
 30
0.0
 10
15.5549993847
 20
14.8472757562
 30
0.0
 10
15.3629856622
 20
14.8462982478
 30
0.0
 10
15.1709753239
 20
14.8474715895
 30
0.0
 10
14.9789677416
 20
14.8505935212
 30
0.0
 10
14.7869625922
 20
14.8554927195
 30
0.0
 10
14.6229612165
 20
14.8609493979
 30
0.0
 10
14.5229801361
 20
14.8651954442
 30
0.0
 10
14.4869862155
 20
14.8668717859
 30
0.0
  0
SPLINE
  5
2B7
100
AcDbEntity
  8
0
100
AcDbSpline
 62
1
  6
CONTINUOUS
 70
0
 71
3
 72
28
 73
24
 74
0
 42
0.0000001
 43
0.0000001
 44
0.0000000001
 40
0.0
 40
0.0
 40
0.0
 40
0.0
 40
0.036534601
 40
0.1096979123
 40
0.1830511753
 40
0.2566926967
 40
0.330703632
 40
0.4051495367
 40
0.4801373402
 40
0.5558674892
 40
0.6326015584
 40
0.7106879189
 40
0.7506336232
 40
0.7916307849
 40
0.8343425127
 40
0.880233402
 40
0.9202447001
 40
0.9411848409
 40
0.9639922397
 40
0.9775053718
 40
0.9859030484
 40
0.9912812162
 40
1.0
 40
1.0
 40
1.0
 40
1.0
 10
14.3069862155
 20
14.8766189915
 30
0.0
 10
14.2749757002
 20
14.8786182243
 30
0.0
 10
14.1788905955
 20
14.8850819614
 30
0.0
 10
14.0187399047
 20
14.8984660232
 30
0.0
 10
13.8266073548
 20
14.9196507483
 30
0.0
 10
13.6345036528
 20
14.9470460596
 30
0.0
 10
13.4424265425
 20
14.9806980758
 30
0.0
 10
13.2502963783
 20
15.0203748717
 30
0.0
 10
13.0580471453
 20
15.0664755001
 30
0.0
 10
12.8657051072
 20
15.120315897
 30
0.0
 10
12.6733915346
 20
15.183544347
 30
0.0
 10
12.5133173924
 20
15.2439385325
 30
0.0
 10
12.3857417565
 20
15.3007579349
 30
0.0
 10
12.2890592761
 20
15.3502508164
 30
0.0
 10
12.1915131279
 20
15.4090672886
 30
0.0
 10
12.1014566674
 20
15.4776880772
 30
0.0
 10
12.0338203379
 20
15.5428049001
 30
0.0
 10
11.9821964018
 20
15.5951483868
 30
0.0
 10
11.9494119805
 20
15.6334150767
 30
0.0
 10
11.9278541786
 20
15.6663511228
 30
0.0
 10
11.9173119933
 20
15.6879212712
 30
0.0
 10
11.9105585018
 20
15.7065099488
 30
0.0
 10
11.9078704849
 20
15.7186281775
 30
0.0
 10
11.9069862155
 20
15.7262720678
 30
0.0
  0
SPLINE
  5
2B8
100
AcDbEntity
  8
0
100
AcDbSpline
 62
1
  6
CONTINUOUS
 70
0
 71
3
 72
28
 73
24
 74
0
 42
0.0000001
 43
0.0000001
 44
0.0000000001
 40
0.0
 40
0.0
 40
0.0
 40
0.0
 40
0.0179782249
 40
0.0232091958
 40
0.0313248062
 40
0.0441906082
 40
0.0652403215
 40
0.0836858339
 40
0.1168102066
 40
0.1561168911
 40
0.1950913084
 40
0.2338118355
 40
0.2723139547
 40
0.3490404974
 40
0.4256782885
 40
0.5022679925
 40
0.578832335
 40
0.6553893491
 40
0.7319503891
 40
0.8085214496
 40
0.8851044259
 40
0.9616989606
 40
1.0
 40
1.0
 40
1.0
 40
1.0
 10
11.9069862155
 20
15.7262720678
 30
0.0
 10
11.9048947614
 20
15.7417413391
 30
0.0
 10
11.9076315169
 20
15.7612492865
 30
0.0
 10
11.917289547
 20
15.7856450324
 30
0.0
 10
11.9277501261
 20
15.8049708288
 30
0.0
 10
11.9489654349
 20
15.8331734472
 30
0.0
 10
11.9813128531
 20
15.8630604845
 30
0.0
 10
12.0317717682
 20
15.8972135696
 30
0.0
 10
12.1033721711
 20
15.9248793181
 30
0.0
 10
12.1947138315
 20
15.9432694297
 30
0.0
 10
12.2906435405
 20
15.9623553808
 30
0.0
 10
12.386713023
 20
15.9770180103
 30
0.0
 10
12.5147296279
 20
15.990580052
 30
0.0
 10
12.6749049312
 20
15.999806049
 30
0.0
 10
12.8669198657
 20
16.0089042711
 30
0.0
 10
13.0589564062
 20
16.0144018302
 30
0.0
 10
13.2509771087
 20
16.0170025332
 30
0.0
 10
13.4429917342
 20
16.0170669002
 30
0.0
 10
13.634999056
 20
16.0150270206
 30
0.0
 10
13.8270012921
 20
16.0112787103
 30
0.0
 10
14.019000815
 20
16.0062270898
 30
0.0
 10
14.1789936017
 20
16.0011763986
 30
0.0
 10
14.2749871194
 20
15.9978746386
 30
0.0
 10
14.3069862155
 20
15.9967499248
 30
0.0
  0
ENDSEC
  0
SECTION
  2
OBJECTS
  0
DICTIONARY
  5
C
100
AcDbDictionary
280
0
281
1
  3
ACAD_GROUP
350
D
  3
ACAD_MLINESTYLE
350
17
  3
ACAD_LAYOUT
350
1A
  3
ACAD_PLOTSETTINGS
350
19
  3
ACAD_PLOTSTYLENAME
350
E
  0
DICTIONARY
  5
D
102
{ACAD_REACTORS
330
C
102
}
100
AcDbDictionary
280
0
281
1
  0
ACDBDICTIONARYWDFLT
  5
E
102
{ACAD_REACTORS
330
C
102
}
100
AcDbDictionary
281
1
  3
Normal
350
F
100
AcDbDictionaryWithDefault
340
F
  0
DICTIONARY
  5
17
102
{ACAD_REACTORS
330
C
102
}
100
AcDbDictionary
280
0
281
1
  3
Standard
350
18
  0
DICTIONARY
  5
19
102
{ACAD_REACTORS
330
C
102
}
100
AcDbDictionary
281
1
  0
DICTIONARY
  5
1A
102
{ACAD_REACTORS
330
C
102
}
100
AcDbDictionary
281
1
  3
Model
350
2B9
  3
Layout1
350
2BA
  0
ACDBPLACEHOLDER
  5
F
102
{ACAD_REACTORS
330
E
102
}
  0
MLINESTYLE
  5
18
102
{ACAD_REACTORS
330
17
102
}
100
AcDbMlineStyle
  2
STANDARD
 70
0
  3

 62
256
 51
90.0
 52
90.0
 71
2
 49
0.5
 62
256
  6
BYLAYER
 49
-0.5
 62
256
  6
BYLAYER
  0
LAYOUT
  5
2B9
102
{ACAD_REACTORS
330
1A
102
}
100
AcDbPlotSettings
  1

  2
none_device
  4

  6

 40
0.0
 41
0.0
 42
0.0
 43
0.0
 44
800.1
 45
444.5
 46
0.0
 47
0.0
 48
0.0
 49
0.0
140
0.0
141
0.0
142
1.0
143
1.0
 70
1024
 72
0
 73
0
 74
0
  7

 75
0
147
1.0
148
0.0
149
0.0
100
AcDbLayout
  1
Model
 70
0
 71
0
 10
0.0
 20
0.0
 11
31.5
 21
17.5
 12
0.0
 22
0.0
 32
0.0
 14
0.0
 24
0.0
 34
0.0
 15
0.0
 25
0.0
 35
0.0
146
0.0
 13
0.0
 23
0.0
 33
0.0
 16
1.0
 26
0.0
 36
0.0
 17
0.0
 27
1.0
 37
0.0
 76
0
330
207
345
0
346
0
  0
LAYOUT
  5
2BA
102
{ACAD_REACTORS
330
1A
102
}
100
AcDbPlotSettings
  1

  2
none_device
  4

  6

 40
0.0
 41
0.0
 42
0.0
 43
0.0
 44
800.1
 45
444.5
 46
0.0
 47
0.0
 48
0.0
 49
0.0
140
0.0
141
0.0
142
1.0
143
1.0
 70
0
 72
0
 73
0
 74
0
  7

 75
0
147
1.0
148
0.0
149
0.0
100
AcDbLayout
  1
Layout1
 70
0
 71
1
 10
0.0
 20
0.0
 11
31.5
 21
17.5
 12
0.0
 22
0.0
 32
0.0
 14
0.0
 24
0.0
 34
0.0
 15
0.0
 25
0.0
 35
0.0
146
0.0
 13
0.0
 23
0.0
 33
0.0
 16
1.0
 26
0.0
 36
0.0
 17
0.0
 27
1.0
 37
0.0
 76
0
330
208
345
0
346
0
  0
ENDSEC
  0
EOF
