999
DXF file: fuselage_ribs.dxf
999
Pro/ENGINEER 2013230 by Parametric Technology Corporation
  0
SECTION
  2
HEADER
  9
$ACADVER
  1
AC1021
  9
$DWGCODEPAGE
  3
ANSI_1252
  9
$EXTMAX
 10
31.5
 20
17.5
 30
0.0
  9
$EXTMIN
 10
0.0
 20
0.0
 30
0.0
  9
$LIMMIN
 10
0.0
 20
0.0
  9
$LIMMAX
 10
31.5
 20
17.5
  9
$VIEWCTR
 10
15.75
 20
8.75
  9
$VIEWSIZE
 40
17.5
  9
$CLAYER
  8
0
  9
$LTSCALE
 40
1.7325
  9
$CELTYPE
  6
BYLAYER
  9
$DIMSCALE
 40
1.0
  9
$DIMASZ
 40
0.1875
  9
$DIMEXO
 40
0.0625
  9
$DIMDLI
 40
1.197
  9
$DIMEXE
 40
0.125
  9
$DIMCEN
 40
0.2835
  9
$DIMLFAC
 40
1.0
  9
$DIMBLK
  1
_CLOSED
  9
$DIMTXT
 40
0.15625
  9
$DIMTOL
 70
0
  9
$DIMLIM
 70
0
  9
$DIMTFAC
 40
1.0
  9
$DIMGAP
 40
0.09
  9
$DIMDSEP
 70
46
  9
$PDMODE
 70
3
  9
$PDSIZE
 40
0.3125
  9
$HANDSEED
  5
28A
  9
$TILEMODE
 70
1
  9
$MEASUREMENT
 70
0
  9
$INSUNITS
 70
1
  0
ENDSEC
  0
SECTION
  2
CLASSES
  0
CLASS
  1
ACDBDICTIONARYWDFLT
  2
AcDbDictionaryWithDefault
  3
AutoCAD 2000
 90
0
 91
1
280
0
281
0
  0
CLASS
  1
ACDBPLACEHOLDER
  2
AcDbPlaceHolder
  3
AutoCAD 2000
 90
0
 91
1
280
0
281
0
  0
CLASS
  1
LAYOUT
  2
AcDbLayout
  3
AutoCAD 2000
 90
0
 91
0
280
0
281
0
  0
ENDSEC
  0
SECTION
  2
TABLES
  0
TABLE
  2
VPORT
  5
8
100
AcDbSymbolTable
 70
2
  0
VPORT
  5
1F4
100
AcDbSymbolTableRecord
100
AcDbViewportTableRecord
  2
*ACTIVE
 70
0
 10
0.0
 20
0.0
 11
1.0
 21
1.0
 12
15.75
 22
8.75
 13
0.0
 23
0.0
 14
1.0
 24
1.0
 15
0.0
 25
0.0
 16
0.0
 26
0.0
 36
1.0
 17
0.0
 27
0.0
 37
0.0
 40
17.5
 41
1.8
 42
50.0
 43
0.0
 44
0.0
 50
0.0
 51
0.0
 71
0
 72
100
 73
1
 74
1
 75
0
 76
0
 77
0
 78
0
  0
ENDTAB
  0
TABLE
  2
LTYPE
  5
5
100
AcDbSymbolTable
 70
6
  0
LTYPE
  5
14
100
AcDbSymbolTableRecord
100
AcDbLinetypeTableRecord
  2
BYBLOCK
 70
0
  3

 72
65
 73
0
 40
0.0
  0
LTYPE
  5
15
100
AcDbSymbolTableRecord
100
AcDbLinetypeTableRecord
  2
BYLAYER
 70
0
  3

 72
65
 73
0
 40
0.0
  0
LTYPE
  5
16
100
AcDbSymbolTableRecord
100
AcDbLinetypeTableRecord
  2
CONTINUOUS
 70
64
  3
Solid line
 72
65
 73
0
 40
0.0
  0
LTYPE
  5
1F5
100
AcDbSymbolTableRecord
100
AcDbLinetypeTableRecord
  2
CENTER
 70
64
  3
____ _ ____ _ ____ _ ____ _ ____ _ ____ _ ____
 72
65
 73
4
 40
0.6
 49
0.375
 74
0
 49
-0.075
 74
0
 49
0.075
 74
0
 49
-0.075
 74
0
  0
LTYPE
  5
1F6
100
AcDbSymbolTableRecord
100
AcDbLinetypeTableRecord
  2
HIDDEN
 70
64
  3
- - - - - - - - - - - - - - - - - - - -
 72
65
 73
2
 40
0.2
 49
0.1
 74
0
 49
-0.1
 74
0
  0
LTYPE
  5
1F7
100
AcDbSymbolTableRecord
100
AcDbLinetypeTableRecord
  2
PHANTOM
 70
64
  3
_____ _ _ _____ _ _ _____ _ _ _____
 72
65
 73
6
 40
0.8
 49
0.45
 74
0
 49
-0.05
 74
0
 49
0.1
 74
0
 49
-0.05
 74
0
 49
0.1
 74
0
 49
-0.05
 74
0
  0
LTYPE
  5
1F8
100
AcDbSymbolTableRecord
100
AcDbLinetypeTableRecord
  2
DOT
 70
64
  3
. . . . . . . . . . . . . . . . . . . .
 72
65
 73
2
 40
0.2
 49
0.1
 74
0
 49
-0.1
 74
0
  0
LTYPE
  5
1F9
100
AcDbSymbolTableRecord
100
AcDbLinetypeTableRecord
  2
DASHED
 70
64
  3
- - - - - - - - - - - - - - - - - - - -
 72
65
 73
2
 40
0.2
 49
0.1
 74
0
 49
-0.1
 74
0
  0
ENDTAB
  0
TABLE
  2
LAYER
  5
2
100
AcDbSymbolTable
 70
36
  0
LAYER
  5
10
100
AcDbSymbolTableRecord
100
AcDbLayerTableRecord
  2
0
 70
0
 62
7
  6
CONTINUOUS
370
-3
390
F
  0
LAYER
  5
1FA
100
AcDbSymbolTableRecord
100
AcDbLayerTableRecord
  2
DEFAULT_1
 70
0
 62
7
  6
CENTER
370
-3
390
F
  0
LAYER
  5
1FB
100
AcDbSymbolTableRecord
100
AcDbLayerTableRecord
  2
DEFAULT_2
 70
0
 62
8
  6
HIDDEN
370
-3
390
F
  0
LAYER
  5
1FC
100
AcDbSymbolTableRecord
100
AcDbLayerTableRecord
  2
DEFAULT_3
 70
0
 62
7
  6
PHANTOM
370
-3
390
F
  0
LAYER
  5
1FD
100
AcDbSymbolTableRecord
100
AcDbLayerTableRecord
  2
01___PRT_ALL_DTM_PLN
 70
0
 62
7
  6
CONTINUOUS
370
-3
390
F
  0
LAYER
  5
1FE
100
AcDbSymbolTableRecord
100
AcDbLayerTableRecord
  2
01___PRT_DEF_DTM_PLN
 70
0
 62
7
  6
CONTINUOUS
370
-3
390
F
  0
LAYER
  5
1FF
100
AcDbSymbolTableRecord
100
AcDbLayerTableRecord
  2
02___PRT_ALL_AXES
 70
0
 62
7
  6
CONTINUOUS
370
-3
390
F
  0
LAYER
  5
200
100
AcDbSymbolTableRecord
100
AcDbLayerTableRecord
  2
03___PRT_ALL_CURVES
 70
0
 62
7
  6
CONTINUOUS
370
-3
390
F
  0
LAYER
  5
201
100
AcDbSymbolTableRecord
100
AcDbLayerTableRecord
  2
04___PRT_ALL_DTM_PNT
 70
0
 62
7
  6
CONTINUOUS
370
-3
390
F
  0
LAYER
  5
202
100
AcDbSymbolTableRecord
100
AcDbLayerTableRecord
  2
05___PRT_ALL_DTM_CSYS
 70
0
 62
7
  6
CONTINUOUS
370
-3
390
F
  0
LAYER
  5
203
100
AcDbSymbolTableRecord
100
AcDbLayerTableRecord
  2
05___PRT_DEF_DTM_CSYS
 70
0
 62
7
  6
CONTINUOUS
370
-3
390
F
  0
LAYER
  5
204
100
AcDbSymbolTableRecord
100
AcDbLayerTableRecord
  2
06___PRT_ALL_SURFS
 70
0
 62
7
  6
CONTINUOUS
370
-3
390
F
  0
ENDTAB
  0
TABLE
  2
STYLE
  5
3
100
AcDbSymbolTable
 70
1
  0
STYLE
  5
11
100
AcDbSymbolTableRecord
100
AcDbTextStyleTableRecord
  2
STANDARD
 70
0
 40
0.0
 41
0.8
 50
0.0
 71
0
 42
0.2
  3
txt
  4

  0
STYLE
  5
205
100
AcDbSymbolTableRecord
100
AcDbTextStyleTableRecord
  2
TEXTSTYLE_1
 70
0
 40
0.0
 41
0.8
 50
0.0
 71
0
 42
0.2
  3
gdt
  4

  0
ENDTAB
  0
TABLE
  2
VIEW
  5
6
100
AcDbSymbolTable
 70
0
  0
ENDTAB
  0
TABLE
  2
UCS
  5
7
100
AcDbSymbolTable
 70
0
  0
ENDTAB
  0
TABLE
  2
APPID
  5
9
100
AcDbSymbolTable
 70
1
  0
APPID
  5
206
100
AcDbSymbolTableRecord
100
AcDbRegAppTableRecord
  2
ACAD
 70
0
  0
ENDTAB
  0
TABLE
  2
BLOCK_RECORD
  5
1
100
AcDbSymbolTable
 70
0
  0
BLOCK_RECORD
  5
207
100
AcDbSymbolTableRecord
100
AcDbBlockTableRecord
  2
*Model_Space
  0
BLOCK_RECORD
  5
208
100
AcDbSymbolTableRecord
100
AcDbBlockTableRecord
  2
*Paper_Space
  0
ENDTAB
  0
TABLE
  2
DIMSTYLE
  5
A
100
AcDbSymbolTable
 70
1
100
AcDbDimStyleTable
 71
0
  0
DIMSTYLE
105
209
100
AcDbSymbolTableRecord
100
AcDbDimStyleTableRecord
  2
STANDARD
 70
0
  3

  4

 40
1.0
 41
0.1875
 42
0.0625
 43
0.38
 44
0.125
 45
0.0
 46
0.0
 47
0.01
 48
0.01
140
0.15625
141
0.09
142
0.0
143
25.4
144
1.0
145
0.0
146
1.0
147
0.09
 71
0.0
 72
0.0
 73
1
 74
1
 75
0
 76
0
 77
0
 78
4
170
0
171
2
172
0
173
0
174
0
175
0
176
0
177
0
178
0
270
2
271
2
272
2
273
2
274
2
275
0
280
0
281
0
282
0
283
1
284
4
285
0
286
0
287
3
288
0
340
11
278
46
  0
ENDTAB
  0
ENDSEC
  0
SECTION
  2
BLOCKS
  0
BLOCK
  5
20
100
AcDbEntity
  8
0
100
AcDbBlockBegin
  2
*Model_Space
 70
0
 10
0.0
 20
0.0
 30
0.0
  3
*Model_Space
  1

  0
ENDBLK
  5
21
100
AcDbEntity
  8
0
100
AcDbBlockEnd
  0
BLOCK
  5
1C
100
AcDbEntity
  8
0
100
AcDbBlockBegin
  2
*Paper_Space
 70
0
 10
0.0
 20
0.0
 30
0.0
  3
*Paper_Space
  1

  0
ENDBLK
  5
1D
100
AcDbEntity
  8
0
100
AcDbBlockEnd
  0
ENDSEC
  0
SECTION
  2
ENTITIES
  0
LINE
  5
20A
100
AcDbEntity
  8
0
100
AcDbLine
 62
1
  6
CONTINUOUS
 10
27.8038599356
 20
16.9284199772
 11
27.917162019
 21
17.0682864774
  0
LINE
  5
20B
100
AcDbEntity
  8
0
100
AcDbLine
 62
1
  6
CONTINUOUS
 10
27.511164131
 20
15.8263819626
 11
27.511164131
 21
16.0063819626
  0
LINE
  5
20C
100
AcDbEntity
  8
0
100
AcDbLine
 62
1
  6
CONTINUOUS
 10
27.990029155
 20
14.6788179679
 11
27.8819828567
 21
14.8227832325
  0
LINE
  5
20D
100
AcDbEntity
  8
0
100
AcDbLine
 62
1
  6
CONTINUOUS
 10
28.9461381048
 20
14.1483819626
 11
29.7321381048
 21
14.1483819626
  0
LINE
  5
20E
100
AcDbEntity
  8
0
100
AcDbLine
 62
1
  6
CONTINUOUS
 10
29.7321381048
 20
14.5413819626
 11
28.9461381048
 21
14.5413819626
  0
LINE
  5
20F
100
AcDbEntity
  8
0
100
AcDbLine
 62
1
  6
CONTINUOUS
 10
30.3774660877
 20
14.6663819626
 11
28.300810122
 21
14.6663819626
  0
LINE
  5
210
100
AcDbEntity
  8
0
100
AcDbLine
 62
1
  6
CONTINUOUS
 10
28.5591381048
 20
17.3543824308
 11
28.5591381048
 21
17.1793824308
  0
LINE
  5
211
100
AcDbEntity
  8
0
100
AcDbLine
 62
1
  6
CONTINUOUS
 10
28.7391381048
 20
17.3543824308
 11
28.7391381048
 21
17.1793824308
  0
LINE
  5
212
100
AcDbEntity
  8
0
100
AcDbLine
 62
1
  6
CONTINUOUS
 10
28.9461381048
 20
14.5413819626
 11
28.9461381048
 21
14.1483819626
  0
LINE
  5
213
100
AcDbEntity
  8
0
100
AcDbLine
 62
1
  6
CONTINUOUS
 10
30.7611141907
 20
17.0682864774
 11
30.8932103298
 21
17.1752940006
  0
LINE
  5
214
100
AcDbEntity
  8
0
100
AcDbLine
 62
1
  6
CONTINUOUS
 10
27.7395240532
 20
14.7158675372
 11
27.8819828567
 21
14.8227832325
  0
LINE
  5
215
100
AcDbEntity
  8
0
100
AcDbLine
 62
1
  6
CONTINUOUS
 10
30.8744162741
 20
16.9284199772
 11
31.0002056235
 21
17.03031854
  0
LINE
  5
216
100
AcDbEntity
  8
0
100
AcDbLine
 62
1
  6
CONTINUOUS
 10
27.8540619606
 20
14.5767742417
 11
27.990029155
 21
14.6788179679
  0
LINE
  5
217
100
AcDbEntity
  8
0
100
AcDbLine
 62
1
  6
CONTINUOUS
 10
27.341164131
 20
15.8263819626
 11
27.511164131
 21
15.8263819626
  0
LINE
  5
218
100
AcDbEntity
  8
0
100
AcDbLine
 62
1
  6
CONTINUOUS
 10
31.1671120786
 20
15.8263819626
 11
31.3371120786
 21
15.8263819626
  0
LINE
  5
219
100
AcDbEntity
  8
0
100
AcDbLine
 62
1
  6
CONTINUOUS
 10
30.6882470547
 20
14.6788179679
 11
30.8242142491
 21
14.5767742417
  0
LINE
  5
21A
100
AcDbEntity
  8
0
100
AcDbLine
 62
1
  6
CONTINUOUS
 10
27.6780705862
 20
17.03031854
 11
27.8038599356
 21
16.9284199772
  0
LINE
  5
21B
100
AcDbEntity
  8
0
100
AcDbLine
 62
1
  6
CONTINUOUS
 10
27.341164131
 20
16.0063819626
 11
27.511164131
 21
16.0063819626
  0
LINE
  5
21C
100
AcDbEntity
  8
0
100
AcDbLine
 62
1
  6
CONTINUOUS
 10
31.1671120786
 20
16.0063819626
 11
31.3371120786
 21
16.0063819626
  0
LINE
  5
21D
100
AcDbEntity
  8
0
100
AcDbLine
 62
1
  6
CONTINUOUS
 10
30.9387521565
 20
14.7158675372
 11
30.796293353
 21
14.8227832325
  0
LINE
  5
21E
100
AcDbEntity
  8
0
100
AcDbLine
 62
1
  6
CONTINUOUS
 10
27.7850658799
 20
17.1752940006
 11
27.917162019
 21
17.0682864774
  0
LINE
  5
21F
100
AcDbEntity
  8
0
100
AcDbLine
 62
1
  6
CONTINUOUS
 10
29.7321381048
 20
14.1483819626
 11
29.7321381048
 21
14.5413819626
  0
LINE
  5
220
100
AcDbEntity
  8
0
100
AcDbLine
 62
1
  6
CONTINUOUS
 10
29.9391381048
 20
17.3543824308
 11
29.9391381048
 21
17.1793824308
  0
LINE
  5
221
100
AcDbEntity
  8
0
100
AcDbLine
 62
1
  6
CONTINUOUS
 10
30.1191381048
 20
17.3543824308
 11
30.1191381048
 21
17.1793824308
  0
LINE
  5
222
100
AcDbEntity
  8
0
100
AcDbLine
 62
1
  6
CONTINUOUS
 10
28.1143932334
 20
16.9843824308
 11
30.5638829762
 21
16.9843824308
  0
LINE
  5
223
100
AcDbEntity
  8
0
100
AcDbLine
 62
1
  6
CONTINUOUS
 10
30.1191381048
 20
17.1793824308
 11
29.9391381048
 21
17.1793824308
  0
LINE
  5
224
100
AcDbEntity
  8
0
100
AcDbLine
 62
1
  6
CONTINUOUS
 10
28.5591381048
 20
17.1793824308
 11
28.7391381048
 21
17.1793824308
  0
LINE
  5
225
100
AcDbEntity
  8
0
100
AcDbLine
 62
1
  6
CONTINUOUS
 10
30.6882470547
 20
14.6788179679
 11
30.796293353
 21
14.8227832325
  0
LINE
  5
226
100
AcDbEntity
  8
0
100
AcDbLine
 62
1
  6
CONTINUOUS
 10
30.5097839819
 20
17.3543824308
 11
30.1191381048
 21
17.3543824308
  0
LINE
  5
227
100
AcDbEntity
  8
0
100
AcDbLine
 62
1
  6
CONTINUOUS
 10
29.9391381048
 20
17.3543824308
 11
28.7391381048
 21
17.3543824308
  0
LINE
  5
228
100
AcDbEntity
  8
0
100
AcDbLine
 62
1
  6
CONTINUOUS
 10
28.5591381048
 20
17.3543824308
 11
28.1684922278
 21
17.3543824308
  0
LINE
  5
229
100
AcDbEntity
  8
0
100
AcDbLine
 62
1
  6
CONTINUOUS
 10
31.1671120786
 20
15.8263819626
 11
31.1671120786
 21
16.0063819626
  0
LINE
  5
22A
100
AcDbEntity
  8
0
100
AcDbLine
 62
1
  6
CONTINUOUS
 10
30.8744162741
 20
16.9284199772
 11
30.7611141907
 21
17.0682864774
  0
LINE
  5
22B
100
AcDbEntity
  8
0
100
AcDbLine
 62
1
  6
CONTINUOUS
 10
23.5456442097
 20
16.9569986062
 11
23.6589462932
 21
17.0968651064
  0
LINE
  5
22C
100
AcDbEntity
  8
0
100
AcDbLine
 62
1
  6
CONTINUOUS
 10
23.2529484052
 20
15.8549605916
 11
23.2529484052
 21
16.0349605916
  0
LINE
  5
22D
100
AcDbEntity
  8
0
100
AcDbLine
 62
1
  6
CONTINUOUS
 10
23.7318134292
 20
14.7073965969
 11
23.6237671309
 21
14.8513618616
  0
LINE
  5
22E
100
AcDbEntity
  8
0
100
AcDbLine
 62
1
  6
CONTINUOUS
 10
24.687922379
 20
14.1769605916
 11
25.473922379
 21
14.1769605916
  0
LINE
  5
22F
100
AcDbEntity
  8
0
100
AcDbLine
 62
1
  6
CONTINUOUS
 10
25.473922379
 20
14.5699605916
 11
24.687922379
 21
14.5699605916
  0
LINE
  5
230
100
AcDbEntity
  8
0
100
AcDbLine
 62
1
  6
CONTINUOUS
 10
26.1192503619
 20
14.6949605916
 11
24.0425943962
 21
14.6949605916
  0
LINE
  5
231
100
AcDbEntity
  8
0
100
AcDbLine
 62
1
  6
CONTINUOUS
 10
24.300922379
 20
17.3829610598
 11
24.300922379
 21
17.2079610598
  0
LINE
  5
232
100
AcDbEntity
  8
0
100
AcDbLine
 62
1
  6
CONTINUOUS
 10
24.480922379
 20
17.3829610598
 11
24.480922379
 21
17.2079610598
  0
LINE
  5
233
100
AcDbEntity
  8
0
100
AcDbLine
 62
1
  6
CONTINUOUS
 10
24.687922379
 20
14.5699605916
 11
24.687922379
 21
14.1769605916
  0
LINE
  5
234
100
AcDbEntity
  8
0
100
AcDbLine
 62
1
  6
CONTINUOUS
 10
26.5028984649
 20
17.0968651064
 11
26.634994604
 21
17.2038726297
  0
LINE
  5
235
100
AcDbEntity
  8
0
100
AcDbLine
 62
1
  6
CONTINUOUS
 10
23.4813083274
 20
14.7444461662
 11
23.6237671309
 21
14.8513618616
  0
LINE
  5
236
100
AcDbEntity
  8
0
100
AcDbLine
 62
1
  6
CONTINUOUS
 10
26.6162005483
 20
16.9569986062
 11
26.7419898977
 21
17.058897169
  0
LINE
  5
237
100
AcDbEntity
  8
0
100
AcDbLine
 62
1
  6
CONTINUOUS
 10
23.5958462348
 20
14.6053528708
 11
23.7318134292
 21
14.7073965969
  0
LINE
  5
238
100
AcDbEntity
  8
0
100
AcDbLine
 62
1
  6
CONTINUOUS
 10
23.0829484052
 20
15.8549605916
 11
23.2529484052
 21
15.8549605916
  0
LINE
  5
239
100
AcDbEntity
  8
0
100
AcDbLine
 62
1
  6
CONTINUOUS
 10
26.9088963528
 20
15.8549605916
 11
27.0788963528
 21
15.8549605916
  0
LINE
  5
23A
100
AcDbEntity
  8
0
100
AcDbLine
 62
1
  6
CONTINUOUS
 10
26.4300313289
 20
14.7073965969
 11
26.5659985233
 21
14.6053528708
  0
LINE
  5
23B
100
AcDbEntity
  8
0
100
AcDbLine
 62
1
  6
CONTINUOUS
 10
23.4198548604
 20
17.058897169
 11
23.5456442097
 21
16.9569986062
  0
LINE
  5
23C
100
AcDbEntity
  8
0
100
AcDbLine
 62
1
  6
CONTINUOUS
 10
23.0829484052
 20
16.0349605916
 11
23.2529484052
 21
16.0349605916
  0
LINE
  5
23D
100
AcDbEntity
  8
0
100
AcDbLine
 62
1
  6
CONTINUOUS
 10
26.9088963528
 20
16.0349605916
 11
27.0788963528
 21
16.0349605916
  0
LINE
  5
23E
100
AcDbEntity
  8
0
100
AcDbLine
 62
1
  6
CONTINUOUS
 10
26.6805364307
 20
14.7444461662
 11
26.5380776272
 21
14.8513618616
  0
LINE
  5
23F
100
AcDbEntity
  8
0
100
AcDbLine
 62
1
  6
CONTINUOUS
 10
23.526850154
 20
17.2038726297
 11
23.6589462932
 21
17.0968651064
  0
LINE
  5
240
100
AcDbEntity
  8
0
100
AcDbLine
 62
1
  6
CONTINUOUS
 10
25.473922379
 20
14.1769605916
 11
25.473922379
 21
14.5699605916
  0
LINE
  5
241
100
AcDbEntity
  8
0
100
AcDbLine
 62
1
  6
CONTINUOUS
 10
25.680922379
 20
17.3829610598
 11
25.680922379
 21
17.2079610598
  0
LINE
  5
242
100
AcDbEntity
  8
0
100
AcDbLine
 62
1
  6
CONTINUOUS
 10
25.860922379
 20
17.3829610598
 11
25.860922379
 21
17.2079610598
  0
LINE
  5
243
100
AcDbEntity
  8
0
100
AcDbLine
 62
1
  6
CONTINUOUS
 10
23.8561775076
 20
17.0129610598
 11
26.3056672504
 21
17.0129610598
  0
LINE
  5
244
100
AcDbEntity
  8
0
100
AcDbLine
 62
1
  6
CONTINUOUS
 10
25.860922379
 20
17.2079610598
 11
25.680922379
 21
17.2079610598
  0
LINE
  5
245
100
AcDbEntity
  8
0
100
AcDbLine
 62
1
  6
CONTINUOUS
 10
24.300922379
 20
17.2079610598
 11
24.480922379
 21
17.2079610598
  0
LINE
  5
246
100
AcDbEntity
  8
0
100
AcDbLine
 62
1
  6
CONTINUOUS
 10
26.4300313289
 20
14.7073965969
 11
26.5380776272
 21
14.8513618616
  0
LINE
  5
247
100
AcDbEntity
  8
0
100
AcDbLine
 62
1
  6
CONTINUOUS
 10
26.251568256
 20
17.3829610598
 11
25.860922379
 21
17.3829610598
  0
LINE
  5
248
100
AcDbEntity
  8
0
100
AcDbLine
 62
1
  6
CONTINUOUS
 10
25.680922379
 20
17.3829610598
 11
24.480922379
 21
17.3829610598
  0
LINE
  5
249
100
AcDbEntity
  8
0
100
AcDbLine
 62
1
  6
CONTINUOUS
 10
24.300922379
 20
17.3829610598
 11
23.910276502
 21
17.3829610598
  0
LINE
  5
24A
100
AcDbEntity
  8
0
100
AcDbLine
 62
1
  6
CONTINUOUS
 10
26.9088963528
 20
15.8549605916
 11
26.9088963528
 21
16.0349605916
  0
LINE
  5
24B
100
AcDbEntity
  8
0
100
AcDbLine
 62
1
  6
CONTINUOUS
 10
26.6162005483
 20
16.9569986062
 11
26.5028984649
 21
17.0968651064
  0
LINE
  5
24C
100
AcDbEntity
  8
0
100
AcDbLine
 62
1
  6
CONTINUOUS
 10
19.2874284839
 20
16.9569986062
 11
19.4007305674
 21
17.0968651064
  0
LINE
  5
24D
100
AcDbEntity
  8
0
100
AcDbLine
 62
1
  6
CONTINUOUS
 10
18.9947326794
 20
15.8549605916
 11
18.9947326794
 21
16.0349605916
  0
LINE
  5
24E
100
AcDbEntity
  8
0
100
AcDbLine
 62
1
  6
CONTINUOUS
 10
19.4735977034
 20
14.7073965969
 11
19.3655514051
 21
14.8513618616
  0
LINE
  5
24F
100
AcDbEntity
  8
0
100
AcDbLine
 62
1
  6
CONTINUOUS
 10
20.4297066532
 20
14.1769605916
 11
21.2157066532
 21
14.1769605916
  0
LINE
  5
250
100
AcDbEntity
  8
0
100
AcDbLine
 62
1
  6
CONTINUOUS
 10
21.2157066532
 20
14.5699605916
 11
20.4297066532
 21
14.5699605916
  0
LINE
  5
251
100
AcDbEntity
  8
0
100
AcDbLine
 62
1
  6
CONTINUOUS
 10
21.8610346361
 20
14.6949605916
 11
19.7843786704
 21
14.6949605916
  0
LINE
  5
252
100
AcDbEntity
  8
0
100
AcDbLine
 62
1
  6
CONTINUOUS
 10
20.0427066532
 20
17.3829610598
 11
20.0427066532
 21
17.2079610598
  0
LINE
  5
253
100
AcDbEntity
  8
0
100
AcDbLine
 62
1
  6
CONTINUOUS
 10
20.2227066532
 20
17.3829610598
 11
20.2227066532
 21
17.2079610598
  0
LINE
  5
254
100
AcDbEntity
  8
0
100
AcDbLine
 62
1
  6
CONTINUOUS
 10
20.4297066532
 20
14.5699605916
 11
20.4297066532
 21
14.1769605916
  0
LINE
  5
255
100
AcDbEntity
  8
0
100
AcDbLine
 62
1
  6
CONTINUOUS
 10
22.2446827391
 20
17.0968651064
 11
22.3767788782
 21
17.2038726297
  0
LINE
  5
256
100
AcDbEntity
  8
0
100
AcDbLine
 62
1
  6
CONTINUOUS
 10
19.2230926016
 20
14.7444461662
 11
19.3655514051
 21
14.8513618616
  0
LINE
  5
257
100
AcDbEntity
  8
0
100
AcDbLine
 62
1
  6
CONTINUOUS
 10
22.3579848225
 20
16.9569986062
 11
22.4837741719
 21
17.058897169
  0
LINE
  5
258
100
AcDbEntity
  8
0
100
AcDbLine
 62
1
  6
CONTINUOUS
 10
19.337630509
 20
14.6053528708
 11
19.4735977034
 21
14.7073965969
  0
LINE
  5
259
100
AcDbEntity
  8
0
100
AcDbLine
 62
1
  6
CONTINUOUS
 10
18.8247326794
 20
15.8549605916
 11
18.9947326794
 21
15.8549605916
  0
LINE
  5
25A
100
AcDbEntity
  8
0
100
AcDbLine
 62
1
  6
CONTINUOUS
 10
22.650680627
 20
15.8549605916
 11
22.820680627
 21
15.8549605916
  0
LINE
  5
25B
100
AcDbEntity
  8
0
100
AcDbLine
 62
1
  6
CONTINUOUS
 10
22.1718156031
 20
14.7073965969
 11
22.3077827975
 21
14.6053528708
  0
LINE
  5
25C
100
AcDbEntity
  8
0
100
AcDbLine
 62
1
  6
CONTINUOUS
 10
19.1616391345
 20
17.058897169
 11
19.2874284839
 21
16.9569986062
  0
LINE
  5
25D
100
AcDbEntity
  8
0
100
AcDbLine
 62
1
  6
CONTINUOUS
 10
18.8247326794
 20
16.0349605916
 11
18.9947326794
 21
16.0349605916
  0
LINE
  5
25E
100
AcDbEntity
  8
0
100
AcDbLine
 62
1
  6
CONTINUOUS
 10
22.650680627
 20
16.0349605916
 11
22.820680627
 21
16.0349605916
  0
LINE
  5
25F
100
AcDbEntity
  8
0
100
AcDbLine
 62
1
  6
CONTINUOUS
 10
22.4223207049
 20
14.7444461662
 11
22.2798619014
 21
14.8513618616
  0
LINE
  5
260
100
AcDbEntity
  8
0
100
AcDbLine
 62
1
  6
CONTINUOUS
 10
19.2686344282
 20
17.2038726297
 11
19.4007305674
 21
17.0968651064
  0
LINE
  5
261
100
AcDbEntity
  8
0
100
AcDbLine
 62
1
  6
CONTINUOUS
 10
21.2157066532
 20
14.1769605916
 11
21.2157066532
 21
14.5699605916
  0
LINE
  5
262
100
AcDbEntity
  8
0
100
AcDbLine
 62
1
  6
CONTINUOUS
 10
21.4227066532
 20
17.3829610598
 11
21.4227066532
 21
17.2079610598
  0
LINE
  5
263
100
AcDbEntity
  8
0
100
AcDbLine
 62
1
  6
CONTINUOUS
 10
21.6027066532
 20
17.3829610598
 11
21.6027066532
 21
17.2079610598
  0
LINE
  5
264
100
AcDbEntity
  8
0
100
AcDbLine
 62
1
  6
CONTINUOUS
 10
19.5979617818
 20
17.0129610598
 11
22.0474515246
 21
17.0129610598
  0
LINE
  5
265
100
AcDbEntity
  8
0
100
AcDbLine
 62
1
  6
CONTINUOUS
 10
21.6027066532
 20
17.2079610598
 11
21.4227066532
 21
17.2079610598
  0
LINE
  5
266
100
AcDbEntity
  8
0
100
AcDbLine
 62
1
  6
CONTINUOUS
 10
20.0427066532
 20
17.2079610598
 11
20.2227066532
 21
17.2079610598
  0
LINE
  5
267
100
AcDbEntity
  8
0
100
AcDbLine
 62
1
  6
CONTINUOUS
 10
22.1718156031
 20
14.7073965969
 11
22.2798619014
 21
14.8513618616
  0
LINE
  5
268
100
AcDbEntity
  8
0
100
AcDbLine
 62
1
  6
CONTINUOUS
 10
21.9933525302
 20
17.3829610598
 11
21.6027066532
 21
17.3829610598
  0
LINE
  5
269
100
AcDbEntity
  8
0
100
AcDbLine
 62
1
  6
CONTINUOUS
 10
21.4227066532
 20
17.3829610598
 11
20.2227066532
 21
17.3829610598
  0
LINE
  5
26A
100
AcDbEntity
  8
0
100
AcDbLine
 62
1
  6
CONTINUOUS
 10
20.0427066532
 20
17.3829610598
 11
19.6520607762
 21
17.3829610598
  0
LINE
  5
26B
100
AcDbEntity
  8
0
100
AcDbLine
 62
1
  6
CONTINUOUS
 10
22.650680627
 20
15.8549605916
 11
22.650680627
 21
16.0349605916
  0
LINE
  5
26C
100
AcDbEntity
  8
0
100
AcDbLine
 62
1
  6
CONTINUOUS
 10
22.3579848225
 20
16.9569986062
 11
22.2446827391
 21
17.0968651064
  0
ARC
  5
26D
100
AcDbEntity
  8
0
100
AcDbCircle
 62
1
  6
CONTINUOUS
 10
29.3391381048
 20
15.9163819626
 40
2.0
100
AcDbArc
 50
146.1536070908
 51
177.4208189484
  0
ARC
  5
26E
100
AcDbEntity
  8
0
100
AcDbCircle
 62
1
  6
CONTINUOUS
 10
29.3391381048
 20
15.9163819626
 40
2.0
100
AcDbArc
 50
182.5791810516
 51
216.8883213718
  0
ARC
  5
26F
100
AcDbEntity
  8
0
100
AcDbCircle
 62
1
  6
CONTINUOUS
 10
29.3391381048
 20
15.9163819626
 40
2.0
100
AcDbArc
 50
222.0519284627
 51
317.9480715373
  0
ARC
  5
270
100
AcDbEntity
  8
0
100
AcDbCircle
 62
1
  6
CONTINUOUS
 10
29.3391381048
 20
15.9163819626
 40
2.0
100
AcDbArc
 50
323.1116786282
 51
357.4208189484
  0
ARC
  5
271
100
AcDbEntity
  8
0
100
AcDbCircle
 62
1
  6
CONTINUOUS
 10
29.3391381048
 20
15.9163819626
 40
2.0
100
AcDbArc
 50
2.5791810516
 51
33.8463929092
  0
ARC
  5
272
100
AcDbEntity
  8
0
100
AcDbCircle
 62
1
  6
CONTINUOUS
 10
29.3391381048
 20
15.9163819626
 40
1.625
100
AcDbArc
 50
309.7151372318
 51
41.0890378154
  0
ARC
  5
273
100
AcDbEntity
  8
0
100
AcDbCircle
 62
1
  6
CONTINUOUS
 10
29.3391381048
 20
15.9163819626
 40
1.625
100
AcDbArc
 50
138.9109621846
 51
230.2848627682
  0
ARC
  5
274
100
AcDbEntity
  8
0
100
AcDbCircle
 62
1
  6
CONTINUOUS
 10
28.1684922278
 20
16.8543824308
 40
0.5
100
AcDbArc
 50
90.0
 51
140.0720988351
  0
ARC
  5
275
100
AcDbEntity
  8
0
100
AcDbCircle
 62
1
  6
CONTINUOUS
 10
30.5097839819
 20
16.8543824308
 40
0.5
100
AcDbArc
 50
39.9279011649
 51
90.0
  0
ARC
  5
276
100
AcDbEntity
  8
0
100
AcDbCircle
 62
1
  6
CONTINUOUS
 10
25.080922379
 20
15.9449605916
 40
2.0
100
AcDbArc
 50
146.1536070908
 51
177.4208189484
  0
ARC
  5
277
100
AcDbEntity
  8
0
100
AcDbCircle
 62
1
  6
CONTINUOUS
 10
25.080922379
 20
15.9449605916
 40
2.0
100
AcDbArc
 50
182.5791810516
 51
216.8883213718
  0
ARC
  5
278
100
AcDbEntity
  8
0
100
AcDbCircle
 62
1
  6
CONTINUOUS
 10
25.080922379
 20
15.9449605916
 40
2.0
100
AcDbArc
 50
222.0519284627
 51
317.9480715373
  0
ARC
  5
279
100
AcDbEntity
  8
0
100
AcDbCircle
 62
1
  6
CONTINUOUS
 10
25.080922379
 20
15.9449605916
 40
2.0
100
AcDbArc
 50
323.1116786282
 51
357.4208189484
  0
ARC
  5
27A
100
AcDbEntity
  8
0
100
AcDbCircle
 62
1
  6
CONTINUOUS
 10
25.080922379
 20
15.9449605916
 40
2.0
100
AcDbArc
 50
2.5791810516
 51
33.8463929092
  0
ARC
  5
27B
100
AcDbEntity
  8
0
100
AcDbCircle
 62
1
  6
CONTINUOUS
 10
25.080922379
 20
15.9449605916
 40
1.625
100
AcDbArc
 50
309.7151372318
 51
41.0890378154
  0
ARC
  5
27C
100
AcDbEntity
  8
0
100
AcDbCircle
 62
1
  6
CONTINUOUS
 10
25.080922379
 20
15.9449605916
 40
1.625
100
AcDbArc
 50
138.9109621846
 51
230.2848627682
  0
ARC
  5
27D
100
AcDbEntity
  8
0
100
AcDbCircle
 62
1
  6
CONTINUOUS
 10
23.910276502
 20
16.8829610598
 40
0.5
100
AcDbArc
 50
90.0
 51
140.0720988351
  0
ARC
  5
27E
100
AcDbEntity
  8
0
100
AcDbCircle
 62
1
  6
CONTINUOUS
 10
26.251568256
 20
16.8829610598
 40
0.5
100
AcDbArc
 50
39.9279011649
 51
90.0
  0
ARC
  5
27F
100
AcDbEntity
  8
0
100
AcDbCircle
 62
1
  6
CONTINUOUS
 10
20.8227066532
 20
15.9449605916
 40
2.0
100
AcDbArc
 50
146.1536070908
 51
177.4208189484
  0
ARC
  5
280
100
AcDbEntity
  8
0
100
AcDbCircle
 62
1
  6
CONTINUOUS
 10
20.8227066532
 20
15.9449605916
 40
2.0
100
AcDbArc
 50
182.5791810516
 51
216.8883213718
  0
ARC
  5
281
100
AcDbEntity
  8
0
100
AcDbCircle
 62
1
  6
CONTINUOUS
 10
20.8227066532
 20
15.9449605916
 40
2.0
100
AcDbArc
 50
222.0519284627
 51
317.9480715373
  0
ARC
  5
282
100
AcDbEntity
  8
0
100
AcDbCircle
 62
1
  6
CONTINUOUS
 10
20.8227066532
 20
15.9449605916
 40
2.0
100
AcDbArc
 50
323.1116786282
 51
357.4208189484
  0
ARC
  5
283
100
AcDbEntity
  8
0
100
AcDbCircle
 62
1
  6
CONTINUOUS
 10
20.8227066532
 20
15.9449605916
 40
2.0
100
AcDbArc
 50
2.5791810516
 51
33.8463929092
  0
ARC
  5
284
100
AcDbEntity
  8
0
100
AcDbCircle
 62
1
  6
CONTINUOUS
 10
20.8227066532
 20
15.9449605916
 40
1.625
100
AcDbArc
 50
309.7151372318
 51
41.0890378154
  0
ARC
  5
285
100
AcDbEntity
  8
0
100
AcDbCircle
 62
1
  6
CONTINUOUS
 10
20.8227066532
 20
15.9449605916
 40
1.625
100
AcDbArc
 50
138.9109621846
 51
230.2848627682
  0
ARC
  5
286
100
AcDbEntity
  8
0
100
AcDbCircle
 62
1
  6
CONTINUOUS
 10
19.6520607762
 20
16.8829610598
 40
0.5
100
AcDbArc
 50
90.0
 51
140.0720988351
  0
ARC
  5
287
100
AcDbEntity
  8
0
100
AcDbCircle
 62
1
  6
CONTINUOUS
 10
21.9933525302
 20
16.8829610598
 40
0.5
100
AcDbArc
 50
39.9279011649
 51
90.0
  0
ENDSEC
  0
SECTION
  2
OBJECTS
  0
DICTIONARY
  5
C
100
AcDbDictionary
280
0
281
1
  3
ACAD_GROUP
350
D
  3
ACAD_MLINESTYLE
350
17
  3
ACAD_LAYOUT
350
1A
  3
ACAD_PLOTSETTINGS
350
19
  3
ACAD_PLOTSTYLENAME
350
E
  0
DICTIONARY
  5
D
102
{ACAD_REACTORS
330
C
102
}
100
AcDbDictionary
280
0
281
1
  0
ACDBDICTIONARYWDFLT
  5
E
102
{ACAD_REACTORS
330
C
102
}
100
AcDbDictionary
281
1
  3
Normal
350
F
100
AcDbDictionaryWithDefault
340
F
  0
DICTIONARY
  5
17
102
{ACAD_REACTORS
330
C
102
}
100
AcDbDictionary
280
0
281
1
  3
Standard
350
18
  0
DICTIONARY
  5
19
102
{ACAD_REACTORS
330
C
102
}
100
AcDbDictionary
281
1
  0
DICTIONARY
  5
1A
102
{ACAD_REACTORS
330
C
102
}
100
AcDbDictionary
281
1
  3
Model
350
288
  3
Layout1
350
289
  0
ACDBPLACEHOLDER
  5
F
102
{ACAD_REACTORS
330
E
102
}
  0
MLINESTYLE
  5
18
102
{ACAD_REACTORS
330
17
102
}
100
AcDbMlineStyle
  2
STANDARD
 70
0
  3

 62
256
 51
90.0
 52
90.0
 71
2
 49
0.5
 62
256
  6
BYLAYER
 49
-0.5
 62
256
  6
BYLAYER
  0
LAYOUT
  5
288
102
{ACAD_REACTORS
330
1A
102
}
100
AcDbPlotSettings
  1

  2
none_device
  4

  6

 40
0.0
 41
0.0
 42
0.0
 43
0.0
 44
800.1
 45
444.5
 46
0.0
 47
0.0
 48
0.0
 49
0.0
140
0.0
141
0.0
142
1.0
143
1.0
 70
1024
 72
0
 73
0
 74
0
  7

 75
0
147
1.0
148
0.0
149
0.0
100
AcDbLayout
  1
Model
 70
0
 71
0
 10
0.0
 20
0.0
 11
31.5
 21
17.5
 12
0.0
 22
0.0
 32
0.0
 14
0.0
 24
0.0
 34
0.0
 15
0.0
 25
0.0
 35
0.0
146
0.0
 13
0.0
 23
0.0
 33
0.0
 16
1.0
 26
0.0
 36
0.0
 17
0.0
 27
1.0
 37
0.0
 76
0
330
207
345
0
346
0
  0
LAYOUT
  5
289
102
{ACAD_REACTORS
330
1A
102
}
100
AcDbPlotSettings
  1

  2
none_device
  4

  6

 40
0.0
 41
0.0
 42
0.0
 43
0.0
 44
800.1
 45
444.5
 46
0.0
 47
0.0
 48
0.0
 49
0.0
140
0.0
141
0.0
142
1.0
143
1.0
 70
0
 72
0
 73
0
 74
0
  7

 75
0
147
1.0
148
0.0
149
0.0
100
AcDbLayout
  1
Layout1
 70
0
 71
1
 10
0.0
 20
0.0
 11
31.5
 21
17.5
 12
0.0
 22
0.0
 32
0.0
 14
0.0
 24
0.0
 34
0.0
 15
0.0
 25
0.0
 35
0.0
146
0.0
 13
0.0
 23
0.0
 33
0.0
 16
1.0
 26
0.0
 36
0.0
 17
0.0
 27
1.0
 37
0.0
 76
0
330
208
345
0
346
0
  0
ENDSEC
  0
EOF
