999
DXF file: wing_aileron_ribs2.dxf
999
Pro/ENGINEER 2013230 by Parametric Technology Corporation
  0
SECTION
  2
HEADER
  9
$ACADVER
  1
AC1021
  9
$DWGCODEPAGE
  3
ANSI_1252
  9
$EXTMAX
 10
31.5
 20
17.5
 30
0.0
  9
$EXTMIN
 10
0.0
 20
0.0
 30
0.0
  9
$LIMMIN
 10
0.0
 20
0.0
  9
$LIMMAX
 10
31.5
 20
17.5
  9
$VIEWCTR
 10
15.75
 20
8.75
  9
$VIEWSIZE
 40
17.5
  9
$CLAYER
  8
0
  9
$LTSCALE
 40
1.7325
  9
$CELTYPE
  6
BYLAYER
  9
$DIMSCALE
 40
1.0
  9
$DIMASZ
 40
0.1875
  9
$DIMEXO
 40
0.0625
  9
$DIMDLI
 40
1.197
  9
$DIMEXE
 40
0.125
  9
$DIMCEN
 40
0.2835
  9
$DIMLFAC
 40
1.0
  9
$DIMBLK
  1
_CLOSED
  9
$DIMTXT
 40
0.15625
  9
$DIMTOL
 70
0
  9
$DIMLIM
 70
0
  9
$DIMTFAC
 40
1.0
  9
$DIMGAP
 40
0.09
  9
$DIMDSEP
 70
46
  9
$PDMODE
 70
3
  9
$PDSIZE
 40
0.3125
  9
$HANDSEED
  5
2D8
  9
$TILEMODE
 70
1
  9
$MEASUREMENT
 70
0
  9
$INSUNITS
 70
1
  0
ENDSEC
  0
SECTION
  2
CLASSES
  0
CLASS
  1
ACDBDICTIONARYWDFLT
  2
AcDbDictionaryWithDefault
  3
AutoCAD 2000
 90
0
 91
1
280
0
281
0
  0
CLASS
  1
ACDBPLACEHOLDER
  2
AcDbPlaceHolder
  3
AutoCAD 2000
 90
0
 91
1
280
0
281
0
  0
CLASS
  1
LAYOUT
  2
AcDbLayout
  3
AutoCAD 2000
 90
0
 91
0
280
0
281
0
  0
ENDSEC
  0
SECTION
  2
TABLES
  0
TABLE
  2
VPORT
  5
8
100
AcDbSymbolTable
 70
2
  0
VPORT
  5
1F4
100
AcDbSymbolTableRecord
100
AcDbViewportTableRecord
  2
*ACTIVE
 70
0
 10
0.0
 20
0.0
 11
1.0
 21
1.0
 12
15.75
 22
8.75
 13
0.0
 23
0.0
 14
1.0
 24
1.0
 15
0.0
 25
0.0
 16
0.0
 26
0.0
 36
1.0
 17
0.0
 27
0.0
 37
0.0
 40
17.5
 41
1.8
 42
50.0
 43
0.0
 44
0.0
 50
0.0
 51
0.0
 71
0
 72
100
 73
1
 74
1
 75
0
 76
0
 77
0
 78
0
  0
ENDTAB
  0
TABLE
  2
LTYPE
  5
5
100
AcDbSymbolTable
 70
6
  0
LTYPE
  5
14
100
AcDbSymbolTableRecord
100
AcDbLinetypeTableRecord
  2
BYBLOCK
 70
0
  3

 72
65
 73
0
 40
0.0
  0
LTYPE
  5
15
100
AcDbSymbolTableRecord
100
AcDbLinetypeTableRecord
  2
BYLAYER
 70
0
  3

 72
65
 73
0
 40
0.0
  0
LTYPE
  5
16
100
AcDbSymbolTableRecord
100
AcDbLinetypeTableRecord
  2
CONTINUOUS
 70
64
  3
Solid line
 72
65
 73
0
 40
0.0
  0
LTYPE
  5
1F5
100
AcDbSymbolTableRecord
100
AcDbLinetypeTableRecord
  2
CENTER
 70
64
  3
____ _ ____ _ ____ _ ____ _ ____ _ ____ _ ____
 72
65
 73
4
 40
0.6
 49
0.375
 74
0
 49
-0.075
 74
0
 49
0.075
 74
0
 49
-0.075
 74
0
  0
LTYPE
  5
1F6
100
AcDbSymbolTableRecord
100
AcDbLinetypeTableRecord
  2
HIDDEN
 70
64
  3
- - - - - - - - - - - - - - - - - - - -
 72
65
 73
2
 40
0.2
 49
0.1
 74
0
 49
-0.1
 74
0
  0
LTYPE
  5
1F7
100
AcDbSymbolTableRecord
100
AcDbLinetypeTableRecord
  2
PHANTOM
 70
64
  3
_____ _ _ _____ _ _ _____ _ _ _____
 72
65
 73
6
 40
0.8
 49
0.45
 74
0
 49
-0.05
 74
0
 49
0.1
 74
0
 49
-0.05
 74
0
 49
0.1
 74
0
 49
-0.05
 74
0
  0
LTYPE
  5
1F8
100
AcDbSymbolTableRecord
100
AcDbLinetypeTableRecord
  2
DOT
 70
64
  3
. . . . . . . . . . . . . . . . . . . .
 72
65
 73
2
 40
0.2
 49
0.1
 74
0
 49
-0.1
 74
0
  0
LTYPE
  5
1F9
100
AcDbSymbolTableRecord
100
AcDbLinetypeTableRecord
  2
DASHED
 70
64
  3
- - - - - - - - - - - - - - - - - - - -
 72
65
 73
2
 40
0.2
 49
0.1
 74
0
 49
-0.1
 74
0
  0
ENDTAB
  0
TABLE
  2
LAYER
  5
2
100
AcDbSymbolTable
 70
36
  0
LAYER
  5
10
100
AcDbSymbolTableRecord
100
AcDbLayerTableRecord
  2
0
 70
0
 62
7
  6
CONTINUOUS
370
-3
390
F
  0
LAYER
  5
1FA
100
AcDbSymbolTableRecord
100
AcDbLayerTableRecord
  2
DEFAULT_1
 70
0
 62
7
  6
CENTER
370
-3
390
F
  0
LAYER
  5
1FB
100
AcDbSymbolTableRecord
100
AcDbLayerTableRecord
  2
DEFAULT_2
 70
0
 62
8
  6
HIDDEN
370
-3
390
F
  0
LAYER
  5
1FC
100
AcDbSymbolTableRecord
100
AcDbLayerTableRecord
  2
DEFAULT_3
 70
0
 62
7
  6
PHANTOM
370
-3
390
F
  0
LAYER
  5
1FD
100
AcDbSymbolTableRecord
100
AcDbLayerTableRecord
  2
01___PRT_ALL_DTM_PLN
 70
0
 62
7
  6
CONTINUOUS
370
-3
390
F
  0
LAYER
  5
1FE
100
AcDbSymbolTableRecord
100
AcDbLayerTableRecord
  2
01___PRT_DEF_DTM_PLN
 70
0
 62
7
  6
CONTINUOUS
370
-3
390
F
  0
LAYER
  5
1FF
100
AcDbSymbolTableRecord
100
AcDbLayerTableRecord
  2
02___PRT_ALL_AXES
 70
0
 62
7
  6
CONTINUOUS
370
-3
390
F
  0
LAYER
  5
200
100
AcDbSymbolTableRecord
100
AcDbLayerTableRecord
  2
03___PRT_ALL_CURVES
 70
0
 62
7
  6
CONTINUOUS
370
-3
390
F
  0
LAYER
  5
201
100
AcDbSymbolTableRecord
100
AcDbLayerTableRecord
  2
04___PRT_ALL_DTM_PNT
 70
0
 62
7
  6
CONTINUOUS
370
-3
390
F
  0
LAYER
  5
202
100
AcDbSymbolTableRecord
100
AcDbLayerTableRecord
  2
05___PRT_ALL_DTM_CSYS
 70
0
 62
7
  6
CONTINUOUS
370
-3
390
F
  0
LAYER
  5
203
100
AcDbSymbolTableRecord
100
AcDbLayerTableRecord
  2
05___PRT_DEF_DTM_CSYS
 70
0
 62
7
  6
CONTINUOUS
370
-3
390
F
  0
LAYER
  5
204
100
AcDbSymbolTableRecord
100
AcDbLayerTableRecord
  2
06___PRT_ALL_SURFS
 70
0
 62
7
  6
CONTINUOUS
370
-3
390
F
  0
ENDTAB
  0
TABLE
  2
STYLE
  5
3
100
AcDbSymbolTable
 70
1
  0
STYLE
  5
11
100
AcDbSymbolTableRecord
100
AcDbTextStyleTableRecord
  2
STANDARD
 70
0
 40
0.0
 41
0.8
 50
0.0
 71
0
 42
0.2
  3
txt
  4

  0
STYLE
  5
205
100
AcDbSymbolTableRecord
100
AcDbTextStyleTableRecord
  2
TEXTSTYLE_1
 70
0
 40
0.0
 41
0.8
 50
0.0
 71
0
 42
0.2
  3
gdt
  4

  0
ENDTAB
  0
TABLE
  2
VIEW
  5
6
100
AcDbSymbolTable
 70
0
  0
ENDTAB
  0
TABLE
  2
UCS
  5
7
100
AcDbSymbolTable
 70
0
  0
ENDTAB
  0
TABLE
  2
APPID
  5
9
100
AcDbSymbolTable
 70
1
  0
APPID
  5
206
100
AcDbSymbolTableRecord
100
AcDbRegAppTableRecord
  2
ACAD
 70
0
  0
ENDTAB
  0
TABLE
  2
BLOCK_RECORD
  5
1
100
AcDbSymbolTable
 70
0
  0
BLOCK_RECORD
  5
207
100
AcDbSymbolTableRecord
100
AcDbBlockTableRecord
  2
*Model_Space
  0
BLOCK_RECORD
  5
208
100
AcDbSymbolTableRecord
100
AcDbBlockTableRecord
  2
*Paper_Space
  0
ENDTAB
  0
TABLE
  2
DIMSTYLE
  5
A
100
AcDbSymbolTable
 70
1
100
AcDbDimStyleTable
 71
0
  0
DIMSTYLE
105
209
100
AcDbSymbolTableRecord
100
AcDbDimStyleTableRecord
  2
STANDARD
 70
0
  3

  4

 40
1.0
 41
0.1875
 42
0.0625
 43
0.38
 44
0.125
 45
0.0
 46
0.0
 47
0.01
 48
0.01
140
0.15625
141
0.09
142
0.0
143
25.4
144
1.0
145
0.0
146
1.0
147
0.09
 71
0.0
 72
0.0
 73
1
 74
1
 75
0
 76
0
 77
0
 78
4
170
0
171
2
172
0
173
0
174
0
175
0
176
0
177
0
178
0
270
2
271
2
272
2
273
2
274
2
275
0
280
0
281
0
282
0
283
1
284
4
285
0
286
0
287
3
288
0
340
11
278
46
  0
ENDTAB
  0
ENDSEC
  0
SECTION
  2
BLOCKS
  0
BLOCK
  5
20
100
AcDbEntity
  8
0
100
AcDbBlockBegin
  2
*Model_Space
 70
0
 10
0.0
 20
0.0
 30
0.0
  3
*Model_Space
  1

  0
ENDBLK
  5
21
100
AcDbEntity
  8
0
100
AcDbBlockEnd
  0
BLOCK
  5
1C
100
AcDbEntity
  8
0
100
AcDbBlockBegin
  2
*Paper_Space
 70
0
 10
0.0
 20
0.0
 30
0.0
  3
*Paper_Space
  1

  0
ENDBLK
  5
1D
100
AcDbEntity
  8
0
100
AcDbBlockEnd
  0
ENDSEC
  0
SECTION
  2
ENTITIES
  0
LINE
  5
20A
100
AcDbEntity
  8
0
100
AcDbLine
 62
1
  6
CONTINUOUS
 10
24.5225001385
 20
17.1936476726
 11
24.5225001385
 21
17.0136476726
  0
LINE
  5
20B
100
AcDbEntity
  8
0
100
AcDbLine
 62
1
  6
CONTINUOUS
 10
26.7109114171
 20
16.2539945963
 11
26.7109114171
 21
16.4239945963
  0
LINE
  5
20C
100
AcDbEntity
  8
0
100
AcDbLine
 62
1
  6
CONTINUOUS
 10
26.7109114171
 20
17.2041255297
 11
26.7109114171
 21
17.3741255297
  0
LINE
  5
20D
100
AcDbEntity
  8
0
100
AcDbLine
 62
1
  6
CONTINUOUS
 10
26.8909114171
 20
17.3675848036
 11
26.8909114171
 21
17.2041255297
  0
LINE
  5
20E
100
AcDbEntity
  8
0
100
AcDbLine
 62
1
  6
CONTINUOUS
 10
26.8909114171
 20
16.4239945963
 11
26.8909114171
 21
16.2442473907
  0
LINE
  5
20F
100
AcDbEntity
  8
0
100
AcDbLine
 62
1
  6
CONTINUOUS
 10
28.3499114171
 20
16.5786476726
 11
28.3499114171
 21
16.6036476726
  0
LINE
  5
210
100
AcDbEntity
  8
0
100
AcDbLine
 62
1
  6
CONTINUOUS
 10
26.7109114171
 20
16.4239945963
 11
26.8909114171
 21
16.4239945963
  0
LINE
  5
211
100
AcDbEntity
  8
0
100
AcDbLine
 62
1
  6
CONTINUOUS
 10
30.0699114171
 20
16.5286476726
 11
28.3999114171
 21
16.5286476726
  0
LINE
  5
212
100
AcDbEntity
  8
0
100
AcDbLine
 62
1
  6
CONTINUOUS
 10
30.3109114171
 20
16.6020886778
 11
30.4909114171
 21
16.6020886778
  0
LINE
  5
213
100
AcDbEntity
  8
0
100
AcDbLine
 62
1
  6
CONTINUOUS
 10
28.3999114171
 20
16.6536476726
 11
30.0699114171
 21
16.6536476726
  0
LINE
  5
214
100
AcDbEntity
  8
0
100
AcDbLine
 62
1
  6
CONTINUOUS
 10
24.5225001385
 20
17.0136476726
 11
24.3525001385
 21
17.0136476726
  0
LINE
  5
215
100
AcDbEntity
  8
0
100
AcDbLine
 62
1
  6
CONTINUOUS
 10
30.4909114171
 20
17.0716141722
 11
30.3109114171
 21
17.0716141722
  0
LINE
  5
216
100
AcDbEntity
  8
0
100
AcDbLine
 62
1
  6
CONTINUOUS
 10
24.3404434059
 20
17.1936476726
 11
24.5225001385
 21
17.1936476726
  0
LINE
  5
217
100
AcDbEntity
  8
0
100
AcDbLine
 62
1
  6
CONTINUOUS
 10
26.8909114171
 20
17.2041255297
 11
26.7109114171
 21
17.2041255297
  0
LINE
  5
218
100
AcDbEntity
  8
0
100
AcDbLine
 62
1
  6
CONTINUOUS
 10
30.1199114171
 20
16.6036476726
 11
30.1199114171
 21
16.5786476726
  0
LINE
  5
219
100
AcDbEntity
  8
0
100
AcDbLine
 62
1
  6
CONTINUOUS
 10
30.3109114171
 20
16.407266164
 11
30.3109114171
 21
16.6020886778
  0
LINE
  5
21A
100
AcDbEntity
  8
0
100
AcDbLine
 62
1
  6
CONTINUOUS
 10
30.3109114171
 20
17.0716141722
 11
30.3109114171
 21
17.2416141722
  0
LINE
  5
21B
100
AcDbEntity
  8
0
100
AcDbLine
 62
1
  6
CONTINUOUS
 10
30.4909114171
 20
17.2350044042
 11
30.4909114171
 21
17.0716141722
  0
LINE
  5
21C
100
AcDbEntity
  8
0
100
AcDbLine
 62
1
  6
CONTINUOUS
 10
30.4909114171
 20
16.6020886778
 11
30.4909114171
 21
16.4320886778
  0
LINE
  5
21D
100
AcDbEntity
  8
0
100
AcDbLine
 62
1
  6
CONTINUOUS
 10
31.4109114171
 20
17.2012134496
 11
31.4109114171
 21
16.5771895453
  0
LINE
  5
21E
100
AcDbEntity
  8
0
100
AcDbLine
 62
1
  6
CONTINUOUS
 10
24.5225001385
 20
15.8218734791
 11
24.5225001385
 21
15.6418734791
  0
LINE
  5
21F
100
AcDbEntity
  8
0
100
AcDbLine
 62
1
  6
CONTINUOUS
 10
26.7109114171
 20
14.8822204028
 11
26.7109114171
 21
15.0522204028
  0
LINE
  5
220
100
AcDbEntity
  8
0
100
AcDbLine
 62
1
  6
CONTINUOUS
 10
26.7109114171
 20
15.8323513361
 11
26.7109114171
 21
16.0023513361
  0
LINE
  5
221
100
AcDbEntity
  8
0
100
AcDbLine
 62
1
  6
CONTINUOUS
 10
26.8909114171
 20
15.99581061
 11
26.8909114171
 21
15.8323513361
  0
LINE
  5
222
100
AcDbEntity
  8
0
100
AcDbLine
 62
1
  6
CONTINUOUS
 10
26.8909114171
 20
15.0522204028
 11
26.8909114171
 21
14.8724731972
  0
LINE
  5
223
100
AcDbEntity
  8
0
100
AcDbLine
 62
1
  6
CONTINUOUS
 10
28.3499114171
 20
15.2068734791
 11
28.3499114171
 21
15.2318734791
  0
LINE
  5
224
100
AcDbEntity
  8
0
100
AcDbLine
 62
1
  6
CONTINUOUS
 10
26.7109114171
 20
15.0522204028
 11
26.8909114171
 21
15.0522204028
  0
LINE
  5
225
100
AcDbEntity
  8
0
100
AcDbLine
 62
1
  6
CONTINUOUS
 10
30.0699114171
 20
15.1568734791
 11
28.3999114171
 21
15.1568734791
  0
LINE
  5
226
100
AcDbEntity
  8
0
100
AcDbLine
 62
1
  6
CONTINUOUS
 10
30.3109114171
 20
15.2303144842
 11
30.4909114171
 21
15.2303144842
  0
LINE
  5
227
100
AcDbEntity
  8
0
100
AcDbLine
 62
1
  6
CONTINUOUS
 10
28.3999114171
 20
15.2818734791
 11
30.0699114171
 21
15.2818734791
  0
LINE
  5
228
100
AcDbEntity
  8
0
100
AcDbLine
 62
1
  6
CONTINUOUS
 10
24.5225001385
 20
15.6418734791
 11
24.3525001385
 21
15.6418734791
  0
LINE
  5
229
100
AcDbEntity
  8
0
100
AcDbLine
 62
1
  6
CONTINUOUS
 10
30.4909114171
 20
15.6998399787
 11
30.3109114171
 21
15.6998399787
  0
LINE
  5
22A
100
AcDbEntity
  8
0
100
AcDbLine
 62
1
  6
CONTINUOUS
 10
24.3404434059
 20
15.8218734791
 11
24.5225001385
 21
15.8218734791
  0
LINE
  5
22B
100
AcDbEntity
  8
0
100
AcDbLine
 62
1
  6
CONTINUOUS
 10
26.8909114171
 20
15.8323513361
 11
26.7109114171
 21
15.8323513361
  0
LINE
  5
22C
100
AcDbEntity
  8
0
100
AcDbLine
 62
1
  6
CONTINUOUS
 10
30.1199114171
 20
15.2318734791
 11
30.1199114171
 21
15.2068734791
  0
LINE
  5
22D
100
AcDbEntity
  8
0
100
AcDbLine
 62
1
  6
CONTINUOUS
 10
30.3109114171
 20
15.0354919705
 11
30.3109114171
 21
15.2303144842
  0
LINE
  5
22E
100
AcDbEntity
  8
0
100
AcDbLine
 62
1
  6
CONTINUOUS
 10
30.3109114171
 20
15.6998399787
 11
30.3109114171
 21
15.8698399787
  0
LINE
  5
22F
100
AcDbEntity
  8
0
100
AcDbLine
 62
1
  6
CONTINUOUS
 10
30.4909114171
 20
15.8632302107
 11
30.4909114171
 21
15.6998399787
  0
LINE
  5
230
100
AcDbEntity
  8
0
100
AcDbLine
 62
1
  6
CONTINUOUS
 10
30.4909114171
 20
15.2303144842
 11
30.4909114171
 21
15.0603144842
  0
LINE
  5
231
100
AcDbEntity
  8
0
100
AcDbLine
 62
1
  6
CONTINUOUS
 10
31.4109114171
 20
15.829439256
 11
31.4109114171
 21
15.2054153518
  0
LINE
  5
232
100
AcDbEntity
  8
0
100
AcDbLine
 62
1
  6
CONTINUOUS
 10
24.4939215095
 20
14.4500992855
 11
24.4939215095
 21
14.2700992855
  0
LINE
  5
233
100
AcDbEntity
  8
0
100
AcDbLine
 62
1
  6
CONTINUOUS
 10
26.6823327881
 20
13.5104462092
 11
26.6823327881
 21
13.6804462092
  0
LINE
  5
234
100
AcDbEntity
  8
0
100
AcDbLine
 62
1
  6
CONTINUOUS
 10
26.6823327881
 20
14.4605771426
 11
26.6823327881
 21
14.6305771426
  0
LINE
  5
235
100
AcDbEntity
  8
0
100
AcDbLine
 62
1
  6
CONTINUOUS
 10
26.8623327881
 20
14.6240364165
 11
26.8623327881
 21
14.4605771426
  0
LINE
  5
236
100
AcDbEntity
  8
0
100
AcDbLine
 62
1
  6
CONTINUOUS
 10
26.8623327881
 20
13.6804462092
 11
26.8623327881
 21
13.5006990036
  0
LINE
  5
237
100
AcDbEntity
  8
0
100
AcDbLine
 62
1
  6
CONTINUOUS
 10
28.3213327881
 20
13.8350992855
 11
28.3213327881
 21
13.8600992855
  0
LINE
  5
238
100
AcDbEntity
  8
0
100
AcDbLine
 62
1
  6
CONTINUOUS
 10
26.6823327881
 20
13.6804462092
 11
26.8623327881
 21
13.6804462092
  0
LINE
  5
239
100
AcDbEntity
  8
0
100
AcDbLine
 62
1
  6
CONTINUOUS
 10
30.0413327881
 20
13.7850992855
 11
28.3713327881
 21
13.7850992855
  0
LINE
  5
23A
100
AcDbEntity
  8
0
100
AcDbLine
 62
1
  6
CONTINUOUS
 10
30.2823327881
 20
13.8585402907
 11
30.4623327881
 21
13.8585402907
  0
LINE
  5
23B
100
AcDbEntity
  8
0
100
AcDbLine
 62
1
  6
CONTINUOUS
 10
28.3713327881
 20
13.9100992855
 11
30.0413327881
 21
13.9100992855
  0
LINE
  5
23C
100
AcDbEntity
  8
0
100
AcDbLine
 62
1
  6
CONTINUOUS
 10
24.4939215095
 20
14.2700992855
 11
24.3239215095
 21
14.2700992855
  0
LINE
  5
23D
100
AcDbEntity
  8
0
100
AcDbLine
 62
1
  6
CONTINUOUS
 10
30.4623327881
 20
14.3280657851
 11
30.2823327881
 21
14.3280657851
  0
LINE
  5
23E
100
AcDbEntity
  8
0
100
AcDbLine
 62
1
  6
CONTINUOUS
 10
24.3118647769
 20
14.4500992855
 11
24.4939215095
 21
14.4500992855
  0
LINE
  5
23F
100
AcDbEntity
  8
0
100
AcDbLine
 62
1
  6
CONTINUOUS
 10
26.8623327881
 20
14.4605771426
 11
26.6823327881
 21
14.4605771426
  0
LINE
  5
240
100
AcDbEntity
  8
0
100
AcDbLine
 62
1
  6
CONTINUOUS
 10
30.0913327881
 20
13.8600992855
 11
30.0913327881
 21
13.8350992855
  0
LINE
  5
241
100
AcDbEntity
  8
0
100
AcDbLine
 62
1
  6
CONTINUOUS
 10
30.2823327881
 20
13.6637177769
 11
30.2823327881
 21
13.8585402907
  0
LINE
  5
242
100
AcDbEntity
  8
0
100
AcDbLine
 62
1
  6
CONTINUOUS
 10
30.2823327881
 20
14.3280657851
 11
30.2823327881
 21
14.4980657851
  0
LINE
  5
243
100
AcDbEntity
  8
0
100
AcDbLine
 62
1
  6
CONTINUOUS
 10
30.4623327881
 20
14.4914560171
 11
30.4623327881
 21
14.3280657851
  0
LINE
  5
244
100
AcDbEntity
  8
0
100
AcDbLine
 62
1
  6
CONTINUOUS
 10
30.4623327881
 20
13.8585402907
 11
30.4623327881
 21
13.6885402907
  0
LINE
  5
245
100
AcDbEntity
  8
0
100
AcDbLine
 62
1
  6
CONTINUOUS
 10
31.3823327881
 20
14.4576650625
 11
31.3823327881
 21
13.8336411582
  0
LINE
  5
246
100
AcDbEntity
  8
0
100
AcDbLine
 62
1
  6
CONTINUOUS
 10
17.2349497353
 20
17.1936476726
 11
17.2349497353
 21
17.0136476726
  0
LINE
  5
247
100
AcDbEntity
  8
0
100
AcDbLine
 62
1
  6
CONTINUOUS
 10
19.4233610139
 20
16.2539945963
 11
19.4233610139
 21
16.4239945963
  0
LINE
  5
248
100
AcDbEntity
  8
0
100
AcDbLine
 62
1
  6
CONTINUOUS
 10
19.4233610139
 20
17.2041255297
 11
19.4233610139
 21
17.3741255297
  0
LINE
  5
249
100
AcDbEntity
  8
0
100
AcDbLine
 62
1
  6
CONTINUOUS
 10
19.6033610139
 20
17.3675848036
 11
19.6033610139
 21
17.2041255297
  0
LINE
  5
24A
100
AcDbEntity
  8
0
100
AcDbLine
 62
1
  6
CONTINUOUS
 10
19.6033610139
 20
16.4239945963
 11
19.6033610139
 21
16.2442473907
  0
LINE
  5
24B
100
AcDbEntity
  8
0
100
AcDbLine
 62
1
  6
CONTINUOUS
 10
21.0623610139
 20
16.5786476726
 11
21.0623610139
 21
16.6036476726
  0
LINE
  5
24C
100
AcDbEntity
  8
0
100
AcDbLine
 62
1
  6
CONTINUOUS
 10
19.4233610139
 20
16.4239945963
 11
19.6033610139
 21
16.4239945963
  0
LINE
  5
24D
100
AcDbEntity
  8
0
100
AcDbLine
 62
1
  6
CONTINUOUS
 10
22.7823610139
 20
16.5286476726
 11
21.1123610139
 21
16.5286476726
  0
LINE
  5
24E
100
AcDbEntity
  8
0
100
AcDbLine
 62
1
  6
CONTINUOUS
 10
23.0233610139
 20
16.6020886778
 11
23.2033610139
 21
16.6020886778
  0
LINE
  5
24F
100
AcDbEntity
  8
0
100
AcDbLine
 62
1
  6
CONTINUOUS
 10
21.1123610139
 20
16.6536476726
 11
22.7823610139
 21
16.6536476726
  0
LINE
  5
250
100
AcDbEntity
  8
0
100
AcDbLine
 62
1
  6
CONTINUOUS
 10
17.2349497353
 20
17.0136476726
 11
17.0649497353
 21
17.0136476726
  0
LINE
  5
251
100
AcDbEntity
  8
0
100
AcDbLine
 62
1
  6
CONTINUOUS
 10
23.2033610139
 20
17.0716141722
 11
23.0233610139
 21
17.0716141722
  0
LINE
  5
252
100
AcDbEntity
  8
0
100
AcDbLine
 62
1
  6
CONTINUOUS
 10
17.0528930027
 20
17.1936476726
 11
17.2349497353
 21
17.1936476726
  0
LINE
  5
253
100
AcDbEntity
  8
0
100
AcDbLine
 62
1
  6
CONTINUOUS
 10
19.6033610139
 20
17.2041255297
 11
19.4233610139
 21
17.2041255297
  0
LINE
  5
254
100
AcDbEntity
  8
0
100
AcDbLine
 62
1
  6
CONTINUOUS
 10
22.8323610139
 20
16.6036476726
 11
22.8323610139
 21
16.5786476726
  0
LINE
  5
255
100
AcDbEntity
  8
0
100
AcDbLine
 62
1
  6
CONTINUOUS
 10
23.0233610139
 20
16.407266164
 11
23.0233610139
 21
16.6020886778
  0
LINE
  5
256
100
AcDbEntity
  8
0
100
AcDbLine
 62
1
  6
CONTINUOUS
 10
23.0233610139
 20
17.0716141722
 11
23.0233610139
 21
17.2416141722
  0
LINE
  5
257
100
AcDbEntity
  8
0
100
AcDbLine
 62
1
  6
CONTINUOUS
 10
23.2033610139
 20
17.2350044042
 11
23.2033610139
 21
17.0716141722
  0
LINE
  5
258
100
AcDbEntity
  8
0
100
AcDbLine
 62
1
  6
CONTINUOUS
 10
23.2033610139
 20
16.6020886778
 11
23.2033610139
 21
16.4320886778
  0
LINE
  5
259
100
AcDbEntity
  8
0
100
AcDbLine
 62
1
  6
CONTINUOUS
 10
24.1233610139
 20
17.2012134496
 11
24.1233610139
 21
16.5771895453
  0
LINE
  5
25A
100
AcDbEntity
  8
0
100
AcDbLine
 62
1
  6
CONTINUOUS
 10
17.2063711063
 20
15.9076093662
 11
17.2063711063
 21
15.7276093662
  0
LINE
  5
25B
100
AcDbEntity
  8
0
100
AcDbLine
 62
1
  6
CONTINUOUS
 10
19.3947823849
 20
14.9679562899
 11
19.3947823849
 21
15.1379562899
  0
LINE
  5
25C
100
AcDbEntity
  8
0
100
AcDbLine
 62
1
  6
CONTINUOUS
 10
19.3947823849
 20
15.9180872232
 11
19.3947823849
 21
16.0880872232
  0
LINE
  5
25D
100
AcDbEntity
  8
0
100
AcDbLine
 62
1
  6
CONTINUOUS
 10
19.5747823849
 20
16.0815464971
 11
19.5747823849
 21
15.9180872232
  0
LINE
  5
25E
100
AcDbEntity
  8
0
100
AcDbLine
 62
1
  6
CONTINUOUS
 10
19.5747823849
 20
15.1379562899
 11
19.5747823849
 21
14.9582090843
  0
LINE
  5
25F
100
AcDbEntity
  8
0
100
AcDbLine
 62
1
  6
CONTINUOUS
 10
21.0337823849
 20
15.2926093662
 11
21.0337823849
 21
15.3176093662
  0
LINE
  5
260
100
AcDbEntity
  8
0
100
AcDbLine
 62
1
  6
CONTINUOUS
 10
19.3947823849
 20
15.1379562899
 11
19.5747823849
 21
15.1379562899
  0
LINE
  5
261
100
AcDbEntity
  8
0
100
AcDbLine
 62
1
  6
CONTINUOUS
 10
22.7537823849
 20
15.2426093662
 11
21.0837823849
 21
15.2426093662
  0
LINE
  5
262
100
AcDbEntity
  8
0
100
AcDbLine
 62
1
  6
CONTINUOUS
 10
22.9947823849
 20
15.3160503713
 11
23.1747823849
 21
15.3160503713
  0
LINE
  5
263
100
AcDbEntity
  8
0
100
AcDbLine
 62
1
  6
CONTINUOUS
 10
21.0837823849
 20
15.3676093662
 11
22.7537823849
 21
15.3676093662
  0
LINE
  5
264
100
AcDbEntity
  8
0
100
AcDbLine
 62
1
  6
CONTINUOUS
 10
17.2063711063
 20
15.7276093662
 11
17.0363711063
 21
15.7276093662
  0
LINE
  5
265
100
AcDbEntity
  8
0
100
AcDbLine
 62
1
  6
CONTINUOUS
 10
23.1747823849
 20
15.7855758658
 11
22.9947823849
 21
15.7855758658
  0
LINE
  5
266
100
AcDbEntity
  8
0
100
AcDbLine
 62
1
  6
CONTINUOUS
 10
17.0243143736
 20
15.9076093662
 11
17.2063711063
 21
15.9076093662
  0
LINE
  5
267
100
AcDbEntity
  8
0
100
AcDbLine
 62
1
  6
CONTINUOUS
 10
19.5747823849
 20
15.9180872232
 11
19.3947823849
 21
15.9180872232
  0
LINE
  5
268
100
AcDbEntity
  8
0
100
AcDbLine
 62
1
  6
CONTINUOUS
 10
22.8037823849
 20
15.3176093662
 11
22.8037823849
 21
15.2926093662
  0
LINE
  5
269
100
AcDbEntity
  8
0
100
AcDbLine
 62
1
  6
CONTINUOUS
 10
22.9947823849
 20
15.1212278576
 11
22.9947823849
 21
15.3160503713
  0
LINE
  5
26A
100
AcDbEntity
  8
0
100
AcDbLine
 62
1
  6
CONTINUOUS
 10
22.9947823849
 20
15.7855758658
 11
22.9947823849
 21
15.9555758658
  0
LINE
  5
26B
100
AcDbEntity
  8
0
100
AcDbLine
 62
1
  6
CONTINUOUS
 10
23.1747823849
 20
15.9489660978
 11
23.1747823849
 21
15.7855758658
  0
LINE
  5
26C
100
AcDbEntity
  8
0
100
AcDbLine
 62
1
  6
CONTINUOUS
 10
23.1747823849
 20
15.3160503713
 11
23.1747823849
 21
15.1460503713
  0
LINE
  5
26D
100
AcDbEntity
  8
0
100
AcDbLine
 62
1
  6
CONTINUOUS
 10
24.0947823849
 20
15.9151751431
 11
24.0947823849
 21
15.2911512389
  0
LINE
  5
26E
100
AcDbEntity
  8
0
100
AcDbLine
 62
1
  6
CONTINUOUS
 10
17.2063711063
 20
14.5358351726
 11
17.2063711063
 21
14.3558351726
  0
LINE
  5
26F
100
AcDbEntity
  8
0
100
AcDbLine
 62
1
  6
CONTINUOUS
 10
19.3947823849
 20
13.5961820963
 11
19.3947823849
 21
13.7661820963
  0
LINE
  5
270
100
AcDbEntity
  8
0
100
AcDbLine
 62
1
  6
CONTINUOUS
 10
19.3947823849
 20
14.5463130297
 11
19.3947823849
 21
14.7163130297
  0
LINE
  5
271
100
AcDbEntity
  8
0
100
AcDbLine
 62
1
  6
CONTINUOUS
 10
19.5747823849
 20
14.7097723036
 11
19.5747823849
 21
14.5463130297
  0
LINE
  5
272
100
AcDbEntity
  8
0
100
AcDbLine
 62
1
  6
CONTINUOUS
 10
19.5747823849
 20
13.7661820963
 11
19.5747823849
 21
13.5864348907
  0
LINE
  5
273
100
AcDbEntity
  8
0
100
AcDbLine
 62
1
  6
CONTINUOUS
 10
21.0337823849
 20
13.9208351726
 11
21.0337823849
 21
13.9458351726
  0
LINE
  5
274
100
AcDbEntity
  8
0
100
AcDbLine
 62
1
  6
CONTINUOUS
 10
19.3947823849
 20
13.7661820963
 11
19.5747823849
 21
13.7661820963
  0
LINE
  5
275
100
AcDbEntity
  8
0
100
AcDbLine
 62
1
  6
CONTINUOUS
 10
22.7537823849
 20
13.8708351726
 11
21.0837823849
 21
13.8708351726
  0
LINE
  5
276
100
AcDbEntity
  8
0
100
AcDbLine
 62
1
  6
CONTINUOUS
 10
22.9947823849
 20
13.9442761778
 11
23.1747823849
 21
13.9442761778
  0
LINE
  5
277
100
AcDbEntity
  8
0
100
AcDbLine
 62
1
  6
CONTINUOUS
 10
21.0837823849
 20
13.9958351726
 11
22.7537823849
 21
13.9958351726
  0
LINE
  5
278
100
AcDbEntity
  8
0
100
AcDbLine
 62
1
  6
CONTINUOUS
 10
17.2063711063
 20
14.3558351726
 11
17.0363711063
 21
14.3558351726
  0
LINE
  5
279
100
AcDbEntity
  8
0
100
AcDbLine
 62
1
  6
CONTINUOUS
 10
23.1747823849
 20
14.4138016722
 11
22.9947823849
 21
14.4138016722
  0
LINE
  5
27A
100
AcDbEntity
  8
0
100
AcDbLine
 62
1
  6
CONTINUOUS
 10
17.0243143736
 20
14.5358351726
 11
17.2063711063
 21
14.5358351726
  0
LINE
  5
27B
100
AcDbEntity
  8
0
100
AcDbLine
 62
1
  6
CONTINUOUS
 10
19.5747823849
 20
14.5463130297
 11
19.3947823849
 21
14.5463130297
  0
LINE
  5
27C
100
AcDbEntity
  8
0
100
AcDbLine
 62
1
  6
CONTINUOUS
 10
22.8037823849
 20
13.9458351726
 11
22.8037823849
 21
13.9208351726
  0
LINE
  5
27D
100
AcDbEntity
  8
0
100
AcDbLine
 62
1
  6
CONTINUOUS
 10
22.9947823849
 20
13.749453664
 11
22.9947823849
 21
13.9442761778
  0
LINE
  5
27E
100
AcDbEntity
  8
0
100
AcDbLine
 62
1
  6
CONTINUOUS
 10
22.9947823849
 20
14.4138016722
 11
22.9947823849
 21
14.5838016722
  0
LINE
  5
27F
100
AcDbEntity
  8
0
100
AcDbLine
 62
1
  6
CONTINUOUS
 10
23.1747823849
 20
14.5771919042
 11
23.1747823849
 21
14.4138016722
  0
LINE
  5
280
100
AcDbEntity
  8
0
100
AcDbLine
 62
1
  6
CONTINUOUS
 10
23.1747823849
 20
13.9442761778
 11
23.1747823849
 21
13.7742761778
  0
LINE
  5
281
100
AcDbEntity
  8
0
100
AcDbLine
 62
1
  6
CONTINUOUS
 10
24.0947823849
 20
14.5434009496
 11
24.0947823849
 21
13.9193770453
  0
ARC
  5
282
100
AcDbEntity
  8
0
100
AcDbCircle
 62
1
  6
CONTINUOUS
 10
26.129542359
 20
47.0591981536
 40
30.9361015026
100
AcDbArc
 50
278.104558113
 51
279.829587422
  0
CIRCLE
  5
283
100
AcDbEntity
  8
02___PRT_ALL_AXES
100
AcDbCircle
 62
1
  6
CONTINUOUS
 10
27.7279114171
 20
16.8036476726
 40
0.3
  0
CIRCLE
  5
284
100
AcDbEntity
  8
02___PRT_ALL_AXES
100
AcDbCircle
 62
1
  6
CONTINUOUS
 10
25.8149114171
 20
16.9451476726
 40
0.25
  0
CIRCLE
  5
285
100
AcDbEntity
  8
02___PRT_ALL_AXES
100
AcDbCircle
 62
1
  6
CONTINUOUS
 10
26.6969114171
 20
16.8595725602
 40
0.25
  0
CIRCLE
  5
286
100
AcDbEntity
  8
02___PRT_ALL_AXES
100
AcDbCircle
 62
1
  6
CONTINUOUS
 10
24.9929114171
 20
17.0776476726
 40
0.15
  0
ARC
  5
287
100
AcDbEntity
  8
0
100
AcDbCircle
 62
1
  6
CONTINUOUS
 10
30.0699114171
 20
16.6036476726
 40
0.05
100
AcDbArc
 50
0.0
 51
90.0
  0
ARC
  5
288
100
AcDbEntity
  8
0
100
AcDbCircle
 62
1
  6
CONTINUOUS
 10
30.0699114171
 20
16.5786476726
 40
0.05
100
AcDbArc
 50
270.0
 51
360.0
  0
ARC
  5
289
100
AcDbEntity
  8
0
100
AcDbCircle
 62
1
  6
CONTINUOUS
 10
28.3999114171
 20
16.6036476726
 40
0.05
100
AcDbArc
 50
90.0
 51
180.0
  0
ARC
  5
28A
100
AcDbEntity
  8
0
100
AcDbCircle
 62
1
  6
CONTINUOUS
 10
28.3999114171
 20
16.5786476726
 40
0.05
100
AcDbArc
 50
180.0
 51
270.0
  0
ARC
  5
28B
100
AcDbEntity
  8
0
100
AcDbCircle
 62
1
  6
CONTINUOUS
 10
26.1295423522
 20
45.6874239589
 40
30.9361015026
100
AcDbArc
 50
278.1045581258
 51
279.8295874348
  0
CIRCLE
  5
28C
100
AcDbEntity
  8
02___PRT_ALL_AXES
100
AcDbCircle
 62
1
  6
CONTINUOUS
 10
27.7279114171
 20
15.4318734791
 40
0.3
  0
CIRCLE
  5
28D
100
AcDbEntity
  8
02___PRT_ALL_AXES
100
AcDbCircle
 62
1
  6
CONTINUOUS
 10
25.8149114171
 20
15.5733734791
 40
0.25
  0
CIRCLE
  5
28E
100
AcDbEntity
  8
02___PRT_ALL_AXES
100
AcDbCircle
 62
1
  6
CONTINUOUS
 10
26.6969114171
 20
15.4877983667
 40
0.25
  0
CIRCLE
  5
28F
100
AcDbEntity
  8
02___PRT_ALL_AXES
100
AcDbCircle
 62
1
  6
CONTINUOUS
 10
24.9929114171
 20
15.7058734791
 40
0.15
  0
ARC
  5
290
100
AcDbEntity
  8
0
100
AcDbCircle
 62
1
  6
CONTINUOUS
 10
30.0699114171
 20
15.2318734791
 40
0.05
100
AcDbArc
 50
0.0
 51
90.0
  0
ARC
  5
291
100
AcDbEntity
  8
0
100
AcDbCircle
 62
1
  6
CONTINUOUS
 10
30.0699114171
 20
15.2068734791
 40
0.05
100
AcDbArc
 50
270.0
 51
360.0
  0
ARC
  5
292
100
AcDbEntity
  8
0
100
AcDbCircle
 62
1
  6
CONTINUOUS
 10
28.3999114171
 20
15.2318734791
 40
0.05
100
AcDbArc
 50
90.0
 51
180.0
  0
ARC
  5
293
100
AcDbEntity
  8
0
100
AcDbCircle
 62
1
  6
CONTINUOUS
 10
28.3999114171
 20
15.2068734791
 40
0.05
100
AcDbArc
 50
180.0
 51
270.0
  0
ARC
  5
294
100
AcDbEntity
  8
0
100
AcDbCircle
 62
1
  6
CONTINUOUS
 10
26.1009637299
 20
44.3156497665
 40
30.9361015026
100
AcDbArc
 50
278.104558113
 51
279.829587422
  0
CIRCLE
  5
295
100
AcDbEntity
  8
02___PRT_ALL_AXES
100
AcDbCircle
 62
1
  6
CONTINUOUS
 10
27.6993327881
 20
14.0600992855
 40
0.3
  0
CIRCLE
  5
296
100
AcDbEntity
  8
02___PRT_ALL_AXES
100
AcDbCircle
 62
1
  6
CONTINUOUS
 10
25.7863327881
 20
14.2015992855
 40
0.25
  0
CIRCLE
  5
297
100
AcDbEntity
  8
02___PRT_ALL_AXES
100
AcDbCircle
 62
1
  6
CONTINUOUS
 10
26.6683327881
 20
14.1160241731
 40
0.25
  0
CIRCLE
  5
298
100
AcDbEntity
  8
02___PRT_ALL_AXES
100
AcDbCircle
 62
1
  6
CONTINUOUS
 10
24.9643327881
 20
14.3340992855
 40
0.15
  0
ARC
  5
299
100
AcDbEntity
  8
0
100
AcDbCircle
 62
1
  6
CONTINUOUS
 10
30.0413327881
 20
13.8600992855
 40
0.05
100
AcDbArc
 50
0.0
 51
90.0
  0
ARC
  5
29A
100
AcDbEntity
  8
0
100
AcDbCircle
 62
1
  6
CONTINUOUS
 10
30.0413327881
 20
13.8350992855
 40
0.05
100
AcDbArc
 50
270.0
 51
360.0
  0
ARC
  5
29B
100
AcDbEntity
  8
0
100
AcDbCircle
 62
1
  6
CONTINUOUS
 10
28.3713327881
 20
13.8600992855
 40
0.05
100
AcDbArc
 50
90.0
 51
180.0
  0
ARC
  5
29C
100
AcDbEntity
  8
0
100
AcDbCircle
 62
1
  6
CONTINUOUS
 10
28.3713327881
 20
13.8350992855
 40
0.05
100
AcDbArc
 50
180.0
 51
270.0
  0
ARC
  5
29D
100
AcDbEntity
  8
0
100
AcDbCircle
 62
1
  6
CONTINUOUS
 10
18.8419919558
 20
47.0591981536
 40
30.9361015026
100
AcDbArc
 50
278.104558113
 51
279.829587422
  0
CIRCLE
  5
29E
100
AcDbEntity
  8
02___PRT_ALL_AXES
100
AcDbCircle
 62
1
  6
CONTINUOUS
 10
20.4403610139
 20
16.8036476726
 40
0.3
  0
CIRCLE
  5
29F
100
AcDbEntity
  8
02___PRT_ALL_AXES
100
AcDbCircle
 62
1
  6
CONTINUOUS
 10
18.5273610139
 20
16.9451476726
 40
0.25
  0
CIRCLE
  5
2A0
100
AcDbEntity
  8
02___PRT_ALL_AXES
100
AcDbCircle
 62
1
  6
CONTINUOUS
 10
19.4093610139
 20
16.8595725602
 40
0.25
  0
CIRCLE
  5
2A1
100
AcDbEntity
  8
02___PRT_ALL_AXES
100
AcDbCircle
 62
1
  6
CONTINUOUS
 10
17.7053610139
 20
17.0776476726
 40
0.15
  0
ARC
  5
2A2
100
AcDbEntity
  8
0
100
AcDbCircle
 62
1
  6
CONTINUOUS
 10
22.7823610139
 20
16.6036476726
 40
0.05
100
AcDbArc
 50
0.0
 51
90.0
  0
ARC
  5
2A3
100
AcDbEntity
  8
0
100
AcDbCircle
 62
1
  6
CONTINUOUS
 10
22.7823610139
 20
16.5786476726
 40
0.05
100
AcDbArc
 50
270.0
 51
360.0
  0
ARC
  5
2A4
100
AcDbEntity
  8
0
100
AcDbCircle
 62
1
  6
CONTINUOUS
 10
21.1123610139
 20
16.6036476726
 40
0.05
100
AcDbArc
 50
90.0
 51
180.0
  0
ARC
  5
2A5
100
AcDbEntity
  8
0
100
AcDbCircle
 62
1
  6
CONTINUOUS
 10
21.1123610139
 20
16.5786476726
 40
0.05
100
AcDbArc
 50
180.0
 51
270.0
  0
ARC
  5
2A6
100
AcDbEntity
  8
0
100
AcDbCircle
 62
1
  6
CONTINUOUS
 10
18.8134133267
 20
45.7731598471
 40
30.9361015026
100
AcDbArc
 50
278.104558113
 51
279.829587422
  0
CIRCLE
  5
2A7
100
AcDbEntity
  8
02___PRT_ALL_AXES
100
AcDbCircle
 62
1
  6
CONTINUOUS
 10
20.4117823849
 20
15.5176093662
 40
0.3
  0
CIRCLE
  5
2A8
100
AcDbEntity
  8
02___PRT_ALL_AXES
100
AcDbCircle
 62
1
  6
CONTINUOUS
 10
18.4987823849
 20
15.6591093662
 40
0.25
  0
CIRCLE
  5
2A9
100
AcDbEntity
  8
02___PRT_ALL_AXES
100
AcDbCircle
 62
1
  6
CONTINUOUS
 10
19.3807823849
 20
15.5735342538
 40
0.25
  0
CIRCLE
  5
2AA
100
AcDbEntity
  8
02___PRT_ALL_AXES
100
AcDbCircle
 62
1
  6
CONTINUOUS
 10
17.6767823849
 20
15.7916093662
 40
0.15
  0
ARC
  5
2AB
100
AcDbEntity
  8
0
100
AcDbCircle
 62
1
  6
CONTINUOUS
 10
22.7537823849
 20
15.3176093662
 40
0.05
100
AcDbArc
 50
0.0
 51
90.0
  0
ARC
  5
2AC
100
AcDbEntity
  8
0
100
AcDbCircle
 62
1
  6
CONTINUOUS
 10
22.7537823849
 20
15.2926093662
 40
0.05
100
AcDbArc
 50
270.0
 51
360.0
  0
ARC
  5
2AD
100
AcDbEntity
  8
0
100
AcDbCircle
 62
1
  6
CONTINUOUS
 10
21.0837823849
 20
15.3176093662
 40
0.05
100
AcDbArc
 50
90.0
 51
180.0
  0
ARC
  5
2AE
100
AcDbEntity
  8
0
100
AcDbCircle
 62
1
  6
CONTINUOUS
 10
21.0837823849
 20
15.2926093662
 40
0.05
100
AcDbArc
 50
180.0
 51
270.0
  0
ARC
  5
2AF
100
AcDbEntity
  8
0
100
AcDbCircle
 62
1
  6
CONTINUOUS
 10
18.8134133267
 20
44.4013856536
 40
30.9361015026
100
AcDbArc
 50
278.104558113
 51
279.829587422
  0
CIRCLE
  5
2B0
100
AcDbEntity
  8
02___PRT_ALL_AXES
100
AcDbCircle
 62
1
  6
CONTINUOUS
 10
20.4117823849
 20
14.1458351726
 40
0.3
  0
CIRCLE
  5
2B1
100
AcDbEntity
  8
02___PRT_ALL_AXES
100
AcDbCircle
 62
1
  6
CONTINUOUS
 10
18.4987823849
 20
14.2873351726
 40
0.25
  0
CIRCLE
  5
2B2
100
AcDbEntity
  8
02___PRT_ALL_AXES
100
AcDbCircle
 62
1
  6
CONTINUOUS
 10
19.3807823849
 20
14.2017600602
 40
0.25
  0
CIRCLE
  5
2B3
100
AcDbEntity
  8
02___PRT_ALL_AXES
100
AcDbCircle
 62
1
  6
CONTINUOUS
 10
17.6767823849
 20
14.4198351726
 40
0.15
  0
ARC
  5
2B4
100
AcDbEntity
  8
0
100
AcDbCircle
 62
1
  6
CONTINUOUS
 10
22.7537823849
 20
13.9458351726
 40
0.05
100
AcDbArc
 50
0.0
 51
90.0
  0
ARC
  5
2B5
100
AcDbEntity
  8
0
100
AcDbCircle
 62
1
  6
CONTINUOUS
 10
22.7537823849
 20
13.9208351726
 40
0.05
100
AcDbArc
 50
270.0
 51
360.0
  0
ARC
  5
2B6
100
AcDbEntity
  8
0
100
AcDbCircle
 62
1
  6
CONTINUOUS
 10
21.0837823849
 20
13.9458351726
 40
0.05
100
AcDbArc
 50
90.0
 51
180.0
  0
ARC
  5
2B7
100
AcDbEntity
  8
0
100
AcDbCircle
 62
1
  6
CONTINUOUS
 10
21.0837823849
 20
13.9208351726
 40
0.05
100
AcDbArc
 50
180.0
 51
270.0
  0
SPLINE
  5
2B8
100
AcDbEntity
  8
0
100
AcDbSpline
 62
1
  6
CONTINUOUS
 70
0
 71
3
 72
25
 73
21
 74
0
 42
0.0000001
 43
0.0000001
 44
0.0000000001
 40
0.0
 40
0.0
 40
0.0
 40
0.0
 40
0.0058279493
 40
0.0277225203
 40
0.0469083675
 40
0.0813622302
 40
0.1222465398
 40
0.1627852462
 40
0.2030598723
 40
0.2431073244
 40
0.3229133871
 40
0.4026271362
 40
0.482290868
 40
0.5619282204
 40
0.6415579504
 40
0.7211918677
 40
0.8008362078
 40
0.8804929419
 40
0.9601616983
 40
1.0
 40
1.0
 40
1.0
 40
1.0
 10
24.3404434059
 20
17.1936476726
 30
0.0
 10
24.3432792518
 20
17.1973826142
 30
0.0
 10
24.3573773868
 20
17.214694535
 30
0.0
 10
24.3852380547
 20
17.2404360893
 30
0.0
 10
24.4356969698
 20
17.2745891744
 30
0.0
 10
24.5072973727
 20
17.3022549229
 30
0.0
 10
24.5986390331
 20
17.3206450345
 30
0.0
 10
24.6945687421
 20
17.3397309856
 30
0.0
 10
24.7906382246
 20
17.3543936152
 30
0.0
 10
24.9186548296
 20
17.3679556568
 30
0.0
 10
25.0788301328
 20
17.3771816538
 30
0.0
 10
25.2708450673
 20
17.3862798759
 30
0.0
 10
25.4628816078
 20
17.391777435
 30
0.0
 10
25.6549023103
 20
17.3943781381
 30
0.0
 10
25.8469169358
 20
17.394442505
 30
0.0
 10
26.0389242576
 20
17.3924026254
 30
0.0
 10
26.2309264937
 20
17.3886543152
 30
0.0
 10
26.4229260166
 20
17.3836026946
 30
0.0
 10
26.5829188033
 20
17.3785520034
 30
0.0
 10
26.678912321
 20
17.3752502435
 30
0.0
 10
26.7109114171
 20
17.3741255297
 30
0.0
  0
SPLINE
  5
2B9
100
AcDbEntity
  8
0
100
AcDbSpline
 62
1
  6
CONTINUOUS
 70
0
 71
3
 72
26
 73
22
 74
0
 42
0.0000001
 43
0.0000001
 44
0.0000000001
 40
0.0
 40
0.0
 40
0.0
 40
0.0
 40
0.0315799317
 40
0.0877229056
 40
0.1438647874
 40
0.2000053636
 40
0.2561450852
 40
0.3122843778
 40
0.3684236807
 40
0.4245633305
 40
0.4807033393
 40
0.5368435643
 40
0.5929839131
 40
0.6491242619
 40
0.7052645075
 40
0.7614046603
 40
0.8175447514
 40
0.8736848219
 40
0.9298248821
 40
0.9859649732
 40
1.0
 40
1.0
 40
1.0
 40
1.0
 10
26.8909114171
 20
17.3675848036
 30
0.0
 10
26.9269119159
 20
17.3662417891
 30
0.0
 10
27.0269126256
 20
17.362466308
 30
0.0
 10
27.1909091948
 20
17.356177908
 30
0.0
 10
27.3829091772
 20
17.3489698598
 30
0.0
 10
27.5749099621
 20
17.3418835591
 30
0.0
 10
27.7669106789
 20
17.3348760226
 30
0.0
 10
27.95891144
 20
17.3279097459
 30
0.0
 10
28.1509120518
 20
17.3209415902
 30
0.0
 10
28.3429120459
 20
17.313933973
 30
0.0
 10
28.5349117739
 20
17.3068903452
 30
0.0
 10
28.7269116367
 20
17.2998286784
 30
0.0
 10
28.9189114164
 20
17.2927542116
 30
0.0
 10
29.1109112241
 20
17.2856798703
 30
0.0
 10
29.3029112607
 20
17.2786178173
 30
0.0
 10
29.4949113076
 20
17.2715640504
 30
0.0
 10
29.6869113895
 20
17.2645166798
 30
0.0
 10
29.8789113908
 20
17.2574699951
 30
0.0
 10
30.0709114797
 20
17.2504256981
 30
0.0
 10
30.2149114365
 20
17.2451391144
 30
0.0
 10
30.2949114177
 20
17.2422016742
 30
0.0
 10
30.3109114171
 20
17.2416141722
 30
0.0
  0
LINE
  5
2BA
100
AcDbEntity
  8
0
100
AcDbLine
 62
1
  6
CONTINUOUS
 10
30.4909114171
 20
17.2350044042
 11
31.4109114171
 21
17.2012134496
  0
SPLINE
  5
2BB
100
AcDbEntity
  8
0
100
AcDbSpline
 62
1
  6
CONTINUOUS
 70
0
 71
3
 72
26
 73
22
 74
0
 42
0.0000001
 43
0.0000001
 44
0.0000000001
 40
0.0
 40
0.0
 40
0.0
 40
0.0
 40
0.0141227891
 40
0.0705759542
 40
0.1269687259
 40
0.1833044603
 40
0.2395873322
 40
0.2958217421
 40
0.3520120012
 40
0.4081621943
 40
0.4642748272
 40
0.5203527108
 40
0.5764001289
 40
0.6324228682
 40
0.6884285245
 40
0.7444263845
 40
0.8004244532
 40
0.8564288016
 40
0.9124437532
 40
0.9684730785
 40
1.0
 40
1.0
 40
1.0
 40
1.0
 10
30.3109114171
 20
16.407266164
 30
0.0
 10
30.2949135611
 20
16.4051196861
 30
0.0
 10
30.2149566135
 20
16.3944728034
 30
0.0
 10
30.0710146133
 20
16.3760479399
 30
0.0
 10
29.8790085635
 20
16.3531796427
 30
0.0
 10
29.687001586
 20
16.3320285108
 30
0.0
 10
29.4949940836
 20
16.3126047003
 30
0.0
 10
29.3029868604
 20
16.2949056225
 30
0.0
 10
29.1109796446
 20
16.2789433669
 30
0.0
 10
28.9189757229
 20
16.264712704
 30
0.0
 10
28.7269710484
 20
16.2523438355
 30
0.0
 10
28.5349637215
 20
16.241999517
 30
0.0
 10
28.3429538624
 20
16.2338312037
 30
0.0
 10
28.1509409475
 20
16.2279866575
 30
0.0
 10
27.9589245863
 20
16.224651361
 30
0.0
 10
27.7669108638
 20
16.2236738526
 30
0.0
 10
27.5749005255
 20
16.2248471944
 30
0.0
 10
27.3828929432
 20
16.2279691261
 30
0.0
 10
27.1908877938
 20
16.2328683243
 30
0.0
 10
27.0268864181
 20
16.2383250028
 30
0.0
 10
26.9269053377
 20
16.242571049
 30
0.0
 10
26.8909114171
 20
16.2442473907
 30
0.0
  0
SPLINE
  5
2BC
100
AcDbEntity
  8
0
100
AcDbSpline
 62
1
  6
CONTINUOUS
 70
0
 71
3
 72
24
 73
20
 74
0
 42
0.0000001
 43
0.0000001
 44
0.0000000001
 40
0.0
 40
0.0
 40
0.0
 40
0.0
 40
0.0379796877
 40
0.114036895
 40
0.1902915672
 40
0.2668458996
 40
0.3437842577
 40
0.4211747898
 40
0.4991286551
 40
0.5778542285
 40
0.6576234311
 40
0.7387984134
 40
0.7803241269
 40
0.8229428872
 40
0.8673440313
 40
0.9150500853
 40
0.9566439872
 40
0.9784123927
 40
1.0
 40
1.0
 40
1.0
 40
1.0
 10
26.7109114171
 20
16.2539945963
 30
0.0
 10
26.6789009018
 20
16.2559938291
 30
0.0
 10
26.5828157971
 20
16.2624575662
 30
0.0
 10
26.4226651063
 20
16.2758416281
 30
0.0
 10
26.2305325564
 20
16.2970263532
 30
0.0
 10
26.0384288544
 20
16.3244216645
 30
0.0
 10
25.8463517441
 20
16.3580736806
 30
0.0
 10
25.6542215799
 20
16.3977504766
 30
0.0
 10
25.4619723469
 20
16.4438511049
 30
0.0
 10
25.2696303088
 20
16.4976915019
 30
0.0
 10
25.0773167363
 20
16.5609199518
 30
0.0
 10
24.917242594
 20
16.6213141373
 30
0.0
 10
24.7896669581
 20
16.6781335398
 30
0.0
 10
24.6929844777
 20
16.7276264212
 30
0.0
 10
24.5954383295
 20
16.7864428935
 30
0.0
 10
24.505381869
 20
16.855063682
 30
0.0
 10
24.4377455395
 20
16.9201805049
 30
0.0
 10
24.3873796628
 20
16.9712483971
 30
0.0
 10
24.3634155943
 20
16.9990359371
 30
0.0
 10
24.3525001385
 20
17.0136476726
 30
0.0
  0
SPLINE
  5
2BD
100
AcDbEntity
  8
0
100
AcDbSpline
 62
1
  6
CONTINUOUS
 70
0
 71
3
 72
25
 73
21
 74
0
 42
0.0000001
 43
0.0000001
 44
0.0000000001
 40
0.0
 40
0.0
 40
0.0
 40
0.0
 40
0.0058279493
 40
0.0277225203
 40
0.0469083675
 40
0.0813622302
 40
0.1222465398
 40
0.1627852462
 40
0.2030598723
 40
0.2431073244
 40
0.3229133871
 40
0.4026271362
 40
0.482290868
 40
0.5619282204
 40
0.6415579504
 40
0.7211918677
 40
0.8008362078
 40
0.8804929419
 40
0.9601616983
 40
1.0
 40
1.0
 40
1.0
 40
1.0
 10
24.3404434059
 20
15.8218734791
 30
0.0
 10
24.3432792518
 20
15.8256084207
 30
0.0
 10
24.3573773868
 20
15.8429203415
 30
0.0
 10
24.3852380547
 20
15.8686618958
 30
0.0
 10
24.4356969698
 20
15.9028149809
 30
0.0
 10
24.5072973727
 20
15.9304807293
 30
0.0
 10
24.5986390331
 20
15.948870841
 30
0.0
 10
24.6945687421
 20
15.9679567921
 30
0.0
 10
24.7906382246
 20
15.9826194216
 30
0.0
 10
24.9186548296
 20
15.9961814633
 30
0.0
 10
25.0788301328
 20
16.0054074602
 30
0.0
 10
25.2708450673
 20
16.0145056823
 30
0.0
 10
25.4628816078
 20
16.0200032414
 30
0.0
 10
25.6549023103
 20
16.0226039445
 30
0.0
 10
25.8469169358
 20
16.0226683115
 30
0.0
 10
26.0389242576
 20
16.0206284319
 30
0.0
 10
26.2309264937
 20
16.0168801216
 30
0.0
 10
26.4229260166
 20
16.0118285011
 30
0.0
 10
26.5829188033
 20
16.0067778099
 30
0.0
 10
26.678912321
 20
16.0034760499
 30
0.0
 10
26.7109114171
 20
16.0023513361
 30
0.0
  0
SPLINE
  5
2BE
100
AcDbEntity
  8
0
100
AcDbSpline
 62
1
  6
CONTINUOUS
 70
0
 71
3
 72
26
 73
22
 74
0
 42
0.0000001
 43
0.0000001
 44
0.0000000001
 40
0.0
 40
0.0
 40
0.0
 40
0.0
 40
0.0315799317
 40
0.0877229056
 40
0.1438647874
 40
0.2000053636
 40
0.2561450852
 40
0.3122843778
 40
0.3684236807
 40
0.4245633305
 40
0.4807033393
 40
0.5368435643
 40
0.5929839131
 40
0.6491242619
 40
0.7052645075
 40
0.7614046603
 40
0.8175447514
 40
0.8736848219
 40
0.9298248821
 40
0.9859649732
 40
1.0
 40
1.0
 40
1.0
 40
1.0
 10
26.8909114171
 20
15.99581061
 30
0.0
 10
26.9269119159
 20
15.9944675956
 30
0.0
 10
27.0269126256
 20
15.9906921145
 30
0.0
 10
27.1909091948
 20
15.9844037144
 30
0.0
 10
27.3829091772
 20
15.9771956663
 30
0.0
 10
27.5749099621
 20
15.9701093656
 30
0.0
 10
27.7669106789
 20
15.9631018291
 30
0.0
 10
27.95891144
 20
15.9561355523
 30
0.0
 10
28.1509120518
 20
15.9491673967
 30
0.0
 10
28.3429120459
 20
15.9421597795
 30
0.0
 10
28.5349117739
 20
15.9351161517
 30
0.0
 10
28.7269116367
 20
15.9280544849
 30
0.0
 10
28.9189114164
 20
15.920980018
 30
0.0
 10
29.1109112241
 20
15.9139056767
 30
0.0
 10
29.3029112607
 20
15.9068436238
 30
0.0
 10
29.4949113076
 20
15.8997898568
 30
0.0
 10
29.6869113895
 20
15.8927424863
 30
0.0
 10
29.8789113908
 20
15.8856958016
 30
0.0
 10
30.0709114797
 20
15.8786515046
 30
0.0
 10
30.2149114365
 20
15.8733649209
 30
0.0
 10
30.2949114177
 20
15.8704274807
 30
0.0
 10
30.3109114171
 20
15.8698399787
 30
0.0
  0
LINE
  5
2BF
100
AcDbEntity
  8
0
100
AcDbLine
 62
1
  6
CONTINUOUS
 10
30.4909114171
 20
15.8632302107
 11
31.4109114171
 21
15.829439256
  0
SPLINE
  5
2C0
100
AcDbEntity
  8
0
100
AcDbSpline
 62
1
  6
CONTINUOUS
 70
0
 71
3
 72
26
 73
22
 74
0
 42
0.0000001
 43
0.0000001
 44
0.0000000001
 40
0.0
 40
0.0
 40
0.0
 40
0.0
 40
0.0141227891
 40
0.0705759542
 40
0.1269687259
 40
0.1833044603
 40
0.2395873322
 40
0.2958217421
 40
0.3520120012
 40
0.4081621943
 40
0.4642748272
 40
0.5203527108
 40
0.5764001289
 40
0.6324228682
 40
0.6884285245
 40
0.7444263845
 40
0.8004244532
 40
0.8564288016
 40
0.9124437532
 40
0.9684730785
 40
1.0
 40
1.0
 40
1.0
 40
1.0
 10
30.3109114171
 20
15.0354919705
 30
0.0
 10
30.2949135611
 20
15.0333454926
 30
0.0
 10
30.2149566135
 20
15.0226986099
 30
0.0
 10
30.0710146133
 20
15.0042737464
 30
0.0
 10
29.8790085635
 20
14.9814054491
 30
0.0
 10
29.687001586
 20
14.9602543172
 30
0.0
 10
29.4949940836
 20
14.9408305068
 30
0.0
 10
29.3029868604
 20
14.9231314289
 30
0.0
 10
29.1109796446
 20
14.9071691734
 30
0.0
 10
28.9189757229
 20
14.8929385104
 30
0.0
 10
28.7269710484
 20
14.880569642
 30
0.0
 10
28.5349637215
 20
14.8702253234
 30
0.0
 10
28.3429538624
 20
14.8620570102
 30
0.0
 10
28.1509409475
 20
14.8562124639
 30
0.0
 10
27.9589245863
 20
14.8528771675
 30
0.0
 10
27.7669108638
 20
14.8518996591
 30
0.0
 10
27.5749005255
 20
14.8530730008
 30
0.0
 10
27.3828929432
 20
14.8561949325
 30
0.0
 10
27.1908877938
 20
14.8610941308
 30
0.0
 10
27.0268864181
 20
14.8665508092
 30
0.0
 10
26.9269053377
 20
14.8707968555
 30
0.0
 10
26.8909114171
 20
14.8724731972
 30
0.0
  0
SPLINE
  5
2C1
100
AcDbEntity
  8
0
100
AcDbSpline
 62
1
  6
CONTINUOUS
 70
0
 71
3
 72
24
 73
20
 74
0
 42
0.0000001
 43
0.0000001
 44
0.0000000001
 40
0.0
 40
0.0
 40
0.0
 40
0.0
 40
0.0379796877
 40
0.114036895
 40
0.1902915672
 40
0.2668458996
 40
0.3437842577
 40
0.4211747898
 40
0.4991286551
 40
0.5778542285
 40
0.6576234311
 40
0.7387984134
 40
0.7803241269
 40
0.8229428872
 40
0.8673440313
 40
0.9150500853
 40
0.9566439872
 40
0.9784123927
 40
1.0
 40
1.0
 40
1.0
 40
1.0
 10
26.7109114171
 20
14.8822204028
 30
0.0
 10
26.6789009018
 20
14.8842196356
 30
0.0
 10
26.5828157971
 20
14.8906833727
 30
0.0
 10
26.4226651063
 20
14.9040674345
 30
0.0
 10
26.2305325564
 20
14.9252521596
 30
0.0
 10
26.0384288544
 20
14.9526474709
 30
0.0
 10
25.8463517441
 20
14.9862994871
 30
0.0
 10
25.6542215799
 20
15.025976283
 30
0.0
 10
25.4619723469
 20
15.0720769113
 30
0.0
 10
25.2696303088
 20
15.1259173083
 30
0.0
 10
25.0773167363
 20
15.1891457583
 30
0.0
 10
24.917242594
 20
15.2495399438
 30
0.0
 10
24.7896669581
 20
15.3063593462
 30
0.0
 10
24.6929844777
 20
15.3558522276
 30
0.0
 10
24.5954383295
 20
15.4146686999
 30
0.0
 10
24.505381869
 20
15.4832894884
 30
0.0
 10
24.4377455395
 20
15.5484063114
 30
0.0
 10
24.3873796628
 20
15.5994742035
 30
0.0
 10
24.3634155943
 20
15.6272617436
 30
0.0
 10
24.3525001385
 20
15.6418734791
 30
0.0
  0
SPLINE
  5
2C2
100
AcDbEntity
  8
0
100
AcDbSpline
 62
1
  6
CONTINUOUS
 70
0
 71
3
 72
25
 73
21
 74
0
 42
0.0000001
 43
0.0000001
 44
0.0000000001
 40
0.0
 40
0.0
 40
0.0
 40
0.0
 40
0.0058279493
 40
0.0277225203
 40
0.0469083675
 40
0.0813622302
 40
0.1222465398
 40
0.1627852462
 40
0.2030598723
 40
0.2431073244
 40
0.3229133871
 40
0.4026271362
 40
0.482290868
 40
0.5619282204
 40
0.6415579504
 40
0.7211918677
 40
0.8008362078
 40
0.8804929419
 40
0.9601616983
 40
1.0
 40
1.0
 40
1.0
 40
1.0
 10
24.3118647769
 20
14.4500992855
 30
0.0
 10
24.3147006228
 20
14.4538342271
 30
0.0
 10
24.3287987577
 20
14.4711461479
 30
0.0
 10
24.3566594257
 20
14.4968877022
 30
0.0
 10
24.4071183408
 20
14.5310407873
 30
0.0
 10
24.4787187437
 20
14.5587065358
 30
0.0
 10
24.5700604041
 20
14.5770966474
 30
0.0
 10
24.6659901131
 20
14.5961825985
 30
0.0
 10
24.7620595956
 20
14.6108452281
 30
0.0
 10
24.8900762005
 20
14.6244072697
 30
0.0
 10
25.0502515038
 20
14.6336332667
 30
0.0
 10
25.2422664383
 20
14.6427314888
 30
0.0
 10
25.4343029788
 20
14.6482290479
 30
0.0
 10
25.6263236812
 20
14.650829751
 30
0.0
 10
25.8183383068
 20
14.6508941179
 30
0.0
 10
26.0103456286
 20
14.6488542383
 30
0.0
 10
26.2023478646
 20
14.6451059281
 30
0.0
 10
26.3943473876
 20
14.6400543075
 30
0.0
 10
26.5543401743
 20
14.6350036163
 30
0.0
 10
26.650333692
 20
14.6317018564
 30
0.0
 10
26.6823327881
 20
14.6305771426
 30
0.0
  0
SPLINE
  5
2C3
100
AcDbEntity
  8
0
100
AcDbSpline
 62
1
  6
CONTINUOUS
 70
0
 71
3
 72
26
 73
22
 74
0
 42
0.0000001
 43
0.0000001
 44
0.0000000001
 40
0.0
 40
0.0
 40
0.0
 40
0.0
 40
0.0315799317
 40
0.0877229056
 40
0.1438647874
 40
0.2000053636
 40
0.2561450852
 40
0.3122843778
 40
0.3684236807
 40
0.4245633305
 40
0.4807033393
 40
0.5368435643
 40
0.5929839131
 40
0.6491242619
 40
0.7052645075
 40
0.7614046603
 40
0.8175447514
 40
0.8736848219
 40
0.9298248821
 40
0.9859649732
 40
1.0
 40
1.0
 40
1.0
 40
1.0
 10
26.8623327881
 20
14.6240364165
 30
0.0
 10
26.8983332868
 20
14.622693402
 30
0.0
 10
26.9983339965
 20
14.6189179209
 30
0.0
 10
27.1623305657
 20
14.6126295209
 30
0.0
 10
27.3543305482
 20
14.6054214727
 30
0.0
 10
27.5463313331
 20
14.598335172
 30
0.0
 10
27.7383320498
 20
14.5913276355
 30
0.0
 10
27.930332811
 20
14.5843613588
 30
0.0
 10
28.1223334227
 20
14.5773932031
 30
0.0
 10
28.3143334168
 20
14.5703855859
 30
0.0
 10
28.5063331449
 20
14.5633419581
 30
0.0
 10
28.6983330077
 20
14.5562802913
 30
0.0
 10
28.8903327873
 20
14.5492058245
 30
0.0
 10
29.0823325951
 20
14.5421314832
 30
0.0
 10
29.2743326317
 20
14.5350694302
 30
0.0
 10
29.4663326786
 20
14.5280156633
 30
0.0
 10
29.6583327605
 20
14.5209682928
 30
0.0
 10
29.8503327618
 20
14.513921608
 30
0.0
 10
30.0423328507
 20
14.506877311
 30
0.0
 10
30.1863328075
 20
14.5015907273
 30
0.0
 10
30.2663327887
 20
14.4986532871
 30
0.0
 10
30.2823327881
 20
14.4980657851
 30
0.0
  0
LINE
  5
2C4
100
AcDbEntity
  8
0
100
AcDbLine
 62
1
  6
CONTINUOUS
 10
30.4623327881
 20
14.4914560171
 11
31.3823327881
 21
14.4576650625
  0
SPLINE
  5
2C5
100
AcDbEntity
  8
0
100
AcDbSpline
 62
1
  6
CONTINUOUS
 70
0
 71
3
 72
26
 73
22
 74
0
 42
0.0000001
 43
0.0000001
 44
0.0000000001
 40
0.0
 40
0.0
 40
0.0
 40
0.0
 40
0.0141227891
 40
0.0705759542
 40
0.1269687259
 40
0.1833044603
 40
0.2395873322
 40
0.2958217421
 40
0.3520120012
 40
0.4081621943
 40
0.4642748272
 40
0.5203527108
 40
0.5764001289
 40
0.6324228682
 40
0.6884285245
 40
0.7444263845
 40
0.8004244532
 40
0.8564288016
 40
0.9124437532
 40
0.9684730785
 40
1.0
 40
1.0
 40
1.0
 40
1.0
 10
30.2823327881
 20
13.6637177769
 30
0.0
 10
30.2663349321
 20
13.661571299
 30
0.0
 10
30.1863779845
 20
13.6509244163
 30
0.0
 10
30.0424359843
 20
13.6324995528
 30
0.0
 10
29.8504299345
 20
13.6096312556
 30
0.0
 10
29.658422957
 20
13.5884801237
 30
0.0
 10
29.4664154546
 20
13.5690563132
 30
0.0
 10
29.2744082314
 20
13.5513572354
 30
0.0
 10
29.0824010156
 20
13.5353949798
 30
0.0
 10
28.8903970939
 20
13.5211643169
 30
0.0
 10
28.6983924194
 20
13.5087954484
 30
0.0
 10
28.5063850925
 20
13.4984511299
 30
0.0
 10
28.3143752334
 20
13.4902828166
 30
0.0
 10
28.1223623185
 20
13.4844382704
 30
0.0
 10
27.9303459573
 20
13.4811029739
 30
0.0
 10
27.7383322348
 20
13.4801254655
 30
0.0
 10
27.5463218964
 20
13.4812988073
 30
0.0
 10
27.3543143142
 20
13.484420739
 30
0.0
 10
27.1623091648
 20
13.4893199372
 30
0.0
 10
26.9983077891
 20
13.4947766157
 30
0.0
 10
26.8983267087
 20
13.4990226619
 30
0.0
 10
26.8623327881
 20
13.5006990036
 30
0.0
  0
SPLINE
  5
2C6
100
AcDbEntity
  8
0
100
AcDbSpline
 62
1
  6
CONTINUOUS
 70
0
 71
3
 72
24
 73
20
 74
0
 42
0.0000001
 43
0.0000001
 44
0.0000000001
 40
0.0
 40
0.0
 40
0.0
 40
0.0
 40
0.0379796877
 40
0.114036895
 40
0.1902915672
 40
0.2668458996
 40
0.3437842577
 40
0.4211747898
 40
0.4991286551
 40
0.5778542285
 40
0.6576234311
 40
0.7387984134
 40
0.7803241269
 40
0.8229428872
 40
0.8673440313
 40
0.9150500853
 40
0.9566439872
 40
0.9784123927
 40
1.0
 40
1.0
 40
1.0
 40
1.0
 10
26.6823327881
 20
13.5104462092
 30
0.0
 10
26.6503222727
 20
13.512445442
 30
0.0
 10
26.5542371681
 20
13.5189091791
 30
0.0
 10
26.3940864773
 20
13.532293241
 30
0.0
 10
26.2019539274
 20
13.5534779661
 30
0.0
 10
26.0098502254
 20
13.5808732774
 30
0.0
 10
25.8177731151
 20
13.6145252935
 30
0.0
 10
25.6256429508
 20
13.6542020895
 30
0.0
 10
25.4333937179
 20
13.7003027178
 30
0.0
 10
25.2410516798
 20
13.7541431148
 30
0.0
 10
25.0487381072
 20
13.8173715647
 30
0.0
 10
24.888663965
 20
13.8777657502
 30
0.0
 10
24.7610883291
 20
13.9345851527
 30
0.0
 10
24.6644058486
 20
13.9840780341
 30
0.0
 10
24.5668597005
 20
14.0428945064
 30
0.0
 10
24.47680324
 20
14.1115152949
 30
0.0
 10
24.4091669104
 20
14.1766321178
 30
0.0
 10
24.3588010338
 20
14.22770001
 30
0.0
 10
24.3348369652
 20
14.25548755
 30
0.0
 10
24.3239215095
 20
14.2700992855
 30
0.0
  0
SPLINE
  5
2C7
100
AcDbEntity
  8
0
100
AcDbSpline
 62
1
  6
CONTINUOUS
 70
0
 71
3
 72
25
 73
21
 74
0
 42
0.0000001
 43
0.0000001
 44
0.0000000001
 40
0.0
 40
0.0
 40
0.0
 40
0.0
 40
0.0058279493
 40
0.0277225203
 40
0.0469083675
 40
0.0813622302
 40
0.1222465398
 40
0.1627852462
 40
0.2030598723
 40
0.2431073244
 40
0.3229133871
 40
0.4026271362
 40
0.482290868
 40
0.5619282204
 40
0.6415579504
 40
0.7211918677
 40
0.8008362078
 40
0.8804929419
 40
0.9601616983
 40
1.0
 40
1.0
 40
1.0
 40
1.0
 10
17.0528930027
 20
17.1936476726
 30
0.0
 10
17.0557288486
 20
17.1973826142
 30
0.0
 10
17.0698269835
 20
17.214694535
 30
0.0
 10
17.0976876515
 20
17.2404360893
 30
0.0
 10
17.1481465666
 20
17.2745891744
 30
0.0
 10
17.2197469695
 20
17.3022549229
 30
0.0
 10
17.3110886299
 20
17.3206450345
 30
0.0
 10
17.4070183389
 20
17.3397309856
 30
0.0
 10
17.5030878214
 20
17.3543936152
 30
0.0
 10
17.6311044263
 20
17.3679556568
 30
0.0
 10
17.7912797296
 20
17.3771816538
 30
0.0
 10
17.9832946641
 20
17.3862798759
 30
0.0
 10
18.1753312046
 20
17.391777435
 30
0.0
 10
18.367351907
 20
17.3943781381
 30
0.0
 10
18.5593665326
 20
17.394442505
 30
0.0
 10
18.7513738544
 20
17.3924026254
 30
0.0
 10
18.9433760904
 20
17.3886543152
 30
0.0
 10
19.1353756134
 20
17.3836026946
 30
0.0
 10
19.2953684001
 20
17.3785520034
 30
0.0
 10
19.3913619178
 20
17.3752502435
 30
0.0
 10
19.4233610139
 20
17.3741255297
 30
0.0
  0
SPLINE
  5
2C8
100
AcDbEntity
  8
0
100
AcDbSpline
 62
1
  6
CONTINUOUS
 70
0
 71
3
 72
26
 73
22
 74
0
 42
0.0000001
 43
0.0000001
 44
0.0000000001
 40
0.0
 40
0.0
 40
0.0
 40
0.0
 40
0.0315799317
 40
0.0877229056
 40
0.1438647874
 40
0.2000053636
 40
0.2561450852
 40
0.3122843778
 40
0.3684236807
 40
0.4245633305
 40
0.4807033393
 40
0.5368435643
 40
0.5929839131
 40
0.6491242619
 40
0.7052645075
 40
0.7614046603
 40
0.8175447514
 40
0.8736848219
 40
0.9298248821
 40
0.9859649732
 40
1.0
 40
1.0
 40
1.0
 40
1.0
 10
19.6033610139
 20
17.3675848036
 30
0.0
 10
19.6393615126
 20
17.3662417891
 30
0.0
 10
19.7393622223
 20
17.362466308
 30
0.0
 10
19.9033587915
 20
17.356177908
 30
0.0
 10
20.095358774
 20
17.3489698598
 30
0.0
 10
20.2873595589
 20
17.3418835591
 30
0.0
 10
20.4793602756
 20
17.3348760226
 30
0.0
 10
20.6713610368
 20
17.3279097459
 30
0.0
 10
20.8633616485
 20
17.3209415902
 30
0.0
 10
21.0553616426
 20
17.313933973
 30
0.0
 10
21.2473613707
 20
17.3068903452
 30
0.0
 10
21.4393612335
 20
17.2998286784
 30
0.0
 10
21.6313610131
 20
17.2927542116
 30
0.0
 10
21.8233608209
 20
17.2856798703
 30
0.0
 10
22.0153608575
 20
17.2786178173
 30
0.0
 10
22.2073609044
 20
17.2715640504
 30
0.0
 10
22.3993609863
 20
17.2645166798
 30
0.0
 10
22.5913609876
 20
17.2574699951
 30
0.0
 10
22.7833610765
 20
17.2504256981
 30
0.0
 10
22.9273610333
 20
17.2451391144
 30
0.0
 10
23.0073610145
 20
17.2422016742
 30
0.0
 10
23.0233610139
 20
17.2416141722
 30
0.0
  0
LINE
  5
2C9
100
AcDbEntity
  8
0
100
AcDbLine
 62
1
  6
CONTINUOUS
 10
23.2033610139
 20
17.2350044042
 11
24.1233610139
 21
17.2012134496
  0
SPLINE
  5
2CA
100
AcDbEntity
  8
0
100
AcDbSpline
 62
1
  6
CONTINUOUS
 70
0
 71
3
 72
26
 73
22
 74
0
 42
0.0000001
 43
0.0000001
 44
0.0000000001
 40
0.0
 40
0.0
 40
0.0
 40
0.0
 40
0.0141227891
 40
0.0705759542
 40
0.1269687259
 40
0.1833044603
 40
0.2395873322
 40
0.2958217421
 40
0.3520120012
 40
0.4081621943
 40
0.4642748272
 40
0.5203527108
 40
0.5764001289
 40
0.6324228682
 40
0.6884285245
 40
0.7444263845
 40
0.8004244532
 40
0.8564288016
 40
0.9124437532
 40
0.9684730785
 40
1.0
 40
1.0
 40
1.0
 40
1.0
 10
23.0233610139
 20
16.407266164
 30
0.0
 10
23.0073631579
 20
16.4051196861
 30
0.0
 10
22.9274062103
 20
16.3944728034
 30
0.0
 10
22.7834642101
 20
16.3760479399
 30
0.0
 10
22.5914581603
 20
16.3531796427
 30
0.0
 10
22.3994511828
 20
16.3320285108
 30
0.0
 10
22.2074436804
 20
16.3126047003
 30
0.0
 10
22.0154364572
 20
16.2949056225
 30
0.0
 10
21.8234292414
 20
16.2789433669
 30
0.0
 10
21.6314253197
 20
16.264712704
 30
0.0
 10
21.4394206452
 20
16.2523438355
 30
0.0
 10
21.2474133183
 20
16.241999517
 30
0.0
 10
21.0554034592
 20
16.2338312037
 30
0.0
 10
20.8633905443
 20
16.2279866575
 30
0.0
 10
20.6713741831
 20
16.224651361
 30
0.0
 10
20.4793604606
 20
16.2236738526
 30
0.0
 10
20.2873501222
 20
16.2248471944
 30
0.0
 10
20.09534254
 20
16.2279691261
 30
0.0
 10
19.9033373906
 20
16.2328683243
 30
0.0
 10
19.7393360149
 20
16.2383250028
 30
0.0
 10
19.6393549345
 20
16.242571049
 30
0.0
 10
19.6033610139
 20
16.2442473907
 30
0.0
  0
SPLINE
  5
2CB
100
AcDbEntity
  8
0
100
AcDbSpline
 62
1
  6
CONTINUOUS
 70
0
 71
3
 72
24
 73
20
 74
0
 42
0.0000001
 43
0.0000001
 44
0.0000000001
 40
0.0
 40
0.0
 40
0.0
 40
0.0
 40
0.0379796877
 40
0.114036895
 40
0.1902915672
 40
0.2668458996
 40
0.3437842577
 40
0.4211747898
 40
0.4991286551
 40
0.5778542285
 40
0.6576234311
 40
0.7387984134
 40
0.7803241269
 40
0.8229428872
 40
0.8673440313
 40
0.9150500853
 40
0.9566439872
 40
0.9784123927
 40
1.0
 40
1.0
 40
1.0
 40
1.0
 10
19.4233610139
 20
16.2539945963
 30
0.0
 10
19.3913504986
 20
16.2559938291
 30
0.0
 10
19.2952653939
 20
16.2624575662
 30
0.0
 10
19.1351147031
 20
16.2758416281
 30
0.0
 10
18.9429821532
 20
16.2970263532
 30
0.0
 10
18.7508784512
 20
16.3244216645
 30
0.0
 10
18.5588013409
 20
16.3580736806
 30
0.0
 10
18.3666711766
 20
16.3977504766
 30
0.0
 10
18.1744219437
 20
16.4438511049
 30
0.0
 10
17.9820799056
 20
16.4976915019
 30
0.0
 10
17.789766333
 20
16.5609199518
 30
0.0
 10
17.6296921908
 20
16.6213141373
 30
0.0
 10
17.5021165549
 20
16.6781335398
 30
0.0
 10
17.4054340744
 20
16.7276264212
 30
0.0
 10
17.3078879263
 20
16.7864428935
 30
0.0
 10
17.2178314658
 20
16.855063682
 30
0.0
 10
17.1501951362
 20
16.9201805049
 30
0.0
 10
17.0998292596
 20
16.9712483971
 30
0.0
 10
17.0758651911
 20
16.9990359371
 30
0.0
 10
17.0649497353
 20
17.0136476726
 30
0.0
  0
SPLINE
  5
2CC
100
AcDbEntity
  8
0
100
AcDbSpline
 62
1
  6
CONTINUOUS
 70
0
 71
3
 72
25
 73
21
 74
0
 42
0.0000001
 43
0.0000001
 44
0.0000000001
 40
0.0
 40
0.0
 40
0.0
 40
0.0
 40
0.0058279493
 40
0.0277225203
 40
0.0469083675
 40
0.0813622302
 40
0.1222465398
 40
0.1627852462
 40
0.2030598723
 40
0.2431073244
 40
0.3229133871
 40
0.4026271362
 40
0.482290868
 40
0.5619282204
 40
0.6415579504
 40
0.7211918677
 40
0.8008362078
 40
0.8804929419
 40
0.9601616983
 40
1.0
 40
1.0
 40
1.0
 40
1.0
 10
17.0243143736
 20
15.9076093662
 30
0.0
 10
17.0271502196
 20
15.9113443078
 30
0.0
 10
17.0412483545
 20
15.9286562286
 30
0.0
 10
17.0691090224
 20
15.9543977829
 30
0.0
 10
17.1195679375
 20
15.988550868
 30
0.0
 10
17.1911683405
 20
16.0162166164
 30
0.0
 10
17.2825100009
 20
16.034606728
 30
0.0
 10
17.3784397099
 20
16.0536926792
 30
0.0
 10
17.4745091924
 20
16.0683553087
 30
0.0
 10
17.6025257973
 20
16.0819173504
 30
0.0
 10
17.7627011005
 20
16.0911433473
 30
0.0
 10
17.9547160351
 20
16.1002415694
 30
0.0
 10
18.1467525756
 20
16.1057391285
 30
0.0
 10
18.338773278
 20
16.1083398316
 30
0.0
 10
18.5307879036
 20
16.1084041986
 30
0.0
 10
18.7227952253
 20
16.106364319
 30
0.0
 10
18.9147974614
 20
16.1026160087
 30
0.0
 10
19.1067969844
 20
16.0975643882
 30
0.0
 10
19.2667897711
 20
16.092513697
 30
0.0
 10
19.3627832888
 20
16.089211937
 30
0.0
 10
19.3947823849
 20
16.0880872232
 30
0.0
  0
SPLINE
  5
2CD
100
AcDbEntity
  8
0
100
AcDbSpline
 62
1
  6
CONTINUOUS
 70
0
 71
3
 72
26
 73
22
 74
0
 42
0.0000001
 43
0.0000001
 44
0.0000000001
 40
0.0
 40
0.0
 40
0.0
 40
0.0
 40
0.0315799317
 40
0.0877229056
 40
0.1438647874
 40
0.2000053636
 40
0.2561450852
 40
0.3122843778
 40
0.3684236807
 40
0.4245633305
 40
0.4807033393
 40
0.5368435643
 40
0.5929839131
 40
0.6491242619
 40
0.7052645075
 40
0.7614046603
 40
0.8175447514
 40
0.8736848219
 40
0.9298248821
 40
0.9859649732
 40
1.0
 40
1.0
 40
1.0
 40
1.0
 10
19.5747823849
 20
16.0815464971
 30
0.0
 10
19.6107828836
 20
16.0802034827
 30
0.0
 10
19.7107835933
 20
16.0764280016
 30
0.0
 10
19.8747801625
 20
16.0701396015
 30
0.0
 10
20.0667801449
 20
16.0629315534
 30
0.0
 10
20.2587809299
 20
16.0558452527
 30
0.0
 10
20.4507816466
 20
16.0488377162
 30
0.0
 10
20.6427824078
 20
16.0418714394
 30
0.0
 10
20.8347830195
 20
16.0349032837
 30
0.0
 10
21.0267830136
 20
16.0278956666
 30
0.0
 10
21.2187827416
 20
16.0208520388
 30
0.0
 10
21.4107826045
 20
16.013790372
 30
0.0
 10
21.6027823841
 20
16.0067159051
 30
0.0
 10
21.7947821919
 20
15.9996415638
 30
0.0
 10
21.9867822285
 20
15.9925795109
 30
0.0
 10
22.1787822754
 20
15.9855257439
 30
0.0
 10
22.3707823572
 20
15.9784783734
 30
0.0
 10
22.5627823585
 20
15.9714316887
 30
0.0
 10
22.7547824475
 20
15.9643873917
 30
0.0
 10
22.8987824043
 20
15.959100808
 30
0.0
 10
22.9787823854
 20
15.9561633678
 30
0.0
 10
22.9947823849
 20
15.9555758658
 30
0.0
  0
LINE
  5
2CE
100
AcDbEntity
  8
0
100
AcDbLine
 62
1
  6
CONTINUOUS
 10
23.1747823849
 20
15.9489660978
 11
24.0947823849
 21
15.9151751431
  0
SPLINE
  5
2CF
100
AcDbEntity
  8
0
100
AcDbSpline
 62
1
  6
CONTINUOUS
 70
0
 71
3
 72
26
 73
22
 74
0
 42
0.0000001
 43
0.0000001
 44
0.0000000001
 40
0.0
 40
0.0
 40
0.0
 40
0.0
 40
0.0141227891
 40
0.0705759542
 40
0.1269687259
 40
0.1833044603
 40
0.2395873322
 40
0.2958217421
 40
0.3520120012
 40
0.4081621943
 40
0.4642748272
 40
0.5203527108
 40
0.5764001289
 40
0.6324228682
 40
0.6884285245
 40
0.7444263845
 40
0.8004244532
 40
0.8564288016
 40
0.9124437532
 40
0.9684730785
 40
1.0
 40
1.0
 40
1.0
 40
1.0
 10
22.9947823849
 20
15.1212278576
 30
0.0
 10
22.9787845289
 20
15.1190813797
 30
0.0
 10
22.8988275813
 20
15.108434497
 30
0.0
 10
22.7548855811
 20
15.0900096335
 30
0.0
 10
22.5628795312
 20
15.0671413362
 30
0.0
 10
22.3708725537
 20
15.0459902043
 30
0.0
 10
22.1788650513
 20
15.0265663939
 30
0.0
 10
21.9868578282
 20
15.008867316
 30
0.0
 10
21.7948506124
 20
14.9929050605
 30
0.0
 10
21.6028466907
 20
14.9786743975
 30
0.0
 10
21.4108420161
 20
14.9663055291
 30
0.0
 10
21.2188346893
 20
14.9559612105
 30
0.0
 10
21.0268248302
 20
14.9477928972
 30
0.0
 10
20.8348119153
 20
14.941948351
 30
0.0
 10
20.642795554
 20
14.9386130545
 30
0.0
 10
20.4507818316
 20
14.9376355462
 30
0.0
 10
20.2587714932
 20
14.9388088879
 30
0.0
 10
20.066763911
 20
14.9419308196
 30
0.0
 10
19.8747587616
 20
14.9468300179
 30
0.0
 10
19.7107573859
 20
14.9522866963
 30
0.0
 10
19.6107763055
 20
14.9565327426
 30
0.0
 10
19.5747823849
 20
14.9582090843
 30
0.0
  0
SPLINE
  5
2D0
100
AcDbEntity
  8
0
100
AcDbSpline
 62
1
  6
CONTINUOUS
 70
0
 71
3
 72
24
 73
20
 74
0
 42
0.0000001
 43
0.0000001
 44
0.0000000001
 40
0.0
 40
0.0
 40
0.0
 40
0.0
 40
0.0379796877
 40
0.114036895
 40
0.1902915672
 40
0.2668458996
 40
0.3437842577
 40
0.4211747898
 40
0.4991286551
 40
0.5778542285
 40
0.6576234311
 40
0.7387984134
 40
0.7803241269
 40
0.8229428872
 40
0.8673440313
 40
0.9150500853
 40
0.9566439872
 40
0.9784123927
 40
1.0
 40
1.0
 40
1.0
 40
1.0
 10
19.3947823849
 20
14.9679562899
 30
0.0
 10
19.3627718695
 20
14.9699555227
 30
0.0
 10
19.2666867648
 20
14.9764192598
 30
0.0
 10
19.1065360741
 20
14.9898033216
 30
0.0
 10
18.9144035242
 20
15.0109880467
 30
0.0
 10
18.7222998222
 20
15.038383358
 30
0.0
 10
18.5302227119
 20
15.0720353742
 30
0.0
 10
18.3380925476
 20
15.1117121701
 30
0.0
 10
18.1458433147
 20
15.1578127984
 30
0.0
 10
17.9535012765
 20
15.2116531954
 30
0.0
 10
17.761187704
 20
15.2748816453
 30
0.0
 10
17.6011135618
 20
15.3352758308
 30
0.0
 10
17.4735379259
 20
15.3920952333
 30
0.0
 10
17.3768554454
 20
15.4415881147
 30
0.0
 10
17.2793092973
 20
15.500404587
 30
0.0
 10
17.1892528368
 20
15.5690253755
 30
0.0
 10
17.1216165072
 20
15.6341421985
 30
0.0
 10
17.0712506305
 20
15.6852100906
 30
0.0
 10
17.047286562
 20
15.7129976306
 30
0.0
 10
17.0363711063
 20
15.7276093662
 30
0.0
  0
SPLINE
  5
2D1
100
AcDbEntity
  8
0
100
AcDbSpline
 62
1
  6
CONTINUOUS
 70
0
 71
3
 72
25
 73
21
 74
0
 42
0.0000001
 43
0.0000001
 44
0.0000000001
 40
0.0
 40
0.0
 40
0.0
 40
0.0
 40
0.0058279493
 40
0.0277225203
 40
0.0469083675
 40
0.0813622302
 40
0.1222465398
 40
0.1627852462
 40
0.2030598723
 40
0.2431073244
 40
0.3229133871
 40
0.4026271362
 40
0.482290868
 40
0.5619282204
 40
0.6415579504
 40
0.7211918677
 40
0.8008362078
 40
0.8804929419
 40
0.9601616983
 40
1.0
 40
1.0
 40
1.0
 40
1.0
 10
17.0243143736
 20
14.5358351726
 30
0.0
 10
17.0271502196
 20
14.5395701142
 30
0.0
 10
17.0412483545
 20
14.556882035
 30
0.0
 10
17.0691090224
 20
14.5826235893
 30
0.0
 10
17.1195679375
 20
14.6167766744
 30
0.0
 10
17.1911683405
 20
14.6444424229
 30
0.0
 10
17.2825100009
 20
14.6628325345
 30
0.0
 10
17.3784397099
 20
14.6819184856
 30
0.0
 10
17.4745091924
 20
14.6965811152
 30
0.0
 10
17.6025257973
 20
14.7101431568
 30
0.0
 10
17.7627011005
 20
14.7193691538
 30
0.0
 10
17.9547160351
 20
14.7284673759
 30
0.0
 10
18.1467525756
 20
14.733964935
 30
0.0
 10
18.338773278
 20
14.7365656381
 30
0.0
 10
18.5307879036
 20
14.736630005
 30
0.0
 10
18.7227952253
 20
14.7345901254
 30
0.0
 10
18.9147974614
 20
14.7308418152
 30
0.0
 10
19.1067969844
 20
14.7257901946
 30
0.0
 10
19.2667897711
 20
14.7207395034
 30
0.0
 10
19.3627832888
 20
14.7174377435
 30
0.0
 10
19.3947823849
 20
14.7163130297
 30
0.0
  0
SPLINE
  5
2D2
100
AcDbEntity
  8
0
100
AcDbSpline
 62
1
  6
CONTINUOUS
 70
0
 71
3
 72
26
 73
22
 74
0
 42
0.0000001
 43
0.0000001
 44
0.0000000001
 40
0.0
 40
0.0
 40
0.0
 40
0.0
 40
0.0315799317
 40
0.0877229056
 40
0.1438647874
 40
0.2000053636
 40
0.2561450852
 40
0.3122843778
 40
0.3684236807
 40
0.4245633305
 40
0.4807033393
 40
0.5368435643
 40
0.5929839131
 40
0.6491242619
 40
0.7052645075
 40
0.7614046603
 40
0.8175447514
 40
0.8736848219
 40
0.9298248821
 40
0.9859649732
 40
1.0
 40
1.0
 40
1.0
 40
1.0
 10
19.5747823849
 20
14.7097723036
 30
0.0
 10
19.6107828836
 20
14.7084292891
 30
0.0
 10
19.7107835933
 20
14.704653808
 30
0.0
 10
19.8747801625
 20
14.698365408
 30
0.0
 10
20.0667801449
 20
14.6911573598
 30
0.0
 10
20.2587809299
 20
14.6840710591
 30
0.0
 10
20.4507816466
 20
14.6770635226
 30
0.0
 10
20.6427824078
 20
14.6700972459
 30
0.0
 10
20.8347830195
 20
14.6631290902
 30
0.0
 10
21.0267830136
 20
14.656121473
 30
0.0
 10
21.2187827416
 20
14.6490778452
 30
0.0
 10
21.4107826045
 20
14.6420161784
 30
0.0
 10
21.6027823841
 20
14.6349417116
 30
0.0
 10
21.7947821919
 20
14.6278673703
 30
0.0
 10
21.9867822285
 20
14.6208053173
 30
0.0
 10
22.1787822754
 20
14.6137515504
 30
0.0
 10
22.3707823572
 20
14.6067041798
 30
0.0
 10
22.5627823585
 20
14.5996574951
 30
0.0
 10
22.7547824475
 20
14.5926131981
 30
0.0
 10
22.8987824043
 20
14.5873266144
 30
0.0
 10
22.9787823854
 20
14.5843891742
 30
0.0
 10
22.9947823849
 20
14.5838016722
 30
0.0
  0
LINE
  5
2D3
100
AcDbEntity
  8
0
100
AcDbLine
 62
1
  6
CONTINUOUS
 10
23.1747823849
 20
14.5771919042
 11
24.0947823849
 21
14.5434009496
  0
SPLINE
  5
2D4
100
AcDbEntity
  8
0
100
AcDbSpline
 62
1
  6
CONTINUOUS
 70
0
 71
3
 72
26
 73
22
 74
0
 42
0.0000001
 43
0.0000001
 44
0.0000000001
 40
0.0
 40
0.0
 40
0.0
 40
0.0
 40
0.0141227891
 40
0.0705759542
 40
0.1269687259
 40
0.1833044603
 40
0.2395873322
 40
0.2958217421
 40
0.3520120012
 40
0.4081621943
 40
0.4642748272
 40
0.5203527108
 40
0.5764001289
 40
0.6324228682
 40
0.6884285245
 40
0.7444263845
 40
0.8004244532
 40
0.8564288016
 40
0.9124437532
 40
0.9684730785
 40
1.0
 40
1.0
 40
1.0
 40
1.0
 10
22.9947823849
 20
13.749453664
 30
0.0
 10
22.9787845289
 20
13.7473071861
 30
0.0
 10
22.8988275813
 20
13.7366603034
 30
0.0
 10
22.7548855811
 20
13.7182354399
 30
0.0
 10
22.5628795312
 20
13.6953671427
 30
0.0
 10
22.3708725537
 20
13.6742160108
 30
0.0
 10
22.1788650513
 20
13.6547922003
 30
0.0
 10
21.9868578282
 20
13.6370931225
 30
0.0
 10
21.7948506124
 20
13.6211308669
 30
0.0
 10
21.6028466907
 20
13.606900204
 30
0.0
 10
21.4108420161
 20
13.5945313355
 30
0.0
 10
21.2188346893
 20
13.584187017
 30
0.0
 10
21.0268248302
 20
13.5760187037
 30
0.0
 10
20.8348119153
 20
13.5701741575
 30
0.0
 10
20.642795554
 20
13.566838861
 30
0.0
 10
20.4507818316
 20
13.5658613526
 30
0.0
 10
20.2587714932
 20
13.5670346944
 30
0.0
 10
20.066763911
 20
13.5701566261
 30
0.0
 10
19.8747587616
 20
13.5750558243
 30
0.0
 10
19.7107573859
 20
13.5805125028
 30
0.0
 10
19.6107763055
 20
13.584758549
 30
0.0
 10
19.5747823849
 20
13.5864348907
 30
0.0
  0
SPLINE
  5
2D5
100
AcDbEntity
  8
0
100
AcDbSpline
 62
1
  6
CONTINUOUS
 70
0
 71
3
 72
24
 73
20
 74
0
 42
0.0000001
 43
0.0000001
 44
0.0000000001
 40
0.0
 40
0.0
 40
0.0
 40
0.0
 40
0.0379796877
 40
0.114036895
 40
0.1902915672
 40
0.2668458996
 40
0.3437842577
 40
0.4211747898
 40
0.4991286551
 40
0.5778542285
 40
0.6576234311
 40
0.7387984134
 40
0.7803241269
 40
0.8229428872
 40
0.8673440313
 40
0.9150500853
 40
0.9566439872
 40
0.9784123927
 40
1.0
 40
1.0
 40
1.0
 40
1.0
 10
19.3947823849
 20
13.5961820963
 30
0.0
 10
19.3627718695
 20
13.5981813291
 30
0.0
 10
19.2666867648
 20
13.6046450662
 30
0.0
 10
19.1065360741
 20
13.6180291281
 30
0.0
 10
18.9144035242
 20
13.6392138532
 30
0.0
 10
18.7222998222
 20
13.6666091645
 30
0.0
 10
18.5302227119
 20
13.7002611806
 30
0.0
 10
18.3380925476
 20
13.7399379766
 30
0.0
 10
18.1458433147
 20
13.7860386049
 30
0.0
 10
17.9535012765
 20
13.8398790019
 30
0.0
 10
17.761187704
 20
13.9031074518
 30
0.0
 10
17.6011135618
 20
13.9635016373
 30
0.0
 10
17.4735379259
 20
14.0203210398
 30
0.0
 10
17.3768554454
 20
14.0698139212
 30
0.0
 10
17.2793092973
 20
14.1286303935
 30
0.0
 10
17.1892528368
 20
14.197251182
 30
0.0
 10
17.1216165072
 20
14.2623680049
 30
0.0
 10
17.0712506305
 20
14.3134358971
 30
0.0
 10
17.047286562
 20
14.3412234371
 30
0.0
 10
17.0363711063
 20
14.3558351726
 30
0.0
  0
ENDSEC
  0
SECTION
  2
OBJECTS
  0
DICTIONARY
  5
C
100
AcDbDictionary
280
0
281
1
  3
ACAD_GROUP
350
D
  3
ACAD_MLINESTYLE
350
17
  3
ACAD_LAYOUT
350
1A
  3
ACAD_PLOTSETTINGS
350
19
  3
ACAD_PLOTSTYLENAME
350
E
  0
DICTIONARY
  5
D
102
{ACAD_REACTORS
330
C
102
}
100
AcDbDictionary
280
0
281
1
  0
ACDBDICTIONARYWDFLT
  5
E
102
{ACAD_REACTORS
330
C
102
}
100
AcDbDictionary
281
1
  3
Normal
350
F
100
AcDbDictionaryWithDefault
340
F
  0
DICTIONARY
  5
17
102
{ACAD_REACTORS
330
C
102
}
100
AcDbDictionary
280
0
281
1
  3
Standard
350
18
  0
DICTIONARY
  5
19
102
{ACAD_REACTORS
330
C
102
}
100
AcDbDictionary
281
1
  0
DICTIONARY
  5
1A
102
{ACAD_REACTORS
330
C
102
}
100
AcDbDictionary
281
1
  3
Model
350
2D6
  3
Layout1
350
2D7
  0
ACDBPLACEHOLDER
  5
F
102
{ACAD_REACTORS
330
E
102
}
  0
MLINESTYLE
  5
18
102
{ACAD_REACTORS
330
17
102
}
100
AcDbMlineStyle
  2
STANDARD
 70
0
  3

 62
256
 51
90.0
 52
90.0
 71
2
 49
0.5
 62
256
  6
BYLAYER
 49
-0.5
 62
256
  6
BYLAYER
  0
LAYOUT
  5
2D6
102
{ACAD_REACTORS
330
1A
102
}
100
AcDbPlotSettings
  1

  2
none_device
  4

  6

 40
0.0
 41
0.0
 42
0.0
 43
0.0
 44
800.1
 45
444.5
 46
0.0
 47
0.0
 48
0.0
 49
0.0
140
0.0
141
0.0
142
1.0
143
1.0
 70
1024
 72
0
 73
0
 74
0
  7

 75
0
147
1.0
148
0.0
149
0.0
100
AcDbLayout
  1
Model
 70
0
 71
0
 10
0.0
 20
0.0
 11
31.5
 21
17.5
 12
0.0
 22
0.0
 32
0.0
 14
0.0
 24
0.0
 34
0.0
 15
0.0
 25
0.0
 35
0.0
146
0.0
 13
0.0
 23
0.0
 33
0.0
 16
1.0
 26
0.0
 36
0.0
 17
0.0
 27
1.0
 37
0.0
 76
0
330
207
345
0
346
0
  0
LAYOUT
  5
2D7
102
{ACAD_REACTORS
330
1A
102
}
100
AcDbPlotSettings
  1

  2
none_device
  4

  6

 40
0.0
 41
0.0
 42
0.0
 43
0.0
 44
800.1
 45
444.5
 46
0.0
 47
0.0
 48
0.0
 49
0.0
140
0.0
141
0.0
142
1.0
143
1.0
 70
0
 72
0
 73
0
 74
0
  7

 75
0
147
1.0
148
0.0
149
0.0
100
AcDbLayout
  1
Layout1
 70
0
 71
1
 10
0.0
 20
0.0
 11
31.5
 21
17.5
 12
0.0
 22
0.0
 32
0.0
 14
0.0
 24
0.0
 34
0.0
 15
0.0
 25
0.0
 35
0.0
146
0.0
 13
0.0
 23
0.0
 33
0.0
 16
1.0
 26
0.0
 36
0.0
 17
0.0
 27
1.0
 37
0.0
 76
0
330
208
345
0
346
0
  0
ENDSEC
  0
EOF
