999
DXF file: wing_aileron_ribs.dxf
999
Pro/ENGINEER 2013230 by Parametric Technology Corporation
  0
SECTION
  2
HEADER
  9
$ACADVER
  1
AC1021
  9
$DWGCODEPAGE
  3
ANSI_1252
  9
$EXTMAX
 10
31.5
 20
17.5
 30
0.0
  9
$EXTMIN
 10
0.0
 20
0.0
 30
0.0
  9
$LIMMIN
 10
0.0
 20
0.0
  9
$LIMMAX
 10
31.5
 20
17.5
  9
$VIEWCTR
 10
15.75
 20
8.75
  9
$VIEWSIZE
 40
17.5
  9
$CLAYER
  8
0
  9
$LTSCALE
 40
1.7325
  9
$CELTYPE
  6
BYLAYER
  9
$DIMSCALE
 40
1.0
  9
$DIMASZ
 40
0.1875
  9
$DIMEXO
 40
0.0625
  9
$DIMDLI
 40
1.197
  9
$DIMEXE
 40
0.125
  9
$DIMCEN
 40
0.2835
  9
$DIMLFAC
 40
1.0
  9
$DIMBLK
  1
_CLOSED
  9
$DIMTXT
 40
0.15625
  9
$DIMTOL
 70
0
  9
$DIMLIM
 70
0
  9
$DIMTFAC
 40
1.0
  9
$DIMGAP
 40
0.09
  9
$DIMDSEP
 70
46
  9
$PDMODE
 70
3
  9
$PDSIZE
 40
0.3125
  9
$HANDSEED
  5
304
  9
$TILEMODE
 70
1
  9
$MEASUREMENT
 70
0
  9
$INSUNITS
 70
1
  0
ENDSEC
  0
SECTION
  2
CLASSES
  0
CLASS
  1
ACDBDICTIONARYWDFLT
  2
AcDbDictionaryWithDefault
  3
AutoCAD 2000
 90
0
 91
1
280
0
281
0
  0
CLASS
  1
ACDBPLACEHOLDER
  2
AcDbPlaceHolder
  3
AutoCAD 2000
 90
0
 91
1
280
0
281
0
  0
CLASS
  1
LAYOUT
  2
AcDbLayout
  3
AutoCAD 2000
 90
0
 91
0
280
0
281
0
  0
ENDSEC
  0
SECTION
  2
TABLES
  0
TABLE
  2
VPORT
  5
8
100
AcDbSymbolTable
 70
2
  0
VPORT
  5
1F4
100
AcDbSymbolTableRecord
100
AcDbViewportTableRecord
  2
*ACTIVE
 70
0
 10
0.0
 20
0.0
 11
1.0
 21
1.0
 12
15.75
 22
8.75
 13
0.0
 23
0.0
 14
1.0
 24
1.0
 15
0.0
 25
0.0
 16
0.0
 26
0.0
 36
1.0
 17
0.0
 27
0.0
 37
0.0
 40
17.5
 41
1.8
 42
50.0
 43
0.0
 44
0.0
 50
0.0
 51
0.0
 71
0
 72
100
 73
1
 74
1
 75
0
 76
0
 77
0
 78
0
  0
ENDTAB
  0
TABLE
  2
LTYPE
  5
5
100
AcDbSymbolTable
 70
6
  0
LTYPE
  5
14
100
AcDbSymbolTableRecord
100
AcDbLinetypeTableRecord
  2
BYBLOCK
 70
0
  3

 72
65
 73
0
 40
0.0
  0
LTYPE
  5
15
100
AcDbSymbolTableRecord
100
AcDbLinetypeTableRecord
  2
BYLAYER
 70
0
  3

 72
65
 73
0
 40
0.0
  0
LTYPE
  5
16
100
AcDbSymbolTableRecord
100
AcDbLinetypeTableRecord
  2
CONTINUOUS
 70
64
  3
Solid line
 72
65
 73
0
 40
0.0
  0
LTYPE
  5
1F5
100
AcDbSymbolTableRecord
100
AcDbLinetypeTableRecord
  2
CENTER
 70
64
  3
____ _ ____ _ ____ _ ____ _ ____ _ ____ _ ____
 72
65
 73
4
 40
0.6
 49
0.375
 74
0
 49
-0.075
 74
0
 49
0.075
 74
0
 49
-0.075
 74
0
  0
LTYPE
  5
1F6
100
AcDbSymbolTableRecord
100
AcDbLinetypeTableRecord
  2
HIDDEN
 70
64
  3
- - - - - - - - - - - - - - - - - - - -
 72
65
 73
2
 40
0.2
 49
0.1
 74
0
 49
-0.1
 74
0
  0
LTYPE
  5
1F7
100
AcDbSymbolTableRecord
100
AcDbLinetypeTableRecord
  2
PHANTOM
 70
64
  3
_____ _ _ _____ _ _ _____ _ _ _____
 72
65
 73
6
 40
0.8
 49
0.45
 74
0
 49
-0.05
 74
0
 49
0.1
 74
0
 49
-0.05
 74
0
 49
0.1
 74
0
 49
-0.05
 74
0
  0
LTYPE
  5
1F8
100
AcDbSymbolTableRecord
100
AcDbLinetypeTableRecord
  2
DOT
 70
64
  3
. . . . . . . . . . . . . . . . . . . .
 72
65
 73
2
 40
0.2
 49
0.1
 74
0
 49
-0.1
 74
0
  0
LTYPE
  5
1F9
100
AcDbSymbolTableRecord
100
AcDbLinetypeTableRecord
  2
DASHED
 70
64
  3
- - - - - - - - - - - - - - - - - - - -
 72
65
 73
2
 40
0.2
 49
0.1
 74
0
 49
-0.1
 74
0
  0
ENDTAB
  0
TABLE
  2
LAYER
  5
2
100
AcDbSymbolTable
 70
36
  0
LAYER
  5
10
100
AcDbSymbolTableRecord
100
AcDbLayerTableRecord
  2
0
 70
0
 62
7
  6
CONTINUOUS
370
-3
390
F
  0
LAYER
  5
1FA
100
AcDbSymbolTableRecord
100
AcDbLayerTableRecord
  2
DEFAULT_1
 70
0
 62
7
  6
CENTER
370
-3
390
F
  0
LAYER
  5
1FB
100
AcDbSymbolTableRecord
100
AcDbLayerTableRecord
  2
DEFAULT_2
 70
0
 62
8
  6
HIDDEN
370
-3
390
F
  0
LAYER
  5
1FC
100
AcDbSymbolTableRecord
100
AcDbLayerTableRecord
  2
DEFAULT_3
 70
0
 62
7
  6
PHANTOM
370
-3
390
F
  0
LAYER
  5
1FD
100
AcDbSymbolTableRecord
100
AcDbLayerTableRecord
  2
01___PRT_ALL_DTM_PLN
 70
0
 62
7
  6
CONTINUOUS
370
-3
390
F
  0
LAYER
  5
1FE
100
AcDbSymbolTableRecord
100
AcDbLayerTableRecord
  2
01___PRT_DEF_DTM_PLN
 70
0
 62
7
  6
CONTINUOUS
370
-3
390
F
  0
LAYER
  5
1FF
100
AcDbSymbolTableRecord
100
AcDbLayerTableRecord
  2
02___PRT_ALL_AXES
 70
0
 62
7
  6
CONTINUOUS
370
-3
390
F
  0
LAYER
  5
200
100
AcDbSymbolTableRecord
100
AcDbLayerTableRecord
  2
03___PRT_ALL_CURVES
 70
0
 62
7
  6
CONTINUOUS
370
-3
390
F
  0
LAYER
  5
201
100
AcDbSymbolTableRecord
100
AcDbLayerTableRecord
  2
04___PRT_ALL_DTM_PNT
 70
0
 62
7
  6
CONTINUOUS
370
-3
390
F
  0
LAYER
  5
202
100
AcDbSymbolTableRecord
100
AcDbLayerTableRecord
  2
05___PRT_ALL_DTM_CSYS
 70
0
 62
7
  6
CONTINUOUS
370
-3
390
F
  0
LAYER
  5
203
100
AcDbSymbolTableRecord
100
AcDbLayerTableRecord
  2
05___PRT_DEF_DTM_CSYS
 70
0
 62
7
  6
CONTINUOUS
370
-3
390
F
  0
LAYER
  5
204
100
AcDbSymbolTableRecord
100
AcDbLayerTableRecord
  2
06___PRT_ALL_SURFS
 70
0
 62
7
  6
CONTINUOUS
370
-3
390
F
  0
ENDTAB
  0
TABLE
  2
STYLE
  5
3
100
AcDbSymbolTable
 70
1
  0
STYLE
  5
11
100
AcDbSymbolTableRecord
100
AcDbTextStyleTableRecord
  2
STANDARD
 70
0
 40
0.0
 41
0.8
 50
0.0
 71
0
 42
0.2
  3
txt
  4

  0
STYLE
  5
205
100
AcDbSymbolTableRecord
100
AcDbTextStyleTableRecord
  2
TEXTSTYLE_1
 70
0
 40
0.0
 41
0.8
 50
0.0
 71
0
 42
0.2
  3
gdt
  4

  0
ENDTAB
  0
TABLE
  2
VIEW
  5
6
100
AcDbSymbolTable
 70
0
  0
ENDTAB
  0
TABLE
  2
UCS
  5
7
100
AcDbSymbolTable
 70
0
  0
ENDTAB
  0
TABLE
  2
APPID
  5
9
100
AcDbSymbolTable
 70
1
  0
APPID
  5
206
100
AcDbSymbolTableRecord
100
AcDbRegAppTableRecord
  2
ACAD
 70
0
  0
ENDTAB
  0
TABLE
  2
BLOCK_RECORD
  5
1
100
AcDbSymbolTable
 70
0
  0
BLOCK_RECORD
  5
207
100
AcDbSymbolTableRecord
100
AcDbBlockTableRecord
  2
*Model_Space
  0
BLOCK_RECORD
  5
208
100
AcDbSymbolTableRecord
100
AcDbBlockTableRecord
  2
*Paper_Space
  0
ENDTAB
  0
TABLE
  2
DIMSTYLE
  5
A
100
AcDbSymbolTable
 70
1
100
AcDbDimStyleTable
 71
0
  0
DIMSTYLE
105
209
100
AcDbSymbolTableRecord
100
AcDbDimStyleTableRecord
  2
STANDARD
 70
0
  3

  4

 40
1.0
 41
0.1875
 42
0.0625
 43
0.38
 44
0.125
 45
0.0
 46
0.0
 47
0.01
 48
0.01
140
0.15625
141
0.09
142
0.0
143
25.4
144
1.0
145
0.0
146
1.0
147
0.09
 71
0.0
 72
0.0
 73
1
 74
1
 75
0
 76
0
 77
0
 78
4
170
0
171
2
172
0
173
0
174
0
175
0
176
0
177
0
178
0
270
2
271
2
272
2
273
2
274
2
275
0
280
0
281
0
282
0
283
1
284
4
285
0
286
0
287
3
288
0
340
11
278
46
  0
ENDTAB
  0
ENDSEC
  0
SECTION
  2
BLOCKS
  0
BLOCK
  5
20
100
AcDbEntity
  8
0
100
AcDbBlockBegin
  2
*Model_Space
 70
0
 10
0.0
 20
0.0
 30
0.0
  3
*Model_Space
  1

  0
ENDBLK
  5
21
100
AcDbEntity
  8
0
100
AcDbBlockEnd
  0
BLOCK
  5
1C
100
AcDbEntity
  8
0
100
AcDbBlockBegin
  2
*Paper_Space
 70
0
 10
0.0
 20
0.0
 30
0.0
  3
*Paper_Space
  1

  0
ENDBLK
  5
1D
100
AcDbEntity
  8
0
100
AcDbBlockEnd
  0
ENDSEC
  0
SECTION
  2
ENTITIES
  0
LINE
  5
20A
100
AcDbEntity
  8
0
100
AcDbLine
 62
1
  6
CONTINUOUS
 10
26.7109114171
 20
16.2539945963
 11
26.7109114171
 21
16.4239945963
  0
LINE
  5
20B
100
AcDbEntity
  8
0
100
AcDbLine
 62
1
  6
CONTINUOUS
 10
26.7109114171
 20
17.2041255297
 11
26.7109114171
 21
17.3741255297
  0
LINE
  5
20C
100
AcDbEntity
  8
0
100
AcDbLine
 62
1
  6
CONTINUOUS
 10
26.8909114171
 20
17.3675848036
 11
26.8909114171
 21
17.2041255297
  0
LINE
  5
20D
100
AcDbEntity
  8
0
100
AcDbLine
 62
1
  6
CONTINUOUS
 10
26.8909114171
 20
16.4239945963
 11
26.8909114171
 21
16.2442473907
  0
LINE
  5
20E
100
AcDbEntity
  8
0
100
AcDbLine
 62
1
  6
CONTINUOUS
 10
28.3499114171
 20
16.5786476726
 11
28.3499114171
 21
16.6036476726
  0
LINE
  5
20F
100
AcDbEntity
  8
0
100
AcDbLine
 62
1
  6
CONTINUOUS
 10
26.7109114171
 20
16.4239945963
 11
26.8909114171
 21
16.4239945963
  0
LINE
  5
210
100
AcDbEntity
  8
0
100
AcDbLine
 62
1
  6
CONTINUOUS
 10
30.0699114171
 20
16.5286476726
 11
28.3999114171
 21
16.5286476726
  0
LINE
  5
211
100
AcDbEntity
  8
0
100
AcDbLine
 62
1
  6
CONTINUOUS
 10
30.3109114171
 20
16.6020886778
 11
30.4909114171
 21
16.6020886778
  0
LINE
  5
212
100
AcDbEntity
  8
0
100
AcDbLine
 62
1
  6
CONTINUOUS
 10
28.3999114171
 20
16.6536476726
 11
30.0699114171
 21
16.6536476726
  0
LINE
  5
213
100
AcDbEntity
  8
0
100
AcDbLine
 62
1
  6
CONTINUOUS
 10
30.4909114171
 20
17.0716141722
 11
30.3109114171
 21
17.0716141722
  0
LINE
  5
214
100
AcDbEntity
  8
0
100
AcDbLine
 62
1
  6
CONTINUOUS
 10
26.8909114171
 20
17.2041255297
 11
26.7109114171
 21
17.2041255297
  0
LINE
  5
215
100
AcDbEntity
  8
0
100
AcDbLine
 62
1
  6
CONTINUOUS
 10
30.1199114171
 20
16.6036476726
 11
30.1199114171
 21
16.5786476726
  0
LINE
  5
216
100
AcDbEntity
  8
0
100
AcDbLine
 62
1
  6
CONTINUOUS
 10
30.3109114171
 20
16.407266164
 11
30.3109114171
 21
16.6020886778
  0
LINE
  5
217
100
AcDbEntity
  8
0
100
AcDbLine
 62
1
  6
CONTINUOUS
 10
30.3109114171
 20
17.0716141722
 11
30.3109114171
 21
17.2416141722
  0
LINE
  5
218
100
AcDbEntity
  8
0
100
AcDbLine
 62
1
  6
CONTINUOUS
 10
30.4909114171
 20
17.2350044042
 11
30.4909114171
 21
17.0716141722
  0
LINE
  5
219
100
AcDbEntity
  8
0
100
AcDbLine
 62
1
  6
CONTINUOUS
 10
30.4909114171
 20
16.6020886778
 11
30.4909114171
 21
16.4320886778
  0
LINE
  5
21A
100
AcDbEntity
  8
0
100
AcDbLine
 62
1
  6
CONTINUOUS
 10
31.4109114171
 20
17.2012134496
 11
31.4109114171
 21
16.5771895453
  0
LINE
  5
21B
100
AcDbEntity
  8
0
100
AcDbLine
 62
1
  6
CONTINUOUS
 10
26.7109114171
 20
14.8822204028
 11
26.7109114171
 21
15.0522204028
  0
LINE
  5
21C
100
AcDbEntity
  8
0
100
AcDbLine
 62
1
  6
CONTINUOUS
 10
26.7109114171
 20
15.8323513361
 11
26.7109114171
 21
16.0023513361
  0
LINE
  5
21D
100
AcDbEntity
  8
0
100
AcDbLine
 62
1
  6
CONTINUOUS
 10
26.8909114171
 20
15.99581061
 11
26.8909114171
 21
15.8323513361
  0
LINE
  5
21E
100
AcDbEntity
  8
0
100
AcDbLine
 62
1
  6
CONTINUOUS
 10
26.8909114171
 20
15.0522204028
 11
26.8909114171
 21
14.8724731972
  0
LINE
  5
21F
100
AcDbEntity
  8
0
100
AcDbLine
 62
1
  6
CONTINUOUS
 10
28.3499114171
 20
15.2068734791
 11
28.3499114171
 21
15.2318734791
  0
LINE
  5
220
100
AcDbEntity
  8
0
100
AcDbLine
 62
1
  6
CONTINUOUS
 10
26.7109114171
 20
15.0522204028
 11
26.8909114171
 21
15.0522204028
  0
LINE
  5
221
100
AcDbEntity
  8
0
100
AcDbLine
 62
1
  6
CONTINUOUS
 10
30.0699114171
 20
15.1568734791
 11
28.3999114171
 21
15.1568734791
  0
LINE
  5
222
100
AcDbEntity
  8
0
100
AcDbLine
 62
1
  6
CONTINUOUS
 10
30.3109114171
 20
15.2303144842
 11
30.4909114171
 21
15.2303144842
  0
LINE
  5
223
100
AcDbEntity
  8
0
100
AcDbLine
 62
1
  6
CONTINUOUS
 10
28.3999114171
 20
15.2818734791
 11
30.0699114171
 21
15.2818734791
  0
LINE
  5
224
100
AcDbEntity
  8
0
100
AcDbLine
 62
1
  6
CONTINUOUS
 10
30.4909114171
 20
15.6998399787
 11
30.3109114171
 21
15.6998399787
  0
LINE
  5
225
100
AcDbEntity
  8
0
100
AcDbLine
 62
1
  6
CONTINUOUS
 10
26.8909114171
 20
15.8323513361
 11
26.7109114171
 21
15.8323513361
  0
LINE
  5
226
100
AcDbEntity
  8
0
100
AcDbLine
 62
1
  6
CONTINUOUS
 10
30.1199114171
 20
15.2318734791
 11
30.1199114171
 21
15.2068734791
  0
LINE
  5
227
100
AcDbEntity
  8
0
100
AcDbLine
 62
1
  6
CONTINUOUS
 10
30.3109114171
 20
15.0354919705
 11
30.3109114171
 21
15.2303144842
  0
LINE
  5
228
100
AcDbEntity
  8
0
100
AcDbLine
 62
1
  6
CONTINUOUS
 10
30.3109114171
 20
15.6998399787
 11
30.3109114171
 21
15.8698399787
  0
LINE
  5
229
100
AcDbEntity
  8
0
100
AcDbLine
 62
1
  6
CONTINUOUS
 10
30.4909114171
 20
15.8632302107
 11
30.4909114171
 21
15.6998399787
  0
LINE
  5
22A
100
AcDbEntity
  8
0
100
AcDbLine
 62
1
  6
CONTINUOUS
 10
30.4909114171
 20
15.2303144842
 11
30.4909114171
 21
15.0603144842
  0
LINE
  5
22B
100
AcDbEntity
  8
0
100
AcDbLine
 62
1
  6
CONTINUOUS
 10
31.4109114171
 20
15.829439256
 11
31.4109114171
 21
15.2054153518
  0
LINE
  5
22C
100
AcDbEntity
  8
0
100
AcDbLine
 62
1
  6
CONTINUOUS
 10
26.6823327881
 20
13.5104462092
 11
26.6823327881
 21
13.6804462092
  0
LINE
  5
22D
100
AcDbEntity
  8
0
100
AcDbLine
 62
1
  6
CONTINUOUS
 10
26.6823327881
 20
14.4605771426
 11
26.6823327881
 21
14.6305771426
  0
LINE
  5
22E
100
AcDbEntity
  8
0
100
AcDbLine
 62
1
  6
CONTINUOUS
 10
26.8623327881
 20
14.6240364165
 11
26.8623327881
 21
14.4605771426
  0
LINE
  5
22F
100
AcDbEntity
  8
0
100
AcDbLine
 62
1
  6
CONTINUOUS
 10
26.8623327881
 20
13.6804462092
 11
26.8623327881
 21
13.5006990036
  0
LINE
  5
230
100
AcDbEntity
  8
0
100
AcDbLine
 62
1
  6
CONTINUOUS
 10
28.3213327881
 20
13.8350992855
 11
28.3213327881
 21
13.8600992855
  0
LINE
  5
231
100
AcDbEntity
  8
0
100
AcDbLine
 62
1
  6
CONTINUOUS
 10
26.6823327881
 20
13.6804462092
 11
26.8623327881
 21
13.6804462092
  0
LINE
  5
232
100
AcDbEntity
  8
0
100
AcDbLine
 62
1
  6
CONTINUOUS
 10
30.0413327881
 20
13.7850992855
 11
28.3713327881
 21
13.7850992855
  0
LINE
  5
233
100
AcDbEntity
  8
0
100
AcDbLine
 62
1
  6
CONTINUOUS
 10
30.2823327881
 20
13.8585402907
 11
30.4623327881
 21
13.8585402907
  0
LINE
  5
234
100
AcDbEntity
  8
0
100
AcDbLine
 62
1
  6
CONTINUOUS
 10
28.3713327881
 20
13.9100992855
 11
30.0413327881
 21
13.9100992855
  0
LINE
  5
235
100
AcDbEntity
  8
0
100
AcDbLine
 62
1
  6
CONTINUOUS
 10
30.4623327881
 20
14.3280657851
 11
30.2823327881
 21
14.3280657851
  0
LINE
  5
236
100
AcDbEntity
  8
0
100
AcDbLine
 62
1
  6
CONTINUOUS
 10
26.8623327881
 20
14.4605771426
 11
26.6823327881
 21
14.4605771426
  0
LINE
  5
237
100
AcDbEntity
  8
0
100
AcDbLine
 62
1
  6
CONTINUOUS
 10
30.0913327881
 20
13.8600992855
 11
30.0913327881
 21
13.8350992855
  0
LINE
  5
238
100
AcDbEntity
  8
0
100
AcDbLine
 62
1
  6
CONTINUOUS
 10
30.2823327881
 20
13.6637177769
 11
30.2823327881
 21
13.8585402907
  0
LINE
  5
239
100
AcDbEntity
  8
0
100
AcDbLine
 62
1
  6
CONTINUOUS
 10
30.2823327881
 20
14.3280657851
 11
30.2823327881
 21
14.4980657851
  0
LINE
  5
23A
100
AcDbEntity
  8
0
100
AcDbLine
 62
1
  6
CONTINUOUS
 10
30.4623327881
 20
14.4914560171
 11
30.4623327881
 21
14.3280657851
  0
LINE
  5
23B
100
AcDbEntity
  8
0
100
AcDbLine
 62
1
  6
CONTINUOUS
 10
30.4623327881
 20
13.8585402907
 11
30.4623327881
 21
13.6885402907
  0
LINE
  5
23C
100
AcDbEntity
  8
0
100
AcDbLine
 62
1
  6
CONTINUOUS
 10
31.3823327881
 20
14.4576650625
 11
31.3823327881
 21
13.8336411582
  0
LINE
  5
23D
100
AcDbEntity
  8
0
100
AcDbLine
 62
1
  6
CONTINUOUS
 10
19.4233610139
 20
16.2539945963
 11
19.4233610139
 21
16.4239945963
  0
LINE
  5
23E
100
AcDbEntity
  8
0
100
AcDbLine
 62
1
  6
CONTINUOUS
 10
19.4233610139
 20
17.2041255297
 11
19.4233610139
 21
17.3741255297
  0
LINE
  5
23F
100
AcDbEntity
  8
0
100
AcDbLine
 62
1
  6
CONTINUOUS
 10
19.6033610139
 20
17.3675848036
 11
19.6033610139
 21
17.2041255297
  0
LINE
  5
240
100
AcDbEntity
  8
0
100
AcDbLine
 62
1
  6
CONTINUOUS
 10
19.6033610139
 20
16.4239945963
 11
19.6033610139
 21
16.2442473907
  0
LINE
  5
241
100
AcDbEntity
  8
0
100
AcDbLine
 62
1
  6
CONTINUOUS
 10
21.0623610139
 20
16.5786476726
 11
21.0623610139
 21
16.6036476726
  0
LINE
  5
242
100
AcDbEntity
  8
0
100
AcDbLine
 62
1
  6
CONTINUOUS
 10
19.4233610139
 20
16.4239945963
 11
19.6033610139
 21
16.4239945963
  0
LINE
  5
243
100
AcDbEntity
  8
0
100
AcDbLine
 62
1
  6
CONTINUOUS
 10
22.7823610139
 20
16.5286476726
 11
21.1123610139
 21
16.5286476726
  0
LINE
  5
244
100
AcDbEntity
  8
0
100
AcDbLine
 62
1
  6
CONTINUOUS
 10
23.0233610139
 20
16.6020886778
 11
23.2033610139
 21
16.6020886778
  0
LINE
  5
245
100
AcDbEntity
  8
0
100
AcDbLine
 62
1
  6
CONTINUOUS
 10
21.1123610139
 20
16.6536476726
 11
22.7823610139
 21
16.6536476726
  0
LINE
  5
246
100
AcDbEntity
  8
0
100
AcDbLine
 62
1
  6
CONTINUOUS
 10
23.2033610139
 20
17.0716141722
 11
23.0233610139
 21
17.0716141722
  0
LINE
  5
247
100
AcDbEntity
  8
0
100
AcDbLine
 62
1
  6
CONTINUOUS
 10
19.6033610139
 20
17.2041255297
 11
19.4233610139
 21
17.2041255297
  0
LINE
  5
248
100
AcDbEntity
  8
0
100
AcDbLine
 62
1
  6
CONTINUOUS
 10
22.8323610139
 20
16.6036476726
 11
22.8323610139
 21
16.5786476726
  0
LINE
  5
249
100
AcDbEntity
  8
0
100
AcDbLine
 62
1
  6
CONTINUOUS
 10
23.0233610139
 20
16.407266164
 11
23.0233610139
 21
16.6020886778
  0
LINE
  5
24A
100
AcDbEntity
  8
0
100
AcDbLine
 62
1
  6
CONTINUOUS
 10
23.0233610139
 20
17.0716141722
 11
23.0233610139
 21
17.2416141722
  0
LINE
  5
24B
100
AcDbEntity
  8
0
100
AcDbLine
 62
1
  6
CONTINUOUS
 10
23.2033610139
 20
17.2350044042
 11
23.2033610139
 21
17.0716141722
  0
LINE
  5
24C
100
AcDbEntity
  8
0
100
AcDbLine
 62
1
  6
CONTINUOUS
 10
23.2033610139
 20
16.6020886778
 11
23.2033610139
 21
16.4320886778
  0
LINE
  5
24D
100
AcDbEntity
  8
0
100
AcDbLine
 62
1
  6
CONTINUOUS
 10
24.1233610139
 20
17.2012134496
 11
24.1233610139
 21
16.5771895453
  0
LINE
  5
24E
100
AcDbEntity
  8
0
100
AcDbLine
 62
1
  6
CONTINUOUS
 10
19.3947823849
 20
14.9679562899
 11
19.3947823849
 21
15.1379562899
  0
LINE
  5
24F
100
AcDbEntity
  8
0
100
AcDbLine
 62
1
  6
CONTINUOUS
 10
19.3947823849
 20
15.9180872232
 11
19.3947823849
 21
16.0880872232
  0
LINE
  5
250
100
AcDbEntity
  8
0
100
AcDbLine
 62
1
  6
CONTINUOUS
 10
19.5747823849
 20
16.0815464971
 11
19.5747823849
 21
15.9180872232
  0
LINE
  5
251
100
AcDbEntity
  8
0
100
AcDbLine
 62
1
  6
CONTINUOUS
 10
19.5747823849
 20
15.1379562899
 11
19.5747823849
 21
14.9582090843
  0
LINE
  5
252
100
AcDbEntity
  8
0
100
AcDbLine
 62
1
  6
CONTINUOUS
 10
21.0337823849
 20
15.2926093662
 11
21.0337823849
 21
15.3176093662
  0
LINE
  5
253
100
AcDbEntity
  8
0
100
AcDbLine
 62
1
  6
CONTINUOUS
 10
19.3947823849
 20
15.1379562899
 11
19.5747823849
 21
15.1379562899
  0
LINE
  5
254
100
AcDbEntity
  8
0
100
AcDbLine
 62
1
  6
CONTINUOUS
 10
22.7537823849
 20
15.2426093662
 11
21.0837823849
 21
15.2426093662
  0
LINE
  5
255
100
AcDbEntity
  8
0
100
AcDbLine
 62
1
  6
CONTINUOUS
 10
22.9947823849
 20
15.3160503713
 11
23.1747823849
 21
15.3160503713
  0
LINE
  5
256
100
AcDbEntity
  8
0
100
AcDbLine
 62
1
  6
CONTINUOUS
 10
21.0837823849
 20
15.3676093662
 11
22.7537823849
 21
15.3676093662
  0
LINE
  5
257
100
AcDbEntity
  8
0
100
AcDbLine
 62
1
  6
CONTINUOUS
 10
23.1747823849
 20
15.7855758658
 11
22.9947823849
 21
15.7855758658
  0
LINE
  5
258
100
AcDbEntity
  8
0
100
AcDbLine
 62
1
  6
CONTINUOUS
 10
19.5747823849
 20
15.9180872232
 11
19.3947823849
 21
15.9180872232
  0
LINE
  5
259
100
AcDbEntity
  8
0
100
AcDbLine
 62
1
  6
CONTINUOUS
 10
22.8037823849
 20
15.3176093662
 11
22.8037823849
 21
15.2926093662
  0
LINE
  5
25A
100
AcDbEntity
  8
0
100
AcDbLine
 62
1
  6
CONTINUOUS
 10
22.9947823849
 20
15.1212278576
 11
22.9947823849
 21
15.3160503713
  0
LINE
  5
25B
100
AcDbEntity
  8
0
100
AcDbLine
 62
1
  6
CONTINUOUS
 10
22.9947823849
 20
15.7855758658
 11
22.9947823849
 21
15.9555758658
  0
LINE
  5
25C
100
AcDbEntity
  8
0
100
AcDbLine
 62
1
  6
CONTINUOUS
 10
23.1747823849
 20
15.9489660978
 11
23.1747823849
 21
15.7855758658
  0
LINE
  5
25D
100
AcDbEntity
  8
0
100
AcDbLine
 62
1
  6
CONTINUOUS
 10
23.1747823849
 20
15.3160503713
 11
23.1747823849
 21
15.1460503713
  0
LINE
  5
25E
100
AcDbEntity
  8
0
100
AcDbLine
 62
1
  6
CONTINUOUS
 10
24.0947823849
 20
15.9151751431
 11
24.0947823849
 21
15.2911512389
  0
LINE
  5
25F
100
AcDbEntity
  8
0
100
AcDbLine
 62
1
  6
CONTINUOUS
 10
19.3947823849
 20
13.5961820963
 11
19.3947823849
 21
13.7661820963
  0
LINE
  5
260
100
AcDbEntity
  8
0
100
AcDbLine
 62
1
  6
CONTINUOUS
 10
19.3947823849
 20
14.5463130297
 11
19.3947823849
 21
14.7163130297
  0
LINE
  5
261
100
AcDbEntity
  8
0
100
AcDbLine
 62
1
  6
CONTINUOUS
 10
19.5747823849
 20
14.7097723036
 11
19.5747823849
 21
14.5463130297
  0
LINE
  5
262
100
AcDbEntity
  8
0
100
AcDbLine
 62
1
  6
CONTINUOUS
 10
19.5747823849
 20
13.7661820963
 11
19.5747823849
 21
13.5864348907
  0
LINE
  5
263
100
AcDbEntity
  8
0
100
AcDbLine
 62
1
  6
CONTINUOUS
 10
21.0337823849
 20
13.9208351726
 11
21.0337823849
 21
13.9458351726
  0
LINE
  5
264
100
AcDbEntity
  8
0
100
AcDbLine
 62
1
  6
CONTINUOUS
 10
19.3947823849
 20
13.7661820963
 11
19.5747823849
 21
13.7661820963
  0
LINE
  5
265
100
AcDbEntity
  8
0
100
AcDbLine
 62
1
  6
CONTINUOUS
 10
22.7537823849
 20
13.8708351726
 11
21.0837823849
 21
13.8708351726
  0
LINE
  5
266
100
AcDbEntity
  8
0
100
AcDbLine
 62
1
  6
CONTINUOUS
 10
22.9947823849
 20
13.9442761778
 11
23.1747823849
 21
13.9442761778
  0
LINE
  5
267
100
AcDbEntity
  8
0
100
AcDbLine
 62
1
  6
CONTINUOUS
 10
21.0837823849
 20
13.9958351726
 11
22.7537823849
 21
13.9958351726
  0
LINE
  5
268
100
AcDbEntity
  8
0
100
AcDbLine
 62
1
  6
CONTINUOUS
 10
23.1747823849
 20
14.4138016722
 11
22.9947823849
 21
14.4138016722
  0
LINE
  5
269
100
AcDbEntity
  8
0
100
AcDbLine
 62
1
  6
CONTINUOUS
 10
19.5747823849
 20
14.5463130297
 11
19.3947823849
 21
14.5463130297
  0
LINE
  5
26A
100
AcDbEntity
  8
0
100
AcDbLine
 62
1
  6
CONTINUOUS
 10
22.8037823849
 20
13.9458351726
 11
22.8037823849
 21
13.9208351726
  0
LINE
  5
26B
100
AcDbEntity
  8
0
100
AcDbLine
 62
1
  6
CONTINUOUS
 10
22.9947823849
 20
13.749453664
 11
22.9947823849
 21
13.9442761778
  0
LINE
  5
26C
100
AcDbEntity
  8
0
100
AcDbLine
 62
1
  6
CONTINUOUS
 10
22.9947823849
 20
14.4138016722
 11
22.9947823849
 21
14.5838016722
  0
LINE
  5
26D
100
AcDbEntity
  8
0
100
AcDbLine
 62
1
  6
CONTINUOUS
 10
23.1747823849
 20
14.5771919042
 11
23.1747823849
 21
14.4138016722
  0
LINE
  5
26E
100
AcDbEntity
  8
0
100
AcDbLine
 62
1
  6
CONTINUOUS
 10
23.1747823849
 20
13.9442761778
 11
23.1747823849
 21
13.7742761778
  0
LINE
  5
26F
100
AcDbEntity
  8
0
100
AcDbLine
 62
1
  6
CONTINUOUS
 10
24.0947823849
 20
14.5434009496
 11
24.0947823849
 21
13.9193770453
  0
LINE
  5
270
100
AcDbEntity
  8
0
100
AcDbLine
 62
1
  6
CONTINUOUS
 10
12.1358106107
 20
16.2825732253
 11
12.1358106107
 21
16.4525732253
  0
LINE
  5
271
100
AcDbEntity
  8
0
100
AcDbLine
 62
1
  6
CONTINUOUS
 10
12.1358106107
 20
17.2327041587
 11
12.1358106107
 21
17.4027041587
  0
LINE
  5
272
100
AcDbEntity
  8
0
100
AcDbLine
 62
1
  6
CONTINUOUS
 10
12.3158106107
 20
17.3961634326
 11
12.3158106107
 21
17.2327041587
  0
LINE
  5
273
100
AcDbEntity
  8
0
100
AcDbLine
 62
1
  6
CONTINUOUS
 10
12.3158106107
 20
16.4525732253
 11
12.3158106107
 21
16.2728260198
  0
LINE
  5
274
100
AcDbEntity
  8
0
100
AcDbLine
 62
1
  6
CONTINUOUS
 10
13.7748106107
 20
16.6072263017
 11
13.7748106107
 21
16.6322263017
  0
LINE
  5
275
100
AcDbEntity
  8
0
100
AcDbLine
 62
1
  6
CONTINUOUS
 10
12.1358106107
 20
16.4525732253
 11
12.3158106107
 21
16.4525732253
  0
LINE
  5
276
100
AcDbEntity
  8
0
100
AcDbLine
 62
1
  6
CONTINUOUS
 10
15.4948106107
 20
16.5572263017
 11
13.8248106107
 21
16.5572263017
  0
LINE
  5
277
100
AcDbEntity
  8
0
100
AcDbLine
 62
1
  6
CONTINUOUS
 10
15.7358106107
 20
16.6306673068
 11
15.9158106107
 21
16.6306673068
  0
LINE
  5
278
100
AcDbEntity
  8
0
100
AcDbLine
 62
1
  6
CONTINUOUS
 10
13.8248106107
 20
16.6822263017
 11
15.4948106107
 21
16.6822263017
  0
LINE
  5
279
100
AcDbEntity
  8
0
100
AcDbLine
 62
1
  6
CONTINUOUS
 10
15.9158106107
 20
17.1001928013
 11
15.7358106107
 21
17.1001928013
  0
LINE
  5
27A
100
AcDbEntity
  8
0
100
AcDbLine
 62
1
  6
CONTINUOUS
 10
12.3158106107
 20
17.2327041587
 11
12.1358106107
 21
17.2327041587
  0
LINE
  5
27B
100
AcDbEntity
  8
0
100
AcDbLine
 62
1
  6
CONTINUOUS
 10
15.5448106107
 20
16.6322263017
 11
15.5448106107
 21
16.6072263017
  0
LINE
  5
27C
100
AcDbEntity
  8
0
100
AcDbLine
 62
1
  6
CONTINUOUS
 10
15.7358106107
 20
16.435844793
 11
15.7358106107
 21
16.6306673068
  0
LINE
  5
27D
100
AcDbEntity
  8
0
100
AcDbLine
 62
1
  6
CONTINUOUS
 10
15.7358106107
 20
17.1001928013
 11
15.7358106107
 21
17.2701928013
  0
LINE
  5
27E
100
AcDbEntity
  8
0
100
AcDbLine
 62
1
  6
CONTINUOUS
 10
15.9158106107
 20
17.2635830332
 11
15.9158106107
 21
17.1001928013
  0
LINE
  5
27F
100
AcDbEntity
  8
0
100
AcDbLine
 62
1
  6
CONTINUOUS
 10
15.9158106107
 20
16.6306673068
 11
15.9158106107
 21
16.4606673068
  0
LINE
  5
280
100
AcDbEntity
  8
0
100
AcDbLine
 62
1
  6
CONTINUOUS
 10
16.8358106107
 20
17.2297920786
 11
16.8358106107
 21
16.6057681744
  0
LINE
  5
281
100
AcDbEntity
  8
0
100
AcDbLine
 62
1
  6
CONTINUOUS
 10
12.1072319816
 20
14.9107990318
 11
12.1072319816
 21
15.0807990318
  0
LINE
  5
282
100
AcDbEntity
  8
0
100
AcDbLine
 62
1
  6
CONTINUOUS
 10
12.1072319816
 20
15.8609299652
 11
12.1072319816
 21
16.0309299652
  0
LINE
  5
283
100
AcDbEntity
  8
0
100
AcDbLine
 62
1
  6
CONTINUOUS
 10
12.2872319816
 20
16.024389239
 11
12.2872319816
 21
15.8609299652
  0
LINE
  5
284
100
AcDbEntity
  8
0
100
AcDbLine
 62
1
  6
CONTINUOUS
 10
12.2872319816
 20
15.0807990318
 11
12.2872319816
 21
14.9010518262
  0
LINE
  5
285
100
AcDbEntity
  8
0
100
AcDbLine
 62
1
  6
CONTINUOUS
 10
13.7462319816
 20
15.2354521081
 11
13.7462319816
 21
15.2604521081
  0
LINE
  5
286
100
AcDbEntity
  8
0
100
AcDbLine
 62
1
  6
CONTINUOUS
 10
12.1072319816
 20
15.0807990318
 11
12.2872319816
 21
15.0807990318
  0
LINE
  5
287
100
AcDbEntity
  8
0
100
AcDbLine
 62
1
  6
CONTINUOUS
 10
15.4662319816
 20
15.1854521081
 11
13.7962319816
 21
15.1854521081
  0
LINE
  5
288
100
AcDbEntity
  8
0
100
AcDbLine
 62
1
  6
CONTINUOUS
 10
15.7072319816
 20
15.2588931133
 11
15.8872319816
 21
15.2588931133
  0
LINE
  5
289
100
AcDbEntity
  8
0
100
AcDbLine
 62
1
  6
CONTINUOUS
 10
13.7962319816
 20
15.3104521081
 11
15.4662319816
 21
15.3104521081
  0
LINE
  5
28A
100
AcDbEntity
  8
0
100
AcDbLine
 62
1
  6
CONTINUOUS
 10
15.8872319816
 20
15.7284186077
 11
15.7072319816
 21
15.7284186077
  0
LINE
  5
28B
100
AcDbEntity
  8
0
100
AcDbLine
 62
1
  6
CONTINUOUS
 10
12.2872319816
 20
15.8609299652
 11
12.1072319816
 21
15.8609299652
  0
LINE
  5
28C
100
AcDbEntity
  8
0
100
AcDbLine
 62
1
  6
CONTINUOUS
 10
15.5162319816
 20
15.2604521081
 11
15.5162319816
 21
15.2354521081
  0
LINE
  5
28D
100
AcDbEntity
  8
0
100
AcDbLine
 62
1
  6
CONTINUOUS
 10
15.7072319816
 20
15.0640705995
 11
15.7072319816
 21
15.2588931133
  0
LINE
  5
28E
100
AcDbEntity
  8
0
100
AcDbLine
 62
1
  6
CONTINUOUS
 10
15.7072319816
 20
15.7284186077
 11
15.7072319816
 21
15.8984186077
  0
LINE
  5
28F
100
AcDbEntity
  8
0
100
AcDbLine
 62
1
  6
CONTINUOUS
 10
15.8872319816
 20
15.8918088397
 11
15.8872319816
 21
15.7284186077
  0
LINE
  5
290
100
AcDbEntity
  8
0
100
AcDbLine
 62
1
  6
CONTINUOUS
 10
15.8872319816
 20
15.2588931133
 11
15.8872319816
 21
15.0888931133
  0
LINE
  5
291
100
AcDbEntity
  8
0
100
AcDbLine
 62
1
  6
CONTINUOUS
 10
16.8072319816
 20
15.8580178851
 11
16.8072319816
 21
15.2339939808
  0
ARC
  5
292
100
AcDbEntity
  8
0
100
AcDbCircle
 62
1
  6
CONTINUOUS
 10
26.129542359
 20
47.0591981536
 40
30.9361015026
100
AcDbArc
 50
278.104558113
 51
279.829587422
  0
CIRCLE
  5
293
100
AcDbEntity
  8
02___PRT_ALL_AXES
100
AcDbCircle
 62
1
  6
CONTINUOUS
 10
27.7279114171
 20
16.8036476726
 40
0.3
  0
CIRCLE
  5
294
100
AcDbEntity
  8
02___PRT_ALL_AXES
100
AcDbCircle
 62
1
  6
CONTINUOUS
 10
25.8149114171
 20
16.9451476726
 40
0.25
  0
CIRCLE
  5
295
100
AcDbEntity
  8
02___PRT_ALL_AXES
100
AcDbCircle
 62
1
  6
CONTINUOUS
 10
26.6969114171
 20
16.8595725602
 40
0.25
  0
CIRCLE
  5
296
100
AcDbEntity
  8
02___PRT_ALL_AXES
100
AcDbCircle
 62
1
  6
CONTINUOUS
 10
24.9929114171
 20
17.0776476726
 40
0.15
  0
ARC
  5
297
100
AcDbEntity
  8
0
100
AcDbCircle
 62
1
  6
CONTINUOUS
 10
30.0699114171
 20
16.6036476726
 40
0.05
100
AcDbArc
 50
0.0
 51
90.0
  0
ARC
  5
298
100
AcDbEntity
  8
0
100
AcDbCircle
 62
1
  6
CONTINUOUS
 10
30.0699114171
 20
16.5786476726
 40
0.05
100
AcDbArc
 50
270.0
 51
360.0
  0
ARC
  5
299
100
AcDbEntity
  8
0
100
AcDbCircle
 62
1
  6
CONTINUOUS
 10
28.3999114171
 20
16.6036476726
 40
0.05
100
AcDbArc
 50
90.0
 51
180.0
  0
ARC
  5
29A
100
AcDbEntity
  8
0
100
AcDbCircle
 62
1
  6
CONTINUOUS
 10
28.3999114171
 20
16.5786476726
 40
0.05
100
AcDbArc
 50
180.0
 51
270.0
  0
ARC
  5
29B
100
AcDbEntity
  8
0
100
AcDbCircle
 62
1
  6
CONTINUOUS
 10
26.1295423522
 20
45.6874239589
 40
30.9361015026
100
AcDbArc
 50
278.1045581258
 51
279.8295874348
  0
CIRCLE
  5
29C
100
AcDbEntity
  8
02___PRT_ALL_AXES
100
AcDbCircle
 62
1
  6
CONTINUOUS
 10
27.7279114171
 20
15.4318734791
 40
0.3
  0
CIRCLE
  5
29D
100
AcDbEntity
  8
02___PRT_ALL_AXES
100
AcDbCircle
 62
1
  6
CONTINUOUS
 10
25.8149114171
 20
15.5733734791
 40
0.25
  0
CIRCLE
  5
29E
100
AcDbEntity
  8
02___PRT_ALL_AXES
100
AcDbCircle
 62
1
  6
CONTINUOUS
 10
26.6969114171
 20
15.4877983667
 40
0.25
  0
CIRCLE
  5
29F
100
AcDbEntity
  8
02___PRT_ALL_AXES
100
AcDbCircle
 62
1
  6
CONTINUOUS
 10
24.9929114171
 20
15.7058734791
 40
0.15
  0
ARC
  5
2A0
100
AcDbEntity
  8
0
100
AcDbCircle
 62
1
  6
CONTINUOUS
 10
30.0699114171
 20
15.2318734791
 40
0.05
100
AcDbArc
 50
0.0
 51
90.0
  0
ARC
  5
2A1
100
AcDbEntity
  8
0
100
AcDbCircle
 62
1
  6
CONTINUOUS
 10
30.0699114171
 20
15.2068734791
 40
0.05
100
AcDbArc
 50
270.0
 51
360.0
  0
ARC
  5
2A2
100
AcDbEntity
  8
0
100
AcDbCircle
 62
1
  6
CONTINUOUS
 10
28.3999114171
 20
15.2318734791
 40
0.05
100
AcDbArc
 50
90.0
 51
180.0
  0
ARC
  5
2A3
100
AcDbEntity
  8
0
100
AcDbCircle
 62
1
  6
CONTINUOUS
 10
28.3999114171
 20
15.2068734791
 40
0.05
100
AcDbArc
 50
180.0
 51
270.0
  0
ARC
  5
2A4
100
AcDbEntity
  8
0
100
AcDbCircle
 62
1
  6
CONTINUOUS
 10
26.1009637299
 20
44.3156497665
 40
30.9361015026
100
AcDbArc
 50
278.104558113
 51
279.829587422
  0
CIRCLE
  5
2A5
100
AcDbEntity
  8
02___PRT_ALL_AXES
100
AcDbCircle
 62
1
  6
CONTINUOUS
 10
27.6993327881
 20
14.0600992855
 40
0.3
  0
CIRCLE
  5
2A6
100
AcDbEntity
  8
02___PRT_ALL_AXES
100
AcDbCircle
 62
1
  6
CONTINUOUS
 10
25.7863327881
 20
14.2015992855
 40
0.25
  0
CIRCLE
  5
2A7
100
AcDbEntity
  8
02___PRT_ALL_AXES
100
AcDbCircle
 62
1
  6
CONTINUOUS
 10
26.6683327881
 20
14.1160241731
 40
0.25
  0
CIRCLE
  5
2A8
100
AcDbEntity
  8
02___PRT_ALL_AXES
100
AcDbCircle
 62
1
  6
CONTINUOUS
 10
24.9643327881
 20
14.3340992855
 40
0.15
  0
ARC
  5
2A9
100
AcDbEntity
  8
0
100
AcDbCircle
 62
1
  6
CONTINUOUS
 10
30.0413327881
 20
13.8600992855
 40
0.05
100
AcDbArc
 50
0.0
 51
90.0
  0
ARC
  5
2AA
100
AcDbEntity
  8
0
100
AcDbCircle
 62
1
  6
CONTINUOUS
 10
30.0413327881
 20
13.8350992855
 40
0.05
100
AcDbArc
 50
270.0
 51
360.0
  0
ARC
  5
2AB
100
AcDbEntity
  8
0
100
AcDbCircle
 62
1
  6
CONTINUOUS
 10
28.3713327881
 20
13.8600992855
 40
0.05
100
AcDbArc
 50
90.0
 51
180.0
  0
ARC
  5
2AC
100
AcDbEntity
  8
0
100
AcDbCircle
 62
1
  6
CONTINUOUS
 10
28.3713327881
 20
13.8350992855
 40
0.05
100
AcDbArc
 50
180.0
 51
270.0
  0
ARC
  5
2AD
100
AcDbEntity
  8
0
100
AcDbCircle
 62
1
  6
CONTINUOUS
 10
18.8419919558
 20
47.0591981536
 40
30.9361015026
100
AcDbArc
 50
278.104558113
 51
279.829587422
  0
CIRCLE
  5
2AE
100
AcDbEntity
  8
02___PRT_ALL_AXES
100
AcDbCircle
 62
1
  6
CONTINUOUS
 10
20.4403610139
 20
16.8036476726
 40
0.3
  0
CIRCLE
  5
2AF
100
AcDbEntity
  8
02___PRT_ALL_AXES
100
AcDbCircle
 62
1
  6
CONTINUOUS
 10
18.5273610139
 20
16.9451476726
 40
0.25
  0
CIRCLE
  5
2B0
100
AcDbEntity
  8
02___PRT_ALL_AXES
100
AcDbCircle
 62
1
  6
CONTINUOUS
 10
19.4093610139
 20
16.8595725602
 40
0.25
  0
CIRCLE
  5
2B1
100
AcDbEntity
  8
02___PRT_ALL_AXES
100
AcDbCircle
 62
1
  6
CONTINUOUS
 10
17.7053610139
 20
17.0776476726
 40
0.15
  0
ARC
  5
2B2
100
AcDbEntity
  8
0
100
AcDbCircle
 62
1
  6
CONTINUOUS
 10
22.7823610139
 20
16.6036476726
 40
0.05
100
AcDbArc
 50
0.0
 51
90.0
  0
ARC
  5
2B3
100
AcDbEntity
  8
0
100
AcDbCircle
 62
1
  6
CONTINUOUS
 10
22.7823610139
 20
16.5786476726
 40
0.05
100
AcDbArc
 50
270.0
 51
360.0
  0
ARC
  5
2B4
100
AcDbEntity
  8
0
100
AcDbCircle
 62
1
  6
CONTINUOUS
 10
21.1123610139
 20
16.6036476726
 40
0.05
100
AcDbArc
 50
90.0
 51
180.0
  0
ARC
  5
2B5
100
AcDbEntity
  8
0
100
AcDbCircle
 62
1
  6
CONTINUOUS
 10
21.1123610139
 20
16.5786476726
 40
0.05
100
AcDbArc
 50
180.0
 51
270.0
  0
ARC
  5
2B6
100
AcDbEntity
  8
0
100
AcDbCircle
 62
1
  6
CONTINUOUS
 10
18.8134133267
 20
45.7731598471
 40
30.9361015026
100
AcDbArc
 50
278.104558113
 51
279.829587422
  0
CIRCLE
  5
2B7
100
AcDbEntity
  8
02___PRT_ALL_AXES
100
AcDbCircle
 62
1
  6
CONTINUOUS
 10
20.4117823849
 20
15.5176093662
 40
0.3
  0
CIRCLE
  5
2B8
100
AcDbEntity
  8
02___PRT_ALL_AXES
100
AcDbCircle
 62
1
  6
CONTINUOUS
 10
18.4987823849
 20
15.6591093662
 40
0.25
  0
CIRCLE
  5
2B9
100
AcDbEntity
  8
02___PRT_ALL_AXES
100
AcDbCircle
 62
1
  6
CONTINUOUS
 10
19.3807823849
 20
15.5735342538
 40
0.25
  0
CIRCLE
  5
2BA
100
AcDbEntity
  8
02___PRT_ALL_AXES
100
AcDbCircle
 62
1
  6
CONTINUOUS
 10
17.6767823849
 20
15.7916093662
 40
0.15
  0
ARC
  5
2BB
100
AcDbEntity
  8
0
100
AcDbCircle
 62
1
  6
CONTINUOUS
 10
22.7537823849
 20
15.3176093662
 40
0.05
100
AcDbArc
 50
0.0
 51
90.0
  0
ARC
  5
2BC
100
AcDbEntity
  8
0
100
AcDbCircle
 62
1
  6
CONTINUOUS
 10
22.7537823849
 20
15.2926093662
 40
0.05
100
AcDbArc
 50
270.0
 51
360.0
  0
ARC
  5
2BD
100
AcDbEntity
  8
0
100
AcDbCircle
 62
1
  6
CONTINUOUS
 10
21.0837823849
 20
15.3176093662
 40
0.05
100
AcDbArc
 50
90.0
 51
180.0
  0
ARC
  5
2BE
100
AcDbEntity
  8
0
100
AcDbCircle
 62
1
  6
CONTINUOUS
 10
21.0837823849
 20
15.2926093662
 40
0.05
100
AcDbArc
 50
180.0
 51
270.0
  0
ARC
  5
2BF
100
AcDbEntity
  8
0
100
AcDbCircle
 62
1
  6
CONTINUOUS
 10
18.8134133267
 20
44.4013856536
 40
30.9361015026
100
AcDbArc
 50
278.104558113
 51
279.829587422
  0
CIRCLE
  5
2C0
100
AcDbEntity
  8
02___PRT_ALL_AXES
100
AcDbCircle
 62
1
  6
CONTINUOUS
 10
20.4117823849
 20
14.1458351726
 40
0.3
  0
CIRCLE
  5
2C1
100
AcDbEntity
  8
02___PRT_ALL_AXES
100
AcDbCircle
 62
1
  6
CONTINUOUS
 10
18.4987823849
 20
14.2873351726
 40
0.25
  0
CIRCLE
  5
2C2
100
AcDbEntity
  8
02___PRT_ALL_AXES
100
AcDbCircle
 62
1
  6
CONTINUOUS
 10
19.3807823849
 20
14.2017600602
 40
0.25
  0
CIRCLE
  5
2C3
100
AcDbEntity
  8
02___PRT_ALL_AXES
100
AcDbCircle
 62
1
  6
CONTINUOUS
 10
17.6767823849
 20
14.4198351726
 40
0.15
  0
ARC
  5
2C4
100
AcDbEntity
  8
0
100
AcDbCircle
 62
1
  6
CONTINUOUS
 10
22.7537823849
 20
13.9458351726
 40
0.05
100
AcDbArc
 50
0.0
 51
90.0
  0
ARC
  5
2C5
100
AcDbEntity
  8
0
100
AcDbCircle
 62
1
  6
CONTINUOUS
 10
22.7537823849
 20
13.9208351726
 40
0.05
100
AcDbArc
 50
270.0
 51
360.0
  0
ARC
  5
2C6
100
AcDbEntity
  8
0
100
AcDbCircle
 62
1
  6
CONTINUOUS
 10
21.0837823849
 20
13.9458351726
 40
0.05
100
AcDbArc
 50
90.0
 51
180.0
  0
ARC
  5
2C7
100
AcDbEntity
  8
0
100
AcDbCircle
 62
1
  6
CONTINUOUS
 10
21.0837823849
 20
13.9208351726
 40
0.05
100
AcDbArc
 50
180.0
 51
270.0
  0
ARC
  5
2C8
100
AcDbEntity
  8
0
100
AcDbCircle
 62
1
  6
CONTINUOUS
 10
11.5544415525
 20
47.0877767826
 40
30.9361015026
100
AcDbArc
 50
278.104558113
 51
279.829587422
  0
CIRCLE
  5
2C9
100
AcDbEntity
  8
02___PRT_ALL_AXES
100
AcDbCircle
 62
1
  6
CONTINUOUS
 10
13.1528106107
 20
16.8322263017
 40
0.3
  0
CIRCLE
  5
2CA
100
AcDbEntity
  8
02___PRT_ALL_AXES
100
AcDbCircle
 62
1
  6
CONTINUOUS
 10
11.2398106107
 20
16.9737263017
 40
0.25
  0
CIRCLE
  5
2CB
100
AcDbEntity
  8
02___PRT_ALL_AXES
100
AcDbCircle
 62
1
  6
CONTINUOUS
 10
12.1218106107
 20
16.8881511893
 40
0.25
  0
CIRCLE
  5
2CC
100
AcDbEntity
  8
02___PRT_ALL_AXES
100
AcDbCircle
 62
1
  6
CONTINUOUS
 10
10.4178106107
 20
17.1062263017
 40
0.15
  0
ARC
  5
2CD
100
AcDbEntity
  8
0
100
AcDbCircle
 62
1
  6
CONTINUOUS
 10
15.4948106107
 20
16.6322263017
 40
0.05
100
AcDbArc
 50
0.0
 51
90.0
  0
ARC
  5
2CE
100
AcDbEntity
  8
0
100
AcDbCircle
 62
1
  6
CONTINUOUS
 10
15.4948106107
 20
16.6072263017
 40
0.05
100
AcDbArc
 50
270.0
 51
360.0
  0
ARC
  5
2CF
100
AcDbEntity
  8
0
100
AcDbCircle
 62
1
  6
CONTINUOUS
 10
13.8248106107
 20
16.6322263017
 40
0.05
100
AcDbArc
 50
90.0
 51
180.0
  0
ARC
  5
2D0
100
AcDbEntity
  8
0
100
AcDbCircle
 62
1
  6
CONTINUOUS
 10
13.8248106107
 20
16.6072263017
 40
0.05
100
AcDbArc
 50
180.0
 51
270.0
  0
ARC
  5
2D1
100
AcDbEntity
  8
0
100
AcDbCircle
 62
1
  6
CONTINUOUS
 10
11.5258629235
 20
45.716002589
 40
30.9361015026
100
AcDbArc
 50
278.104558113
 51
279.829587422
  0
CIRCLE
  5
2D2
100
AcDbEntity
  8
02___PRT_ALL_AXES
100
AcDbCircle
 62
1
  6
CONTINUOUS
 10
13.1242319816
 20
15.4604521081
 40
0.3
  0
CIRCLE
  5
2D3
100
AcDbEntity
  8
02___PRT_ALL_AXES
100
AcDbCircle
 62
1
  6
CONTINUOUS
 10
11.2112319816
 20
15.6019521081
 40
0.25
  0
CIRCLE
  5
2D4
100
AcDbEntity
  8
02___PRT_ALL_AXES
100
AcDbCircle
 62
1
  6
CONTINUOUS
 10
12.0932319816
 20
15.5163769957
 40
0.25
  0
CIRCLE
  5
2D5
100
AcDbEntity
  8
02___PRT_ALL_AXES
100
AcDbCircle
 62
1
  6
CONTINUOUS
 10
10.3892319816
 20
15.7344521081
 40
0.15
  0
ARC
  5
2D6
100
AcDbEntity
  8
0
100
AcDbCircle
 62
1
  6
CONTINUOUS
 10
15.4662319816
 20
15.2604521081
 40
0.05
100
AcDbArc
 50
0.0
 51
90.0
  0
ARC
  5
2D7
100
AcDbEntity
  8
0
100
AcDbCircle
 62
1
  6
CONTINUOUS
 10
15.4662319816
 20
15.2354521081
 40
0.05
100
AcDbArc
 50
270.0
 51
360.0
  0
ARC
  5
2D8
100
AcDbEntity
  8
0
100
AcDbCircle
 62
1
  6
CONTINUOUS
 10
13.7962319816
 20
15.2604521081
 40
0.05
100
AcDbArc
 50
90.0
 51
180.0
  0
ARC
  5
2D9
100
AcDbEntity
  8
0
100
AcDbCircle
 62
1
  6
CONTINUOUS
 10
13.7962319816
 20
15.2354521081
 40
0.05
100
AcDbArc
 50
180.0
 51
270.0
  0
LINE
  5
2DA
100
AcDbEntity
  8
0
100
AcDbLine
 62
1
  6
CONTINUOUS
 10
30.4909114171
 20
17.2350044042
 11
31.4109114171
 21
17.2012134496
  0
SPLINE
  5
2DB
100
AcDbEntity
  8
0
100
AcDbSpline
 62
1
  6
CONTINUOUS
 70
0
 71
3
 72
26
 73
22
 74
0
 42
0.0000001
 43
0.0000001
 44
0.0000000001
 40
0.0
 40
0.0
 40
0.0
 40
0.0
 40
0.0141227891
 40
0.0705759542
 40
0.1269687259
 40
0.1833044603
 40
0.2395873322
 40
0.2958217421
 40
0.3520120012
 40
0.4081621943
 40
0.4642748272
 40
0.5203527108
 40
0.5764001289
 40
0.6324228682
 40
0.6884285245
 40
0.7444263845
 40
0.8004244532
 40
0.8564288016
 40
0.9124437532
 40
0.9684730785
 40
1.0
 40
1.0
 40
1.0
 40
1.0
 10
30.3109114171
 20
16.407266164
 30
0.0
 10
30.2949135611
 20
16.4051196861
 30
0.0
 10
30.2149566135
 20
16.3944728034
 30
0.0
 10
30.0710146133
 20
16.3760479399
 30
0.0
 10
29.8790085635
 20
16.3531796427
 30
0.0
 10
29.687001586
 20
16.3320285108
 30
0.0
 10
29.4949940836
 20
16.3126047003
 30
0.0
 10
29.3029868604
 20
16.2949056225
 30
0.0
 10
29.1109796446
 20
16.2789433669
 30
0.0
 10
28.9189757229
 20
16.264712704
 30
0.0
 10
28.7269710484
 20
16.2523438355
 30
0.0
 10
28.5349637215
 20
16.241999517
 30
0.0
 10
28.3429538624
 20
16.2338312037
 30
0.0
 10
28.1509409475
 20
16.2279866575
 30
0.0
 10
27.9589245863
 20
16.224651361
 30
0.0
 10
27.7669108638
 20
16.2236738526
 30
0.0
 10
27.5749005255
 20
16.2248471944
 30
0.0
 10
27.3828929432
 20
16.2279691261
 30
0.0
 10
27.1908877938
 20
16.2328683243
 30
0.0
 10
27.0268864181
 20
16.2383250028
 30
0.0
 10
26.9269053377
 20
16.242571049
 30
0.0
 10
26.8909114171
 20
16.2442473907
 30
0.0
  0
SPLINE
  5
2DC
100
AcDbEntity
  8
0
100
AcDbSpline
 62
1
  6
CONTINUOUS
 70
0
 71
3
 72
28
 73
24
 74
0
 42
0.0000001
 43
0.0000001
 44
0.0000000001
 40
0.0
 40
0.0
 40
0.0
 40
0.0
 40
0.036534601
 40
0.1096979123
 40
0.1830511753
 40
0.2566926967
 40
0.330703632
 40
0.4051495367
 40
0.4801373402
 40
0.5558674892
 40
0.6326015584
 40
0.7106879189
 40
0.7506336232
 40
0.7916307849
 40
0.8343425127
 40
0.880233402
 40
0.9202447001
 40
0.9411848409
 40
0.9639922397
 40
0.9775053718
 40
0.9859030484
 40
0.9912812162
 40
1.0
 40
1.0
 40
1.0
 40
1.0
 10
26.7109114171
 20
16.2539945963
 30
0.0
 10
26.6789009018
 20
16.2559938291
 30
0.0
 10
26.5828157971
 20
16.2624575662
 30
0.0
 10
26.4226651063
 20
16.2758416281
 30
0.0
 10
26.2305325564
 20
16.2970263532
 30
0.0
 10
26.0384288544
 20
16.3244216645
 30
0.0
 10
25.8463517441
 20
16.3580736806
 30
0.0
 10
25.6542215799
 20
16.3977504766
 30
0.0
 10
25.4619723469
 20
16.4438511049
 30
0.0
 10
25.2696303088
 20
16.4976915019
 30
0.0
 10
25.0773167363
 20
16.5609199518
 30
0.0
 10
24.917242594
 20
16.6213141373
 30
0.0
 10
24.7896669581
 20
16.6781335398
 30
0.0
 10
24.6929844777
 20
16.7276264212
 30
0.0
 10
24.5954383295
 20
16.7864428935
 30
0.0
 10
24.505381869
 20
16.855063682
 30
0.0
 10
24.4377455395
 20
16.9201805049
 30
0.0
 10
24.3861216034
 20
16.9725239917
 30
0.0
 10
24.3533371822
 20
17.0107906815
 30
0.0
 10
24.3317793802
 20
17.0437267276
 30
0.0
 10
24.3212371949
 20
17.065296876
 30
0.0
 10
24.3144837034
 20
17.0838855537
 30
0.0
 10
24.3117956865
 20
17.0960037823
 30
0.0
 10
24.3109114171
 20
17.1036476726
 30
0.0
  0
SPLINE
  5
2DD
100
AcDbEntity
  8
0
100
AcDbSpline
 62
1
  6
CONTINUOUS
 70
0
 71
3
 72
28
 73
24
 74
0
 42
0.0000001
 43
0.0000001
 44
0.0000000001
 40
0.0
 40
0.0
 40
0.0
 40
0.0
 40
0.0179782249
 40
0.0232091958
 40
0.0313248062
 40
0.0441906082
 40
0.0652403215
 40
0.0836858339
 40
0.1168102066
 40
0.1561168911
 40
0.1950913084
 40
0.2338118355
 40
0.2723139547
 40
0.3490404974
 40
0.4256782885
 40
0.5022679925
 40
0.578832335
 40
0.6553893491
 40
0.7319503891
 40
0.8085214496
 40
0.8851044259
 40
0.9616989606
 40
1.0
 40
1.0
 40
1.0
 40
1.0
 10
24.3109114171
 20
17.1036476726
 30
0.0
 10
24.308819963
 20
17.1191169439
 30
0.0
 10
24.3115567185
 20
17.1386248913
 30
0.0
 10
24.3212147486
 20
17.1630206372
 30
0.0
 10
24.3316753278
 20
17.1823464336
 30
0.0
 10
24.3528906365
 20
17.210549052
 30
0.0
 10
24.3852380547
 20
17.2404360893
 30
0.0
 10
24.4356969698
 20
17.2745891744
 30
0.0
 10
24.5072973727
 20
17.3022549229
 30
0.0
 10
24.5986390331
 20
17.3206450345
 30
0.0
 10
24.6945687421
 20
17.3397309856
 30
0.0
 10
24.7906382246
 20
17.3543936152
 30
0.0
 10
24.9186548296
 20
17.3679556568
 30
0.0
 10
25.0788301328
 20
17.3771816538
 30
0.0
 10
25.2708450673
 20
17.3862798759
 30
0.0
 10
25.4628816078
 20
17.391777435
 30
0.0
 10
25.6549023103
 20
17.3943781381
 30
0.0
 10
25.8469169358
 20
17.394442505
 30
0.0
 10
26.0389242576
 20
17.3924026254
 30
0.0
 10
26.2309264937
 20
17.3886543152
 30
0.0
 10
26.4229260166
 20
17.3836026946
 30
0.0
 10
26.5829188033
 20
17.3785520034
 30
0.0
 10
26.678912321
 20
17.3752502435
 30
0.0
 10
26.7109114171
 20
17.3741255297
 30
0.0
  0
SPLINE
  5
2DE
100
AcDbEntity
  8
0
100
AcDbSpline
 62
1
  6
CONTINUOUS
 70
0
 71
3
 72
26
 73
22
 74
0
 42
0.0000001
 43
0.0000001
 44
0.0000000001
 40
0.0
 40
0.0
 40
0.0
 40
0.0
 40
0.0315799317
 40
0.0877229056
 40
0.1438647874
 40
0.2000053636
 40
0.2561450852
 40
0.3122843778
 40
0.3684236807
 40
0.4245633305
 40
0.4807033393
 40
0.5368435643
 40
0.5929839131
 40
0.6491242619
 40
0.7052645075
 40
0.7614046603
 40
0.8175447514
 40
0.8736848219
 40
0.9298248821
 40
0.9859649732
 40
1.0
 40
1.0
 40
1.0
 40
1.0
 10
26.8909114171
 20
17.3675848036
 30
0.0
 10
26.9269119159
 20
17.3662417891
 30
0.0
 10
27.0269126256
 20
17.362466308
 30
0.0
 10
27.1909091948
 20
17.356177908
 30
0.0
 10
27.3829091772
 20
17.3489698598
 30
0.0
 10
27.5749099621
 20
17.3418835591
 30
0.0
 10
27.7669106789
 20
17.3348760226
 30
0.0
 10
27.95891144
 20
17.3279097459
 30
0.0
 10
28.1509120518
 20
17.3209415902
 30
0.0
 10
28.3429120459
 20
17.313933973
 30
0.0
 10
28.5349117739
 20
17.3068903452
 30
0.0
 10
28.7269116367
 20
17.2998286784
 30
0.0
 10
28.9189114164
 20
17.2927542116
 30
0.0
 10
29.1109112241
 20
17.2856798703
 30
0.0
 10
29.3029112607
 20
17.2786178173
 30
0.0
 10
29.4949113076
 20
17.2715640504
 30
0.0
 10
29.6869113895
 20
17.2645166798
 30
0.0
 10
29.8789113908
 20
17.2574699951
 30
0.0
 10
30.0709114797
 20
17.2504256981
 30
0.0
 10
30.2149114365
 20
17.2451391144
 30
0.0
 10
30.2949114177
 20
17.2422016742
 30
0.0
 10
30.3109114171
 20
17.2416141722
 30
0.0
  0
LINE
  5
2DF
100
AcDbEntity
  8
0
100
AcDbLine
 62
1
  6
CONTINUOUS
 10
30.4909114171
 20
15.8632302107
 11
31.4109114171
 21
15.829439256
  0
SPLINE
  5
2E0
100
AcDbEntity
  8
0
100
AcDbSpline
 62
1
  6
CONTINUOUS
 70
0
 71
3
 72
26
 73
22
 74
0
 42
0.0000001
 43
0.0000001
 44
0.0000000001
 40
0.0
 40
0.0
 40
0.0
 40
0.0
 40
0.0141227891
 40
0.0705759542
 40
0.1269687259
 40
0.1833044603
 40
0.2395873322
 40
0.2958217421
 40
0.3520120012
 40
0.4081621943
 40
0.4642748272
 40
0.5203527108
 40
0.5764001289
 40
0.6324228682
 40
0.6884285245
 40
0.7444263845
 40
0.8004244532
 40
0.8564288016
 40
0.9124437532
 40
0.9684730785
 40
1.0
 40
1.0
 40
1.0
 40
1.0
 10
30.3109114171
 20
15.0354919705
 30
0.0
 10
30.2949135611
 20
15.0333454926
 30
0.0
 10
30.2149566135
 20
15.0226986099
 30
0.0
 10
30.0710146133
 20
15.0042737464
 30
0.0
 10
29.8790085635
 20
14.9814054491
 30
0.0
 10
29.687001586
 20
14.9602543172
 30
0.0
 10
29.4949940836
 20
14.9408305068
 30
0.0
 10
29.3029868604
 20
14.9231314289
 30
0.0
 10
29.1109796446
 20
14.9071691734
 30
0.0
 10
28.9189757229
 20
14.8929385104
 30
0.0
 10
28.7269710484
 20
14.880569642
 30
0.0
 10
28.5349637215
 20
14.8702253234
 30
0.0
 10
28.3429538624
 20
14.8620570102
 30
0.0
 10
28.1509409475
 20
14.8562124639
 30
0.0
 10
27.9589245863
 20
14.8528771675
 30
0.0
 10
27.7669108638
 20
14.8518996591
 30
0.0
 10
27.5749005255
 20
14.8530730008
 30
0.0
 10
27.3828929432
 20
14.8561949325
 30
0.0
 10
27.1908877938
 20
14.8610941308
 30
0.0
 10
27.0268864181
 20
14.8665508092
 30
0.0
 10
26.9269053377
 20
14.8707968555
 30
0.0
 10
26.8909114171
 20
14.8724731972
 30
0.0
  0
SPLINE
  5
2E1
100
AcDbEntity
  8
0
100
AcDbSpline
 62
1
  6
CONTINUOUS
 70
0
 71
3
 72
28
 73
24
 74
0
 42
0.0000001
 43
0.0000001
 44
0.0000000001
 40
0.0
 40
0.0
 40
0.0
 40
0.0
 40
0.036534601
 40
0.1096979123
 40
0.1830511753
 40
0.2566926967
 40
0.330703632
 40
0.4051495367
 40
0.4801373402
 40
0.5558674892
 40
0.6326015584
 40
0.7106879189
 40
0.7506336232
 40
0.7916307849
 40
0.8343425127
 40
0.880233402
 40
0.9202447001
 40
0.9411848409
 40
0.9639922397
 40
0.9775053718
 40
0.9859030484
 40
0.9912812162
 40
1.0
 40
1.0
 40
1.0
 40
1.0
 10
26.7109114171
 20
14.8822204028
 30
0.0
 10
26.6789009018
 20
14.8842196356
 30
0.0
 10
26.5828157971
 20
14.8906833727
 30
0.0
 10
26.4226651063
 20
14.9040674345
 30
0.0
 10
26.2305325564
 20
14.9252521596
 30
0.0
 10
26.0384288544
 20
14.9526474709
 30
0.0
 10
25.8463517441
 20
14.9862994871
 30
0.0
 10
25.6542215799
 20
15.025976283
 30
0.0
 10
25.4619723469
 20
15.0720769113
 30
0.0
 10
25.2696303088
 20
15.1259173083
 30
0.0
 10
25.0773167363
 20
15.1891457583
 30
0.0
 10
24.917242594
 20
15.2495399438
 30
0.0
 10
24.7896669581
 20
15.3063593462
 30
0.0
 10
24.6929844777
 20
15.3558522276
 30
0.0
 10
24.5954383295
 20
15.4146686999
 30
0.0
 10
24.505381869
 20
15.4832894884
 30
0.0
 10
24.4377455395
 20
15.5484063114
 30
0.0
 10
24.3861216034
 20
15.6007497981
 30
0.0
 10
24.3533371822
 20
15.6390164879
 30
0.0
 10
24.3317793802
 20
15.6719525341
 30
0.0
 10
24.3212371949
 20
15.6935226825
 30
0.0
 10
24.3144837034
 20
15.7121113601
 30
0.0
 10
24.3117956865
 20
15.7242295888
 30
0.0
 10
24.3109114171
 20
15.7318734791
 30
0.0
  0
SPLINE
  5
2E2
100
AcDbEntity
  8
0
100
AcDbSpline
 62
1
  6
CONTINUOUS
 70
0
 71
3
 72
28
 73
24
 74
0
 42
0.0000001
 43
0.0000001
 44
0.0000000001
 40
0.0
 40
0.0
 40
0.0
 40
0.0
 40
0.0179782249
 40
0.0232091958
 40
0.0313248062
 40
0.0441906082
 40
0.0652403215
 40
0.0836858339
 40
0.1168102066
 40
0.1561168911
 40
0.1950913084
 40
0.2338118355
 40
0.2723139547
 40
0.3490404974
 40
0.4256782885
 40
0.5022679925
 40
0.578832335
 40
0.6553893491
 40
0.7319503891
 40
0.8085214496
 40
0.8851044259
 40
0.9616989606
 40
1.0
 40
1.0
 40
1.0
 40
1.0
 10
24.3109114171
 20
15.7318734791
 30
0.0
 10
24.308819963
 20
15.7473427504
 30
0.0
 10
24.3115567185
 20
15.7668506978
 30
0.0
 10
24.3212147486
 20
15.7912464437
 30
0.0
 10
24.3316753278
 20
15.8105722401
 30
0.0
 10
24.3528906365
 20
15.8387748585
 30
0.0
 10
24.3852380547
 20
15.8686618958
 30
0.0
 10
24.4356969698
 20
15.9028149809
 30
0.0
 10
24.5072973727
 20
15.9304807293
 30
0.0
 10
24.5986390331
 20
15.948870841
 30
0.0
 10
24.6945687421
 20
15.9679567921
 30
0.0
 10
24.7906382246
 20
15.9826194216
 30
0.0
 10
24.9186548296
 20
15.9961814633
 30
0.0
 10
25.0788301328
 20
16.0054074602
 30
0.0
 10
25.2708450673
 20
16.0145056823
 30
0.0
 10
25.4628816078
 20
16.0200032414
 30
0.0
 10
25.6549023103
 20
16.0226039445
 30
0.0
 10
25.8469169358
 20
16.0226683115
 30
0.0
 10
26.0389242576
 20
16.0206284319
 30
0.0
 10
26.2309264937
 20
16.0168801216
 30
0.0
 10
26.4229260166
 20
16.0118285011
 30
0.0
 10
26.5829188033
 20
16.0067778099
 30
0.0
 10
26.678912321
 20
16.0034760499
 30
0.0
 10
26.7109114171
 20
16.0023513361
 30
0.0
  0
SPLINE
  5
2E3
100
AcDbEntity
  8
0
100
AcDbSpline
 62
1
  6
CONTINUOUS
 70
0
 71
3
 72
26
 73
22
 74
0
 42
0.0000001
 43
0.0000001
 44
0.0000000001
 40
0.0
 40
0.0
 40
0.0
 40
0.0
 40
0.0315799317
 40
0.0877229056
 40
0.1438647874
 40
0.2000053636
 40
0.2561450852
 40
0.3122843778
 40
0.3684236807
 40
0.4245633305
 40
0.4807033393
 40
0.5368435643
 40
0.5929839131
 40
0.6491242619
 40
0.7052645075
 40
0.7614046603
 40
0.8175447514
 40
0.8736848219
 40
0.9298248821
 40
0.9859649732
 40
1.0
 40
1.0
 40
1.0
 40
1.0
 10
26.8909114171
 20
15.99581061
 30
0.0
 10
26.9269119159
 20
15.9944675956
 30
0.0
 10
27.0269126256
 20
15.9906921145
 30
0.0
 10
27.1909091948
 20
15.9844037144
 30
0.0
 10
27.3829091772
 20
15.9771956663
 30
0.0
 10
27.5749099621
 20
15.9701093656
 30
0.0
 10
27.7669106789
 20
15.9631018291
 30
0.0
 10
27.95891144
 20
15.9561355523
 30
0.0
 10
28.1509120518
 20
15.9491673967
 30
0.0
 10
28.3429120459
 20
15.9421597795
 30
0.0
 10
28.5349117739
 20
15.9351161517
 30
0.0
 10
28.7269116367
 20
15.9280544849
 30
0.0
 10
28.9189114164
 20
15.920980018
 30
0.0
 10
29.1109112241
 20
15.9139056767
 30
0.0
 10
29.3029112607
 20
15.9068436238
 30
0.0
 10
29.4949113076
 20
15.8997898568
 30
0.0
 10
29.6869113895
 20
15.8927424863
 30
0.0
 10
29.8789113908
 20
15.8856958016
 30
0.0
 10
30.0709114797
 20
15.8786515046
 30
0.0
 10
30.2149114365
 20
15.8733649209
 30
0.0
 10
30.2949114177
 20
15.8704274807
 30
0.0
 10
30.3109114171
 20
15.8698399787
 30
0.0
  0
LINE
  5
2E4
100
AcDbEntity
  8
0
100
AcDbLine
 62
1
  6
CONTINUOUS
 10
30.4623327881
 20
14.4914560171
 11
31.3823327881
 21
14.4576650625
  0
SPLINE
  5
2E5
100
AcDbEntity
  8
0
100
AcDbSpline
 62
1
  6
CONTINUOUS
 70
0
 71
3
 72
26
 73
22
 74
0
 42
0.0000001
 43
0.0000001
 44
0.0000000001
 40
0.0
 40
0.0
 40
0.0
 40
0.0
 40
0.0141227891
 40
0.0705759542
 40
0.1269687259
 40
0.1833044603
 40
0.2395873322
 40
0.2958217421
 40
0.3520120012
 40
0.4081621943
 40
0.4642748272
 40
0.5203527108
 40
0.5764001289
 40
0.6324228682
 40
0.6884285245
 40
0.7444263845
 40
0.8004244532
 40
0.8564288016
 40
0.9124437532
 40
0.9684730785
 40
1.0
 40
1.0
 40
1.0
 40
1.0
 10
30.2823327881
 20
13.6637177769
 30
0.0
 10
30.2663349321
 20
13.661571299
 30
0.0
 10
30.1863779845
 20
13.6509244163
 30
0.0
 10
30.0424359843
 20
13.6324995528
 30
0.0
 10
29.8504299345
 20
13.6096312556
 30
0.0
 10
29.658422957
 20
13.5884801237
 30
0.0
 10
29.4664154546
 20
13.5690563132
 30
0.0
 10
29.2744082314
 20
13.5513572354
 30
0.0
 10
29.0824010156
 20
13.5353949798
 30
0.0
 10
28.8903970939
 20
13.5211643169
 30
0.0
 10
28.6983924194
 20
13.5087954484
 30
0.0
 10
28.5063850925
 20
13.4984511299
 30
0.0
 10
28.3143752334
 20
13.4902828166
 30
0.0
 10
28.1223623185
 20
13.4844382704
 30
0.0
 10
27.9303459573
 20
13.4811029739
 30
0.0
 10
27.7383322348
 20
13.4801254655
 30
0.0
 10
27.5463218964
 20
13.4812988073
 30
0.0
 10
27.3543143142
 20
13.484420739
 30
0.0
 10
27.1623091648
 20
13.4893199372
 30
0.0
 10
26.9983077891
 20
13.4947766157
 30
0.0
 10
26.8983267087
 20
13.4990226619
 30
0.0
 10
26.8623327881
 20
13.5006990036
 30
0.0
  0
SPLINE
  5
2E6
100
AcDbEntity
  8
0
100
AcDbSpline
 62
1
  6
CONTINUOUS
 70
0
 71
3
 72
28
 73
24
 74
0
 42
0.0000001
 43
0.0000001
 44
0.0000000001
 40
0.0
 40
0.0
 40
0.0
 40
0.0
 40
0.036534601
 40
0.1096979123
 40
0.1830511753
 40
0.2566926967
 40
0.330703632
 40
0.4051495367
 40
0.4801373402
 40
0.5558674892
 40
0.6326015584
 40
0.7106879189
 40
0.7506336232
 40
0.7916307849
 40
0.8343425127
 40
0.880233402
 40
0.9202447001
 40
0.9411848409
 40
0.9639922397
 40
0.9775053718
 40
0.9859030484
 40
0.9912812162
 40
1.0
 40
1.0
 40
1.0
 40
1.0
 10
26.6823327881
 20
13.5104462092
 30
0.0
 10
26.6503222727
 20
13.512445442
 30
0.0
 10
26.5542371681
 20
13.5189091791
 30
0.0
 10
26.3940864773
 20
13.532293241
 30
0.0
 10
26.2019539274
 20
13.5534779661
 30
0.0
 10
26.0098502254
 20
13.5808732774
 30
0.0
 10
25.8177731151
 20
13.6145252935
 30
0.0
 10
25.6256429508
 20
13.6542020895
 30
0.0
 10
25.4333937179
 20
13.7003027178
 30
0.0
 10
25.2410516798
 20
13.7541431148
 30
0.0
 10
25.0487381072
 20
13.8173715647
 30
0.0
 10
24.888663965
 20
13.8777657502
 30
0.0
 10
24.7610883291
 20
13.9345851527
 30
0.0
 10
24.6644058486
 20
13.9840780341
 30
0.0
 10
24.5668597005
 20
14.0428945064
 30
0.0
 10
24.47680324
 20
14.1115152949
 30
0.0
 10
24.4091669104
 20
14.1766321178
 30
0.0
 10
24.3575429744
 20
14.2289756046
 30
0.0
 10
24.3247585531
 20
14.2672422944
 30
0.0
 10
24.3032007512
 20
14.3001783405
 30
0.0
 10
24.2926585658
 20
14.3217484889
 30
0.0
 10
24.2859050743
 20
14.3403371666
 30
0.0
 10
24.2832170575
 20
14.3524553952
 30
0.0
 10
24.2823327881
 20
14.3600992855
 30
0.0
  0
SPLINE
  5
2E7
100
AcDbEntity
  8
0
100
AcDbSpline
 62
1
  6
CONTINUOUS
 70
0
 71
3
 72
28
 73
24
 74
0
 42
0.0000001
 43
0.0000001
 44
0.0000000001
 40
0.0
 40
0.0
 40
0.0
 40
0.0
 40
0.0179782249
 40
0.0232091958
 40
0.0313248062
 40
0.0441906082
 40
0.0652403215
 40
0.0836858339
 40
0.1168102066
 40
0.1561168911
 40
0.1950913084
 40
0.2338118355
 40
0.2723139547
 40
0.3490404974
 40
0.4256782885
 40
0.5022679925
 40
0.578832335
 40
0.6553893491
 40
0.7319503891
 40
0.8085214496
 40
0.8851044259
 40
0.9616989606
 40
1.0
 40
1.0
 40
1.0
 40
1.0
 10
24.2823327881
 20
14.3600992855
 30
0.0
 10
24.280241334
 20
14.3755685568
 30
0.0
 10
24.2829780895
 20
14.3950765042
 30
0.0
 10
24.2926361196
 20
14.4194722501
 30
0.0
 10
24.3030966987
 20
14.4387980465
 30
0.0
 10
24.3243120075
 20
14.4670006649
 30
0.0
 10
24.3566594257
 20
14.4968877022
 30
0.0
 10
24.4071183408
 20
14.5310407873
 30
0.0
 10
24.4787187437
 20
14.5587065358
 30
0.0
 10
24.5700604041
 20
14.5770966474
 30
0.0
 10
24.6659901131
 20
14.5961825985
 30
0.0
 10
24.7620595956
 20
14.6108452281
 30
0.0
 10
24.8900762005
 20
14.6244072697
 30
0.0
 10
25.0502515038
 20
14.6336332667
 30
0.0
 10
25.2422664383
 20
14.6427314888
 30
0.0
 10
25.4343029788
 20
14.6482290479
 30
0.0
 10
25.6263236812
 20
14.650829751
 30
0.0
 10
25.8183383068
 20
14.6508941179
 30
0.0
 10
26.0103456286
 20
14.6488542383
 30
0.0
 10
26.2023478646
 20
14.6451059281
 30
0.0
 10
26.3943473876
 20
14.6400543075
 30
0.0
 10
26.5543401743
 20
14.6350036163
 30
0.0
 10
26.650333692
 20
14.6317018564
 30
0.0
 10
26.6823327881
 20
14.6305771426
 30
0.0
  0
SPLINE
  5
2E8
100
AcDbEntity
  8
0
100
AcDbSpline
 62
1
  6
CONTINUOUS
 70
0
 71
3
 72
26
 73
22
 74
0
 42
0.0000001
 43
0.0000001
 44
0.0000000001
 40
0.0
 40
0.0
 40
0.0
 40
0.0
 40
0.0315799317
 40
0.0877229056
 40
0.1438647874
 40
0.2000053636
 40
0.2561450852
 40
0.3122843778
 40
0.3684236807
 40
0.4245633305
 40
0.4807033393
 40
0.5368435643
 40
0.5929839131
 40
0.6491242619
 40
0.7052645075
 40
0.7614046603
 40
0.8175447514
 40
0.8736848219
 40
0.9298248821
 40
0.9859649732
 40
1.0
 40
1.0
 40
1.0
 40
1.0
 10
26.8623327881
 20
14.6240364165
 30
0.0
 10
26.8983332868
 20
14.622693402
 30
0.0
 10
26.9983339965
 20
14.6189179209
 30
0.0
 10
27.1623305657
 20
14.6126295209
 30
0.0
 10
27.3543305482
 20
14.6054214727
 30
0.0
 10
27.5463313331
 20
14.598335172
 30
0.0
 10
27.7383320498
 20
14.5913276355
 30
0.0
 10
27.930332811
 20
14.5843613588
 30
0.0
 10
28.1223334227
 20
14.5773932031
 30
0.0
 10
28.3143334168
 20
14.5703855859
 30
0.0
 10
28.5063331449
 20
14.5633419581
 30
0.0
 10
28.6983330077
 20
14.5562802913
 30
0.0
 10
28.8903327873
 20
14.5492058245
 30
0.0
 10
29.0823325951
 20
14.5421314832
 30
0.0
 10
29.2743326317
 20
14.5350694302
 30
0.0
 10
29.4663326786
 20
14.5280156633
 30
0.0
 10
29.6583327605
 20
14.5209682928
 30
0.0
 10
29.8503327618
 20
14.513921608
 30
0.0
 10
30.0423328507
 20
14.506877311
 30
0.0
 10
30.1863328075
 20
14.5015907273
 30
0.0
 10
30.2663327887
 20
14.4986532871
 30
0.0
 10
30.2823327881
 20
14.4980657851
 30
0.0
  0
LINE
  5
2E9
100
AcDbEntity
  8
0
100
AcDbLine
 62
1
  6
CONTINUOUS
 10
23.2033610139
 20
17.2350044042
 11
24.1233610139
 21
17.2012134496
  0
SPLINE
  5
2EA
100
AcDbEntity
  8
0
100
AcDbSpline
 62
1
  6
CONTINUOUS
 70
0
 71
3
 72
26
 73
22
 74
0
 42
0.0000001
 43
0.0000001
 44
0.0000000001
 40
0.0
 40
0.0
 40
0.0
 40
0.0
 40
0.0141227891
 40
0.0705759542
 40
0.1269687259
 40
0.1833044603
 40
0.2395873322
 40
0.2958217421
 40
0.3520120012
 40
0.4081621943
 40
0.4642748272
 40
0.5203527108
 40
0.5764001289
 40
0.6324228682
 40
0.6884285245
 40
0.7444263845
 40
0.8004244532
 40
0.8564288016
 40
0.9124437532
 40
0.9684730785
 40
1.0
 40
1.0
 40
1.0
 40
1.0
 10
23.0233610139
 20
16.407266164
 30
0.0
 10
23.0073631579
 20
16.4051196861
 30
0.0
 10
22.9274062103
 20
16.3944728034
 30
0.0
 10
22.7834642101
 20
16.3760479399
 30
0.0
 10
22.5914581603
 20
16.3531796427
 30
0.0
 10
22.3994511828
 20
16.3320285108
 30
0.0
 10
22.2074436804
 20
16.3126047003
 30
0.0
 10
22.0154364572
 20
16.2949056225
 30
0.0
 10
21.8234292414
 20
16.2789433669
 30
0.0
 10
21.6314253197
 20
16.264712704
 30
0.0
 10
21.4394206452
 20
16.2523438355
 30
0.0
 10
21.2474133183
 20
16.241999517
 30
0.0
 10
21.0554034592
 20
16.2338312037
 30
0.0
 10
20.8633905443
 20
16.2279866575
 30
0.0
 10
20.6713741831
 20
16.224651361
 30
0.0
 10
20.4793604606
 20
16.2236738526
 30
0.0
 10
20.2873501222
 20
16.2248471944
 30
0.0
 10
20.09534254
 20
16.2279691261
 30
0.0
 10
19.9033373906
 20
16.2328683243
 30
0.0
 10
19.7393360149
 20
16.2383250028
 30
0.0
 10
19.6393549345
 20
16.242571049
 30
0.0
 10
19.6033610139
 20
16.2442473907
 30
0.0
  0
SPLINE
  5
2EB
100
AcDbEntity
  8
0
100
AcDbSpline
 62
1
  6
CONTINUOUS
 70
0
 71
3
 72
28
 73
24
 74
0
 42
0.0000001
 43
0.0000001
 44
0.0000000001
 40
0.0
 40
0.0
 40
0.0
 40
0.0
 40
0.036534601
 40
0.1096979123
 40
0.1830511753
 40
0.2566926967
 40
0.330703632
 40
0.4051495367
 40
0.4801373402
 40
0.5558674892
 40
0.6326015584
 40
0.7106879189
 40
0.7506336232
 40
0.7916307849
 40
0.8343425127
 40
0.880233402
 40
0.9202447001
 40
0.9411848409
 40
0.9639922397
 40
0.9775053718
 40
0.9859030484
 40
0.9912812162
 40
1.0
 40
1.0
 40
1.0
 40
1.0
 10
19.4233610139
 20
16.2539945963
 30
0.0
 10
19.3913504986
 20
16.2559938291
 30
0.0
 10
19.2952653939
 20
16.2624575662
 30
0.0
 10
19.1351147031
 20
16.2758416281
 30
0.0
 10
18.9429821532
 20
16.2970263532
 30
0.0
 10
18.7508784512
 20
16.3244216645
 30
0.0
 10
18.5588013409
 20
16.3580736806
 30
0.0
 10
18.3666711766
 20
16.3977504766
 30
0.0
 10
18.1744219437
 20
16.4438511049
 30
0.0
 10
17.9820799056
 20
16.4976915019
 30
0.0
 10
17.789766333
 20
16.5609199518
 30
0.0
 10
17.6296921908
 20
16.6213141373
 30
0.0
 10
17.5021165549
 20
16.6781335398
 30
0.0
 10
17.4054340744
 20
16.7276264212
 30
0.0
 10
17.3078879263
 20
16.7864428935
 30
0.0
 10
17.2178314658
 20
16.855063682
 30
0.0
 10
17.1501951362
 20
16.9201805049
 30
0.0
 10
17.0985712002
 20
16.9725239917
 30
0.0
 10
17.0657867789
 20
17.0107906815
 30
0.0
 10
17.044228977
 20
17.0437267276
 30
0.0
 10
17.0336867916
 20
17.065296876
 30
0.0
 10
17.0269333001
 20
17.0838855537
 30
0.0
 10
17.0242452833
 20
17.0960037823
 30
0.0
 10
17.0233610139
 20
17.1036476726
 30
0.0
  0
SPLINE
  5
2EC
100
AcDbEntity
  8
0
100
AcDbSpline
 62
1
  6
CONTINUOUS
 70
0
 71
3
 72
28
 73
24
 74
0
 42
0.0000001
 43
0.0000001
 44
0.0000000001
 40
0.0
 40
0.0
 40
0.0
 40
0.0
 40
0.0179782249
 40
0.0232091958
 40
0.0313248062
 40
0.0441906082
 40
0.0652403215
 40
0.0836858339
 40
0.1168102066
 40
0.1561168911
 40
0.1950913084
 40
0.2338118355
 40
0.2723139547
 40
0.3490404974
 40
0.4256782885
 40
0.5022679925
 40
0.578832335
 40
0.6553893491
 40
0.7319503891
 40
0.8085214496
 40
0.8851044259
 40
0.9616989606
 40
1.0
 40
1.0
 40
1.0
 40
1.0
 10
17.0233610139
 20
17.1036476726
 30
0.0
 10
17.0212695598
 20
17.1191169439
 30
0.0
 10
17.0240063153
 20
17.1386248913
 30
0.0
 10
17.0336643454
 20
17.1630206372
 30
0.0
 10
17.0441249245
 20
17.1823464336
 30
0.0
 10
17.0653402333
 20
17.210549052
 30
0.0
 10
17.0976876515
 20
17.2404360893
 30
0.0
 10
17.1481465666
 20
17.2745891744
 30
0.0
 10
17.2197469695
 20
17.3022549229
 30
0.0
 10
17.3110886299
 20
17.3206450345
 30
0.0
 10
17.4070183389
 20
17.3397309856
 30
0.0
 10
17.5030878214
 20
17.3543936152
 30
0.0
 10
17.6311044263
 20
17.3679556568
 30
0.0
 10
17.7912797296
 20
17.3771816538
 30
0.0
 10
17.9832946641
 20
17.3862798759
 30
0.0
 10
18.1753312046
 20
17.391777435
 30
0.0
 10
18.367351907
 20
17.3943781381
 30
0.0
 10
18.5593665326
 20
17.394442505
 30
0.0
 10
18.7513738544
 20
17.3924026254
 30
0.0
 10
18.9433760904
 20
17.3886543152
 30
0.0
 10
19.1353756134
 20
17.3836026946
 30
0.0
 10
19.2953684001
 20
17.3785520034
 30
0.0
 10
19.3913619178
 20
17.3752502435
 30
0.0
 10
19.4233610139
 20
17.3741255297
 30
0.0
  0
SPLINE
  5
2ED
100
AcDbEntity
  8
0
100
AcDbSpline
 62
1
  6
CONTINUOUS
 70
0
 71
3
 72
26
 73
22
 74
0
 42
0.0000001
 43
0.0000001
 44
0.0000000001
 40
0.0
 40
0.0
 40
0.0
 40
0.0
 40
0.0315799317
 40
0.0877229056
 40
0.1438647874
 40
0.2000053636
 40
0.2561450852
 40
0.3122843778
 40
0.3684236807
 40
0.4245633305
 40
0.4807033393
 40
0.5368435643
 40
0.5929839131
 40
0.6491242619
 40
0.7052645075
 40
0.7614046603
 40
0.8175447514
 40
0.8736848219
 40
0.9298248821
 40
0.9859649732
 40
1.0
 40
1.0
 40
1.0
 40
1.0
 10
19.6033610139
 20
17.3675848036
 30
0.0
 10
19.6393615126
 20
17.3662417891
 30
0.0
 10
19.7393622223
 20
17.362466308
 30
0.0
 10
19.9033587915
 20
17.356177908
 30
0.0
 10
20.095358774
 20
17.3489698598
 30
0.0
 10
20.2873595589
 20
17.3418835591
 30
0.0
 10
20.4793602756
 20
17.3348760226
 30
0.0
 10
20.6713610368
 20
17.3279097459
 30
0.0
 10
20.8633616485
 20
17.3209415902
 30
0.0
 10
21.0553616426
 20
17.313933973
 30
0.0
 10
21.2473613707
 20
17.3068903452
 30
0.0
 10
21.4393612335
 20
17.2998286784
 30
0.0
 10
21.6313610131
 20
17.2927542116
 30
0.0
 10
21.8233608209
 20
17.2856798703
 30
0.0
 10
22.0153608575
 20
17.2786178173
 30
0.0
 10
22.2073609044
 20
17.2715640504
 30
0.0
 10
22.3993609863
 20
17.2645166798
 30
0.0
 10
22.5913609876
 20
17.2574699951
 30
0.0
 10
22.7833610765
 20
17.2504256981
 30
0.0
 10
22.9273610333
 20
17.2451391144
 30
0.0
 10
23.0073610145
 20
17.2422016742
 30
0.0
 10
23.0233610139
 20
17.2416141722
 30
0.0
  0
LINE
  5
2EE
100
AcDbEntity
  8
0
100
AcDbLine
 62
1
  6
CONTINUOUS
 10
23.1747823849
 20
15.9489660978
 11
24.0947823849
 21
15.9151751431
  0
SPLINE
  5
2EF
100
AcDbEntity
  8
0
100
AcDbSpline
 62
1
  6
CONTINUOUS
 70
0
 71
3
 72
26
 73
22
 74
0
 42
0.0000001
 43
0.0000001
 44
0.0000000001
 40
0.0
 40
0.0
 40
0.0
 40
0.0
 40
0.0141227891
 40
0.0705759542
 40
0.1269687259
 40
0.1833044603
 40
0.2395873322
 40
0.2958217421
 40
0.3520120012
 40
0.4081621943
 40
0.4642748272
 40
0.5203527108
 40
0.5764001289
 40
0.6324228682
 40
0.6884285245
 40
0.7444263845
 40
0.8004244532
 40
0.8564288016
 40
0.9124437532
 40
0.9684730785
 40
1.0
 40
1.0
 40
1.0
 40
1.0
 10
22.9947823849
 20
15.1212278576
 30
0.0
 10
22.9787845289
 20
15.1190813797
 30
0.0
 10
22.8988275813
 20
15.108434497
 30
0.0
 10
22.7548855811
 20
15.0900096335
 30
0.0
 10
22.5628795312
 20
15.0671413362
 30
0.0
 10
22.3708725537
 20
15.0459902043
 30
0.0
 10
22.1788650513
 20
15.0265663939
 30
0.0
 10
21.9868578282
 20
15.008867316
 30
0.0
 10
21.7948506124
 20
14.9929050605
 30
0.0
 10
21.6028466907
 20
14.9786743975
 30
0.0
 10
21.4108420161
 20
14.9663055291
 30
0.0
 10
21.2188346893
 20
14.9559612105
 30
0.0
 10
21.0268248302
 20
14.9477928972
 30
0.0
 10
20.8348119153
 20
14.941948351
 30
0.0
 10
20.642795554
 20
14.9386130545
 30
0.0
 10
20.4507818316
 20
14.9376355462
 30
0.0
 10
20.2587714932
 20
14.9388088879
 30
0.0
 10
20.066763911
 20
14.9419308196
 30
0.0
 10
19.8747587616
 20
14.9468300179
 30
0.0
 10
19.7107573859
 20
14.9522866963
 30
0.0
 10
19.6107763055
 20
14.9565327426
 30
0.0
 10
19.5747823849
 20
14.9582090843
 30
0.0
  0
SPLINE
  5
2F0
100
AcDbEntity
  8
0
100
AcDbSpline
 62
1
  6
CONTINUOUS
 70
0
 71
3
 72
28
 73
24
 74
0
 42
0.0000001
 43
0.0000001
 44
0.0000000001
 40
0.0
 40
0.0
 40
0.0
 40
0.0
 40
0.036534601
 40
0.1096979123
 40
0.1830511753
 40
0.2566926967
 40
0.330703632
 40
0.4051495367
 40
0.4801373402
 40
0.5558674892
 40
0.6326015584
 40
0.7106879189
 40
0.7506336232
 40
0.7916307849
 40
0.8343425127
 40
0.880233402
 40
0.9202447001
 40
0.9411848409
 40
0.9639922397
 40
0.9775053718
 40
0.9859030484
 40
0.9912812162
 40
1.0
 40
1.0
 40
1.0
 40
1.0
 10
19.3947823849
 20
14.9679562899
 30
0.0
 10
19.3627718695
 20
14.9699555227
 30
0.0
 10
19.2666867648
 20
14.9764192598
 30
0.0
 10
19.1065360741
 20
14.9898033216
 30
0.0
 10
18.9144035242
 20
15.0109880467
 30
0.0
 10
18.7222998222
 20
15.038383358
 30
0.0
 10
18.5302227119
 20
15.0720353742
 30
0.0
 10
18.3380925476
 20
15.1117121701
 30
0.0
 10
18.1458433147
 20
15.1578127984
 30
0.0
 10
17.9535012765
 20
15.2116531954
 30
0.0
 10
17.761187704
 20
15.2748816453
 30
0.0
 10
17.6011135618
 20
15.3352758308
 30
0.0
 10
17.4735379259
 20
15.3920952333
 30
0.0
 10
17.3768554454
 20
15.4415881147
 30
0.0
 10
17.2793092973
 20
15.500404587
 30
0.0
 10
17.1892528368
 20
15.5690253755
 30
0.0
 10
17.1216165072
 20
15.6341421985
 30
0.0
 10
17.0699925712
 20
15.6864856852
 30
0.0
 10
17.0372081499
 20
15.724752375
 30
0.0
 10
17.015650348
 20
15.7576884211
 30
0.0
 10
17.0051081626
 20
15.7792585696
 30
0.0
 10
16.9983546711
 20
15.7978472472
 30
0.0
 10
16.9956666543
 20
15.8099654759
 30
0.0
 10
16.9947823849
 20
15.8176093662
 30
0.0
  0
SPLINE
  5
2F1
100
AcDbEntity
  8
0
100
AcDbSpline
 62
1
  6
CONTINUOUS
 70
0
 71
3
 72
28
 73
24
 74
0
 42
0.0000001
 43
0.0000001
 44
0.0000000001
 40
0.0
 40
0.0
 40
0.0
 40
0.0
 40
0.0179782249
 40
0.0232091958
 40
0.0313248062
 40
0.0441906082
 40
0.0652403215
 40
0.0836858339
 40
0.1168102066
 40
0.1561168911
 40
0.1950913084
 40
0.2338118355
 40
0.2723139547
 40
0.3490404974
 40
0.4256782885
 40
0.5022679925
 40
0.578832335
 40
0.6553893491
 40
0.7319503891
 40
0.8085214496
 40
0.8851044259
 40
0.9616989606
 40
1.0
 40
1.0
 40
1.0
 40
1.0
 10
16.9947823849
 20
15.8176093662
 30
0.0
 10
16.9926909307
 20
15.8330786375
 30
0.0
 10
16.9954276862
 20
15.8525865849
 30
0.0
 10
17.0050857163
 20
15.8769823308
 30
0.0
 10
17.0155462955
 20
15.8963081272
 30
0.0
 10
17.0367616042
 20
15.9245107456
 30
0.0
 10
17.0691090224
 20
15.9543977829
 30
0.0
 10
17.1195679375
 20
15.988550868
 30
0.0
 10
17.1911683405
 20
16.0162166164
 30
0.0
 10
17.2825100009
 20
16.034606728
 30
0.0
 10
17.3784397099
 20
16.0536926792
 30
0.0
 10
17.4745091924
 20
16.0683553087
 30
0.0
 10
17.6025257973
 20
16.0819173504
 30
0.0
 10
17.7627011005
 20
16.0911433473
 30
0.0
 10
17.9547160351
 20
16.1002415694
 30
0.0
 10
18.1467525756
 20
16.1057391285
 30
0.0
 10
18.338773278
 20
16.1083398316
 30
0.0
 10
18.5307879036
 20
16.1084041986
 30
0.0
 10
18.7227952253
 20
16.106364319
 30
0.0
 10
18.9147974614
 20
16.1026160087
 30
0.0
 10
19.1067969844
 20
16.0975643882
 30
0.0
 10
19.2667897711
 20
16.092513697
 30
0.0
 10
19.3627832888
 20
16.089211937
 30
0.0
 10
19.3947823849
 20
16.0880872232
 30
0.0
  0
SPLINE
  5
2F2
100
AcDbEntity
  8
0
100
AcDbSpline
 62
1
  6
CONTINUOUS
 70
0
 71
3
 72
26
 73
22
 74
0
 42
0.0000001
 43
0.0000001
 44
0.0000000001
 40
0.0
 40
0.0
 40
0.0
 40
0.0
 40
0.0315799317
 40
0.0877229056
 40
0.1438647874
 40
0.2000053636
 40
0.2561450852
 40
0.3122843778
 40
0.3684236807
 40
0.4245633305
 40
0.4807033393
 40
0.5368435643
 40
0.5929839131
 40
0.6491242619
 40
0.7052645075
 40
0.7614046603
 40
0.8175447514
 40
0.8736848219
 40
0.9298248821
 40
0.9859649732
 40
1.0
 40
1.0
 40
1.0
 40
1.0
 10
19.5747823849
 20
16.0815464971
 30
0.0
 10
19.6107828836
 20
16.0802034827
 30
0.0
 10
19.7107835933
 20
16.0764280016
 30
0.0
 10
19.8747801625
 20
16.0701396015
 30
0.0
 10
20.0667801449
 20
16.0629315534
 30
0.0
 10
20.2587809299
 20
16.0558452527
 30
0.0
 10
20.4507816466
 20
16.0488377162
 30
0.0
 10
20.6427824078
 20
16.0418714394
 30
0.0
 10
20.8347830195
 20
16.0349032837
 30
0.0
 10
21.0267830136
 20
16.0278956666
 30
0.0
 10
21.2187827416
 20
16.0208520388
 30
0.0
 10
21.4107826045
 20
16.013790372
 30
0.0
 10
21.6027823841
 20
16.0067159051
 30
0.0
 10
21.7947821919
 20
15.9996415638
 30
0.0
 10
21.9867822285
 20
15.9925795109
 30
0.0
 10
22.1787822754
 20
15.9855257439
 30
0.0
 10
22.3707823572
 20
15.9784783734
 30
0.0
 10
22.5627823585
 20
15.9714316887
 30
0.0
 10
22.7547824475
 20
15.9643873917
 30
0.0
 10
22.8987824043
 20
15.959100808
 30
0.0
 10
22.9787823854
 20
15.9561633678
 30
0.0
 10
22.9947823849
 20
15.9555758658
 30
0.0
  0
LINE
  5
2F3
100
AcDbEntity
  8
0
100
AcDbLine
 62
1
  6
CONTINUOUS
 10
23.1747823849
 20
14.5771919042
 11
24.0947823849
 21
14.5434009496
  0
SPLINE
  5
2F4
100
AcDbEntity
  8
0
100
AcDbSpline
 62
1
  6
CONTINUOUS
 70
0
 71
3
 72
26
 73
22
 74
0
 42
0.0000001
 43
0.0000001
 44
0.0000000001
 40
0.0
 40
0.0
 40
0.0
 40
0.0
 40
0.0141227891
 40
0.0705759542
 40
0.1269687259
 40
0.1833044603
 40
0.2395873322
 40
0.2958217421
 40
0.3520120012
 40
0.4081621943
 40
0.4642748272
 40
0.5203527108
 40
0.5764001289
 40
0.6324228682
 40
0.6884285245
 40
0.7444263845
 40
0.8004244532
 40
0.8564288016
 40
0.9124437532
 40
0.9684730785
 40
1.0
 40
1.0
 40
1.0
 40
1.0
 10
22.9947823849
 20
13.749453664
 30
0.0
 10
22.9787845289
 20
13.7473071861
 30
0.0
 10
22.8988275813
 20
13.7366603034
 30
0.0
 10
22.7548855811
 20
13.7182354399
 30
0.0
 10
22.5628795312
 20
13.6953671427
 30
0.0
 10
22.3708725537
 20
13.6742160108
 30
0.0
 10
22.1788650513
 20
13.6547922003
 30
0.0
 10
21.9868578282
 20
13.6370931225
 30
0.0
 10
21.7948506124
 20
13.6211308669
 30
0.0
 10
21.6028466907
 20
13.606900204
 30
0.0
 10
21.4108420161
 20
13.5945313355
 30
0.0
 10
21.2188346893
 20
13.584187017
 30
0.0
 10
21.0268248302
 20
13.5760187037
 30
0.0
 10
20.8348119153
 20
13.5701741575
 30
0.0
 10
20.642795554
 20
13.566838861
 30
0.0
 10
20.4507818316
 20
13.5658613526
 30
0.0
 10
20.2587714932
 20
13.5670346944
 30
0.0
 10
20.066763911
 20
13.5701566261
 30
0.0
 10
19.8747587616
 20
13.5750558243
 30
0.0
 10
19.7107573859
 20
13.5805125028
 30
0.0
 10
19.6107763055
 20
13.584758549
 30
0.0
 10
19.5747823849
 20
13.5864348907
 30
0.0
  0
SPLINE
  5
2F5
100
AcDbEntity
  8
0
100
AcDbSpline
 62
1
  6
CONTINUOUS
 70
0
 71
3
 72
28
 73
24
 74
0
 42
0.0000001
 43
0.0000001
 44
0.0000000001
 40
0.0
 40
0.0
 40
0.0
 40
0.0
 40
0.036534601
 40
0.1096979123
 40
0.1830511753
 40
0.2566926967
 40
0.330703632
 40
0.4051495367
 40
0.4801373402
 40
0.5558674892
 40
0.6326015584
 40
0.7106879189
 40
0.7506336232
 40
0.7916307849
 40
0.8343425127
 40
0.880233402
 40
0.9202447001
 40
0.9411848409
 40
0.9639922397
 40
0.9775053718
 40
0.9859030484
 40
0.9912812162
 40
1.0
 40
1.0
 40
1.0
 40
1.0
 10
19.3947823849
 20
13.5961820963
 30
0.0
 10
19.3627718695
 20
13.5981813291
 30
0.0
 10
19.2666867648
 20
13.6046450662
 30
0.0
 10
19.1065360741
 20
13.6180291281
 30
0.0
 10
18.9144035242
 20
13.6392138532
 30
0.0
 10
18.7222998222
 20
13.6666091645
 30
0.0
 10
18.5302227119
 20
13.7002611806
 30
0.0
 10
18.3380925476
 20
13.7399379766
 30
0.0
 10
18.1458433147
 20
13.7860386049
 30
0.0
 10
17.9535012765
 20
13.8398790019
 30
0.0
 10
17.761187704
 20
13.9031074518
 30
0.0
 10
17.6011135618
 20
13.9635016373
 30
0.0
 10
17.4735379259
 20
14.0203210398
 30
0.0
 10
17.3768554454
 20
14.0698139212
 30
0.0
 10
17.2793092973
 20
14.1286303935
 30
0.0
 10
17.1892528368
 20
14.197251182
 30
0.0
 10
17.1216165072
 20
14.2623680049
 30
0.0
 10
17.0699925712
 20
14.3147114917
 30
0.0
 10
17.0372081499
 20
14.3529781815
 30
0.0
 10
17.015650348
 20
14.3859142276
 30
0.0
 10
17.0051081626
 20
14.407484376
 30
0.0
 10
16.9983546711
 20
14.4260730537
 30
0.0
 10
16.9956666543
 20
14.4381912823
 30
0.0
 10
16.9947823849
 20
14.4458351726
 30
0.0
  0
SPLINE
  5
2F6
100
AcDbEntity
  8
0
100
AcDbSpline
 62
1
  6
CONTINUOUS
 70
0
 71
3
 72
28
 73
24
 74
0
 42
0.0000001
 43
0.0000001
 44
0.0000000001
 40
0.0
 40
0.0
 40
0.0
 40
0.0
 40
0.0179782249
 40
0.0232091958
 40
0.0313248062
 40
0.0441906082
 40
0.0652403215
 40
0.0836858339
 40
0.1168102066
 40
0.1561168911
 40
0.1950913084
 40
0.2338118355
 40
0.2723139547
 40
0.3490404974
 40
0.4256782885
 40
0.5022679925
 40
0.578832335
 40
0.6553893491
 40
0.7319503891
 40
0.8085214496
 40
0.8851044259
 40
0.9616989606
 40
1.0
 40
1.0
 40
1.0
 40
1.0
 10
16.9947823849
 20
14.4458351726
 30
0.0
 10
16.9926909307
 20
14.4613044439
 30
0.0
 10
16.9954276862
 20
14.4808123913
 30
0.0
 10
17.0050857163
 20
14.5052081372
 30
0.0
 10
17.0155462955
 20
14.5245339336
 30
0.0
 10
17.0367616042
 20
14.552736552
 30
0.0
 10
17.0691090224
 20
14.5826235893
 30
0.0
 10
17.1195679375
 20
14.6167766744
 30
0.0
 10
17.1911683405
 20
14.6444424229
 30
0.0
 10
17.2825100009
 20
14.6628325345
 30
0.0
 10
17.3784397099
 20
14.6819184856
 30
0.0
 10
17.4745091924
 20
14.6965811152
 30
0.0
 10
17.6025257973
 20
14.7101431568
 30
0.0
 10
17.7627011005
 20
14.7193691538
 30
0.0
 10
17.9547160351
 20
14.7284673759
 30
0.0
 10
18.1467525756
 20
14.733964935
 30
0.0
 10
18.338773278
 20
14.7365656381
 30
0.0
 10
18.5307879036
 20
14.736630005
 30
0.0
 10
18.7227952253
 20
14.7345901254
 30
0.0
 10
18.9147974614
 20
14.7308418152
 30
0.0
 10
19.1067969844
 20
14.7257901946
 30
0.0
 10
19.2667897711
 20
14.7207395034
 30
0.0
 10
19.3627832888
 20
14.7174377435
 30
0.0
 10
19.3947823849
 20
14.7163130297
 30
0.0
  0
SPLINE
  5
2F7
100
AcDbEntity
  8
0
100
AcDbSpline
 62
1
  6
CONTINUOUS
 70
0
 71
3
 72
26
 73
22
 74
0
 42
0.0000001
 43
0.0000001
 44
0.0000000001
 40
0.0
 40
0.0
 40
0.0
 40
0.0
 40
0.0315799317
 40
0.0877229056
 40
0.1438647874
 40
0.2000053636
 40
0.2561450852
 40
0.3122843778
 40
0.3684236807
 40
0.4245633305
 40
0.4807033393
 40
0.5368435643
 40
0.5929839131
 40
0.6491242619
 40
0.7052645075
 40
0.7614046603
 40
0.8175447514
 40
0.8736848219
 40
0.9298248821
 40
0.9859649732
 40
1.0
 40
1.0
 40
1.0
 40
1.0
 10
19.5747823849
 20
14.7097723036
 30
0.0
 10
19.6107828836
 20
14.7084292891
 30
0.0
 10
19.7107835933
 20
14.704653808
 30
0.0
 10
19.8747801625
 20
14.698365408
 30
0.0
 10
20.0667801449
 20
14.6911573598
 30
0.0
 10
20.2587809299
 20
14.6840710591
 30
0.0
 10
20.4507816466
 20
14.6770635226
 30
0.0
 10
20.6427824078
 20
14.6700972459
 30
0.0
 10
20.8347830195
 20
14.6631290902
 30
0.0
 10
21.0267830136
 20
14.656121473
 30
0.0
 10
21.2187827416
 20
14.6490778452
 30
0.0
 10
21.4107826045
 20
14.6420161784
 30
0.0
 10
21.6027823841
 20
14.6349417116
 30
0.0
 10
21.7947821919
 20
14.6278673703
 30
0.0
 10
21.9867822285
 20
14.6208053173
 30
0.0
 10
22.1787822754
 20
14.6137515504
 30
0.0
 10
22.3707823572
 20
14.6067041798
 30
0.0
 10
22.5627823585
 20
14.5996574951
 30
0.0
 10
22.7547824475
 20
14.5926131981
 30
0.0
 10
22.8987824043
 20
14.5873266144
 30
0.0
 10
22.9787823854
 20
14.5843891742
 30
0.0
 10
22.9947823849
 20
14.5838016722
 30
0.0
  0
LINE
  5
2F8
100
AcDbEntity
  8
0
100
AcDbLine
 62
1
  6
CONTINUOUS
 10
15.9158106107
 20
17.2635830332
 11
16.8358106107
 21
17.2297920786
  0
SPLINE
  5
2F9
100
AcDbEntity
  8
0
100
AcDbSpline
 62
1
  6
CONTINUOUS
 70
0
 71
3
 72
26
 73
22
 74
0
 42
0.0000001
 43
0.0000001
 44
0.0000000001
 40
0.0
 40
0.0
 40
0.0
 40
0.0
 40
0.0141227891
 40
0.0705759542
 40
0.1269687259
 40
0.1833044603
 40
0.2395873322
 40
0.2958217421
 40
0.3520120012
 40
0.4081621943
 40
0.4642748272
 40
0.5203527108
 40
0.5764001289
 40
0.6324228682
 40
0.6884285245
 40
0.7444263845
 40
0.8004244532
 40
0.8564288016
 40
0.9124437532
 40
0.9684730785
 40
1.0
 40
1.0
 40
1.0
 40
1.0
 10
15.7358106107
 20
16.435844793
 30
0.0
 10
15.7198127547
 20
16.4336983152
 30
0.0
 10
15.6398558071
 20
16.4230514324
 30
0.0
 10
15.4959138069
 20
16.404626569
 30
0.0
 10
15.303907757
 20
16.3817582717
 30
0.0
 10
15.1119007795
 20
16.3606071398
 30
0.0
 10
14.9198932771
 20
16.3411833293
 30
0.0
 10
14.727886054
 20
16.3234842515
 30
0.0
 10
14.5358788382
 20
16.307521996
 30
0.0
 10
14.3438749165
 20
16.293291333
 30
0.0
 10
14.1518702419
 20
16.2809224645
 30
0.0
 10
13.9598629151
 20
16.270578146
 30
0.0
 10
13.767853056
 20
16.2624098327
 30
0.0
 10
13.5758401411
 20
16.2565652865
 30
0.0
 10
13.3838237799
 20
16.25322999
 30
0.0
 10
13.1918100574
 20
16.2522524817
 30
0.0
 10
12.999799719
 20
16.2534258234
 30
0.0
 10
12.8077921368
 20
16.2565477551
 30
0.0
 10
12.6157869874
 20
16.2614469534
 30
0.0
 10
12.4517856117
 20
16.2669036318
 30
0.0
 10
12.3518045313
 20
16.2711496781
 30
0.0
 10
12.3158106107
 20
16.2728260198
 30
0.0
  0
SPLINE
  5
2FA
100
AcDbEntity
  8
0
100
AcDbSpline
 62
1
  6
CONTINUOUS
 70
0
 71
3
 72
28
 73
24
 74
0
 42
0.0000001
 43
0.0000001
 44
0.0000000001
 40
0.0
 40
0.0
 40
0.0
 40
0.0
 40
0.036534601
 40
0.1096979123
 40
0.1830511753
 40
0.2566926967
 40
0.330703632
 40
0.4051495367
 40
0.4801373402
 40
0.5558674892
 40
0.6326015584
 40
0.7106879189
 40
0.7506336232
 40
0.7916307849
 40
0.8343425127
 40
0.880233402
 40
0.9202447001
 40
0.9411848409
 40
0.9639922397
 40
0.9775053718
 40
0.9859030484
 40
0.9912812162
 40
1.0
 40
1.0
 40
1.0
 40
1.0
 10
12.1358106107
 20
16.2825732253
 30
0.0
 10
12.1038000953
 20
16.2845724582
 30
0.0
 10
12.0077149907
 20
16.2910361953
 30
0.0
 10
11.8475642999
 20
16.3044202571
 30
0.0
 10
11.65543175
 20
16.3256049822
 30
0.0
 10
11.463328048
 20
16.3530002935
 30
0.0
 10
11.2712509377
 20
16.3866523097
 30
0.0
 10
11.0791207734
 20
16.4263291056
 30
0.0
 10
10.8868715405
 20
16.4724297339
 30
0.0
 10
10.6945295023
 20
16.5262701309
 30
0.0
 10
10.5022159298
 20
16.5894985808
 30
0.0
 10
10.3421417876
 20
16.6498927663
 30
0.0
 10
10.2145661517
 20
16.7067121688
 30
0.0
 10
10.1178836712
 20
16.7562050502
 30
0.0
 10
10.0203375231
 20
16.8150215225
 30
0.0
 10
9.9302810626
 20
16.883642311
 30
0.0
 10
9.862644733
 20
16.948759134
 30
0.0
 10
9.811020797
 20
17.0011026207
 30
0.0
 10
9.7782363757
 20
17.0393693105
 30
0.0
 10
9.7566785738
 20
17.0723053566
 30
0.0
 10
9.7461363884
 20
17.093875505
 30
0.0
 10
9.7393828969
 20
17.1124641827
 30
0.0
 10
9.7366948801
 20
17.1245824114
 30
0.0
 10
9.7358106107
 20
17.1322263017
 30
0.0
  0
SPLINE
  5
2FB
100
AcDbEntity
  8
0
100
AcDbSpline
 62
1
  6
CONTINUOUS
 70
0
 71
3
 72
28
 73
24
 74
0
 42
0.0000001
 43
0.0000001
 44
0.0000000001
 40
0.0
 40
0.0
 40
0.0
 40
0.0
 40
0.0179782249
 40
0.0232091958
 40
0.0313248062
 40
0.0441906082
 40
0.0652403215
 40
0.0836858339
 40
0.1168102066
 40
0.1561168911
 40
0.1950913084
 40
0.2338118355
 40
0.2723139547
 40
0.3490404974
 40
0.4256782885
 40
0.5022679925
 40
0.578832335
 40
0.6553893491
 40
0.7319503891
 40
0.8085214496
 40
0.8851044259
 40
0.9616989606
 40
1.0
 40
1.0
 40
1.0
 40
1.0
 10
9.7358106107
 20
17.1322263017
 30
0.0
 10
9.7337191565
 20
17.1476955729
 30
0.0
 10
9.736455912
 20
17.1672035204
 30
0.0
 10
9.7461139421
 20
17.1915992662
 30
0.0
 10
9.7565745213
 20
17.2109250627
 30
0.0
 10
9.77778983
 20
17.239127681
 30
0.0
 10
9.8101372483
 20
17.2690147183
 30
0.0
 10
9.8605961633
 20
17.3031678035
 30
0.0
 10
9.9321965663
 20
17.3308335519
 30
0.0
 10
10.0235382267
 20
17.3492236635
 30
0.0
 10
10.1194679357
 20
17.3683096146
 30
0.0
 10
10.2155374182
 20
17.3829722442
 30
0.0
 10
10.3435540231
 20
17.3965342859
 30
0.0
 10
10.5037293263
 20
17.4057602828
 30
0.0
 10
10.6957442609
 20
17.4148585049
 30
0.0
 10
10.8877808014
 20
17.420356064
 30
0.0
 10
11.0798015038
 20
17.4229567671
 30
0.0
 10
11.2718161294
 20
17.4230211341
 30
0.0
 10
11.4638234511
 20
17.4209812545
 30
0.0
 10
11.6558256872
 20
17.4172329442
 30
0.0
 10
11.8478252102
 20
17.4121813237
 30
0.0
 10
12.0078179969
 20
17.4071306325
 30
0.0
 10
12.1038115146
 20
17.4038288725
 30
0.0
 10
12.1358106107
 20
17.4027041587
 30
0.0
  0
SPLINE
  5
2FC
100
AcDbEntity
  8
0
100
AcDbSpline
 62
1
  6
CONTINUOUS
 70
0
 71
3
 72
26
 73
22
 74
0
 42
0.0000001
 43
0.0000001
 44
0.0000000001
 40
0.0
 40
0.0
 40
0.0
 40
0.0
 40
0.0315799317
 40
0.0877229056
 40
0.1438647874
 40
0.2000053636
 40
0.2561450852
 40
0.3122843778
 40
0.3684236807
 40
0.4245633305
 40
0.4807033393
 40
0.5368435643
 40
0.5929839131
 40
0.6491242619
 40
0.7052645075
 40
0.7614046603
 40
0.8175447514
 40
0.8736848219
 40
0.9298248821
 40
0.9859649732
 40
1.0
 40
1.0
 40
1.0
 40
1.0
 10
12.3158106107
 20
17.3961634326
 30
0.0
 10
12.3518111094
 20
17.3948204182
 30
0.0
 10
12.4518118191
 20
17.3910449371
 30
0.0
 10
12.6158083883
 20
17.384756537
 30
0.0
 10
12.8078083707
 20
17.3775484888
 30
0.0
 10
12.9998091557
 20
17.3704621882
 30
0.0
 10
13.1918098724
 20
17.3634546517
 30
0.0
 10
13.3838106336
 20
17.3564883749
 30
0.0
 10
13.5758112453
 20
17.3495202192
 30
0.0
 10
13.7678112394
 20
17.3425126021
 30
0.0
 10
13.9598109675
 20
17.3354689742
 30
0.0
 10
14.1518108303
 20
17.3284073074
 30
0.0
 10
14.3438106099
 20
17.3213328406
 30
0.0
 10
14.5358104177
 20
17.3142584993
 30
0.0
 10
14.7278104543
 20
17.3071964464
 30
0.0
 10
14.9198105012
 20
17.3001426794
 30
0.0
 10
15.1118105831
 20
17.2930953089
 30
0.0
 10
15.3038105843
 20
17.2860486241
 30
0.0
 10
15.4958106733
 20
17.2790043271
 30
0.0
 10
15.6398106301
 20
17.2737177435
 30
0.0
 10
15.7198106112
 20
17.2707803033
 30
0.0
 10
15.7358106107
 20
17.2701928013
 30
0.0
  0
LINE
  5
2FD
100
AcDbEntity
  8
0
100
AcDbLine
 62
1
  6
CONTINUOUS
 10
15.8872319816
 20
15.8918088397
 11
16.8072319816
 21
15.8580178851
  0
SPLINE
  5
2FE
100
AcDbEntity
  8
0
100
AcDbSpline
 62
1
  6
CONTINUOUS
 70
0
 71
3
 72
26
 73
22
 74
0
 42
0.0000001
 43
0.0000001
 44
0.0000000001
 40
0.0
 40
0.0
 40
0.0
 40
0.0
 40
0.0141227891
 40
0.0705759542
 40
0.1269687259
 40
0.1833044603
 40
0.2395873322
 40
0.2958217421
 40
0.3520120012
 40
0.4081621943
 40
0.4642748272
 40
0.5203527108
 40
0.5764001289
 40
0.6324228682
 40
0.6884285245
 40
0.7444263845
 40
0.8004244532
 40
0.8564288016
 40
0.9124437532
 40
0.9684730785
 40
1.0
 40
1.0
 40
1.0
 40
1.0
 10
15.7072319816
 20
15.0640705995
 30
0.0
 10
15.6912341256
 20
15.0619241216
 30
0.0
 10
15.6112771781
 20
15.0512772389
 30
0.0
 10
15.4673351778
 20
15.0328523754
 30
0.0
 10
15.275329128
 20
15.0099840781
 30
0.0
 10
15.0833221505
 20
14.9888329463
 30
0.0
 10
14.8913146481
 20
14.9694091358
 30
0.0
 10
14.6993074249
 20
14.951710058
 30
0.0
 10
14.5073002092
 20
14.9357478024
 30
0.0
 10
14.3152962874
 20
14.9215171394
 30
0.0
 10
14.1232916129
 20
14.909148271
 30
0.0
 10
13.931284286
 20
14.8988039525
 30
0.0
 10
13.7392744269
 20
14.8906356392
 30
0.0
 10
13.547261512
 20
14.884791093
 30
0.0
 10
13.3552451508
 20
14.8814557965
 30
0.0
 10
13.1632314283
 20
14.8804782881
 30
0.0
 10
12.97122109
 20
14.8816516299
 30
0.0
 10
12.7792135078
 20
14.8847735616
 30
0.0
 10
12.5872083583
 20
14.8896727598
 30
0.0
 10
12.4232069826
 20
14.8951294383
 30
0.0
 10
12.3232259022
 20
14.8993754845
 30
0.0
 10
12.2872319816
 20
14.9010518262
 30
0.0
  0
SPLINE
  5
2FF
100
AcDbEntity
  8
0
100
AcDbSpline
 62
1
  6
CONTINUOUS
 70
0
 71
3
 72
28
 73
24
 74
0
 42
0.0000001
 43
0.0000001
 44
0.0000000001
 40
0.0
 40
0.0
 40
0.0
 40
0.0
 40
0.036534601
 40
0.1096979123
 40
0.1830511753
 40
0.2566926967
 40
0.330703632
 40
0.4051495367
 40
0.4801373402
 40
0.5558674892
 40
0.6326015584
 40
0.7106879189
 40
0.7506336232
 40
0.7916307849
 40
0.8343425127
 40
0.880233402
 40
0.9202447001
 40
0.9411848409
 40
0.9639922397
 40
0.9775053718
 40
0.9859030484
 40
0.9912812162
 40
1.0
 40
1.0
 40
1.0
 40
1.0
 10
12.1072319816
 20
14.9107990318
 30
0.0
 10
12.0752214663
 20
14.9127982646
 30
0.0
 10
11.9791363616
 20
14.9192620017
 30
0.0
 10
11.8189856708
 20
14.9326460636
 30
0.0
 10
11.6268531209
 20
14.9538307886
 30
0.0
 10
11.4347494189
 20
14.9812261
 30
0.0
 10
11.2426723086
 20
15.0148781161
 30
0.0
 10
11.0505421444
 20
15.054554912
 30
0.0
 10
10.8582929114
 20
15.1006555404
 30
0.0
 10
10.6659508733
 20
15.1544959374
 30
0.0
 10
10.4736373008
 20
15.2177243873
 30
0.0
 10
10.3135631585
 20
15.2781185728
 30
0.0
 10
10.1859875226
 20
15.3349379752
 30
0.0
 10
10.0893050422
 20
15.3844308567
 30
0.0
 10
9.9917588941
 20
15.443247329
 30
0.0
 10
9.9017024336
 20
15.5118681175
 30
0.0
 10
9.834066104
 20
15.5769849404
 30
0.0
 10
9.7824421679
 20
15.6293284271
 30
0.0
 10
9.7496577467
 20
15.667595117
 30
0.0
 10
9.7280999447
 20
15.7005311631
 30
0.0
 10
9.7175577594
 20
15.7221013115
 30
0.0
 10
9.7108042679
 20
15.7406899892
 30
0.0
 10
9.708116251
 20
15.7528082178
 30
0.0
 10
9.7072319816
 20
15.7604521081
 30
0.0
  0
SPLINE
  5
300
100
AcDbEntity
  8
0
100
AcDbSpline
 62
1
  6
CONTINUOUS
 70
0
 71
3
 72
28
 73
24
 74
0
 42
0.0000001
 43
0.0000001
 44
0.0000000001
 40
0.0
 40
0.0
 40
0.0
 40
0.0
 40
0.0179782249
 40
0.0232091958
 40
0.0313248062
 40
0.0441906082
 40
0.0652403215
 40
0.0836858339
 40
0.1168102066
 40
0.1561168911
 40
0.1950913084
 40
0.2338118355
 40
0.2723139547
 40
0.3490404974
 40
0.4256782885
 40
0.5022679925
 40
0.578832335
 40
0.6553893491
 40
0.7319503891
 40
0.8085214496
 40
0.8851044259
 40
0.9616989606
 40
1.0
 40
1.0
 40
1.0
 40
1.0
 10
9.7072319816
 20
15.7604521081
 30
0.0
 10
9.7051405275
 20
15.7759213794
 30
0.0
 10
9.707877283
 20
15.7954293268
 30
0.0
 10
9.7175353131
 20
15.8198250727
 30
0.0
 10
9.7279958923
 20
15.8391508691
 30
0.0
 10
9.749211201
 20
15.8673534875
 30
0.0
 10
9.7815586192
 20
15.8972405248
 30
0.0
 10
9.8320175343
 20
15.9313936099
 30
0.0
 10
9.9036179372
 20
15.9590593584
 30
0.0
 10
9.9949595977
 20
15.97744947
 30
0.0
 10
10.0908893067
 20
15.9965354211
 30
0.0
 10
10.1869587891
 20
16.0111980506
 30
0.0
 10
10.3149753941
 20
16.0247600923
 30
0.0
 10
10.4751506973
 20
16.0339860893
 30
0.0
 10
10.6671656318
 20
16.0430843114
 30
0.0
 10
10.8592021724
 20
16.0485818705
 30
0.0
 10
11.0512228748
 20
16.0511825735
 30
0.0
 10
11.2432375003
 20
16.0512469405
 30
0.0
 10
11.4352448221
 20
16.0492070609
 30
0.0
 10
11.6272470582
 20
16.0454587506
 30
0.0
 10
11.8192465812
 20
16.0404071301
 30
0.0
 10
11.9792393678
 20
16.0353564389
 30
0.0
 10
12.0752328855
 20
16.032054679
 30
0.0
 10
12.1072319816
 20
16.0309299652
 30
0.0
  0
SPLINE
  5
301
100
AcDbEntity
  8
0
100
AcDbSpline
 62
1
  6
CONTINUOUS
 70
0
 71
3
 72
26
 73
22
 74
0
 42
0.0000001
 43
0.0000001
 44
0.0000000001
 40
0.0
 40
0.0
 40
0.0
 40
0.0
 40
0.0315799317
 40
0.0877229056
 40
0.1438647874
 40
0.2000053636
 40
0.2561450852
 40
0.3122843778
 40
0.3684236807
 40
0.4245633305
 40
0.4807033393
 40
0.5368435643
 40
0.5929839131
 40
0.6491242619
 40
0.7052645075
 40
0.7614046603
 40
0.8175447514
 40
0.8736848219
 40
0.9298248821
 40
0.9859649732
 40
1.0
 40
1.0
 40
1.0
 40
1.0
 10
12.2872319816
 20
16.024389239
 30
0.0
 10
12.3232324804
 20
16.0230462246
 30
0.0
 10
12.4232331901
 20
16.0192707435
 30
0.0
 10
12.5872297593
 20
16.0129823435
 30
0.0
 10
12.7792297417
 20
16.0057742953
 30
0.0
 10
12.9712305267
 20
15.9986879946
 30
0.0
 10
13.1632312434
 20
15.9916804581
 30
0.0
 10
13.3552320046
 20
15.9847141813
 30
0.0
 10
13.5472326163
 20
15.9777460257
 30
0.0
 10
13.7392326104
 20
15.9707384085
 30
0.0
 10
13.9312323384
 20
15.9636947807
 30
0.0
 10
14.1232322013
 20
15.9566331139
 30
0.0
 10
14.3152319809
 20
15.9495586471
 30
0.0
 10
14.5072317887
 20
15.9424843058
 30
0.0
 10
14.6992318252
 20
15.9354222528
 30
0.0
 10
14.8912318721
 20
15.9283684859
 30
0.0
 10
15.083231954
 20
15.9213211153
 30
0.0
 10
15.2752319553
 20
15.9142744306
 30
0.0
 10
15.4672320442
 20
15.9072301336
 30
0.0
 10
15.6112320011
 20
15.9019435499
 30
0.0
 10
15.6912319822
 20
15.8990061097
 30
0.0
 10
15.7072319816
 20
15.8984186077
 30
0.0
  0
ENDSEC
  0
SECTION
  2
OBJECTS
  0
DICTIONARY
  5
C
100
AcDbDictionary
280
0
281
1
  3
ACAD_GROUP
350
D
  3
ACAD_MLINESTYLE
350
17
  3
ACAD_LAYOUT
350
1A
  3
ACAD_PLOTSETTINGS
350
19
  3
ACAD_PLOTSTYLENAME
350
E
  0
DICTIONARY
  5
D
102
{ACAD_REACTORS
330
C
102
}
100
AcDbDictionary
280
0
281
1
  0
ACDBDICTIONARYWDFLT
  5
E
102
{ACAD_REACTORS
330
C
102
}
100
AcDbDictionary
281
1
  3
Normal
350
F
100
AcDbDictionaryWithDefault
340
F
  0
DICTIONARY
  5
17
102
{ACAD_REACTORS
330
C
102
}
100
AcDbDictionary
280
0
281
1
  3
Standard
350
18
  0
DICTIONARY
  5
19
102
{ACAD_REACTORS
330
C
102
}
100
AcDbDictionary
281
1
  0
DICTIONARY
  5
1A
102
{ACAD_REACTORS
330
C
102
}
100
AcDbDictionary
281
1
  3
Model
350
302
  3
Layout1
350
303
  0
ACDBPLACEHOLDER
  5
F
102
{ACAD_REACTORS
330
E
102
}
  0
MLINESTYLE
  5
18
102
{ACAD_REACTORS
330
17
102
}
100
AcDbMlineStyle
  2
STANDARD
 70
0
  3

 62
256
 51
90.0
 52
90.0
 71
2
 49
0.5
 62
256
  6
BYLAYER
 49
-0.5
 62
256
  6
BYLAYER
  0
LAYOUT
  5
302
102
{ACAD_REACTORS
330
1A
102
}
100
AcDbPlotSettings
  1

  2
none_device
  4

  6

 40
0.0
 41
0.0
 42
0.0
 43
0.0
 44
800.1
 45
444.5
 46
0.0
 47
0.0
 48
0.0
 49
0.0
140
0.0
141
0.0
142
1.0
143
1.0
 70
1024
 72
0
 73
0
 74
0
  7

 75
0
147
1.0
148
0.0
149
0.0
100
AcDbLayout
  1
Model
 70
0
 71
0
 10
0.0
 20
0.0
 11
31.5
 21
17.5
 12
0.0
 22
0.0
 32
0.0
 14
0.0
 24
0.0
 34
0.0
 15
0.0
 25
0.0
 35
0.0
146
0.0
 13
0.0
 23
0.0
 33
0.0
 16
1.0
 26
0.0
 36
0.0
 17
0.0
 27
1.0
 37
0.0
 76
0
330
207
345
0
346
0
  0
LAYOUT
  5
303
102
{ACAD_REACTORS
330
1A
102
}
100
AcDbPlotSettings
  1

  2
none_device
  4

  6

 40
0.0
 41
0.0
 42
0.0
 43
0.0
 44
800.1
 45
444.5
 46
0.0
 47
0.0
 48
0.0
 49
0.0
140
0.0
141
0.0
142
1.0
143
1.0
 70
0
 72
0
 73
0
 74
0
  7

 75
0
147
1.0
148
0.0
149
0.0
100
AcDbLayout
  1
Layout1
 70
0
 71
1
 10
0.0
 20
0.0
 11
31.5
 21
17.5
 12
0.0
 22
0.0
 32
0.0
 14
0.0
 24
0.0
 34
0.0
 15
0.0
 25
0.0
 35
0.0
146
0.0
 13
0.0
 23
0.0
 33
0.0
 16
1.0
 26
0.0
 36
0.0
 17
0.0
 27
1.0
 37
0.0
 76
0
330
208
345
0
346
0
  0
ENDSEC
  0
EOF
