999
DXF file: wing_aileron_ribs_ply.dxf
999
Pro/ENGINEER 2013230 by Parametric Technology Corporation
  0
SECTION
  2
HEADER
  9
$ACADVER
  1
AC1021
  9
$DWGCODEPAGE
  3
ANSI_1252
  9
$EXTMAX
 10
31.5
 20
17.5
 30
0.0
  9
$EXTMIN
 10
0.0
 20
0.0
 30
0.0
  9
$LIMMIN
 10
0.0
 20
0.0
  9
$LIMMAX
 10
31.5
 20
17.5
  9
$VIEWCTR
 10
15.75
 20
8.75
  9
$VIEWSIZE
 40
17.5
  9
$CLAYER
  8
0
  9
$LTSCALE
 40
1.7325
  9
$CELTYPE
  6
BYLAYER
  9
$DIMSCALE
 40
1.0
  9
$DIMASZ
 40
0.1875
  9
$DIMEXO
 40
0.0625
  9
$DIMDLI
 40
1.197
  9
$DIMEXE
 40
0.125
  9
$DIMCEN
 40
0.2835
  9
$DIMLFAC
 40
1.0
  9
$DIMBLK
  1
_CLOSED
  9
$DIMTXT
 40
0.15625
  9
$DIMTOL
 70
0
  9
$DIMLIM
 70
0
  9
$DIMTFAC
 40
1.0
  9
$DIMGAP
 40
0.09
  9
$DIMDSEP
 70
46
  9
$PDMODE
 70
3
  9
$PDSIZE
 40
0.3125
  9
$HANDSEED
  5
250
  9
$TILEMODE
 70
1
  9
$MEASUREMENT
 70
0
  9
$INSUNITS
 70
1
  0
ENDSEC
  0
SECTION
  2
CLASSES
  0
CLASS
  1
ACDBDICTIONARYWDFLT
  2
AcDbDictionaryWithDefault
  3
AutoCAD 2000
 90
0
 91
1
280
0
281
0
  0
CLASS
  1
ACDBPLACEHOLDER
  2
AcDbPlaceHolder
  3
AutoCAD 2000
 90
0
 91
1
280
0
281
0
  0
CLASS
  1
LAYOUT
  2
AcDbLayout
  3
AutoCAD 2000
 90
0
 91
0
280
0
281
0
  0
ENDSEC
  0
SECTION
  2
TABLES
  0
TABLE
  2
VPORT
  5
8
100
AcDbSymbolTable
 70
2
  0
VPORT
  5
1F4
100
AcDbSymbolTableRecord
100
AcDbViewportTableRecord
  2
*ACTIVE
 70
0
 10
0.0
 20
0.0
 11
1.0
 21
1.0
 12
15.75
 22
8.75
 13
0.0
 23
0.0
 14
1.0
 24
1.0
 15
0.0
 25
0.0
 16
0.0
 26
0.0
 36
1.0
 17
0.0
 27
0.0
 37
0.0
 40
17.5
 41
1.8
 42
50.0
 43
0.0
 44
0.0
 50
0.0
 51
0.0
 71
0
 72
100
 73
1
 74
1
 75
0
 76
0
 77
0
 78
0
  0
ENDTAB
  0
TABLE
  2
LTYPE
  5
5
100
AcDbSymbolTable
 70
6
  0
LTYPE
  5
14
100
AcDbSymbolTableRecord
100
AcDbLinetypeTableRecord
  2
BYBLOCK
 70
0
  3

 72
65
 73
0
 40
0.0
  0
LTYPE
  5
15
100
AcDbSymbolTableRecord
100
AcDbLinetypeTableRecord
  2
BYLAYER
 70
0
  3

 72
65
 73
0
 40
0.0
  0
LTYPE
  5
16
100
AcDbSymbolTableRecord
100
AcDbLinetypeTableRecord
  2
CONTINUOUS
 70
64
  3
Solid line
 72
65
 73
0
 40
0.0
  0
LTYPE
  5
1F5
100
AcDbSymbolTableRecord
100
AcDbLinetypeTableRecord
  2
CENTER
 70
64
  3
____ _ ____ _ ____ _ ____ _ ____ _ ____ _ ____
 72
65
 73
4
 40
0.6
 49
0.375
 74
0
 49
-0.075
 74
0
 49
0.075
 74
0
 49
-0.075
 74
0
  0
LTYPE
  5
1F6
100
AcDbSymbolTableRecord
100
AcDbLinetypeTableRecord
  2
HIDDEN
 70
64
  3
- - - - - - - - - - - - - - - - - - - -
 72
65
 73
2
 40
0.2
 49
0.1
 74
0
 49
-0.1
 74
0
  0
LTYPE
  5
1F7
100
AcDbSymbolTableRecord
100
AcDbLinetypeTableRecord
  2
PHANTOM
 70
64
  3
_____ _ _ _____ _ _ _____ _ _ _____
 72
65
 73
6
 40
0.8
 49
0.45
 74
0
 49
-0.05
 74
0
 49
0.1
 74
0
 49
-0.05
 74
0
 49
0.1
 74
0
 49
-0.05
 74
0
  0
LTYPE
  5
1F8
100
AcDbSymbolTableRecord
100
AcDbLinetypeTableRecord
  2
DOT
 70
64
  3
. . . . . . . . . . . . . . . . . . . .
 72
65
 73
2
 40
0.2
 49
0.1
 74
0
 49
-0.1
 74
0
  0
LTYPE
  5
1F9
100
AcDbSymbolTableRecord
100
AcDbLinetypeTableRecord
  2
DASHED
 70
64
  3
- - - - - - - - - - - - - - - - - - - -
 72
65
 73
2
 40
0.2
 49
0.1
 74
0
 49
-0.1
 74
0
  0
ENDTAB
  0
TABLE
  2
LAYER
  5
2
100
AcDbSymbolTable
 70
36
  0
LAYER
  5
10
100
AcDbSymbolTableRecord
100
AcDbLayerTableRecord
  2
0
 70
0
 62
7
  6
CONTINUOUS
370
-3
390
F
  0
LAYER
  5
1FA
100
AcDbSymbolTableRecord
100
AcDbLayerTableRecord
  2
DEFAULT_1
 70
0
 62
7
  6
CENTER
370
-3
390
F
  0
LAYER
  5
1FB
100
AcDbSymbolTableRecord
100
AcDbLayerTableRecord
  2
DEFAULT_2
 70
0
 62
8
  6
HIDDEN
370
-3
390
F
  0
LAYER
  5
1FC
100
AcDbSymbolTableRecord
100
AcDbLayerTableRecord
  2
DEFAULT_3
 70
0
 62
7
  6
PHANTOM
370
-3
390
F
  0
LAYER
  5
1FD
100
AcDbSymbolTableRecord
100
AcDbLayerTableRecord
  2
01___PRT_ALL_DTM_PLN
 70
0
 62
7
  6
CONTINUOUS
370
-3
390
F
  0
LAYER
  5
1FE
100
AcDbSymbolTableRecord
100
AcDbLayerTableRecord
  2
01___PRT_DEF_DTM_PLN
 70
0
 62
7
  6
CONTINUOUS
370
-3
390
F
  0
LAYER
  5
1FF
100
AcDbSymbolTableRecord
100
AcDbLayerTableRecord
  2
02___PRT_ALL_AXES
 70
0
 62
7
  6
CONTINUOUS
370
-3
390
F
  0
LAYER
  5
200
100
AcDbSymbolTableRecord
100
AcDbLayerTableRecord
  2
03___PRT_ALL_CURVES
 70
0
 62
7
  6
CONTINUOUS
370
-3
390
F
  0
LAYER
  5
201
100
AcDbSymbolTableRecord
100
AcDbLayerTableRecord
  2
04___PRT_ALL_DTM_PNT
 70
0
 62
7
  6
CONTINUOUS
370
-3
390
F
  0
LAYER
  5
202
100
AcDbSymbolTableRecord
100
AcDbLayerTableRecord
  2
05___PRT_ALL_DTM_CSYS
 70
0
 62
7
  6
CONTINUOUS
370
-3
390
F
  0
LAYER
  5
203
100
AcDbSymbolTableRecord
100
AcDbLayerTableRecord
  2
05___PRT_DEF_DTM_CSYS
 70
0
 62
7
  6
CONTINUOUS
370
-3
390
F
  0
LAYER
  5
204
100
AcDbSymbolTableRecord
100
AcDbLayerTableRecord
  2
06___PRT_ALL_SURFS
 70
0
 62
7
  6
CONTINUOUS
370
-3
390
F
  0
ENDTAB
  0
TABLE
  2
STYLE
  5
3
100
AcDbSymbolTable
 70
1
  0
STYLE
  5
11
100
AcDbSymbolTableRecord
100
AcDbTextStyleTableRecord
  2
STANDARD
 70
0
 40
0.0
 41
0.8
 50
0.0
 71
0
 42
0.2
  3
txt
  4

  0
STYLE
  5
205
100
AcDbSymbolTableRecord
100
AcDbTextStyleTableRecord
  2
TEXTSTYLE_1
 70
0
 40
0.0
 41
0.8
 50
0.0
 71
0
 42
0.2
  3
gdt
  4

  0
ENDTAB
  0
TABLE
  2
VIEW
  5
6
100
AcDbSymbolTable
 70
0
  0
ENDTAB
  0
TABLE
  2
UCS
  5
7
100
AcDbSymbolTable
 70
0
  0
ENDTAB
  0
TABLE
  2
APPID
  5
9
100
AcDbSymbolTable
 70
1
  0
APPID
  5
206
100
AcDbSymbolTableRecord
100
AcDbRegAppTableRecord
  2
ACAD
 70
0
  0
ENDTAB
  0
TABLE
  2
BLOCK_RECORD
  5
1
100
AcDbSymbolTable
 70
0
  0
BLOCK_RECORD
  5
207
100
AcDbSymbolTableRecord
100
AcDbBlockTableRecord
  2
*Model_Space
  0
BLOCK_RECORD
  5
208
100
AcDbSymbolTableRecord
100
AcDbBlockTableRecord
  2
*Paper_Space
  0
ENDTAB
  0
TABLE
  2
DIMSTYLE
  5
A
100
AcDbSymbolTable
 70
1
100
AcDbDimStyleTable
 71
0
  0
DIMSTYLE
105
209
100
AcDbSymbolTableRecord
100
AcDbDimStyleTableRecord
  2
STANDARD
 70
0
  3

  4

 40
1.0
 41
0.1875
 42
0.0625
 43
0.38
 44
0.125
 45
0.0
 46
0.0
 47
0.01
 48
0.01
140
0.15625
141
0.09
142
0.0
143
25.4
144
1.0
145
0.0
146
1.0
147
0.09
 71
0.0
 72
0.0
 73
1
 74
1
 75
0
 76
0
 77
0
 78
4
170
0
171
2
172
0
173
0
174
0
175
0
176
0
177
0
178
0
270
2
271
2
272
2
273
2
274
2
275
0
280
0
281
0
282
0
283
1
284
4
285
0
286
0
287
3
288
0
340
11
278
46
  0
ENDTAB
  0
ENDSEC
  0
SECTION
  2
BLOCKS
  0
BLOCK
  5
20
100
AcDbEntity
  8
0
100
AcDbBlockBegin
  2
*Model_Space
 70
0
 10
0.0
 20
0.0
 30
0.0
  3
*Model_Space
  1

  0
ENDBLK
  5
21
100
AcDbEntity
  8
0
100
AcDbBlockEnd
  0
BLOCK
  5
1C
100
AcDbEntity
  8
0
100
AcDbBlockBegin
  2
*Paper_Space
 70
0
 10
0.0
 20
0.0
 30
0.0
  3
*Paper_Space
  1

  0
ENDBLK
  5
1D
100
AcDbEntity
  8
0
100
AcDbBlockEnd
  0
ENDSEC
  0
SECTION
  2
ENTITIES
  0
LINE
  5
20A
100
AcDbEntity
  8
0
100
AcDbLine
 62
1
  6
CONTINUOUS
 10
24.5225001385
 20
15.8218734791
 11
24.5225001385
 21
15.6418734791
  0
LINE
  5
20B
100
AcDbEntity
  8
0
100
AcDbLine
 62
1
  6
CONTINUOUS
 10
26.7109114171
 20
14.8822204028
 11
26.7109114171
 21
15.0522204028
  0
LINE
  5
20C
100
AcDbEntity
  8
0
100
AcDbLine
 62
1
  6
CONTINUOUS
 10
26.7109114171
 20
15.8323513361
 11
26.7109114171
 21
16.0023513361
  0
LINE
  5
20D
100
AcDbEntity
  8
0
100
AcDbLine
 62
1
  6
CONTINUOUS
 10
26.8909114171
 20
15.99581061
 11
26.8909114171
 21
15.8323513361
  0
LINE
  5
20E
100
AcDbEntity
  8
0
100
AcDbLine
 62
1
  6
CONTINUOUS
 10
26.8909114171
 20
15.0522204028
 11
26.8909114171
 21
14.8724731972
  0
LINE
  5
20F
100
AcDbEntity
  8
0
100
AcDbLine
 62
1
  6
CONTINUOUS
 10
28.3499114171
 20
15.2068734791
 11
28.3499114171
 21
15.2318734791
  0
LINE
  5
210
100
AcDbEntity
  8
0
100
AcDbLine
 62
1
  6
CONTINUOUS
 10
26.7109114171
 20
15.0522204028
 11
26.8909114171
 21
15.0522204028
  0
LINE
  5
211
100
AcDbEntity
  8
0
100
AcDbLine
 62
1
  6
CONTINUOUS
 10
30.0699114171
 20
15.1568734791
 11
28.3999114171
 21
15.1568734791
  0
LINE
  5
212
100
AcDbEntity
  8
0
100
AcDbLine
 62
1
  6
CONTINUOUS
 10
30.3109114171
 20
15.2303144842
 11
30.4909114171
 21
15.2303144842
  0
LINE
  5
213
100
AcDbEntity
  8
0
100
AcDbLine
 62
1
  6
CONTINUOUS
 10
28.3999114171
 20
15.2818734791
 11
30.0699114171
 21
15.2818734791
  0
LINE
  5
214
100
AcDbEntity
  8
0
100
AcDbLine
 62
1
  6
CONTINUOUS
 10
24.5225001385
 20
15.6418734791
 11
24.3525001385
 21
15.6418734791
  0
LINE
  5
215
100
AcDbEntity
  8
0
100
AcDbLine
 62
1
  6
CONTINUOUS
 10
30.4909114171
 20
15.6998399787
 11
30.3109114171
 21
15.6998399787
  0
LINE
  5
216
100
AcDbEntity
  8
0
100
AcDbLine
 62
1
  6
CONTINUOUS
 10
24.3404434059
 20
15.8218734791
 11
24.5225001385
 21
15.8218734791
  0
LINE
  5
217
100
AcDbEntity
  8
0
100
AcDbLine
 62
1
  6
CONTINUOUS
 10
26.8909114171
 20
15.8323513361
 11
26.7109114171
 21
15.8323513361
  0
LINE
  5
218
100
AcDbEntity
  8
0
100
AcDbLine
 62
1
  6
CONTINUOUS
 10
30.1199114171
 20
15.2318734791
 11
30.1199114171
 21
15.2068734791
  0
LINE
  5
219
100
AcDbEntity
  8
0
100
AcDbLine
 62
1
  6
CONTINUOUS
 10
30.3109114171
 20
15.0354919705
 11
30.3109114171
 21
15.2303144842
  0
LINE
  5
21A
100
AcDbEntity
  8
0
100
AcDbLine
 62
1
  6
CONTINUOUS
 10
30.3109114171
 20
15.6998399787
 11
30.3109114171
 21
15.8698399787
  0
LINE
  5
21B
100
AcDbEntity
  8
0
100
AcDbLine
 62
1
  6
CONTINUOUS
 10
30.4909114171
 20
15.8632302107
 11
30.4909114171
 21
15.6998399787
  0
LINE
  5
21C
100
AcDbEntity
  8
0
100
AcDbLine
 62
1
  6
CONTINUOUS
 10
30.4909114171
 20
15.2303144842
 11
30.4909114171
 21
15.0603144842
  0
LINE
  5
21D
100
AcDbEntity
  8
0
100
AcDbLine
 62
1
  6
CONTINUOUS
 10
31.4109114171
 20
15.829439256
 11
31.4109114171
 21
15.2054153518
  0
LINE
  5
21E
100
AcDbEntity
  8
0
100
AcDbLine
 62
1
  6
CONTINUOUS
 10
24.4939215095
 20
14.4500992855
 11
24.4939215095
 21
14.2700992855
  0
LINE
  5
21F
100
AcDbEntity
  8
0
100
AcDbLine
 62
1
  6
CONTINUOUS
 10
26.6823327881
 20
13.5104462092
 11
26.6823327881
 21
13.6804462092
  0
LINE
  5
220
100
AcDbEntity
  8
0
100
AcDbLine
 62
1
  6
CONTINUOUS
 10
26.6823327881
 20
14.4605771426
 11
26.6823327881
 21
14.6305771426
  0
LINE
  5
221
100
AcDbEntity
  8
0
100
AcDbLine
 62
1
  6
CONTINUOUS
 10
26.8623327881
 20
14.6240364165
 11
26.8623327881
 21
14.4605771426
  0
LINE
  5
222
100
AcDbEntity
  8
0
100
AcDbLine
 62
1
  6
CONTINUOUS
 10
26.8623327881
 20
13.6804462092
 11
26.8623327881
 21
13.5006990036
  0
LINE
  5
223
100
AcDbEntity
  8
0
100
AcDbLine
 62
1
  6
CONTINUOUS
 10
28.3213327881
 20
13.8350992855
 11
28.3213327881
 21
13.8600992855
  0
LINE
  5
224
100
AcDbEntity
  8
0
100
AcDbLine
 62
1
  6
CONTINUOUS
 10
26.6823327881
 20
13.6804462092
 11
26.8623327881
 21
13.6804462092
  0
LINE
  5
225
100
AcDbEntity
  8
0
100
AcDbLine
 62
1
  6
CONTINUOUS
 10
30.0413327881
 20
13.7850992855
 11
28.3713327881
 21
13.7850992855
  0
LINE
  5
226
100
AcDbEntity
  8
0
100
AcDbLine
 62
1
  6
CONTINUOUS
 10
30.2823327881
 20
13.8585402907
 11
30.4623327881
 21
13.8585402907
  0
LINE
  5
227
100
AcDbEntity
  8
0
100
AcDbLine
 62
1
  6
CONTINUOUS
 10
28.3713327881
 20
13.9100992855
 11
30.0413327881
 21
13.9100992855
  0
LINE
  5
228
100
AcDbEntity
  8
0
100
AcDbLine
 62
1
  6
CONTINUOUS
 10
24.4939215095
 20
14.2700992855
 11
24.3239215095
 21
14.2700992855
  0
LINE
  5
229
100
AcDbEntity
  8
0
100
AcDbLine
 62
1
  6
CONTINUOUS
 10
30.4623327881
 20
14.3280657851
 11
30.2823327881
 21
14.3280657851
  0
LINE
  5
22A
100
AcDbEntity
  8
0
100
AcDbLine
 62
1
  6
CONTINUOUS
 10
24.3118647769
 20
14.4500992855
 11
24.4939215095
 21
14.4500992855
  0
LINE
  5
22B
100
AcDbEntity
  8
0
100
AcDbLine
 62
1
  6
CONTINUOUS
 10
26.8623327881
 20
14.4605771426
 11
26.6823327881
 21
14.4605771426
  0
LINE
  5
22C
100
AcDbEntity
  8
0
100
AcDbLine
 62
1
  6
CONTINUOUS
 10
30.0913327881
 20
13.8600992855
 11
30.0913327881
 21
13.8350992855
  0
LINE
  5
22D
100
AcDbEntity
  8
0
100
AcDbLine
 62
1
  6
CONTINUOUS
 10
30.2823327881
 20
13.6637177769
 11
30.2823327881
 21
13.8585402907
  0
LINE
  5
22E
100
AcDbEntity
  8
0
100
AcDbLine
 62
1
  6
CONTINUOUS
 10
30.2823327881
 20
14.3280657851
 11
30.2823327881
 21
14.4980657851
  0
LINE
  5
22F
100
AcDbEntity
  8
0
100
AcDbLine
 62
1
  6
CONTINUOUS
 10
30.4623327881
 20
14.4914560171
 11
30.4623327881
 21
14.3280657851
  0
LINE
  5
230
100
AcDbEntity
  8
0
100
AcDbLine
 62
1
  6
CONTINUOUS
 10
30.4623327881
 20
13.8585402907
 11
30.4623327881
 21
13.6885402907
  0
LINE
  5
231
100
AcDbEntity
  8
0
100
AcDbLine
 62
1
  6
CONTINUOUS
 10
31.3823327881
 20
14.4576650625
 11
31.3823327881
 21
13.8336411582
  0
ARC
  5
232
100
AcDbEntity
  8
0
100
AcDbCircle
 62
1
  6
CONTINUOUS
 10
26.1295423522
 20
45.6874239589
 40
30.9361015026
100
AcDbArc
 50
278.1045581258
 51
279.8295874348
  0
CIRCLE
  5
233
100
AcDbEntity
  8
02___PRT_ALL_AXES
100
AcDbCircle
 62
1
  6
CONTINUOUS
 10
27.7279114171
 20
15.4318734791
 40
0.3
  0
CIRCLE
  5
234
100
AcDbEntity
  8
02___PRT_ALL_AXES
100
AcDbCircle
 62
1
  6
CONTINUOUS
 10
25.8149114171
 20
15.5733734791
 40
0.25
  0
CIRCLE
  5
235
100
AcDbEntity
  8
02___PRT_ALL_AXES
100
AcDbCircle
 62
1
  6
CONTINUOUS
 10
26.6969114171
 20
15.4877983667
 40
0.25
  0
CIRCLE
  5
236
100
AcDbEntity
  8
02___PRT_ALL_AXES
100
AcDbCircle
 62
1
  6
CONTINUOUS
 10
24.9929114171
 20
15.7058734791
 40
0.15
  0
ARC
  5
237
100
AcDbEntity
  8
0
100
AcDbCircle
 62
1
  6
CONTINUOUS
 10
30.0699114171
 20
15.2318734791
 40
0.05
100
AcDbArc
 50
0.0
 51
90.0
  0
ARC
  5
238
100
AcDbEntity
  8
0
100
AcDbCircle
 62
1
  6
CONTINUOUS
 10
30.0699114171
 20
15.2068734791
 40
0.05
100
AcDbArc
 50
270.0
 51
360.0
  0
ARC
  5
239
100
AcDbEntity
  8
0
100
AcDbCircle
 62
1
  6
CONTINUOUS
 10
28.3999114171
 20
15.2318734791
 40
0.05
100
AcDbArc
 50
90.0
 51
180.0
  0
ARC
  5
23A
100
AcDbEntity
  8
0
100
AcDbCircle
 62
1
  6
CONTINUOUS
 10
28.3999114171
 20
15.2068734791
 40
0.05
100
AcDbArc
 50
180.0
 51
270.0
  0
ARC
  5
23B
100
AcDbEntity
  8
0
100
AcDbCircle
 62
1
  6
CONTINUOUS
 10
26.1009637299
 20
44.3156497665
 40
30.9361015026
100
AcDbArc
 50
278.104558113
 51
279.829587422
  0
CIRCLE
  5
23C
100
AcDbEntity
  8
02___PRT_ALL_AXES
100
AcDbCircle
 62
1
  6
CONTINUOUS
 10
27.6993327881
 20
14.0600992855
 40
0.3
  0
CIRCLE
  5
23D
100
AcDbEntity
  8
02___PRT_ALL_AXES
100
AcDbCircle
 62
1
  6
CONTINUOUS
 10
25.7863327881
 20
14.2015992855
 40
0.25
  0
CIRCLE
  5
23E
100
AcDbEntity
  8
02___PRT_ALL_AXES
100
AcDbCircle
 62
1
  6
CONTINUOUS
 10
26.6683327881
 20
14.1160241731
 40
0.25
  0
CIRCLE
  5
23F
100
AcDbEntity
  8
02___PRT_ALL_AXES
100
AcDbCircle
 62
1
  6
CONTINUOUS
 10
24.9643327881
 20
14.3340992855
 40
0.15
  0
ARC
  5
240
100
AcDbEntity
  8
0
100
AcDbCircle
 62
1
  6
CONTINUOUS
 10
30.0413327881
 20
13.8600992855
 40
0.05
100
AcDbArc
 50
0.0
 51
90.0
  0
ARC
  5
241
100
AcDbEntity
  8
0
100
AcDbCircle
 62
1
  6
CONTINUOUS
 10
30.0413327881
 20
13.8350992855
 40
0.05
100
AcDbArc
 50
270.0
 51
360.0
  0
ARC
  5
242
100
AcDbEntity
  8
0
100
AcDbCircle
 62
1
  6
CONTINUOUS
 10
28.3713327881
 20
13.8600992855
 40
0.05
100
AcDbArc
 50
90.0
 51
180.0
  0
ARC
  5
243
100
AcDbEntity
  8
0
100
AcDbCircle
 62
1
  6
CONTINUOUS
 10
28.3713327881
 20
13.8350992855
 40
0.05
100
AcDbArc
 50
180.0
 51
270.0
  0
SPLINE
  5
244
100
AcDbEntity
  8
0
100
AcDbSpline
 62
1
  6
CONTINUOUS
 70
0
 71
3
 72
25
 73
21
 74
0
 42
0.0000001
 43
0.0000001
 44
0.0000000001
 40
0.0
 40
0.0
 40
0.0
 40
0.0
 40
0.0058279493
 40
0.0277225203
 40
0.0469083675
 40
0.0813622302
 40
0.1222465398
 40
0.1627852462
 40
0.2030598723
 40
0.2431073244
 40
0.3229133871
 40
0.4026271362
 40
0.482290868
 40
0.5619282204
 40
0.6415579504
 40
0.7211918677
 40
0.8008362078
 40
0.8804929419
 40
0.9601616983
 40
1.0
 40
1.0
 40
1.0
 40
1.0
 10
24.3404434059
 20
15.8218734791
 30
0.0
 10
24.3432792518
 20
15.8256084207
 30
0.0
 10
24.3573773868
 20
15.8429203415
 30
0.0
 10
24.3852380547
 20
15.8686618958
 30
0.0
 10
24.4356969698
 20
15.9028149809
 30
0.0
 10
24.5072973727
 20
15.9304807293
 30
0.0
 10
24.5986390331
 20
15.948870841
 30
0.0
 10
24.6945687421
 20
15.9679567921
 30
0.0
 10
24.7906382246
 20
15.9826194216
 30
0.0
 10
24.9186548296
 20
15.9961814633
 30
0.0
 10
25.0788301328
 20
16.0054074602
 30
0.0
 10
25.2708450673
 20
16.0145056823
 30
0.0
 10
25.4628816078
 20
16.0200032414
 30
0.0
 10
25.6549023103
 20
16.0226039445
 30
0.0
 10
25.8469169358
 20
16.0226683115
 30
0.0
 10
26.0389242576
 20
16.0206284319
 30
0.0
 10
26.2309264937
 20
16.0168801216
 30
0.0
 10
26.4229260166
 20
16.0118285011
 30
0.0
 10
26.5829188033
 20
16.0067778099
 30
0.0
 10
26.678912321
 20
16.0034760499
 30
0.0
 10
26.7109114171
 20
16.0023513361
 30
0.0
  0
SPLINE
  5
245
100
AcDbEntity
  8
0
100
AcDbSpline
 62
1
  6
CONTINUOUS
 70
0
 71
3
 72
26
 73
22
 74
0
 42
0.0000001
 43
0.0000001
 44
0.0000000001
 40
0.0
 40
0.0
 40
0.0
 40
0.0
 40
0.0315799317
 40
0.0877229056
 40
0.1438647874
 40
0.2000053636
 40
0.2561450852
 40
0.3122843778
 40
0.3684236807
 40
0.4245633305
 40
0.4807033393
 40
0.5368435643
 40
0.5929839131
 40
0.6491242619
 40
0.7052645075
 40
0.7614046603
 40
0.8175447514
 40
0.8736848219
 40
0.9298248821
 40
0.9859649732
 40
1.0
 40
1.0
 40
1.0
 40
1.0
 10
26.8909114171
 20
15.99581061
 30
0.0
 10
26.9269119159
 20
15.9944675956
 30
0.0
 10
27.0269126256
 20
15.9906921145
 30
0.0
 10
27.1909091948
 20
15.9844037144
 30
0.0
 10
27.3829091772
 20
15.9771956663
 30
0.0
 10
27.5749099621
 20
15.9701093656
 30
0.0
 10
27.7669106789
 20
15.9631018291
 30
0.0
 10
27.95891144
 20
15.9561355523
 30
0.0
 10
28.1509120518
 20
15.9491673967
 30
0.0
 10
28.3429120459
 20
15.9421597795
 30
0.0
 10
28.5349117739
 20
15.9351161517
 30
0.0
 10
28.7269116367
 20
15.9280544849
 30
0.0
 10
28.9189114164
 20
15.920980018
 30
0.0
 10
29.1109112241
 20
15.9139056767
 30
0.0
 10
29.3029112607
 20
15.9068436238
 30
0.0
 10
29.4949113076
 20
15.8997898568
 30
0.0
 10
29.6869113895
 20
15.8927424863
 30
0.0
 10
29.8789113908
 20
15.8856958016
 30
0.0
 10
30.0709114797
 20
15.8786515046
 30
0.0
 10
30.2149114365
 20
15.8733649209
 30
0.0
 10
30.2949114177
 20
15.8704274807
 30
0.0
 10
30.3109114171
 20
15.8698399787
 30
0.0
  0
LINE
  5
246
100
AcDbEntity
  8
0
100
AcDbLine
 62
1
  6
CONTINUOUS
 10
30.4909114171
 20
15.8632302107
 11
31.4109114171
 21
15.829439256
  0
SPLINE
  5
247
100
AcDbEntity
  8
0
100
AcDbSpline
 62
1
  6
CONTINUOUS
 70
0
 71
3
 72
26
 73
22
 74
0
 42
0.0000001
 43
0.0000001
 44
0.0000000001
 40
0.0
 40
0.0
 40
0.0
 40
0.0
 40
0.0141227891
 40
0.0705759542
 40
0.1269687259
 40
0.1833044603
 40
0.2395873322
 40
0.2958217421
 40
0.3520120012
 40
0.4081621943
 40
0.4642748272
 40
0.5203527108
 40
0.5764001289
 40
0.6324228682
 40
0.6884285245
 40
0.7444263845
 40
0.8004244532
 40
0.8564288016
 40
0.9124437532
 40
0.9684730785
 40
1.0
 40
1.0
 40
1.0
 40
1.0
 10
30.3109114171
 20
15.0354919705
 30
0.0
 10
30.2949135611
 20
15.0333454926
 30
0.0
 10
30.2149566135
 20
15.0226986099
 30
0.0
 10
30.0710146133
 20
15.0042737464
 30
0.0
 10
29.8790085635
 20
14.9814054491
 30
0.0
 10
29.687001586
 20
14.9602543172
 30
0.0
 10
29.4949940836
 20
14.9408305068
 30
0.0
 10
29.3029868604
 20
14.9231314289
 30
0.0
 10
29.1109796446
 20
14.9071691734
 30
0.0
 10
28.9189757229
 20
14.8929385104
 30
0.0
 10
28.7269710484
 20
14.880569642
 30
0.0
 10
28.5349637215
 20
14.8702253234
 30
0.0
 10
28.3429538624
 20
14.8620570102
 30
0.0
 10
28.1509409475
 20
14.8562124639
 30
0.0
 10
27.9589245863
 20
14.8528771675
 30
0.0
 10
27.7669108638
 20
14.8518996591
 30
0.0
 10
27.5749005255
 20
14.8530730008
 30
0.0
 10
27.3828929432
 20
14.8561949325
 30
0.0
 10
27.1908877938
 20
14.8610941308
 30
0.0
 10
27.0268864181
 20
14.8665508092
 30
0.0
 10
26.9269053377
 20
14.8707968555
 30
0.0
 10
26.8909114171
 20
14.8724731972
 30
0.0
  0
SPLINE
  5
248
100
AcDbEntity
  8
0
100
AcDbSpline
 62
1
  6
CONTINUOUS
 70
0
 71
3
 72
24
 73
20
 74
0
 42
0.0000001
 43
0.0000001
 44
0.0000000001
 40
0.0
 40
0.0
 40
0.0
 40
0.0
 40
0.0379796877
 40
0.114036895
 40
0.1902915672
 40
0.2668458996
 40
0.3437842577
 40
0.4211747898
 40
0.4991286551
 40
0.5778542285
 40
0.6576234311
 40
0.7387984134
 40
0.7803241269
 40
0.8229428872
 40
0.8673440313
 40
0.9150500853
 40
0.9566439872
 40
0.9784123927
 40
1.0
 40
1.0
 40
1.0
 40
1.0
 10
26.7109114171
 20
14.8822204028
 30
0.0
 10
26.6789009018
 20
14.8842196356
 30
0.0
 10
26.5828157971
 20
14.8906833727
 30
0.0
 10
26.4226651063
 20
14.9040674345
 30
0.0
 10
26.2305325564
 20
14.9252521596
 30
0.0
 10
26.0384288544
 20
14.9526474709
 30
0.0
 10
25.8463517441
 20
14.9862994871
 30
0.0
 10
25.6542215799
 20
15.025976283
 30
0.0
 10
25.4619723469
 20
15.0720769113
 30
0.0
 10
25.2696303088
 20
15.1259173083
 30
0.0
 10
25.0773167363
 20
15.1891457583
 30
0.0
 10
24.917242594
 20
15.2495399438
 30
0.0
 10
24.7896669581
 20
15.3063593462
 30
0.0
 10
24.6929844777
 20
15.3558522276
 30
0.0
 10
24.5954383295
 20
15.4146686999
 30
0.0
 10
24.505381869
 20
15.4832894884
 30
0.0
 10
24.4377455395
 20
15.5484063114
 30
0.0
 10
24.3873796628
 20
15.5994742035
 30
0.0
 10
24.3634155943
 20
15.6272617436
 30
0.0
 10
24.3525001385
 20
15.6418734791
 30
0.0
  0
SPLINE
  5
249
100
AcDbEntity
  8
0
100
AcDbSpline
 62
1
  6
CONTINUOUS
 70
0
 71
3
 72
25
 73
21
 74
0
 42
0.0000001
 43
0.0000001
 44
0.0000000001
 40
0.0
 40
0.0
 40
0.0
 40
0.0
 40
0.0058279493
 40
0.0277225203
 40
0.0469083675
 40
0.0813622302
 40
0.1222465398
 40
0.1627852462
 40
0.2030598723
 40
0.2431073244
 40
0.3229133871
 40
0.4026271362
 40
0.482290868
 40
0.5619282204
 40
0.6415579504
 40
0.7211918677
 40
0.8008362078
 40
0.8804929419
 40
0.9601616983
 40
1.0
 40
1.0
 40
1.0
 40
1.0
 10
24.3118647769
 20
14.4500992855
 30
0.0
 10
24.3147006228
 20
14.4538342271
 30
0.0
 10
24.3287987577
 20
14.4711461479
 30
0.0
 10
24.3566594257
 20
14.4968877022
 30
0.0
 10
24.4071183408
 20
14.5310407873
 30
0.0
 10
24.4787187437
 20
14.5587065358
 30
0.0
 10
24.5700604041
 20
14.5770966474
 30
0.0
 10
24.6659901131
 20
14.5961825985
 30
0.0
 10
24.7620595956
 20
14.6108452281
 30
0.0
 10
24.8900762005
 20
14.6244072697
 30
0.0
 10
25.0502515038
 20
14.6336332667
 30
0.0
 10
25.2422664383
 20
14.6427314888
 30
0.0
 10
25.4343029788
 20
14.6482290479
 30
0.0
 10
25.6263236812
 20
14.650829751
 30
0.0
 10
25.8183383068
 20
14.6508941179
 30
0.0
 10
26.0103456286
 20
14.6488542383
 30
0.0
 10
26.2023478646
 20
14.6451059281
 30
0.0
 10
26.3943473876
 20
14.6400543075
 30
0.0
 10
26.5543401743
 20
14.6350036163
 30
0.0
 10
26.650333692
 20
14.6317018564
 30
0.0
 10
26.6823327881
 20
14.6305771426
 30
0.0
  0
SPLINE
  5
24A
100
AcDbEntity
  8
0
100
AcDbSpline
 62
1
  6
CONTINUOUS
 70
0
 71
3
 72
26
 73
22
 74
0
 42
0.0000001
 43
0.0000001
 44
0.0000000001
 40
0.0
 40
0.0
 40
0.0
 40
0.0
 40
0.0315799317
 40
0.0877229056
 40
0.1438647874
 40
0.2000053636
 40
0.2561450852
 40
0.3122843778
 40
0.3684236807
 40
0.4245633305
 40
0.4807033393
 40
0.5368435643
 40
0.5929839131
 40
0.6491242619
 40
0.7052645075
 40
0.7614046603
 40
0.8175447514
 40
0.8736848219
 40
0.9298248821
 40
0.9859649732
 40
1.0
 40
1.0
 40
1.0
 40
1.0
 10
26.8623327881
 20
14.6240364165
 30
0.0
 10
26.8983332868
 20
14.622693402
 30
0.0
 10
26.9983339965
 20
14.6189179209
 30
0.0
 10
27.1623305657
 20
14.6126295209
 30
0.0
 10
27.3543305482
 20
14.6054214727
 30
0.0
 10
27.5463313331
 20
14.598335172
 30
0.0
 10
27.7383320498
 20
14.5913276355
 30
0.0
 10
27.930332811
 20
14.5843613588
 30
0.0
 10
28.1223334227
 20
14.5773932031
 30
0.0
 10
28.3143334168
 20
14.5703855859
 30
0.0
 10
28.5063331449
 20
14.5633419581
 30
0.0
 10
28.6983330077
 20
14.5562802913
 30
0.0
 10
28.8903327873
 20
14.5492058245
 30
0.0
 10
29.0823325951
 20
14.5421314832
 30
0.0
 10
29.2743326317
 20
14.5350694302
 30
0.0
 10
29.4663326786
 20
14.5280156633
 30
0.0
 10
29.6583327605
 20
14.5209682928
 30
0.0
 10
29.8503327618
 20
14.513921608
 30
0.0
 10
30.0423328507
 20
14.506877311
 30
0.0
 10
30.1863328075
 20
14.5015907273
 30
0.0
 10
30.2663327887
 20
14.4986532871
 30
0.0
 10
30.2823327881
 20
14.4980657851
 30
0.0
  0
LINE
  5
24B
100
AcDbEntity
  8
0
100
AcDbLine
 62
1
  6
CONTINUOUS
 10
30.4623327881
 20
14.4914560171
 11
31.3823327881
 21
14.4576650625
  0
SPLINE
  5
24C
100
AcDbEntity
  8
0
100
AcDbSpline
 62
1
  6
CONTINUOUS
 70
0
 71
3
 72
26
 73
22
 74
0
 42
0.0000001
 43
0.0000001
 44
0.0000000001
 40
0.0
 40
0.0
 40
0.0
 40
0.0
 40
0.0141227891
 40
0.0705759542
 40
0.1269687259
 40
0.1833044603
 40
0.2395873322
 40
0.2958217421
 40
0.3520120012
 40
0.4081621943
 40
0.4642748272
 40
0.5203527108
 40
0.5764001289
 40
0.6324228682
 40
0.6884285245
 40
0.7444263845
 40
0.8004244532
 40
0.8564288016
 40
0.9124437532
 40
0.9684730785
 40
1.0
 40
1.0
 40
1.0
 40
1.0
 10
30.2823327881
 20
13.6637177769
 30
0.0
 10
30.2663349321
 20
13.661571299
 30
0.0
 10
30.1863779845
 20
13.6509244163
 30
0.0
 10
30.0424359843
 20
13.6324995528
 30
0.0
 10
29.8504299345
 20
13.6096312556
 30
0.0
 10
29.658422957
 20
13.5884801237
 30
0.0
 10
29.4664154546
 20
13.5690563132
 30
0.0
 10
29.2744082314
 20
13.5513572354
 30
0.0
 10
29.0824010156
 20
13.5353949798
 30
0.0
 10
28.8903970939
 20
13.5211643169
 30
0.0
 10
28.6983924194
 20
13.5087954484
 30
0.0
 10
28.5063850925
 20
13.4984511299
 30
0.0
 10
28.3143752334
 20
13.4902828166
 30
0.0
 10
28.1223623185
 20
13.4844382704
 30
0.0
 10
27.9303459573
 20
13.4811029739
 30
0.0
 10
27.7383322348
 20
13.4801254655
 30
0.0
 10
27.5463218964
 20
13.4812988073
 30
0.0
 10
27.3543143142
 20
13.484420739
 30
0.0
 10
27.1623091648
 20
13.4893199372
 30
0.0
 10
26.9983077891
 20
13.4947766157
 30
0.0
 10
26.8983267087
 20
13.4990226619
 30
0.0
 10
26.8623327881
 20
13.5006990036
 30
0.0
  0
SPLINE
  5
24D
100
AcDbEntity
  8
0
100
AcDbSpline
 62
1
  6
CONTINUOUS
 70
0
 71
3
 72
24
 73
20
 74
0
 42
0.0000001
 43
0.0000001
 44
0.0000000001
 40
0.0
 40
0.0
 40
0.0
 40
0.0
 40
0.0379796877
 40
0.114036895
 40
0.1902915672
 40
0.2668458996
 40
0.3437842577
 40
0.4211747898
 40
0.4991286551
 40
0.5778542285
 40
0.6576234311
 40
0.7387984134
 40
0.7803241269
 40
0.8229428872
 40
0.8673440313
 40
0.9150500853
 40
0.9566439872
 40
0.9784123927
 40
1.0
 40
1.0
 40
1.0
 40
1.0
 10
26.6823327881
 20
13.5104462092
 30
0.0
 10
26.6503222727
 20
13.512445442
 30
0.0
 10
26.5542371681
 20
13.5189091791
 30
0.0
 10
26.3940864773
 20
13.532293241
 30
0.0
 10
26.2019539274
 20
13.5534779661
 30
0.0
 10
26.0098502254
 20
13.5808732774
 30
0.0
 10
25.8177731151
 20
13.6145252935
 30
0.0
 10
25.6256429508
 20
13.6542020895
 30
0.0
 10
25.4333937179
 20
13.7003027178
 30
0.0
 10
25.2410516798
 20
13.7541431148
 30
0.0
 10
25.0487381072
 20
13.8173715647
 30
0.0
 10
24.888663965
 20
13.8777657502
 30
0.0
 10
24.7610883291
 20
13.9345851527
 30
0.0
 10
24.6644058486
 20
13.9840780341
 30
0.0
 10
24.5668597005
 20
14.0428945064
 30
0.0
 10
24.47680324
 20
14.1115152949
 30
0.0
 10
24.4091669104
 20
14.1766321178
 30
0.0
 10
24.3588010338
 20
14.22770001
 30
0.0
 10
24.3348369652
 20
14.25548755
 30
0.0
 10
24.3239215095
 20
14.2700992855
 30
0.0
  0
ENDSEC
  0
SECTION
  2
OBJECTS
  0
DICTIONARY
  5
C
100
AcDbDictionary
280
0
281
1
  3
ACAD_GROUP
350
D
  3
ACAD_MLINESTYLE
350
17
  3
ACAD_LAYOUT
350
1A
  3
ACAD_PLOTSETTINGS
350
19
  3
ACAD_PLOTSTYLENAME
350
E
  0
DICTIONARY
  5
D
102
{ACAD_REACTORS
330
C
102
}
100
AcDbDictionary
280
0
281
1
  0
ACDBDICTIONARYWDFLT
  5
E
102
{ACAD_REACTORS
330
C
102
}
100
AcDbDictionary
281
1
  3
Normal
350
F
100
AcDbDictionaryWithDefault
340
F
  0
DICTIONARY
  5
17
102
{ACAD_REACTORS
330
C
102
}
100
AcDbDictionary
280
0
281
1
  3
Standard
350
18
  0
DICTIONARY
  5
19
102
{ACAD_REACTORS
330
C
102
}
100
AcDbDictionary
281
1
  0
DICTIONARY
  5
1A
102
{ACAD_REACTORS
330
C
102
}
100
AcDbDictionary
281
1
  3
Model
350
24E
  3
Layout1
350
24F
  0
ACDBPLACEHOLDER
  5
F
102
{ACAD_REACTORS
330
E
102
}
  0
MLINESTYLE
  5
18
102
{ACAD_REACTORS
330
17
102
}
100
AcDbMlineStyle
  2
STANDARD
 70
0
  3

 62
256
 51
90.0
 52
90.0
 71
2
 49
0.5
 62
256
  6
BYLAYER
 49
-0.5
 62
256
  6
BYLAYER
  0
LAYOUT
  5
24E
102
{ACAD_REACTORS
330
1A
102
}
100
AcDbPlotSettings
  1

  2
none_device
  4

  6

 40
0.0
 41
0.0
 42
0.0
 43
0.0
 44
800.1
 45
444.5
 46
0.0
 47
0.0
 48
0.0
 49
0.0
140
0.0
141
0.0
142
1.0
143
1.0
 70
1024
 72
0
 73
0
 74
0
  7

 75
0
147
1.0
148
0.0
149
0.0
100
AcDbLayout
  1
Model
 70
0
 71
0
 10
0.0
 20
0.0
 11
31.5
 21
17.5
 12
0.0
 22
0.0
 32
0.0
 14
0.0
 24
0.0
 34
0.0
 15
0.0
 25
0.0
 35
0.0
146
0.0
 13
0.0
 23
0.0
 33
0.0
 16
1.0
 26
0.0
 36
0.0
 17
0.0
 27
1.0
 37
0.0
 76
0
330
207
345
0
346
0
  0
LAYOUT
  5
24F
102
{ACAD_REACTORS
330
1A
102
}
100
AcDbPlotSettings
  1

  2
none_device
  4

  6

 40
0.0
 41
0.0
 42
0.0
 43
0.0
 44
800.1
 45
444.5
 46
0.0
 47
0.0
 48
0.0
 49
0.0
140
0.0
141
0.0
142
1.0
143
1.0
 70
0
 72
0
 73
0
 74
0
  7

 75
0
147
1.0
148
0.0
149
0.0
100
AcDbLayout
  1
Layout1
 70
0
 71
1
 10
0.0
 20
0.0
 11
31.5
 21
17.5
 12
0.0
 22
0.0
 32
0.0
 14
0.0
 24
0.0
 34
0.0
 15
0.0
 25
0.0
 35
0.0
146
0.0
 13
0.0
 23
0.0
 33
0.0
 16
1.0
 26
0.0
 36
0.0
 17
0.0
 27
1.0
 37
0.0
 76
0
330
208
345
0
346
0
  0
ENDSEC
  0
EOF
