999
DXF file: wing_ribss.dxf
999
Pro/ENGINEER 2013230 by Parametric Technology Corporation
  0
SECTION
  2
HEADER
  9
$ACADVER
  1
AC1021
  9
$DWGCODEPAGE
  3
ANSI_1252
  9
$EXTMAX
 10
31.5
 20
17.5
 30
0.0
  9
$EXTMIN
 10
0.0
 20
0.0
 30
0.0
  9
$LIMMIN
 10
0.0
 20
0.0
  9
$LIMMAX
 10
31.5
 20
17.5
  9
$VIEWCTR
 10
15.75
 20
8.75
  9
$VIEWSIZE
 40
17.5
  9
$CLAYER
  8
0
  9
$LTSCALE
 40
1.7325
  9
$CELTYPE
  6
BYLAYER
  9
$DIMSCALE
 40
1.0
  9
$DIMASZ
 40
0.1875
  9
$DIMEXO
 40
0.0625
  9
$DIMDLI
 40
1.197
  9
$DIMEXE
 40
0.125
  9
$DIMCEN
 40
0.2835
  9
$DIMLFAC
 40
1.0
  9
$DIMBLK
  1
_CLOSED
  9
$DIMTXT
 40
0.15625
  9
$DIMTOL
 70
0
  9
$DIMLIM
 70
0
  9
$DIMTFAC
 40
1.0
  9
$DIMGAP
 40
0.09
  9
$DIMDSEP
 70
46
  9
$PDMODE
 70
3
  9
$PDSIZE
 40
0.3125
  9
$HANDSEED
  5
232
  9
$TILEMODE
 70
1
  9
$MEASUREMENT
 70
0
  9
$INSUNITS
 70
1
  0
ENDSEC
  0
SECTION
  2
CLASSES
  0
CLASS
  1
ACDBDICTIONARYWDFLT
  2
AcDbDictionaryWithDefault
  3
AutoCAD 2000
 90
0
 91
1
280
0
281
0
  0
CLASS
  1
ACDBPLACEHOLDER
  2
AcDbPlaceHolder
  3
AutoCAD 2000
 90
0
 91
1
280
0
281
0
  0
CLASS
  1
LAYOUT
  2
AcDbLayout
  3
AutoCAD 2000
 90
0
 91
0
280
0
281
0
  0
ENDSEC
  0
SECTION
  2
TABLES
  0
TABLE
  2
VPORT
  5
8
100
AcDbSymbolTable
 70
2
  0
VPORT
  5
1F4
100
AcDbSymbolTableRecord
100
AcDbViewportTableRecord
  2
*ACTIVE
 70
0
 10
0.0
 20
0.0
 11
1.0
 21
1.0
 12
15.75
 22
8.75
 13
0.0
 23
0.0
 14
1.0
 24
1.0
 15
0.0
 25
0.0
 16
0.0
 26
0.0
 36
1.0
 17
0.0
 27
0.0
 37
0.0
 40
17.5
 41
1.8
 42
50.0
 43
0.0
 44
0.0
 50
0.0
 51
0.0
 71
0
 72
100
 73
1
 74
1
 75
0
 76
0
 77
0
 78
0
  0
ENDTAB
  0
TABLE
  2
LTYPE
  5
5
100
AcDbSymbolTable
 70
6
  0
LTYPE
  5
14
100
AcDbSymbolTableRecord
100
AcDbLinetypeTableRecord
  2
BYBLOCK
 70
0
  3

 72
65
 73
0
 40
0.0
  0
LTYPE
  5
15
100
AcDbSymbolTableRecord
100
AcDbLinetypeTableRecord
  2
BYLAYER
 70
0
  3

 72
65
 73
0
 40
0.0
  0
LTYPE
  5
16
100
AcDbSymbolTableRecord
100
AcDbLinetypeTableRecord
  2
CONTINUOUS
 70
64
  3
Solid line
 72
65
 73
0
 40
0.0
  0
LTYPE
  5
1F5
100
AcDbSymbolTableRecord
100
AcDbLinetypeTableRecord
  2
CENTER
 70
64
  3
____ _ ____ _ ____ _ ____ _ ____ _ ____ _ ____
 72
65
 73
4
 40
0.6
 49
0.375
 74
0
 49
-0.075
 74
0
 49
0.075
 74
0
 49
-0.075
 74
0
  0
LTYPE
  5
1F6
100
AcDbSymbolTableRecord
100
AcDbLinetypeTableRecord
  2
HIDDEN
 70
64
  3
- - - - - - - - - - - - - - - - - - - -
 72
65
 73
2
 40
0.2
 49
0.1
 74
0
 49
-0.1
 74
0
  0
LTYPE
  5
1F7
100
AcDbSymbolTableRecord
100
AcDbLinetypeTableRecord
  2
PHANTOM
 70
64
  3
_____ _ _ _____ _ _ _____ _ _ _____
 72
65
 73
6
 40
0.8
 49
0.45
 74
0
 49
-0.05
 74
0
 49
0.1
 74
0
 49
-0.05
 74
0
 49
0.1
 74
0
 49
-0.05
 74
0
  0
LTYPE
  5
1F8
100
AcDbSymbolTableRecord
100
AcDbLinetypeTableRecord
  2
DOT
 70
64
  3
. . . . . . . . . . . . . . . . . . . .
 72
65
 73
2
 40
0.2
 49
0.1
 74
0
 49
-0.1
 74
0
  0
LTYPE
  5
1F9
100
AcDbSymbolTableRecord
100
AcDbLinetypeTableRecord
  2
DASHED
 70
64
  3
- - - - - - - - - - - - - - - - - - - -
 72
65
 73
2
 40
0.2
 49
0.1
 74
0
 49
-0.1
 74
0
  0
ENDTAB
  0
TABLE
  2
LAYER
  5
2
100
AcDbSymbolTable
 70
36
  0
LAYER
  5
10
100
AcDbSymbolTableRecord
100
AcDbLayerTableRecord
  2
0
 70
0
 62
7
  6
CONTINUOUS
370
-3
390
F
  0
LAYER
  5
1FA
100
AcDbSymbolTableRecord
100
AcDbLayerTableRecord
  2
DEFAULT_1
 70
0
 62
7
  6
CENTER
370
-3
390
F
  0
LAYER
  5
1FB
100
AcDbSymbolTableRecord
100
AcDbLayerTableRecord
  2
DEFAULT_2
 70
0
 62
8
  6
HIDDEN
370
-3
390
F
  0
LAYER
  5
1FC
100
AcDbSymbolTableRecord
100
AcDbLayerTableRecord
  2
DEFAULT_3
 70
0
 62
7
  6
PHANTOM
370
-3
390
F
  0
LAYER
  5
1FD
100
AcDbSymbolTableRecord
100
AcDbLayerTableRecord
  2
01___PRT_ALL_DTM_PLN
 70
0
 62
7
  6
CONTINUOUS
370
-3
390
F
  0
LAYER
  5
1FE
100
AcDbSymbolTableRecord
100
AcDbLayerTableRecord
  2
01___PRT_DEF_DTM_PLN
 70
0
 62
7
  6
CONTINUOUS
370
-3
390
F
  0
LAYER
  5
1FF
100
AcDbSymbolTableRecord
100
AcDbLayerTableRecord
  2
02___PRT_ALL_AXES
 70
0
 62
7
  6
CONTINUOUS
370
-3
390
F
  0
LAYER
  5
200
100
AcDbSymbolTableRecord
100
AcDbLayerTableRecord
  2
03___PRT_ALL_CURVES
 70
0
 62
7
  6
CONTINUOUS
370
-3
390
F
  0
LAYER
  5
201
100
AcDbSymbolTableRecord
100
AcDbLayerTableRecord
  2
04___PRT_ALL_DTM_PNT
 70
0
 62
7
  6
CONTINUOUS
370
-3
390
F
  0
LAYER
  5
202
100
AcDbSymbolTableRecord
100
AcDbLayerTableRecord
  2
05___PRT_ALL_DTM_CSYS
 70
0
 62
7
  6
CONTINUOUS
370
-3
390
F
  0
LAYER
  5
203
100
AcDbSymbolTableRecord
100
AcDbLayerTableRecord
  2
05___PRT_DEF_DTM_CSYS
 70
0
 62
7
  6
CONTINUOUS
370
-3
390
F
  0
LAYER
  5
204
100
AcDbSymbolTableRecord
100
AcDbLayerTableRecord
  2
06___PRT_ALL_SURFS
 70
0
 62
7
  6
CONTINUOUS
370
-3
390
F
  0
ENDTAB
  0
TABLE
  2
STYLE
  5
3
100
AcDbSymbolTable
 70
1
  0
STYLE
  5
11
100
AcDbSymbolTableRecord
100
AcDbTextStyleTableRecord
  2
STANDARD
 70
0
 40
0.0
 41
0.8
 50
0.0
 71
0
 42
0.2
  3
txt
  4

  0
STYLE
  5
205
100
AcDbSymbolTableRecord
100
AcDbTextStyleTableRecord
  2
TEXTSTYLE_1
 70
0
 40
0.0
 41
0.8
 50
0.0
 71
0
 42
0.2
  3
gdt
  4

  0
ENDTAB
  0
TABLE
  2
VIEW
  5
6
100
AcDbSymbolTable
 70
0
  0
ENDTAB
  0
TABLE
  2
UCS
  5
7
100
AcDbSymbolTable
 70
0
  0
ENDTAB
  0
TABLE
  2
APPID
  5
9
100
AcDbSymbolTable
 70
1
  0
APPID
  5
206
100
AcDbSymbolTableRecord
100
AcDbRegAppTableRecord
  2
ACAD
 70
0
  0
ENDTAB
  0
TABLE
  2
BLOCK_RECORD
  5
1
100
AcDbSymbolTable
 70
0
  0
BLOCK_RECORD
  5
207
100
AcDbSymbolTableRecord
100
AcDbBlockTableRecord
  2
*Model_Space
  0
BLOCK_RECORD
  5
208
100
AcDbSymbolTableRecord
100
AcDbBlockTableRecord
  2
*Paper_Space
  0
ENDTAB
  0
TABLE
  2
DIMSTYLE
  5
A
100
AcDbSymbolTable
 70
1
100
AcDbDimStyleTable
 71
0
  0
DIMSTYLE
105
209
100
AcDbSymbolTableRecord
100
AcDbDimStyleTableRecord
  2
STANDARD
 70
0
  3

  4

 40
1.0
 41
0.1875
 42
0.0625
 43
0.38
 44
0.125
 45
0.0
 46
0.0
 47
0.01
 48
0.01
140
0.15625
141
0.09
142
0.0
143
25.4
144
1.0
145
0.0
146
1.0
147
0.09
 71
0.0
 72
0.0
 73
1
 74
1
 75
0
 76
0
 77
0
 78
4
170
0
171
2
172
0
173
0
174
0
175
0
176
0
177
0
178
0
270
2
271
2
272
2
273
2
274
2
275
0
280
0
281
0
282
0
283
1
284
4
285
0
286
0
287
3
288
0
340
11
278
46
  0
ENDTAB
  0
ENDSEC
  0
SECTION
  2
BLOCKS
  0
BLOCK
  5
20
100
AcDbEntity
  8
0
100
AcDbBlockBegin
  2
*Model_Space
 70
0
 10
0.0
 20
0.0
 30
0.0
  3
*Model_Space
  1

  0
ENDBLK
  5
21
100
AcDbEntity
  8
0
100
AcDbBlockEnd
  0
BLOCK
  5
1C
100
AcDbEntity
  8
0
100
AcDbBlockBegin
  2
*Paper_Space
 70
0
 10
0.0
 20
0.0
 30
0.0
  3
*Paper_Space
  1

  0
ENDBLK
  5
1D
100
AcDbEntity
  8
0
100
AcDbBlockEnd
  0
ENDSEC
  0
SECTION
  2
ENTITIES
  0
LINE
  5
20A
100
AcDbEntity
  8
0
100
AcDbLine
 62
1
  6
CONTINUOUS
 10
4.2973511203
 20
11.9683737421
 11
4.2973511203
 21
11.7883737421
  0
LINE
  5
20B
100
AcDbEntity
  8
0
100
AcDbLine
 62
1
  6
CONTINUOUS
 10
6.4857623989
 20
11.0287206657
 11
6.4857623989
 21
11.1987206657
  0
LINE
  5
20C
100
AcDbEntity
  8
0
100
AcDbLine
 62
1
  6
CONTINUOUS
 10
6.4857623989
 20
11.9788515991
 11
6.4857623989
 21
12.1488515991
  0
LINE
  5
20D
100
AcDbEntity
  8
0
100
AcDbLine
 62
1
  6
CONTINUOUS
 10
6.6657623989
 20
12.142310873
 11
6.6657623989
 21
11.9788515991
  0
LINE
  5
20E
100
AcDbEntity
  8
0
100
AcDbLine
 62
1
  6
CONTINUOUS
 10
6.6657623989
 20
11.1987206657
 11
6.6657623989
 21
11.0189734602
  0
LINE
  5
20F
100
AcDbEntity
  8
0
100
AcDbLine
 62
1
  6
CONTINUOUS
 10
8.1247623989
 20
11.3533737421
 11
8.1247623989
 21
11.3783737421
  0
LINE
  5
210
100
AcDbEntity
  8
0
100
AcDbLine
 62
1
  6
CONTINUOUS
 10
11.5380133275
 20
11.6205823025
 11
10.8647952453
 21
11.5060234556
  0
LINE
  5
211
100
AcDbEntity
  8
0
100
AcDbLine
 62
1
  6
CONTINUOUS
 10
6.4857623989
 20
11.1987206657
 11
6.6657623989
 21
11.1987206657
  0
LINE
  5
212
100
AcDbEntity
  8
0
100
AcDbLine
 62
1
  6
CONTINUOUS
 10
9.8447623989
 20
11.3033737421
 11
8.1747623989
 21
11.3033737421
  0
LINE
  5
213
100
AcDbEntity
  8
0
100
AcDbLine
 62
1
  6
CONTINUOUS
 10
10.0857623989
 20
11.3768147472
 11
10.2657623989
 21
11.3768147472
  0
LINE
  5
214
100
AcDbEntity
  8
0
100
AcDbLine
 62
1
  6
CONTINUOUS
 10
8.1747623989
 20
11.4283737421
 11
9.8447623989
 21
11.4283737421
  0
LINE
  5
215
100
AcDbEntity
  8
0
100
AcDbLine
 62
1
  6
CONTINUOUS
 10
10.844664697
 20
11.7198737421
 11
11.5296255991
 21
11.7198737421
  0
LINE
  5
216
100
AcDbEntity
  8
0
100
AcDbLine
 62
1
  6
CONTINUOUS
 10
4.2973511203
 20
11.7883737421
 11
4.1273511203
 21
11.7883737421
  0
LINE
  5
217
100
AcDbEntity
  8
0
100
AcDbLine
 62
1
  6
CONTINUOUS
 10
10.2657623989
 20
11.8463402417
 11
10.0857623989
 21
11.8463402417
  0
LINE
  5
218
100
AcDbEntity
  8
0
100
AcDbLine
 62
1
  6
CONTINUOUS
 10
4.1152943877
 20
11.9683737421
 11
4.2973511203
 21
11.9683737421
  0
LINE
  5
219
100
AcDbEntity
  8
0
100
AcDbLine
 62
1
  6
CONTINUOUS
 10
6.6657623989
 20
11.9788515991
 11
6.4857623989
 21
11.9788515991
  0
LINE
  5
21A
100
AcDbEntity
  8
0
100
AcDbLine
 62
1
  6
CONTINUOUS
 10
9.8947623989
 20
11.3783737421
 11
9.8947623989
 21
11.3533737421
  0
LINE
  5
21B
100
AcDbEntity
  8
0
100
AcDbLine
 62
1
  6
CONTINUOUS
 10
10.0857623989
 20
11.1819922334
 11
10.0857623989
 21
11.3768147472
  0
LINE
  5
21C
100
AcDbEntity
  8
0
100
AcDbLine
 62
1
  6
CONTINUOUS
 10
10.0857623989
 20
11.8463402417
 11
10.0857623989
 21
12.0163402417
  0
LINE
  5
21D
100
AcDbEntity
  8
0
100
AcDbLine
 62
1
  6
CONTINUOUS
 10
10.2657623989
 20
12.0097304736
 11
10.2657623989
 21
11.8463402417
  0
LINE
  5
21E
100
AcDbEntity
  8
0
100
AcDbLine
 62
1
  6
CONTINUOUS
 10
10.2657623989
 20
11.3768147472
 11
10.2657623989
 21
11.2068147472
  0
CIRCLE
  5
21F
100
AcDbEntity
  8
02___PRT_ALL_AXES
100
AcDbCircle
 62
1
  6
CONTINUOUS
 10
7.5027623989
 20
11.5783737421
 40
0.3
  0
CIRCLE
  5
220
100
AcDbEntity
  8
02___PRT_ALL_AXES
100
AcDbCircle
 62
1
  6
CONTINUOUS
 10
5.5897623989
 20
11.7198737421
 40
0.2625
  0
CIRCLE
  5
221
100
AcDbEntity
  8
02___PRT_ALL_AXES
100
AcDbCircle
 62
1
  6
CONTINUOUS
 10
6.4717623989
 20
11.6342986297
 40
0.225
  0
CIRCLE
  5
222
100
AcDbEntity
  8
02___PRT_ALL_AXES
100
AcDbCircle
 62
1
  6
CONTINUOUS
 10
4.7677623989
 20
11.8523737421
 40
0.15
  0
ARC
  5
223
100
AcDbEntity
  8
0
100
AcDbCircle
 62
1
  6
CONTINUOUS
 10
10.844664697
 20
11.6243229105
 40
0.12
100
AcDbArc
 50
185.8469519999
 51
279.6572905625
  0
ARC
  5
224
100
AcDbEntity
  8
0
100
AcDbCircle
 62
1
  6
CONTINUOUS
 10
10.844664697
 20
11.5998737421
 40
0.12
100
AcDbArc
 50
90.0
 51
174.1530480001
  0
ARC
  5
225
100
AcDbEntity
  8
0
100
AcDbCircle
 62
1
  6
CONTINUOUS
 10
9.8447623989
 20
11.3783737421
 40
0.05
100
AcDbArc
 50
0.0
 51
90.0
  0
ARC
  5
226
100
AcDbEntity
  8
0
100
AcDbCircle
 62
1
  6
CONTINUOUS
 10
9.8447623989
 20
11.3533737421
 40
0.05
100
AcDbArc
 50
270.0
 51
360.0
  0
ARC
  5
227
100
AcDbEntity
  8
0
100
AcDbCircle
 62
1
  6
CONTINUOUS
 10
8.1747623989
 20
11.3783737421
 40
0.05
100
AcDbArc
 50
90.0
 51
180.0
  0
ARC
  5
228
100
AcDbEntity
  8
0
100
AcDbCircle
 62
1
  6
CONTINUOUS
 10
8.1747623989
 20
11.3533737421
 40
0.05
100
AcDbArc
 50
180.0
 51
270.0
  0
ARC
  5
229
100
AcDbEntity
  8
0
100
AcDbCircle
 62
1
  6
CONTINUOUS
 10
11.5296255991
 20
11.6698737421
 40
0.05
100
AcDbArc
 50
279.6572905625
 51
90.0
  0
SPLINE
  5
22A
100
AcDbEntity
  8
0
100
AcDbSpline
 62
1
  6
CONTINUOUS
 70
0
 71
3
 72
25
 73
21
 74
0
 42
0.0000001
 43
0.0000001
 44
0.0000000001
 40
0.0
 40
0.0
 40
0.0
 40
0.0
 40
0.0058279493
 40
0.0277225203
 40
0.0469083675
 40
0.0813622302
 40
0.1222465398
 40
0.1627852462
 40
0.2030598723
 40
0.2431073244
 40
0.3229133871
 40
0.4026271362
 40
0.482290868
 40
0.5619282204
 40
0.6415579504
 40
0.7211918677
 40
0.8008362078
 40
0.8804929419
 40
0.9601616983
 40
1.0
 40
1.0
 40
1.0
 40
1.0
 10
4.1152943877
 20
11.9683737421
 30
0.0
 10
4.1181302336
 20
11.9721086836
 30
0.0
 10
4.1322283685
 20
11.9894206044
 30
0.0
 10
4.1600890365
 20
12.0151621587
 30
0.0
 10
4.2105479516
 20
12.0493152439
 30
0.0
 10
4.2821483545
 20
12.0769809923
 30
0.0
 10
4.3734900149
 20
12.0953711039
 30
0.0
 10
4.4694197239
 20
12.114457055
 30
0.0
 10
4.5654892064
 20
12.1291196846
 30
0.0
 10
4.6935058113
 20
12.1426817263
 30
0.0
 10
4.8536811146
 20
12.1519077232
 30
0.0
 10
5.0456960491
 20
12.1610059453
 30
0.0
 10
5.2377325896
 20
12.1665035044
 30
0.0
 10
5.429753292
 20
12.1691042075
 30
0.0
 10
5.6217679176
 20
12.1691685745
 30
0.0
 10
5.8137752394
 20
12.1671286949
 30
0.0
 10
6.0057774754
 20
12.1633803846
 30
0.0
 10
6.1977769984
 20
12.158328764
 30
0.0
 10
6.3577697851
 20
12.1532780729
 30
0.0
 10
6.4537633028
 20
12.1499763129
 30
0.0
 10
6.4857623989
 20
12.1488515991
 30
0.0
  0
SPLINE
  5
22B
100
AcDbEntity
  8
0
100
AcDbSpline
 62
1
  6
CONTINUOUS
 70
0
 71
3
 72
26
 73
22
 74
0
 42
0.0000001
 43
0.0000001
 44
0.0000000001
 40
0.0
 40
0.0
 40
0.0
 40
0.0
 40
0.0315799317
 40
0.0877229056
 40
0.1438647874
 40
0.2000053636
 40
0.2561450852
 40
0.3122843778
 40
0.3684236807
 40
0.4245633305
 40
0.4807033393
 40
0.5368435643
 40
0.5929839131
 40
0.6491242619
 40
0.7052645075
 40
0.7614046603
 40
0.8175447514
 40
0.8736848219
 40
0.9298248821
 40
0.9859649732
 40
1.0
 40
1.0
 40
1.0
 40
1.0
 10
6.6657623989
 20
12.142310873
 30
0.0
 10
6.7017628976
 20
12.1409678586
 30
0.0
 10
6.8017636073
 20
12.1371923775
 30
0.0
 10
6.9657601765
 20
12.1309039774
 30
0.0
 10
7.157760159
 20
12.1236959292
 30
0.0
 10
7.3497609439
 20
12.1166096286
 30
0.0
 10
7.5417616606
 20
12.1096020921
 30
0.0
 10
7.7337624218
 20
12.1026358153
 30
0.0
 10
7.9257630335
 20
12.0956676596
 30
0.0
 10
8.1177630276
 20
12.0886600425
 30
0.0
 10
8.3097627557
 20
12.0816164146
 30
0.0
 10
8.5017626185
 20
12.0745547478
 30
0.0
 10
8.6937623981
 20
12.067480281
 30
0.0
 10
8.8857622059
 20
12.0604059397
 30
0.0
 10
9.0777622425
 20
12.0533438867
 30
0.0
 10
9.2697622894
 20
12.0462901198
 30
0.0
 10
9.4617623713
 20
12.0392427493
 30
0.0
 10
9.6537623726
 20
12.0321960645
 30
0.0
 10
9.8457624615
 20
12.0251517675
 30
0.0
 10
9.9897624183
 20
12.0198651839
 30
0.0
 10
10.0697623995
 20
12.0169277436
 30
0.0
 10
10.0857623989
 20
12.0163402417
 30
0.0
  0
SPLINE
  5
22C
100
AcDbEntity
  8
0
100
AcDbSpline
 62
1
  6
CONTINUOUS
 70
0
 71
3
 72
27
 73
23
 74
0
 42
0.0000001
 43
0.0000001
 44
0.0000000001
 40
0.0
 40
0.0
 40
0.0
 40
0.0
 40
0.0456089342
 40
0.1017430262
 40
0.1578771079
 40
0.2140111896
 40
0.2701452609
 40
0.3262793323
 40
0.3824134037
 40
0.4385474751
 40
0.4946815465
 40
0.5508156179
 40
0.6069496893
 40
0.6630837607
 40
0.7192178321
 40
0.7753519035
 40
0.8314859748
 40
0.8876200462
 40
0.9156870768
 40
0.9437541073
 40
0.9718211482
 40
1.0
 40
1.0
 40
1.0
 40
1.0
 10
10.2657623989
 20
12.0097304736
 30
0.0
 10
10.3177624057
 20
12.0078209205
 30
0.0
 10
10.4337624356
 20
12.0035609596
 30
0.0
 10
10.6137623713
 20
11.9969477114
 30
0.0
 10
10.8057624057
 20
11.9898961664
 30
0.0
 10
10.9977623759
 20
11.9828435162
 30
0.0
 10
11.1897624019
 20
11.9757927042
 30
0.0
 10
11.3817623981
 20
11.9687414
 30
0.0
 10
11.5737623991
 20
11.9616902283
 30
0.0
 10
11.7657623988
 20
11.9546390192
 30
0.0
 10
11.9577623992
 20
11.9475878273
 30
0.0
 10
12.1497623977
 20
11.9405366038
 30
0.0
 10
12.3417624034
 20
11.9334854898
 30
0.0
 10
12.5337623821
 20
11.9264339694
 30
0.0
 10
12.7257624616
 20
11.9193839652
 30
0.0
 10
12.917762165
 20
11.9123283023
 30
0.0
 10
13.1097632716
 20
11.9052937578
 30
0.0
 10
13.2697598242
 20
11.8993659588
 30
0.0
 10
13.3977668306
 20
11.8947707898
 30
0.0
 10
13.4937454981
 20
11.8909254865
 30
0.0
 10
13.5899532379
 20
11.8885992692
 30
0.0
 10
13.6538802432
 20
11.8832352798
 30
0.0
 10
13.6857623989
 20
11.8783737421
 30
0.0
  0
SPLINE
  5
22D
100
AcDbEntity
  8
0
100
AcDbSpline
 62
1
  6
CONTINUOUS
 70
0
 71
3
 72
27
 73
23
 74
0
 42
0.0000001
 43
0.0000001
 44
0.0000000001
 40
0.0
 40
0.0
 40
0.0
 40
0.0
 40
0.0287187
 40
0.0570087448
 40
0.0852917103
 40
0.113564054
 40
0.1700639112
 40
0.2264972526
 40
0.2828680737
 40
0.3391803785
 40
0.3954346719
 40
0.4516303074
 40
0.5077668971
 40
0.5638443583
 40
0.6198629005
 40
0.6758235033
 40
0.7317273152
 40
0.7875755964
 40
0.8433698467
 40
0.8991110093
 40
0.9547971346
 40
1.0
 40
1.0
 40
1.0
 40
1.0
 10
13.6857623989
 20
11.8783737421
 30
0.0
 10
13.6542101624
 20
11.8671939528
 30
0.0
 10
13.5904842881
 20
11.8490964331
 30
0.0
 10
13.4937119792
 20
11.8273911354
 30
0.0
 10
13.3977966727
 20
11.8044968207
 30
0.0
 10
13.2698129849
 20
11.7746819494
 30
0.0
 10
13.1098803074
 20
11.7378164906
 30
0.0
 10
12.917867659
 20
11.6947243056
 30
0.0
 10
12.7258619333
 20
11.6526118656
 30
0.0
 10
12.5338612091
 20
11.6114572775
 30
0.0
 10
12.3418626169
 20
11.5712753435
 30
0.0
 10
12.149863346
 20
11.5321055144
 30
0.0
 10
11.9578635767
 20
11.4939795071
 30
0.0
 10
11.7658634261
 20
11.4569264848
 30
0.0
 10
11.5738617374
 20
11.4209765944
 30
0.0
 10
11.3818598847
 20
11.3861408754
 30
0.0
 10
11.1898578329
 20
11.3524323344
 30
0.0
 10
10.9978553432
 20
11.3198630015
 30
0.0
 10
10.8058533527
 20
11.2884408933
 30
0.0
 10
10.6138572787
 20
11.25816946
 30
0.0
 10
10.4338437469
 20
11.2309666594
 30
0.0
 10
10.3177845541
 20
11.2141786965
 30
0.0
 10
10.2657623989
 20
11.2068147472
 30
0.0
  0
SPLINE
  5
22E
100
AcDbEntity
  8
0
100
AcDbSpline
 62
1
  6
CONTINUOUS
 70
0
 71
3
 72
26
 73
22
 74
0
 42
0.0000001
 43
0.0000001
 44
0.0000000001
 40
0.0
 40
0.0
 40
0.0
 40
0.0
 40
0.0141227891
 40
0.0705759542
 40
0.1269687259
 40
0.1833044603
 40
0.2395873322
 40
0.2958217421
 40
0.3520120012
 40
0.4081621943
 40
0.4642748272
 40
0.5203527108
 40
0.5764001289
 40
0.6324228682
 40
0.6884285245
 40
0.7444263845
 40
0.8004244532
 40
0.8564288016
 40
0.9124437532
 40
0.9684730785
 40
1.0
 40
1.0
 40
1.0
 40
1.0
 10
10.0857623989
 20
11.1819922334
 30
0.0
 10
10.0697645429
 20
11.1798457556
 30
0.0
 10
9.9898075953
 20
11.1691988728
 30
0.0
 10
9.8458655951
 20
11.1507740093
 30
0.0
 10
9.6538595453
 20
11.1279057121
 30
0.0
 10
9.4618525678
 20
11.1067545802
 30
0.0
 10
9.2698450654
 20
11.0873307697
 30
0.0
 10
9.0778378422
 20
11.0696316919
 30
0.0
 10
8.8858306264
 20
11.0536694364
 30
0.0
 10
8.6938267047
 20
11.0394387734
 30
0.0
 10
8.5018220302
 20
11.0270699049
 30
0.0
 10
8.3098147033
 20
11.0167255864
 30
0.0
 10
8.1178048442
 20
11.0085572731
 30
0.0
 10
7.9257919293
 20
11.0027127269
 30
0.0
 10
7.7337755681
 20
10.9993774304
 30
0.0
 10
7.5417618456
 20
10.9983999221
 30
0.0
 10
7.3497515072
 20
10.9995732638
 30
0.0
 10
7.157743925
 20
11.0026951955
 30
0.0
 10
6.9657387756
 20
11.0075943938
 30
0.0
 10
6.8017373999
 20
11.0130510722
 30
0.0
 10
6.7017563195
 20
11.0172971184
 30
0.0
 10
6.6657623989
 20
11.0189734602
 30
0.0
  0
SPLINE
  5
22F
100
AcDbEntity
  8
0
100
AcDbSpline
 62
1
  6
CONTINUOUS
 70
0
 71
3
 72
24
 73
20
 74
0
 42
0.0000001
 43
0.0000001
 44
0.0000000001
 40
0.0
 40
0.0
 40
0.0
 40
0.0
 40
0.0379796877
 40
0.114036895
 40
0.1902915672
 40
0.2668458996
 40
0.3437842577
 40
0.4211747898
 40
0.4991286551
 40
0.5778542285
 40
0.6576234311
 40
0.7387984134
 40
0.7803241269
 40
0.8229428872
 40
0.8673440313
 40
0.9150500853
 40
0.9566439872
 40
0.9784123927
 40
1.0
 40
1.0
 40
1.0
 40
1.0
 10
6.4857623989
 20
11.0287206657
 30
0.0
 10
6.4537518835
 20
11.0307198986
 30
0.0
 10
6.3576667789
 20
11.0371836356
 30
0.0
 10
6.1975160881
 20
11.0505676975
 30
0.0
 10
6.0053835382
 20
11.0717524226
 30
0.0
 10
5.8132798362
 20
11.0991477339
 30
0.0
 10
5.6212027259
 20
11.1327997501
 30
0.0
 10
5.4290725616
 20
11.172476546
 30
0.0
 10
5.2368233287
 20
11.2185771743
 30
0.0
 10
5.0444812906
 20
11.2724175713
 30
0.0
 10
4.852167718
 20
11.3356460212
 30
0.0
 10
4.6920935758
 20
11.3960402067
 30
0.0
 10
4.5645179399
 20
11.4528596092
 30
0.0
 10
4.4678354594
 20
11.5023524906
 30
0.0
 10
4.3702893113
 20
11.5611689629
 30
0.0
 10
4.2802328508
 20
11.6297897514
 30
0.0
 10
4.2125965212
 20
11.6949065743
 30
0.0
 10
4.1622306446
 20
11.7459744665
 30
0.0
 10
4.138266576
 20
11.7737620065
 30
0.0
 10
4.1273511203
 20
11.7883737421
 30
0.0
  0
ENDSEC
  0
SECTION
  2
OBJECTS
  0
DICTIONARY
  5
C
100
AcDbDictionary
280
0
281
1
  3
ACAD_GROUP
350
D
  3
ACAD_MLINESTYLE
350
17
  3
ACAD_LAYOUT
350
1A
  3
ACAD_PLOTSETTINGS
350
19
  3
ACAD_PLOTSTYLENAME
350
E
  0
DICTIONARY
  5
D
102
{ACAD_REACTORS
330
C
102
}
100
AcDbDictionary
280
0
281
1
  0
ACDBDICTIONARYWDFLT
  5
E
102
{ACAD_REACTORS
330
C
102
}
100
AcDbDictionary
281
1
  3
Normal
350
F
100
AcDbDictionaryWithDefault
340
F
  0
DICTIONARY
  5
17
102
{ACAD_REACTORS
330
C
102
}
100
AcDbDictionary
280
0
281
1
  3
Standard
350
18
  0
DICTIONARY
  5
19
102
{ACAD_REACTORS
330
C
102
}
100
AcDbDictionary
281
1
  0
DICTIONARY
  5
1A
102
{ACAD_REACTORS
330
C
102
}
100
AcDbDictionary
281
1
  3
Model
350
230
  3
Layout1
350
231
  0
ACDBPLACEHOLDER
  5
F
102
{ACAD_REACTORS
330
E
102
}
  0
MLINESTYLE
  5
18
102
{ACAD_REACTORS
330
17
102
}
100
AcDbMlineStyle
  2
STANDARD
 70
0
  3

 62
256
 51
90.0
 52
90.0
 71
2
 49
0.5
 62
256
  6
BYLAYER
 49
-0.5
 62
256
  6
BYLAYER
  0
LAYOUT
  5
230
102
{ACAD_REACTORS
330
1A
102
}
100
AcDbPlotSettings
  1

  2
none_device
  4

  6

 40
0.0
 41
0.0
 42
0.0
 43
0.0
 44
800.1
 45
444.5
 46
0.0
 47
0.0
 48
0.0
 49
0.0
140
0.0
141
0.0
142
1.0
143
1.0
 70
1024
 72
0
 73
0
 74
0
  7

 75
0
147
1.0
148
0.0
149
0.0
100
AcDbLayout
  1
Model
 70
0
 71
0
 10
0.0
 20
0.0
 11
31.5
 21
17.5
 12
0.0
 22
0.0
 32
0.0
 14
0.0
 24
0.0
 34
0.0
 15
0.0
 25
0.0
 35
0.0
146
0.0
 13
0.0
 23
0.0
 33
0.0
 16
1.0
 26
0.0
 36
0.0
 17
0.0
 27
1.0
 37
0.0
 76
0
330
207
345
0
346
0
  0
LAYOUT
  5
231
102
{ACAD_REACTORS
330
1A
102
}
100
AcDbPlotSettings
  1

  2
none_device
  4

  6

 40
0.0
 41
0.0
 42
0.0
 43
0.0
 44
800.1
 45
444.5
 46
0.0
 47
0.0
 48
0.0
 49
0.0
140
0.0
141
0.0
142
1.0
143
1.0
 70
0
 72
0
 73
0
 74
0
  7

 75
0
147
1.0
148
0.0
149
0.0
100
AcDbLayout
  1
Layout1
 70
0
 71
1
 10
0.0
 20
0.0
 11
31.5
 21
17.5
 12
0.0
 22
0.0
 32
0.0
 14
0.0
 24
0.0
 34
0.0
 15
0.0
 25
0.0
 35
0.0
146
0.0
 13
0.0
 23
0.0
 33
0.0
 16
1.0
 26
0.0
 36
0.0
 17
0.0
 27
1.0
 37
0.0
 76
0
330
208
345
0
346
0
  0
ENDSEC
  0
EOF
