999
DXF file: fuse_rib.dxf
999
Pro/ENGINEER 2013230 by Parametric Technology Corporation
  0
SECTION
  2
HEADER
  9
$ACADVER
  1
AC1021
  9
$DWGCODEPAGE
  3
ANSI_1252
  9
$EXTMAX
 10
36.0
 20
24.0
 30
0.0
  9
$EXTMIN
 10
0.0
 20
0.0
 30
0.0
  9
$LIMMIN
 10
0.0
 20
0.0
  9
$LIMMAX
 10
36.0
 20
24.0
  9
$VIEWCTR
 10
18.0
 20
12.0
  9
$VIEWSIZE
 40
24.0
  9
$CLAYER
  8
0
  9
$LTSCALE
 40
1.98
  9
$CELTYPE
  6
BYLAYER
  9
$DIMSCALE
 40
1.0
  9
$DIMASZ
 40
0.1875
  9
$DIMEXO
 40
0.0625
  9
$DIMDLI
 40
1.368
  9
$DIMEXE
 40
0.125
  9
$DIMCEN
 40
0.324
  9
$DIMLFAC
 40
1.0
  9
$DIMBLK
  1
_CLOSED
  9
$DIMTXT
 40
0.15625
  9
$DIMTOL
 70
0
  9
$DIMLIM
 70
0
  9
$DIMTFAC
 40
1.0
  9
$DIMGAP
 40
0.09
  9
$DIMDSEP
 70
46
  9
$PDMODE
 70
3
  9
$PDSIZE
 40
0.3125
  9
$HANDSEED
  5
236
  9
$TILEMODE
 70
1
  9
$MEASUREMENT
 70
0
  9
$INSUNITS
 70
1
  0
ENDSEC
  0
SECTION
  2
CLASSES
  0
CLASS
  1
ACDBDICTIONARYWDFLT
  2
AcDbDictionaryWithDefault
  3
AutoCAD 2000
 90
0
 91
1
280
0
281
0
  0
CLASS
  1
ACDBPLACEHOLDER
  2
AcDbPlaceHolder
  3
AutoCAD 2000
 90
0
 91
1
280
0
281
0
  0
CLASS
  1
LAYOUT
  2
AcDbLayout
  3
AutoCAD 2000
 90
0
 91
0
280
0
281
0
  0
ENDSEC
  0
SECTION
  2
TABLES
  0
TABLE
  2
VPORT
  5
8
100
AcDbSymbolTable
 70
2
  0
VPORT
  5
1F4
100
AcDbSymbolTableRecord
100
AcDbViewportTableRecord
  2
*ACTIVE
 70
0
 10
0.0
 20
0.0
 11
1.0
 21
1.0
 12
18.0
 22
12.0
 13
0.0
 23
0.0
 14
1.0
 24
1.0
 15
0.0
 25
0.0
 16
0.0
 26
0.0
 36
1.0
 17
0.0
 27
0.0
 37
0.0
 40
24.0
 41
1.5
 42
50.0
 43
0.0
 44
0.0
 50
0.0
 51
0.0
 71
0
 72
100
 73
1
 74
1
 75
0
 76
0
 77
0
 78
0
  0
ENDTAB
  0
TABLE
  2
LTYPE
  5
5
100
AcDbSymbolTable
 70
6
  0
LTYPE
  5
14
100
AcDbSymbolTableRecord
100
AcDbLinetypeTableRecord
  2
BYBLOCK
 70
0
  3

 72
65
 73
0
 40
0.0
  0
LTYPE
  5
15
100
AcDbSymbolTableRecord
100
AcDbLinetypeTableRecord
  2
BYLAYER
 70
0
  3

 72
65
 73
0
 40
0.0
  0
LTYPE
  5
16
100
AcDbSymbolTableRecord
100
AcDbLinetypeTableRecord
  2
CONTINUOUS
 70
64
  3
Solid line
 72
65
 73
0
 40
0.0
  0
LTYPE
  5
1F5
100
AcDbSymbolTableRecord
100
AcDbLinetypeTableRecord
  2
CENTER
 70
64
  3
____ _ ____ _ ____ _ ____ _ ____ _ ____ _ ____
 72
65
 73
4
 40
0.6
 49
0.375
 74
0
 49
-0.075
 74
0
 49
0.075
 74
0
 49
-0.075
 74
0
  0
LTYPE
  5
1F6
100
AcDbSymbolTableRecord
100
AcDbLinetypeTableRecord
  2
HIDDEN
 70
64
  3
- - - - - - - - - - - - - - - - - - - -
 72
65
 73
2
 40
0.2
 49
0.1
 74
0
 49
-0.1
 74
0
  0
LTYPE
  5
1F7
100
AcDbSymbolTableRecord
100
AcDbLinetypeTableRecord
  2
PHANTOM
 70
64
  3
_____ _ _ _____ _ _ _____ _ _ _____
 72
65
 73
6
 40
0.8
 49
0.45
 74
0
 49
-0.05
 74
0
 49
0.1
 74
0
 49
-0.05
 74
0
 49
0.1
 74
0
 49
-0.05
 74
0
  0
LTYPE
  5
1F8
100
AcDbSymbolTableRecord
100
AcDbLinetypeTableRecord
  2
DOT
 70
64
  3
. . . . . . . . . . . . . . . . . . . .
 72
65
 73
2
 40
0.2
 49
0.1
 74
0
 49
-0.1
 74
0
  0
LTYPE
  5
1F9
100
AcDbSymbolTableRecord
100
AcDbLinetypeTableRecord
  2
DASHED
 70
64
  3
- - - - - - - - - - - - - - - - - - - -
 72
65
 73
2
 40
0.2
 49
0.1
 74
0
 49
-0.1
 74
0
  0
ENDTAB
  0
TABLE
  2
LAYER
  5
2
100
AcDbSymbolTable
 70
36
  0
LAYER
  5
10
100
AcDbSymbolTableRecord
100
AcDbLayerTableRecord
  2
0
 70
0
 62
7
  6
CONTINUOUS
370
-3
390
F
  0
LAYER
  5
1FA
100
AcDbSymbolTableRecord
100
AcDbLayerTableRecord
  2
DEFAULT_1
 70
0
 62
7
  6
CENTER
370
-3
390
F
  0
LAYER
  5
1FB
100
AcDbSymbolTableRecord
100
AcDbLayerTableRecord
  2
DEFAULT_2
 70
0
 62
8
  6
HIDDEN
370
-3
390
F
  0
LAYER
  5
1FC
100
AcDbSymbolTableRecord
100
AcDbLayerTableRecord
  2
DEFAULT_3
 70
0
 62
7
  6
PHANTOM
370
-3
390
F
  0
LAYER
  5
1FD
100
AcDbSymbolTableRecord
100
AcDbLayerTableRecord
  2
01___PRT_ALL_DTM_PLN
 70
0
 62
7
  6
CONTINUOUS
370
-3
390
F
  0
LAYER
  5
1FE
100
AcDbSymbolTableRecord
100
AcDbLayerTableRecord
  2
01___PRT_DEF_DTM_PLN
 70
0
 62
7
  6
CONTINUOUS
370
-3
390
F
  0
LAYER
  5
1FF
100
AcDbSymbolTableRecord
100
AcDbLayerTableRecord
  2
02___PRT_ALL_AXES
 70
0
 62
7
  6
CONTINUOUS
370
-3
390
F
  0
LAYER
  5
200
100
AcDbSymbolTableRecord
100
AcDbLayerTableRecord
  2
03___PRT_ALL_CURVES
 70
0
 62
7
  6
CONTINUOUS
370
-3
390
F
  0
LAYER
  5
201
100
AcDbSymbolTableRecord
100
AcDbLayerTableRecord
  2
04___PRT_ALL_DTM_PNT
 70
0
 62
7
  6
CONTINUOUS
370
-3
390
F
  0
LAYER
  5
202
100
AcDbSymbolTableRecord
100
AcDbLayerTableRecord
  2
05___PRT_ALL_DTM_CSYS
 70
0
 62
7
  6
CONTINUOUS
370
-3
390
F
  0
LAYER
  5
203
100
AcDbSymbolTableRecord
100
AcDbLayerTableRecord
  2
05___PRT_DEF_DTM_CSYS
 70
0
 62
7
  6
CONTINUOUS
370
-3
390
F
  0
LAYER
  5
204
100
AcDbSymbolTableRecord
100
AcDbLayerTableRecord
  2
06___PRT_ALL_SURFS
 70
0
 62
7
  6
CONTINUOUS
370
-3
390
F
  0
ENDTAB
  0
TABLE
  2
STYLE
  5
3
100
AcDbSymbolTable
 70
1
  0
STYLE
  5
11
100
AcDbSymbolTableRecord
100
AcDbTextStyleTableRecord
  2
STANDARD
 70
0
 40
0.0
 41
0.8
 50
0.0
 71
0
 42
0.2
  3
txt
  4

  0
STYLE
  5
205
100
AcDbSymbolTableRecord
100
AcDbTextStyleTableRecord
  2
TEXTSTYLE_1
 70
0
 40
0.0
 41
0.8
 50
0.0
 71
0
 42
0.2
  3
gdt
  4

  0
ENDTAB
  0
TABLE
  2
VIEW
  5
6
100
AcDbSymbolTable
 70
0
  0
ENDTAB
  0
TABLE
  2
UCS
  5
7
100
AcDbSymbolTable
 70
0
  0
ENDTAB
  0
TABLE
  2
APPID
  5
9
100
AcDbSymbolTable
 70
1
  0
APPID
  5
206
100
AcDbSymbolTableRecord
100
AcDbRegAppTableRecord
  2
ACAD
 70
0
  0
ENDTAB
  0
TABLE
  2
BLOCK_RECORD
  5
1
100
AcDbSymbolTable
 70
0
  0
BLOCK_RECORD
  5
207
100
AcDbSymbolTableRecord
100
AcDbBlockTableRecord
  2
*Model_Space
  0
BLOCK_RECORD
  5
208
100
AcDbSymbolTableRecord
100
AcDbBlockTableRecord
  2
*Paper_Space
  0
ENDTAB
  0
TABLE
  2
DIMSTYLE
  5
A
100
AcDbSymbolTable
 70
1
100
AcDbDimStyleTable
 71
0
  0
DIMSTYLE
105
209
100
AcDbSymbolTableRecord
100
AcDbDimStyleTableRecord
  2
STANDARD
 70
0
  3

  4

 40
1.0
 41
0.1875
 42
0.0625
 43
0.38
 44
0.125
 45
0.0
 46
0.0
 47
0.01
 48
0.01
140
0.15625
141
0.09
142
0.0
143
25.4
144
1.0
145
0.0
146
1.0
147
0.09
 71
0.0
 72
0.0
 73
1
 74
1
 75
0
 76
0
 77
0
 78
4
170
0
171
2
172
0
173
0
174
0
175
0
176
0
177
0
178
0
270
2
271
2
272
2
273
2
274
2
275
0
280
0
281
0
282
0
283
1
284
4
285
0
286
0
287
3
288
0
340
11
278
46
  0
ENDTAB
  0
ENDSEC
  0
SECTION
  2
BLOCKS
  0
BLOCK
  5
20
100
AcDbEntity
  8
0
100
AcDbBlockBegin
  2
*Model_Space
 70
0
 10
0.0
 20
0.0
 30
0.0
  3
*Model_Space
  1

  0
ENDBLK
  5
21
100
AcDbEntity
  8
0
100
AcDbBlockEnd
  0
BLOCK
  5
1C
100
AcDbEntity
  8
0
100
AcDbBlockBegin
  2
*Paper_Space
 70
0
 10
0.0
 20
0.0
 30
0.0
  3
*Paper_Space
  1

  0
ENDBLK
  5
1D
100
AcDbEntity
  8
0
100
AcDbBlockEnd
  0
ENDSEC
  0
SECTION
  2
ENTITIES
  0
LINE
  5
20A
100
AcDbEntity
  8
0
100
AcDbLine
 62
1
  6
CONTINUOUS
 10
31.332965074
 20
22.5038082182
 11
31.4462671574
 21
22.6436747185
  0
LINE
  5
20B
100
AcDbEntity
  8
0
100
AcDbLine
 62
1
  6
CONTINUOUS
 10
31.0402692694
 20
21.4017702037
 11
31.0402692694
 21
21.5817702037
  0
LINE
  5
20C
100
AcDbEntity
  8
0
100
AcDbLine
 62
1
  6
CONTINUOUS
 10
31.5191342934
 20
20.254206209
 11
31.4110879951
 21
20.3981714736
  0
LINE
  5
20D
100
AcDbEntity
  8
0
100
AcDbLine
 62
1
  6
CONTINUOUS
 10
32.4752432432
 20
19.7237702037
 11
33.2612432432
 21
19.7237702037
  0
LINE
  5
20E
100
AcDbEntity
  8
0
100
AcDbLine
 62
1
  6
CONTINUOUS
 10
33.2612432432
 20
20.1167702037
 11
32.4752432432
 21
20.1167702037
  0
LINE
  5
20F
100
AcDbEntity
  8
0
100
AcDbLine
 62
1
  6
CONTINUOUS
 10
33.9065712261
 20
20.2417702037
 11
31.8299152604
 21
20.2417702037
  0
LINE
  5
210
100
AcDbEntity
  8
0
100
AcDbLine
 62
1
  6
CONTINUOUS
 10
32.0882432432
 20
22.9297706718
 11
32.0882432432
 21
22.7547706718
  0
LINE
  5
211
100
AcDbEntity
  8
0
100
AcDbLine
 62
1
  6
CONTINUOUS
 10
32.2682432432
 20
22.9297706718
 11
32.2682432432
 21
22.7547706718
  0
LINE
  5
212
100
AcDbEntity
  8
0
100
AcDbLine
 62
1
  6
CONTINUOUS
 10
32.4752432432
 20
20.1167702037
 11
32.4752432432
 21
19.7237702037
  0
LINE
  5
213
100
AcDbEntity
  8
0
100
AcDbLine
 62
1
  6
CONTINUOUS
 10
34.2902193291
 20
22.6436747185
 11
34.4223154682
 21
22.7506822417
  0
LINE
  5
214
100
AcDbEntity
  8
0
100
AcDbLine
 62
1
  6
CONTINUOUS
 10
31.2686291916
 20
20.2912557782
 11
31.4110879951
 21
20.3981714736
  0
LINE
  5
215
100
AcDbEntity
  8
0
100
AcDbLine
 62
1
  6
CONTINUOUS
 10
34.4035214125
 20
22.5038082182
 11
34.5293107619
 21
22.605706781
  0
LINE
  5
216
100
AcDbEntity
  8
0
100
AcDbLine
 62
1
  6
CONTINUOUS
 10
31.383167099
 20
20.1521624828
 11
31.5191342934
 21
20.254206209
  0
LINE
  5
217
100
AcDbEntity
  8
0
100
AcDbLine
 62
1
  6
CONTINUOUS
 10
30.8702692694
 20
21.4017702037
 11
31.0402692694
 21
21.4017702037
  0
LINE
  5
218
100
AcDbEntity
  8
0
100
AcDbLine
 62
1
  6
CONTINUOUS
 10
34.696217217
 20
21.4017702037
 11
34.866217217
 21
21.4017702037
  0
LINE
  5
219
100
AcDbEntity
  8
0
100
AcDbLine
 62
1
  6
CONTINUOUS
 10
34.2173521931
 20
20.254206209
 11
34.3533193875
 21
20.1521624828
  0
LINE
  5
21A
100
AcDbEntity
  8
0
100
AcDbLine
 62
1
  6
CONTINUOUS
 10
31.2071757246
 20
22.605706781
 11
31.332965074
 21
22.5038082182
  0
LINE
  5
21B
100
AcDbEntity
  8
0
100
AcDbLine
 62
1
  6
CONTINUOUS
 10
30.8702692694
 20
21.5817702037
 11
31.0402692694
 21
21.5817702037
  0
LINE
  5
21C
100
AcDbEntity
  8
0
100
AcDbLine
 62
1
  6
CONTINUOUS
 10
34.696217217
 20
21.5817702037
 11
34.866217217
 21
21.5817702037
  0
LINE
  5
21D
100
AcDbEntity
  8
0
100
AcDbLine
 62
1
  6
CONTINUOUS
 10
34.4678572949
 20
20.2912557782
 11
34.3253984914
 21
20.3981714736
  0
LINE
  5
21E
100
AcDbEntity
  8
0
100
AcDbLine
 62
1
  6
CONTINUOUS
 10
31.3141710183
 20
22.7506822417
 11
31.4462671574
 21
22.6436747185
  0
LINE
  5
21F
100
AcDbEntity
  8
0
100
AcDbLine
 62
1
  6
CONTINUOUS
 10
33.2612432432
 20
19.7237702037
 11
33.2612432432
 21
20.1167702037
  0
LINE
  5
220
100
AcDbEntity
  8
0
100
AcDbLine
 62
1
  6
CONTINUOUS
 10
33.4682432432
 20
22.9297706718
 11
33.4682432432
 21
22.7547706718
  0
LINE
  5
221
100
AcDbEntity
  8
0
100
AcDbLine
 62
1
  6
CONTINUOUS
 10
33.6482432432
 20
22.9297706718
 11
33.6482432432
 21
22.7547706718
  0
LINE
  5
222
100
AcDbEntity
  8
0
100
AcDbLine
 62
1
  6
CONTINUOUS
 10
31.6434983719
 20
22.5597706718
 11
34.0929881146
 21
22.5597706718
  0
LINE
  5
223
100
AcDbEntity
  8
0
100
AcDbLine
 62
1
  6
CONTINUOUS
 10
33.6482432432
 20
22.7547706718
 11
33.4682432432
 21
22.7547706718
  0
LINE
  5
224
100
AcDbEntity
  8
0
100
AcDbLine
 62
1
  6
CONTINUOUS
 10
32.0882432432
 20
22.7547706718
 11
32.2682432432
 21
22.7547706718
  0
LINE
  5
225
100
AcDbEntity
  8
0
100
AcDbLine
 62
1
  6
CONTINUOUS
 10
34.2173521931
 20
20.254206209
 11
34.3253984914
 21
20.3981714736
  0
LINE
  5
226
100
AcDbEntity
  8
0
100
AcDbLine
 62
1
  6
CONTINUOUS
 10
34.2582629027
 20
22.9297706718
 11
33.6482432432
 21
22.9297706718
  0
LINE
  5
227
100
AcDbEntity
  8
0
100
AcDbLine
 62
1
  6
CONTINUOUS
 10
33.4682432432
 20
22.9297706718
 11
32.2682432432
 21
22.9297706718
  0
LINE
  5
228
100
AcDbEntity
  8
0
100
AcDbLine
 62
1
  6
CONTINUOUS
 10
32.0882432432
 20
22.9297706718
 11
31.4782235838
 21
22.9297706718
  0
LINE
  5
229
100
AcDbEntity
  8
0
100
AcDbLine
 62
1
  6
CONTINUOUS
 10
34.696217217
 20
21.4017702037
 11
34.696217217
 21
21.5817702037
  0
LINE
  5
22A
100
AcDbEntity
  8
0
100
AcDbLine
 62
1
  6
CONTINUOUS
 10
34.4035214125
 20
22.5038082182
 11
34.2902193291
 21
22.6436747185
  0
ARC
  5
22B
100
AcDbEntity
  8
0
100
AcDbCircle
 62
1
  6
CONTINUOUS
 10
32.8682432432
 20
21.4917702037
 40
2.0
100
AcDbArc
 50
134.0280005155
 51
140.99
  0
ARC
  5
22C
100
AcDbEntity
  8
0
100
AcDbCircle
 62
1
  6
CONTINUOUS
 10
32.8682432432
 20
21.4917702037
 40
2.0
100
AcDbArc
 50
146.1536070908
 51
177.4208189484
  0
ARC
  5
22D
100
AcDbEntity
  8
0
100
AcDbCircle
 62
1
  6
CONTINUOUS
 10
32.8682432432
 20
21.4917702037
 40
2.0
100
AcDbArc
 50
182.5791810516
 51
216.8883213718
  0
ARC
  5
22E
100
AcDbEntity
  8
0
100
AcDbCircle
 62
1
  6
CONTINUOUS
 10
32.8682432432
 20
21.4917702037
 40
2.0
100
AcDbArc
 50
222.0519284627
 51
317.9480715373
  0
ARC
  5
22F
100
AcDbEntity
  8
0
100
AcDbCircle
 62
1
  6
CONTINUOUS
 10
32.8682432432
 20
21.4917702037
 40
2.0
100
AcDbArc
 50
323.1116786282
 51
357.4208189484
  0
ARC
  5
230
100
AcDbEntity
  8
0
100
AcDbCircle
 62
1
  6
CONTINUOUS
 10
32.8682432432
 20
21.4917702037
 40
2.0
100
AcDbArc
 50
2.5791810516
 51
33.8463929092
  0
ARC
  5
231
100
AcDbEntity
  8
0
100
AcDbCircle
 62
1
  6
CONTINUOUS
 10
32.8682432432
 20
21.4917702037
 40
2.0
100
AcDbArc
 50
39.01
 51
45.9719994845
  0
ARC
  5
232
100
AcDbEntity
  8
0
100
AcDbCircle
 62
1
  6
CONTINUOUS
 10
32.8682432432
 20
21.4917702037
 40
1.625
100
AcDbArc
 50
309.7151372318
 51
41.0890378154
  0
ARC
  5
233
100
AcDbEntity
  8
0
100
AcDbCircle
 62
1
  6
CONTINUOUS
 10
32.8682432432
 20
21.4917702037
 40
1.625
100
AcDbArc
 50
138.9109621846
 51
230.2848627682
  0
ENDSEC
  0
SECTION
  2
OBJECTS
  0
DICTIONARY
  5
C
100
AcDbDictionary
280
0
281
1
  3
ACAD_GROUP
350
D
  3
ACAD_MLINESTYLE
350
17
  3
ACAD_LAYOUT
350
1A
  3
ACAD_PLOTSETTINGS
350
19
  3
ACAD_PLOTSTYLENAME
350
E
  0
DICTIONARY
  5
D
102
{ACAD_REACTORS
330
C
102
}
100
AcDbDictionary
280
0
281
1
  0
ACDBDICTIONARYWDFLT
  5
E
102
{ACAD_REACTORS
330
C
102
}
100
AcDbDictionary
281
1
  3
Normal
350
F
100
AcDbDictionaryWithDefault
340
F
  0
DICTIONARY
  5
17
102
{ACAD_REACTORS
330
C
102
}
100
AcDbDictionary
280
0
281
1
  3
Standard
350
18
  0
DICTIONARY
  5
19
102
{ACAD_REACTORS
330
C
102
}
100
AcDbDictionary
281
1
  0
DICTIONARY
  5
1A
102
{ACAD_REACTORS
330
C
102
}
100
AcDbDictionary
281
1
  3
Model
350
234
  3
Layout1
350
235
  0
ACDBPLACEHOLDER
  5
F
102
{ACAD_REACTORS
330
E
102
}
  0
MLINESTYLE
  5
18
102
{ACAD_REACTORS
330
17
102
}
100
AcDbMlineStyle
  2
STANDARD
 70
0
  3

 62
256
 51
90.0
 52
90.0
 71
2
 49
0.5
 62
256
  6
BYLAYER
 49
-0.5
 62
256
  6
BYLAYER
  0
LAYOUT
  5
234
102
{ACAD_REACTORS
330
1A
102
}
100
AcDbPlotSettings
  1

  2
none_device
  4

  6

 40
0.0
 41
0.0
 42
0.0
 43
0.0
 44
914.4
 45
609.6
 46
0.0
 47
0.0
 48
0.0
 49
0.0
140
0.0
141
0.0
142
1.0
143
1.0
 70
1024
 72
0
 73
0
 74
0
  7

 75
0
147
1.0
148
0.0
149
0.0
100
AcDbLayout
  1
Model
 70
0
 71
0
 10
0.0
 20
0.0
 11
36.0
 21
24.0
 12
0.0
 22
0.0
 32
0.0
 14
0.0
 24
0.0
 34
0.0
 15
0.0
 25
0.0
 35
0.0
146
0.0
 13
0.0
 23
0.0
 33
0.0
 16
1.0
 26
0.0
 36
0.0
 17
0.0
 27
1.0
 37
0.0
 76
0
330
207
345
0
346
0
  0
LAYOUT
  5
235
102
{ACAD_REACTORS
330
1A
102
}
100
AcDbPlotSettings
  1

  2
none_device
  4

  6

 40
0.0
 41
0.0
 42
0.0
 43
0.0
 44
914.4
 45
609.6
 46
0.0
 47
0.0
 48
0.0
 49
0.0
140
0.0
141
0.0
142
1.0
143
1.0
 70
0
 72
0
 73
0
 74
0
  7

 75
0
147
1.0
148
0.0
149
0.0
100
AcDbLayout
  1
Layout1
 70
0
 71
1
 10
0.0
 20
0.0
 11
36.0
 21
24.0
 12
0.0
 22
0.0
 32
0.0
 14
0.0
 24
0.0
 34
0.0
 15
0.0
 25
0.0
 35
0.0
146
0.0
 13
0.0
 23
0.0
 33
0.0
 16
1.0
 26
0.0
 36
0.0
 17
0.0
 27
1.0
 37
0.0
 76
0
330
208
345
0
346
0
  0
ENDSEC
  0
EOF
