999
DXF file: wing_rib.dxf
999
Pro/ENGINEER 2013230 by Parametric Technology Corporation
  0
SECTION
  2
HEADER
  9
$ACADVER
  1
AC1021
  9
$DWGCODEPAGE
  3
ANSI_1252
  9
$EXTMAX
 10
31.5
 20
17.5
 30
0.0
  9
$EXTMIN
 10
0.0
 20
0.0
 30
0.0
  9
$LIMMIN
 10
0.0
 20
0.0
  9
$LIMMAX
 10
31.5
 20
17.5
  9
$VIEWCTR
 10
15.75
 20
8.75
  9
$VIEWSIZE
 40
17.5
  9
$CLAYER
  8
0
  9
$LTSCALE
 40
1.7325
  9
$CELTYPE
  6
BYLAYER
  9
$DIMSCALE
 40
1.0
  9
$DIMASZ
 40
0.1875
  9
$DIMEXO
 40
0.0625
  9
$DIMDLI
 40
1.197
  9
$DIMEXE
 40
0.125
  9
$DIMCEN
 40
0.2835
  9
$DIMLFAC
 40
1.0
  9
$DIMBLK
  1
_CLOSED
  9
$DIMTXT
 40
0.15625
  9
$DIMTOL
 70
0
  9
$DIMLIM
 70
0
  9
$DIMTFAC
 40
1.0
  9
$DIMGAP
 40
0.09
  9
$DIMDSEP
 70
46
  9
$PDMODE
 70
3
  9
$PDSIZE
 40
0.3125
  9
$HANDSEED
  5
229
  9
$TILEMODE
 70
1
  9
$MEASUREMENT
 70
0
  9
$INSUNITS
 70
1
  0
ENDSEC
  0
SECTION
  2
CLASSES
  0
CLASS
  1
ACDBDICTIONARYWDFLT
  2
AcDbDictionaryWithDefault
  3
AutoCAD 2000
 90
0
 91
1
280
0
281
0
  0
CLASS
  1
ACDBPLACEHOLDER
  2
AcDbPlaceHolder
  3
AutoCAD 2000
 90
0
 91
1
280
0
281
0
  0
CLASS
  1
LAYOUT
  2
AcDbLayout
  3
AutoCAD 2000
 90
0
 91
0
280
0
281
0
  0
ENDSEC
  0
SECTION
  2
TABLES
  0
TABLE
  2
VPORT
  5
8
100
AcDbSymbolTable
 70
2
  0
VPORT
  5
1F4
100
AcDbSymbolTableRecord
100
AcDbViewportTableRecord
  2
*ACTIVE
 70
0
 10
0.0
 20
0.0
 11
1.0
 21
1.0
 12
15.75
 22
8.75
 13
0.0
 23
0.0
 14
1.0
 24
1.0
 15
0.0
 25
0.0
 16
0.0
 26
0.0
 36
1.0
 17
0.0
 27
0.0
 37
0.0
 40
17.5
 41
1.8
 42
50.0
 43
0.0
 44
0.0
 50
0.0
 51
0.0
 71
0
 72
100
 73
1
 74
1
 75
0
 76
0
 77
0
 78
0
  0
ENDTAB
  0
TABLE
  2
LTYPE
  5
5
100
AcDbSymbolTable
 70
6
  0
LTYPE
  5
14
100
AcDbSymbolTableRecord
100
AcDbLinetypeTableRecord
  2
BYBLOCK
 70
0
  3

 72
65
 73
0
 40
0.0
  0
LTYPE
  5
15
100
AcDbSymbolTableRecord
100
AcDbLinetypeTableRecord
  2
BYLAYER
 70
0
  3

 72
65
 73
0
 40
0.0
  0
LTYPE
  5
16
100
AcDbSymbolTableRecord
100
AcDbLinetypeTableRecord
  2
CONTINUOUS
 70
64
  3
Solid line
 72
65
 73
0
 40
0.0
  0
LTYPE
  5
1F5
100
AcDbSymbolTableRecord
100
AcDbLinetypeTableRecord
  2
CENTER
 70
64
  3
____ _ ____ _ ____ _ ____ _ ____ _ ____ _ ____
 72
65
 73
4
 40
0.6
 49
0.375
 74
0
 49
-0.075
 74
0
 49
0.075
 74
0
 49
-0.075
 74
0
  0
LTYPE
  5
1F6
100
AcDbSymbolTableRecord
100
AcDbLinetypeTableRecord
  2
HIDDEN
 70
64
  3
- - - - - - - - - - - - - - - - - - - -
 72
65
 73
2
 40
0.2
 49
0.1
 74
0
 49
-0.1
 74
0
  0
LTYPE
  5
1F7
100
AcDbSymbolTableRecord
100
AcDbLinetypeTableRecord
  2
PHANTOM
 70
64
  3
_____ _ _ _____ _ _ _____ _ _ _____
 72
65
 73
6
 40
0.8
 49
0.45
 74
0
 49
-0.05
 74
0
 49
0.1
 74
0
 49
-0.05
 74
0
 49
0.1
 74
0
 49
-0.05
 74
0
  0
LTYPE
  5
1F8
100
AcDbSymbolTableRecord
100
AcDbLinetypeTableRecord
  2
DOT
 70
64
  3
. . . . . . . . . . . . . . . . . . . .
 72
65
 73
2
 40
0.2
 49
0.1
 74
0
 49
-0.1
 74
0
  0
LTYPE
  5
1F9
100
AcDbSymbolTableRecord
100
AcDbLinetypeTableRecord
  2
DASHED
 70
64
  3
- - - - - - - - - - - - - - - - - - - -
 72
65
 73
2
 40
0.2
 49
0.1
 74
0
 49
-0.1
 74
0
  0
ENDTAB
  0
TABLE
  2
LAYER
  5
2
100
AcDbSymbolTable
 70
36
  0
LAYER
  5
10
100
AcDbSymbolTableRecord
100
AcDbLayerTableRecord
  2
0
 70
0
 62
7
  6
CONTINUOUS
370
-3
390
F
  0
LAYER
  5
1FA
100
AcDbSymbolTableRecord
100
AcDbLayerTableRecord
  2
DEFAULT_1
 70
0
 62
7
  6
CENTER
370
-3
390
F
  0
LAYER
  5
1FB
100
AcDbSymbolTableRecord
100
AcDbLayerTableRecord
  2
DEFAULT_2
 70
0
 62
8
  6
HIDDEN
370
-3
390
F
  0
LAYER
  5
1FC
100
AcDbSymbolTableRecord
100
AcDbLayerTableRecord
  2
DEFAULT_3
 70
0
 62
7
  6
PHANTOM
370
-3
390
F
  0
LAYER
  5
1FD
100
AcDbSymbolTableRecord
100
AcDbLayerTableRecord
  2
01___PRT_ALL_DTM_PLN
 70
0
 62
7
  6
CONTINUOUS
370
-3
390
F
  0
LAYER
  5
1FE
100
AcDbSymbolTableRecord
100
AcDbLayerTableRecord
  2
01___PRT_DEF_DTM_PLN
 70
0
 62
7
  6
CONTINUOUS
370
-3
390
F
  0
LAYER
  5
1FF
100
AcDbSymbolTableRecord
100
AcDbLayerTableRecord
  2
02___PRT_ALL_AXES
 70
0
 62
7
  6
CONTINUOUS
370
-3
390
F
  0
LAYER
  5
200
100
AcDbSymbolTableRecord
100
AcDbLayerTableRecord
  2
03___PRT_ALL_CURVES
 70
0
 62
7
  6
CONTINUOUS
370
-3
390
F
  0
LAYER
  5
201
100
AcDbSymbolTableRecord
100
AcDbLayerTableRecord
  2
04___PRT_ALL_DTM_PNT
 70
0
 62
7
  6
CONTINUOUS
370
-3
390
F
  0
LAYER
  5
202
100
AcDbSymbolTableRecord
100
AcDbLayerTableRecord
  2
05___PRT_ALL_DTM_CSYS
 70
0
 62
7
  6
CONTINUOUS
370
-3
390
F
  0
LAYER
  5
203
100
AcDbSymbolTableRecord
100
AcDbLayerTableRecord
  2
05___PRT_DEF_DTM_CSYS
 70
0
 62
7
  6
CONTINUOUS
370
-3
390
F
  0
LAYER
  5
204
100
AcDbSymbolTableRecord
100
AcDbLayerTableRecord
  2
06___PRT_ALL_SURFS
 70
0
 62
7
  6
CONTINUOUS
370
-3
390
F
  0
ENDTAB
  0
TABLE
  2
STYLE
  5
3
100
AcDbSymbolTable
 70
1
  0
STYLE
  5
11
100
AcDbSymbolTableRecord
100
AcDbTextStyleTableRecord
  2
STANDARD
 70
0
 40
0.0
 41
0.8
 50
0.0
 71
0
 42
0.2
  3
txt
  4

  0
STYLE
  5
205
100
AcDbSymbolTableRecord
100
AcDbTextStyleTableRecord
  2
TEXTSTYLE_1
 70
0
 40
0.0
 41
0.8
 50
0.0
 71
0
 42
0.2
  3
gdt
  4

  0
ENDTAB
  0
TABLE
  2
VIEW
  5
6
100
AcDbSymbolTable
 70
0
  0
ENDTAB
  0
TABLE
  2
UCS
  5
7
100
AcDbSymbolTable
 70
0
  0
ENDTAB
  0
TABLE
  2
APPID
  5
9
100
AcDbSymbolTable
 70
1
  0
APPID
  5
206
100
AcDbSymbolTableRecord
100
AcDbRegAppTableRecord
  2
ACAD
 70
0
  0
ENDTAB
  0
TABLE
  2
BLOCK_RECORD
  5
1
100
AcDbSymbolTable
 70
0
  0
BLOCK_RECORD
  5
207
100
AcDbSymbolTableRecord
100
AcDbBlockTableRecord
  2
*Model_Space
  0
BLOCK_RECORD
  5
208
100
AcDbSymbolTableRecord
100
AcDbBlockTableRecord
  2
*Paper_Space
  0
ENDTAB
  0
TABLE
  2
DIMSTYLE
  5
A
100
AcDbSymbolTable
 70
1
100
AcDbDimStyleTable
 71
0
  0
DIMSTYLE
105
209
100
AcDbSymbolTableRecord
100
AcDbDimStyleTableRecord
  2
STANDARD
 70
0
  3

  4

 40
1.0
 41
0.1875
 42
0.0625
 43
0.38
 44
0.125
 45
0.0
 46
0.0
 47
0.01
 48
0.01
140
0.15625
141
0.09
142
0.0
143
25.4
144
1.0
145
0.0
146
1.0
147
0.09
 71
0.0
 72
0.0
 73
1
 74
1
 75
0
 76
0
 77
0
 78
4
170
0
171
2
172
0
173
0
174
0
175
0
176
0
177
0
178
0
270
2
271
2
272
2
273
2
274
2
275
0
280
0
281
0
282
0
283
1
284
4
285
0
286
0
287
3
288
0
340
11
278
46
  0
ENDTAB
  0
ENDSEC
  0
SECTION
  2
BLOCKS
  0
BLOCK
  5
20
100
AcDbEntity
  8
0
100
AcDbBlockBegin
  2
*Model_Space
 70
0
 10
0.0
 20
0.0
 30
0.0
  3
*Model_Space
  1

  0
ENDBLK
  5
21
100
AcDbEntity
  8
0
100
AcDbBlockEnd
  0
BLOCK
  5
1C
100
AcDbEntity
  8
0
100
AcDbBlockBegin
  2
*Paper_Space
 70
0
 10
0.0
 20
0.0
 30
0.0
  3
*Paper_Space
  1

  0
ENDBLK
  5
1D
100
AcDbEntity
  8
0
100
AcDbBlockEnd
  0
ENDSEC
  0
SECTION
  2
ENTITIES
  0
LINE
  5
20A
100
AcDbEntity
  8
0
100
AcDbLine
 62
1
  6
CONTINUOUS
 10
21.5656860225
 20
15.987780782
 11
21.5656860225
 21
16.167780782
  0
LINE
  5
20B
100
AcDbEntity
  8
0
100
AcDbLine
 62
1
  6
CONTINUOUS
 10
23.7661540337
 20
16.9274338584
 11
23.7661540337
 21
16.7574338584
  0
LINE
  5
20C
100
AcDbEntity
  8
0
100
AcDbLine
 62
1
  6
CONTINUOUS
 10
23.9461540337
 20
16.7574338584
 11
23.9461540337
 21
16.9371810639
  0
LINE
  5
20D
100
AcDbEntity
  8
0
100
AcDbLine
 62
1
  6
CONTINUOUS
 10
25.0118872979
 20
16.225938239
 11
25.0118872979
 21
16.6287313088
  0
LINE
  5
20E
100
AcDbEntity
  8
0
100
AcDbLine
 62
1
  6
CONTINUOUS
 10
25.3661540337
 20
16.0363300271
 11
25.3661540337
 21
15.8663300271
  0
LINE
  5
20F
100
AcDbEntity
  8
0
100
AcDbLine
 62
1
  6
CONTINUOUS
 10
25.5461540337
 20
15.8729253783
 11
25.5461540337
 21
16.0363300271
  0
LINE
  5
210
100
AcDbEntity
  8
0
100
AcDbLine
 62
1
  6
CONTINUOUS
 10
21.3956860225
 20
15.987780782
 11
21.5656860225
 21
15.987780782
  0
LINE
  5
211
100
AcDbEntity
  8
0
100
AcDbLine
 62
1
  6
CONTINUOUS
 10
25.5461540337
 20
16.0363300271
 11
25.3661540337
 21
16.0363300271
  0
LINE
  5
212
100
AcDbEntity
  8
0
100
AcDbLine
 62
1
  6
CONTINUOUS
 10
25.908468789
 20
16.5697903948
 11
25.908468789
 21
16.2467105604
  0
LINE
  5
213
100
AcDbEntity
  8
0
100
AcDbLine
 62
1
  6
CONTINUOUS
 10
21.5656860225
 20
16.167780782
 11
21.4077427551
 21
16.167780782
  0
LINE
  5
214
100
AcDbEntity
  8
0
100
AcDbLine
 62
1
  6
CONTINUOUS
 10
22.817606544
 20
16.175938239
 11
24.9618872979
 21
16.175938239
  0
LINE
  5
215
100
AcDbEntity
  8
0
100
AcDbLine
 62
1
  6
CONTINUOUS
 10
25.958468789
 20
16.1967105604
 11
27.5065596621
 21
16.1967105604
  0
LINE
  5
216
100
AcDbEntity
  8
0
100
AcDbLine
 62
1
  6
CONTINUOUS
 10
27.3661540337
 20
16.5793397769
 11
27.5461540337
 21
16.5793397769
  0
LINE
  5
217
100
AcDbEntity
  8
0
100
AcDbLine
 62
1
  6
CONTINUOUS
 10
27.5167743704
 20
16.2956560376
 11
25.9686834973
 21
16.618735872
  0
LINE
  5
218
100
AcDbEntity
  8
0
100
AcDbLine
 62
1
  6
CONTINUOUS
 10
24.9526564795
 20
16.6778718419
 11
22.8083757256
 21
16.2750787721
  0
LINE
  5
219
100
AcDbEntity
  8
0
100
AcDbLine
 62
1
  6
CONTINUOUS
 10
23.7661540337
 20
16.7574338584
 11
23.9461540337
 21
16.7574338584
  0
LINE
  5
21A
100
AcDbEntity
  8
0
100
AcDbLine
 62
1
  6
CONTINUOUS
 10
27.3661540337
 20
16.7741622907
 11
27.3661540337
 21
16.5793397769
  0
LINE
  5
21B
100
AcDbEntity
  8
0
100
AcDbLine
 62
1
  6
CONTINUOUS
 10
27.5461540337
 20
16.5793397769
 11
27.5461540337
 21
16.7493397769
  0
ARC
  5
21C
100
AcDbEntity
  8
0
100
AcDbCircle
 62
1
  6
CONTINUOUS
 10
22.817606544
 20
16.225938239
 40
0.05
100
AcDbArc
 50
100.6387666095
 51
270.0
  0
ARC
  5
21D
100
AcDbEntity
  8
0
100
AcDbCircle
 62
1
  6
CONTINUOUS
 10
24.9618872979
 20
16.6287313088
 40
0.05
100
AcDbArc
 50
0.0
 51
100.6387666095
  0
ARC
  5
21E
100
AcDbEntity
  8
0
100
AcDbCircle
 62
1
  6
CONTINUOUS
 10
24.9618872979
 20
16.225938239
 40
0.05
100
AcDbArc
 50
270.0
 51
360.0
  0
ARC
  5
21F
100
AcDbEntity
  8
0
100
AcDbCircle
 62
1
  6
CONTINUOUS
 10
27.5065596621
 20
16.2467105604
 40
0.05
100
AcDbArc
 50
270.0
 51
78.2118167009
  0
ARC
  5
220
100
AcDbEntity
  8
0
100
AcDbCircle
 62
1
  6
CONTINUOUS
 10
25.958468789
 20
16.2467105604
 40
0.05
100
AcDbArc
 50
180.0
 51
270.0
  0
ARC
  5
221
100
AcDbEntity
  8
0
100
AcDbCircle
 62
1
  6
CONTINUOUS
 10
25.958468789
 20
16.5697903948
 40
0.05
100
AcDbArc
 50
78.2118167009
 51
180.0
  0
SPLINE
  5
222
100
AcDbEntity
  8
0
100
AcDbSpline
 62
1
  6
CONTINUOUS
 70
0
 71
3
 72
38
 73
34
 74
0
 42
0.0000001
 43
0.0000001
 44
0.0000000001
 40
0.0
 40
0.0
 40
0.0
 40
0.0
 40
0.0081175043
 40
0.0435394115
 40
0.0789613969
 40
0.1143833823
 40
0.1498053025
 40
0.1852271642
 40
0.220648987
 40
0.2560707968
 40
0.2914926
 40
0.3269144228
 40
0.3623362585
 40
0.3977581008
 40
0.433179956
 40
0.4686018047
 40
0.5040236535
 40
0.5394454957
 40
0.5748673379
 40
0.6102891802
 40
0.6457110224
 40
0.6811328647
 40
0.7165547069
 40
0.7519765491
 40
0.7873983914
 40
0.8228202336
 40
0.8582420758
 40
0.8936639181
 40
0.9290857603
 40
0.9467966782
 40
0.9645075961
 40
0.9822185204
 40
1.0
 40
1.0
 40
1.0
 40
1.0
 10
25.5461540337
 20
15.8729253783
 30
0.0
 10
25.5608207071
 20
15.8734637712
 30
0.0
 10
25.6394874983
 20
15.8763525585
 30
0.0
 10
25.7821542533
 20
15.8815997763
 30
0.0
 10
25.974154033
 20
15.8886742431
 30
0.0
 10
26.1661538408
 20
15.8957485844
 30
0.0
 10
26.3581538773
 20
15.9028106373
 30
0.0
 10
26.5501539242
 20
15.9098644043
 30
0.0
 10
26.7421540061
 20
15.9169117748
 30
0.0
 10
26.9341540074
 20
15.9239584595
 30
0.0
 10
27.1261540963
 20
15.9310027566
 30
0.0
 10
27.3181540677
 20
15.9380515359
 30
0.0
 10
27.5101540463
 20
15.9451020399
 30
0.0
 10
27.7021540786
 20
15.9521526814
 30
0.0
 10
27.8941540062
 20
15.9592068127
 30
0.0
 10
28.0861540405
 20
15.9662583577
 30
0.0
 10
28.2781540108
 20
15.9733110079
 30
0.0
 10
28.4701540368
 20
15.9803618199
 30
0.0
 10
28.6621540329
 20
15.9874131241
 30
0.0
 10
28.854154034
 20
15.9944642958
 30
0.0
 10
29.0461540336
 20
16.0015155049
 30
0.0
 10
29.2381540341
 20
16.0085666967
 30
0.0
 10
29.4301540325
 20
16.0156179203
 30
0.0
 10
29.6221540382
 20
16.0226690343
 30
0.0
 10
29.814154017
 20
16.0297205547
 30
0.0
 10
30.0061540964
 20
16.0367705589
 30
0.0
 10
30.1981537999
 20
16.0438262217
 30
0.0
 10
30.3901549065
 20
16.0508607663
 30
0.0
 10
30.5501514591
 20
16.0567885653
 30
0.0
 10
30.6781584655
 20
16.0613837343
 30
0.0
 10
30.7741371329
 20
16.0652290376
 30
0.0
 10
30.8703448728
 20
16.0675552549
 30
0.0
 10
30.9342718781
 20
16.0729192443
 30
0.0
 10
30.9661540337
 20
16.077780782
 30
0.0
  0
SPLINE
  5
223
100
AcDbEntity
  8
0
100
AcDbSpline
 62
1
  6
CONTINUOUS
 70
0
 71
3
 72
27
 73
23
 74
0
 42
0.0000001
 43
0.0000001
 44
0.0000000001
 40
0.0
 40
0.0
 40
0.0
 40
0.0
 40
0.0287187
 40
0.0570087448
 40
0.0852917103
 40
0.113564054
 40
0.1700639112
 40
0.2264972526
 40
0.2828680737
 40
0.3391803785
 40
0.3954346719
 40
0.4516303074
 40
0.5077668971
 40
0.5638443583
 40
0.6198629005
 40
0.6758235033
 40
0.7317273152
 40
0.7875755964
 40
0.8433698467
 40
0.8991110093
 40
0.9547971346
 40
1.0
 40
1.0
 40
1.0
 40
1.0
 10
30.9661540337
 20
16.077780782
 30
0.0
 10
30.9346017972
 20
16.0889605712
 30
0.0
 10
30.870875923
 20
16.107058091
 30
0.0
 10
30.7741036141
 20
16.1287633887
 30
0.0
 10
30.6781883076
 20
16.1516577034
 30
0.0
 10
30.5502046198
 20
16.1814725746
 30
0.0
 10
30.3902719422
 20
16.2183380335
 30
0.0
 10
30.1982592939
 20
16.2614302184
 30
0.0
 10
30.0062535682
 20
16.3035426585
 30
0.0
 10
29.814252844
 20
16.3446972466
 30
0.0
 10
29.6222542518
 20
16.3848791805
 30
0.0
 10
29.4302549808
 20
16.4240490097
 30
0.0
 10
29.2382552116
 20
16.462175017
 30
0.0
 10
29.046255061
 20
16.4992280392
 30
0.0
 10
28.8542533722
 20
16.5351779297
 30
0.0
 10
28.6622515196
 20
16.5700136487
 30
0.0
 10
28.4702494677
 20
16.6037221897
 30
0.0
 10
28.278246978
 20
16.6362915226
 30
0.0
 10
28.0862449875
 20
16.6677136308
 30
0.0
 10
27.8942489135
 20
16.6979850641
 30
0.0
 10
27.7142353817
 20
16.7251878647
 30
0.0
 10
27.598176189
 20
16.7419758276
 30
0.0
 10
27.5461540337
 20
16.7493397769
 30
0.0
  0
SPLINE
  5
224
100
AcDbEntity
  8
0
100
AcDbSpline
 62
1
  6
CONTINUOUS
 70
0
 71
3
 72
26
 73
22
 74
0
 42
0.0000001
 43
0.0000001
 44
0.0000000001
 40
0.0
 40
0.0
 40
0.0
 40
0.0
 40
0.0141227891
 40
0.0705759542
 40
0.1269687259
 40
0.1833044603
 40
0.2395873322
 40
0.2958217421
 40
0.3520120012
 40
0.4081621943
 40
0.4642748272
 40
0.5203527108
 40
0.5764001289
 40
0.6324228682
 40
0.6884285245
 40
0.7444263845
 40
0.8004244532
 40
0.8564288016
 40
0.9124437532
 40
0.9684730785
 40
1.0
 40
1.0
 40
1.0
 40
1.0
 10
27.3661540337
 20
16.7741622907
 30
0.0
 10
27.3501561777
 20
16.7763087685
 30
0.0
 10
27.2701992302
 20
16.7869556513
 30
0.0
 10
27.1262572299
 20
16.8053805147
 30
0.0
 10
26.9342511801
 20
16.828248812
 30
0.0
 10
26.7422442026
 20
16.8493999439
 30
0.0
 10
26.5502367002
 20
16.8688237544
 30
0.0
 10
26.358229477
 20
16.8865228322
 30
0.0
 10
26.1662222612
 20
16.9024850877
 30
0.0
 10
25.9742183395
 20
16.9167157507
 30
0.0
 10
25.782213665
 20
16.9290846192
 30
0.0
 10
25.5902063381
 20
16.9394289377
 30
0.0
 10
25.398196479
 20
16.947597251
 30
0.0
 10
25.2061835641
 20
16.9534417972
 30
0.0
 10
25.0141672029
 20
16.9567770937
 30
0.0
 10
24.8221534804
 20
16.957754602
 30
0.0
 10
24.6301431421
 20
16.9565812603
 30
0.0
 10
24.4381355599
 20
16.9534593286
 30
0.0
 10
24.2461304104
 20
16.9485601303
 30
0.0
 10
24.0821290347
 20
16.9431034519
 30
0.0
 10
23.9821479543
 20
16.9388574056
 30
0.0
 10
23.9461540337
 20
16.9371810639
 30
0.0
  0
SPLINE
  5
225
100
AcDbEntity
  8
0
100
AcDbSpline
 62
1
  6
CONTINUOUS
 70
0
 71
3
 72
24
 73
20
 74
0
 42
0.0000001
 43
0.0000001
 44
0.0000000001
 40
0.0
 40
0.0
 40
0.0
 40
0.0
 40
0.0379796877
 40
0.114036895
 40
0.1902915672
 40
0.2668458996
 40
0.3437842577
 40
0.4211747898
 40
0.4991286551
 40
0.5778542285
 40
0.6576234311
 40
0.7387984134
 40
0.7803241269
 40
0.8229428872
 40
0.8673440313
 40
0.9150500853
 40
0.9566439872
 40
0.9784123927
 40
1.0
 40
1.0
 40
1.0
 40
1.0
 10
23.7661540337
 20
16.9274338584
 30
0.0
 10
23.7341435184
 20
16.9254346255
 30
0.0
 10
23.6380584137
 20
16.9189708884
 30
0.0
 10
23.4779077229
 20
16.9055868266
 30
0.0
 10
23.285775173
 20
16.8844021015
 30
0.0
 10
23.093671471
 20
16.8570067902
 30
0.0
 10
22.9015943607
 20
16.823354774
 30
0.0
 10
22.7094641965
 20
16.7836779781
 30
0.0
 10
22.5172149635
 20
16.7375773498
 30
0.0
 10
22.3248729254
 20
16.6837369528
 30
0.0
 10
22.1325593529
 20
16.6205085029
 30
0.0
 10
21.9724852106
 20
16.5601143174
 30
0.0
 10
21.8449095747
 20
16.5032949149
 30
0.0
 10
21.7482270943
 20
16.4538020335
 30
0.0
 10
21.6506809462
 20
16.3949855612
 30
0.0
 10
21.5606244856
 20
16.3263647727
 30
0.0
 10
21.4929881561
 20
16.2612479497
 30
0.0
 10
21.4426222794
 20
16.2101800576
 30
0.0
 10
21.4186582109
 20
16.1823925176
 30
0.0
 10
21.4077427551
 20
16.167780782
 30
0.0
  0
SPLINE
  5
226
100
AcDbEntity
  8
0
100
AcDbSpline
 62
1
  6
CONTINUOUS
 70
0
 71
3
 72
33
 73
29
 74
0
 42
0.0000001
 43
0.0000001
 44
0.0000000001
 40
0.0
 40
0.0
 40
0.0
 40
0.0
 40
0.003502305
 40
0.0166598434
 40
0.0281895747
 40
0.0488946171
 40
0.0734640354
 40
0.0978257634
 40
0.1220287925
 40
0.1460953013
 40
0.1940547399
 40
0.2419587026
 40
0.2898326074
 40
0.3376906595
 40
0.3855441309
 40
0.4334001187
 40
0.4812623701
 40
0.5291320696
 40
0.577008994
 40
0.624891897
 40
0.6727787052
 40
0.7206668569
 40
0.7685540771
 40
0.8164401837
 40
0.8643255612
 40
0.9122105729
 40
0.9600955933
 40
1.0
 40
1.0
 40
1.0
 40
1.0
 10
21.3956860225
 20
15.987780782
 30
0.0
 10
21.3985218684
 20
15.9840458405
 30
0.0
 10
21.4126200034
 20
15.9667339197
 30
0.0
 10
21.4404806713
 20
15.9409923654
 30
0.0
 10
21.4909395864
 20
15.9068392802
 30
0.0
 10
21.5625399893
 20
15.8791735318
 30
0.0
 10
21.6538816498
 20
15.8607834202
 30
0.0
 10
21.7498113588
 20
15.8416974691
 30
0.0
 10
21.8458808412
 20
15.8270348395
 30
0.0
 10
21.9738974462
 20
15.8134727978
 30
0.0
 10
22.1340727494
 20
15.8042468009
 30
0.0
 10
22.3260876839
 20
15.7951485788
 30
0.0
 10
22.5181242245
 20
15.7896510197
 30
0.0
 10
22.7101449269
 20
15.7870503166
 30
0.0
 10
22.9021595524
 20
15.7869859496
 30
0.0
 10
23.0941668742
 20
15.7890258292
 30
0.0
 10
23.2861691103
 20
15.7927741395
 30
0.0
 10
23.4781686332
 20
15.79782576
 30
0.0
 10
23.6701661188
 20
15.8038867833
 30
0.0
 10
23.8621619125
 20
15.8106715995
 30
0.0
 10
24.0541567554
 20
15.8178885529
 30
0.0
 10
24.2461518114
 20
15.8252505467
 30
0.0
 10
24.4381517938
 20
15.8324585949
 30
0.0
 10
24.6301525787
 20
15.8395448955
 30
0.0
 10
24.8221532955
 20
15.846552432
 30
0.0
 10
25.0141540566
 20
15.8535187088
 30
0.0
 10
25.1954878916
 20
15.8600997419
 30
0.0
 10
25.3128208589
 20
15.8643801507
 30
0.0
 10
25.3661540337
 20
15.8663300271
 30
0.0
  0
ENDSEC
  0
SECTION
  2
OBJECTS
  0
DICTIONARY
  5
C
100
AcDbDictionary
280
0
281
1
  3
ACAD_GROUP
350
D
  3
ACAD_MLINESTYLE
350
17
  3
ACAD_LAYOUT
350
1A
  3
ACAD_PLOTSETTINGS
350
19
  3
ACAD_PLOTSTYLENAME
350
E
  0
DICTIONARY
  5
D
102
{ACAD_REACTORS
330
C
102
}
100
AcDbDictionary
280
0
281
1
  0
ACDBDICTIONARYWDFLT
  5
E
102
{ACAD_REACTORS
330
C
102
}
100
AcDbDictionary
281
1
  3
Normal
350
F
100
AcDbDictionaryWithDefault
340
F
  0
DICTIONARY
  5
17
102
{ACAD_REACTORS
330
C
102
}
100
AcDbDictionary
280
0
281
1
  3
Standard
350
18
  0
DICTIONARY
  5
19
102
{ACAD_REACTORS
330
C
102
}
100
AcDbDictionary
281
1
  0
DICTIONARY
  5
1A
102
{ACAD_REACTORS
330
C
102
}
100
AcDbDictionary
281
1
  3
Model
350
227
  3
Layout1
350
228
  0
ACDBPLACEHOLDER
  5
F
102
{ACAD_REACTORS
330
E
102
}
  0
MLINESTYLE
  5
18
102
{ACAD_REACTORS
330
17
102
}
100
AcDbMlineStyle
  2
STANDARD
 70
0
  3

 62
256
 51
90.0
 52
90.0
 71
2
 49
0.5
 62
256
  6
BYLAYER
 49
-0.5
 62
256
  6
BYLAYER
  0
LAYOUT
  5
227
102
{ACAD_REACTORS
330
1A
102
}
100
AcDbPlotSettings
  1

  2
none_device
  4

  6

 40
0.0
 41
0.0
 42
0.0
 43
0.0
 44
800.1
 45
444.5
 46
0.0
 47
0.0
 48
0.0
 49
0.0
140
0.0
141
0.0
142
1.0
143
1.0
 70
1024
 72
0
 73
0
 74
0
  7

 75
0
147
1.0
148
0.0
149
0.0
100
AcDbLayout
  1
Model
 70
0
 71
0
 10
0.0
 20
0.0
 11
31.5
 21
17.5
 12
0.0
 22
0.0
 32
0.0
 14
0.0
 24
0.0
 34
0.0
 15
0.0
 25
0.0
 35
0.0
146
0.0
 13
0.0
 23
0.0
 33
0.0
 16
1.0
 26
0.0
 36
0.0
 17
0.0
 27
1.0
 37
0.0
 76
0
330
207
345
0
346
0
  0
LAYOUT
  5
228
102
{ACAD_REACTORS
330
1A
102
}
100
AcDbPlotSettings
  1

  2
none_device
  4

  6

 40
0.0
 41
0.0
 42
0.0
 43
0.0
 44
800.1
 45
444.5
 46
0.0
 47
0.0
 48
0.0
 49
0.0
140
0.0
141
0.0
142
1.0
143
1.0
 70
0
 72
0
 73
0
 74
0
  7

 75
0
147
1.0
148
0.0
149
0.0
100
AcDbLayout
  1
Layout1
 70
0
 71
1
 10
0.0
 20
0.0
 11
31.5
 21
17.5
 12
0.0
 22
0.0
 32
0.0
 14
0.0
 24
0.0
 34
0.0
 15
0.0
 25
0.0
 35
0.0
146
0.0
 13
0.0
 23
0.0
 33
0.0
 16
1.0
 26
0.0
 36
0.0
 17
0.0
 27
1.0
 37
0.0
 76
0
330
208
345
0
346
0
  0
ENDSEC
  0
EOF
